<svg width="142" height="59" fill="none" xmlns="http://www.w3.org/2000/svg"><path fill-rule="evenodd" clip-rule="evenodd" d="M27.035 1.053h-4.616l-4.002.001c-5.198 0-10.396.002-15.594-.011a4.13 4.13 0 0 0-1.518.269c-.517.202-1.004.51-1.004 1.216C.308 10.81.308 19.09.295 27.371c0 .445.15.564.57.563 3.148-.013 6.296-.017 9.443 0 .522.003.636-.21.623-.68a31.988 31.988 0 0 1-.002-1.27c.007-.595.014-1.19-.025-1.781-.05-.753.236-.903.928-.896 2.06.022 4.121.02 6.182.018 1.134 0 2.268-.001 3.402.002.389 0 .72-.028.714-.522-.003-.315-.004-.63-.005-.946-.003-.939-.006-1.878-.075-2.811-.036-.5.089-.548.508-.543 1.09.014 2.18.013 3.271.012h1.415l1.359-.003c1.156-.003 2.313-.007 3.468.026.814.023 1.013-.086 1.017-.898l.006-.732c.008-.821.016-1.643-.02-2.462-.027-.608.193-.756.77-.752 1.794.012 3.589.012 5.384.011 1.566 0 3.131 0 4.697.007.51.003.698-.124.694-.673-.023-3.17-.017-6.34-.011-9.51l.001-.711c0-.346-.105-.604-.32-.89-.59-.78-1.43-.866-2.275-.868-4.993-.012-9.986-.01-14.98-.01zM44.612 30.13c-.003-.726-.006-1.453-.006-2.179v-1.577c-.001-2.455-.002-4.911.002-7.367v-.052c.003-.33.004-.603-.484-.601-3.455.013-6.91.011-10.366.005-.366 0-.493.132-.488.504.006.447-.002.896-.01 1.344-.014.831-.028 1.662.045 2.486.06.668-.185.667-.647.666h-.027c-1.174-.004-2.348-.004-3.522-.003-1.998.002-3.995.003-5.992-.019-.661-.007-.86.187-.829.837.026.515.02 1.032.013 1.55a25.35 25.35 0 0 0 .014 1.572c.034.665-.148.888-.85.88-1.769-.02-3.539-.02-5.309-.019-1.377.001-2.755.002-4.133-.008-.559-.004-.748.17-.729.73.018.503.013 1.007.01 1.511-.005.585-.01 1.17.019 1.754.033.666-.196.842-.843.836-1.618-.016-3.236-.016-4.854-.016-1.53 0-3.059 0-4.589-.012-.595-.006-.754.176-.748.763.02 2.049.02 4.098.019 6.147 0 .98 0 1.959.002 2.938 0 .233.006.48.077.697.764 2.347 2.247 4.17 4.2 5.624 1.05.782 2.14 1.5 3.295 2.139.421.233.847.46 1.273.685.776.412 1.552.823 2.3 1.28.42.256.864.46 1.306.663.433.199.865.397 1.27.643 1.01.612 2.064 1.138 3.117 1.663.39.195.781.39 1.17.59l.65.33c.874.44 1.748.881 2.567 1.42.177.117.351.133.538.151l.062.007c.909.093 1.632-.355 2.332-.789.187-.115.371-.23.557-.333a83.252 83.252 0 0 1 2.209-1.164c.7-.36 1.401-.72 2.092-1.1a86.415 86.415 0 0 1 3.193-1.64c1.262-.627 2.524-1.253 3.746-1.95 1.853-1.056 3.707-2.147 5.273-3.64 1.17-1.116 2.147-2.377 2.65-3.91.424-1.293.534-2.66.6-4.028.04-.852-.025-1.697-.09-2.542-.056-.73-.113-1.459-.1-2.192.027-1.758.021-3.516.015-5.274zM132.91 1.257c.525.24 1.071.368 1.616.383.608-.01 1.147-.175 1.671-.403.248-.108.414-.265.286-.545-.118-.26-.281-.173-.448-.084l-.08.041c-.929.448-1.865.467-2.794.006l-.04-.02c-.213-.107-.406-.204-.535.109-.126.308.09.407.324.513zM77.373 6.693c.431 1.757 1.541 2.59 3.37 2.6a3.509 3.509 0 0 0 1.797-.375c.304-.155.56-.427.375-.728-.162-.261-.325-.103-.472.039a.861.861 0 0 1-.148.125c-1.622.928-3.21.352-3.808-1.405-.341-1-.315-2.003.022-2.995.624-1.834 2.35-2.378 3.879-1.2.356.274.466.182.588-.172.157-.455-.123-.585-.47-.696-1.553-.495-3.038-.387-4.24.774-1.147 1.109-1.255 2.563-.893 4.033zm20.266-1.476c.048-.356-.005-.732-.098-1.1-.27-1.069-1.085-1.827-2.091-1.967-1.048-.144-2.028.264-2.49 1.13-.624 1.167-.846 2.41-.435 3.704.322 1.013 1.013 1.654 2.073 1.804 1.125.16 1.976-.284 2.543-1.285.401-.708.484-1.473.498-2.286zm-2.699 4.08c-2.203-.003-3.633-1.523-3.611-3.837.021-2.268 1.57-3.847 3.762-3.834 2.185.012 3.64 1.472 3.648 3.66.008 2.416-1.505 4.013-3.799 4.01zm8.331-5.567v-.268c0-.216.001-.432-.001-.648l.001-.08c.004-.152.008-.327-.135-.362-.528-.131-1.082-.152-1.593.043-.39.149-.609.498-.659.931-.094.808.396 1.53 1.197 1.759.907.258 1.192.046 1.19-.882V3.73zm.993 1.805-.001.878c-.001.724-.002 1.449.004 2.174.003.353-.065.597-.497.6-.428.005-.512-.228-.507-.587.01-.804.009-1.609.004-2.413 0-.034.002-.07.005-.106.012-.154.024-.318-.183-.37-.172-.042-.27.098-.356.22l-.028.04c-.515.712-1.026 1.427-1.537 2.143l-.322.451c-.037.05-.069.105-.102.16a1.115 1.115 0 0 1-.228.299c-.325.262-.788.29-1.052.073-.22-.182-.04-.354.127-.516.059-.056.115-.11.153-.163a89.97 89.97 0 0 1 1.774-2.394c.24-.312.205-.452-.17-.61-.67-.28-1.262-.685-1.421-1.466-.263-1.286.553-2.18 1.998-2.188.286-.002.571.012.857.027.305.015.61.03.915.026.44-.006.579.182.572.599-.011.743-.009 1.486-.007 2.229l.002.894zm21.724.446-.002.003-.001.001h-.001v.001c-.317.4-.634.798-.952 1.196l-.166-.066V5.95a2034.673 2034.673 0 0 0 .001-3.588c.005-.274.011-.537-.425-.553-.495-.02-.494.278-.493.61v2.723c-.001 1.141-.001 2.282.001 3.423 0 .04-.003.083-.007.126-.013.177-.027.367.168.444.206.082.316-.081.415-.227.024-.036.048-.07.072-.1.718-.896 1.433-1.794 2.147-2.692h.001v-.001h.001v-.001l.001-.001.001-.002c.58-.728 1.16-1.457 1.741-2.184.023-.028.042-.061.062-.096.073-.125.153-.261.409-.193v1.27c0 1.196-.001 2.397.002 3.598l-.002.116c-.008.287-.017.57.458.572.523 0 .521-.315.519-.669v-.048c-.001-.572.001-1.143.002-1.715v-.001c.003-1.203.007-2.405-.016-3.607a2.15 2.15 0 0 1 .04-.384c.058-.365.118-.748-.275-.897-.449-.17-.664.19-.866.53-.068.112-.133.222-.206.31a229.192 229.192 0 0 0-2.628 3.267h-.001zm-40.863 14.22c.017 1.631.326 3.171 1.592 4.325 1.394 1.272 3.453 1.31 5.117.183.058-.04.122-.104.187-.171.178-.182.371-.38.524-.129a.831.831 0 0 1-.349 1.153c-.847.469-1.759.7-2.712.729-3.593.112-5.703-1.815-6.047-5.494-.35-3.74 1.9-6.523 5.525-6.775 1.193-.082 2.346.201 3.455.654.217.088.42.188.367.44l-.026.128c-.067.327-.138.671-.324.919-.102.136-.238-.02-.361-.161-.041-.047-.081-.093-.117-.125-1.376-1.222-3.173-1.443-4.65-.495-1.561 1.002-2.046 2.583-2.18 4.323-.008.112-.006.225-.003.338l.002.158zm19.978 2.856.681-.838h.001c.495-.609.991-1.218 1.482-1.83 1.509-1.881 3.017-3.763 4.514-5.653.235-.296.478-.57.879-.443.319.102.294.366.269.612-.006.064-.012.128-.012.186.004 1.292.003 2.583.003 3.875 0 2.137 0 4.275.016 6.413.004.597-.189.76-.77.765-.582.004-.719-.21-.715-.747.021-2.459.015-4.917.009-7.376v-.001l-.001-.428c0-.048.009-.102.018-.157.027-.166.056-.342-.149-.4-.179-.05-.273.105-.361.25-.029.047-.056.093-.086.13-1.499 1.891-2.994 3.784-4.489 5.676l-.003.004-.004.005-.004.005-1.966 2.488a3.52 3.52 0 0 0-.08.105c-.089.119-.178.239-.294.318-.295.202-.542.178-.595-.246a1.255 1.255 0 0 1-.006-.204l.001-.047v-.033l-.01-2.575V22.86l-.03-8.086c-.001-.293.051-.58.417-.468.118.036.266.01.416-.017.325-.058.653-.116.671.468.024.755.018 1.51.012 2.266-.002.333-.005.665-.005.998v4.955l.191.08zm-45.284-2.874c0-.51.003-1.019.006-1.528a95.387 95.387 0 0 0-.024-3.726c-.02-.647.308-.642.649-.636.096.002.193.003.283-.01.529-.075.563.26.562.66-.008 2.484-.007 4.97-.003 7.454 0 .045-.007.095-.013.145-.02.148-.042.304.108.374.209.098.301-.059.387-.204.026-.043.051-.086.079-.12 1.662-2.067 3.32-4.138 4.979-6.209l1.234-1.541.028-.036c.08-.099.158-.198.242-.293a.655.655 0 0 1 .706-.215c.27.075.263.293.257.499l-.001.09v3.262c0 2.44 0 4.878.01 7.318.003.547-.272.608-.713.603-.449-.004-.77-.02-.766-.626.024-2.627.013-5.254 0-7.881 0-.053.01-.113.02-.174.03-.184.064-.382-.165-.442-.157-.041-.257.117-.353.267-.03.048-.06.095-.09.134l-3.395 4.31-3.149 3.998c-.03.038-.06.08-.09.122-.14.2-.289.411-.56.33-.285-.086-.258-.33-.233-.557.007-.064.014-.127.013-.185-.007-1.305-.006-2.61-.005-3.916v-1.267h-.003zm12.216-1.47v.001a436.455 436.455 0 0 0 0 2.915c.004 1.262.007 2.524-.014 3.785-.01.553.14.74.719.73.576-.01.792-.157.776-.766-.022-.782-.018-1.563-.015-2.345v-.001c.002-.709.005-1.417-.01-2.126-.011-.52.134-.71.673-.696 1.727.043 3.454.059 5.18.05.502-.004.66.17.652.657-.01.697-.01 1.394-.008 2.091.001.817.003 1.635-.015 2.452-.012.536.156.712.69.675.054-.004.108-.006.16-.008.396-.017.71-.031.705-.661a744.687 744.687 0 0 1-.002-10.506c.004-.588-.233-.702-.763-.701-.563 0-.813.136-.79.754.028.805.023 1.612.02 2.419-.003.4-.005.8-.003 1.2v.06c.004.272.007.524-.4.526-1.842.01-3.684.025-5.526.042-.468.004-.582-.237-.572-.676.013-.566.01-1.133.008-1.7-.003-.64-.005-1.28.014-1.92.018-.59-.237-.695-.761-.707-.56-.012-.743.157-.733.723.023 1.244.019 2.489.015 3.733zm44.06 27.142.174.032.214.54c.169.43.339.861.511 1.29.113.284.073.413-.281.449-1.528.153-1.572.11-1.034-1.282.091-.236.188-.47.284-.705l.132-.324zm-2.465 4.539-.445 1.077-.938-1.166-.007-.01-2.045-2.54c-.218-.27-.051-.444.119-.62l.04-.043.361-.38c.627-.664 1.255-1.327 1.879-1.993a.965.965 0 0 1 .093-.085c.118-.099.245-.204.13-.367-.139-.197-.405-.129-.592-.053-.164.067-.304.217-.428.354-.371.411-.741.825-1.11 1.238l-.001.001v.001h-.001v.001h-.001v.001h-.001v.001h-.001v.001h-.001v.001h-.001v.001c-.353.396-.706.79-1.061 1.184-.023.025-.044.055-.066.086-.076.107-.158.221-.314.156-.148-.062-.135-.2-.122-.33.004-.039.008-.076.007-.11a59.849 59.849 0 0 1 0-1.988c.008-.362.009-.659-.493-.654-.48.005-.513.27-.511.646a470.83 470.83 0 0 1-.003 6.176c-.003.397.058.623.528.623.487 0 .483-.28.478-.602l-.001-.061c-.006-.664-.004-1.328-.003-1.993v-.789c.743.667 1.35 1.351 1.871 2.096l.117.168c.529.768 1.038 1.506 2.199 1.112.022-.007.05.007.079.02a.292.292 0 0 0 .054.023c.369.088.589-.058.687-.42.065-.24.142-.477.219-.713l.011-.033c.558-1.716.564-1.716 2.301-1.72h.05c.475 0 .747.137.888.6.105.346.225.686.346 1.027.108.306.216.611.313.92.142.452.462.402.758.356.065-.01.129-.02.189-.025.321-.023.221-.277.143-.477l-.006-.014-.433-1.1c-.721-1.834-1.442-3.667-2.169-5.497a1.32 1.32 0 0 1-.028-.076c-.054-.151-.114-.321-.321-.322-.201 0-.251.153-.3.3a1.39 1.39 0 0 1-.035.101l-.736 1.801-.001.002-.001.004c-.255.624-.509 1.247-.765 1.87-.3.734-.602 1.466-.919 2.233zm10.624-36.173c.601-.191.917.25 1.23.82a60.954 60.954 0 0 0 3.246 5.246c.317.458.46.43.675-.063.523-1.205 1.058-2.405 1.593-3.605l.818-1.842c.017-.039.033-.08.048-.121h.001c.062-.166.126-.337.306-.377.272-.06.605-.105.824.065.219.17.098.358-.016.532-.033.052-.067.103-.09.152-1.026 2.189-2.056 4.376-3.085 6.562l-.005.011-.003.006-1.826 3.88a2.174 2.174 0 0 0-.051.12c-.067.16-.134.324-.306.387-.315.116-.71.185-.954-.01-.225-.18-.081-.363.057-.538.05-.064.099-.126.129-.187.402-.803.817-1.6 1.242-2.392.162-.302.163-.544-.033-.848-1.412-2.197-2.809-4.405-4.206-6.612l-.323-.51c-.033-.053-.079-.104-.125-.155-.122-.133-.246-.27-.148-.448.09-.165.243-.13.399-.096.088.02.176.04.256.025.042-.008.087-.007.164-.005.047.001.106.003.183.003zM73.441 46.358l.274-.693.258.644c.226.56.42 1.046.61 1.533.043.112.028.269-.117.282-.512.048-1.03.089-1.537-.021-.132-.029-.104-.187-.059-.301.18-.458.362-.915.571-1.444zm4.65 4.487a26.935 26.935 0 0 1 2.064-5.093l.442 1.2 1.048 2.842.04.109c.168.45.334.902.515 1.348.169.416.552.364.849.268.284-.093.184-.288.094-.463-.022-.044-.044-.086-.06-.126a833.433 833.433 0 0 0-2.372-6.15 1.871 1.871 0 0 1-.049-.15c-.065-.219-.135-.455-.452-.449-.307.007-.375.232-.441.45a1.968 1.968 0 0 1-.053.157c-.398.99-.793 1.982-1.189 2.974v.002c-.401 1.005-.801 2.009-1.204 3.012a1.043 1.043 0 0 0-.036.117c-.04.144-.081.3-.28.282-.145-.014-.177-.146-.208-.272-.01-.043-.02-.086-.035-.123l-1.069-2.697v-.003h-.001v-.003h-.001v-.002c-.46-1.165-.92-2.328-1.385-3.49-.018-.047-.032-.1-.046-.153-.047-.181-.097-.376-.342-.362-.197.01-.25.187-.3.352-.015.048-.03.094-.046.136a853.023 853.023 0 0 0-2.627 6.429c-.015.038-.042.08-.07.125-.1.157-.218.342.09.448.316.109.582.044.697-.369.118-.425.262-.843.406-1.261.087-.253.173-.505.254-.76.108-.337.3-.492.675-.479.452.017.794.012 1.058.008.435-.007.656-.01.802.092.15.105.223.323.37.765.077.231.174.524.314.895l.013.033c.192.511.287.761.468.896.173.129.427.15.925.193l.116.01c.64.056.858-.16 1.026-.738zm17.976-15.641-.002.896c-.003.742-.005 1.484.008 2.225.007.43-.153.576-.584.572-1.94-.02-3.88-.019-5.82-.006-.423.003-.592-.142-.59-.573.012-2.014.007-4.028.002-6.042v-.202c-.001-.334.019-.613.467-.623.464-.011.47.285.47.612 0 .535.002 1.07.004 1.605.004 1.31.008 2.62-.015 3.928-.008.508.144.66.637.648.246-.006.453-.006.626-.006h.001c.473 0 .699 0 .803-.112.096-.103.09-.3.08-.678-.006-.183-.012-.408-.01-.685.01-.857.008-1.715.006-2.573a234.42 234.42 0 0 1 0-1.967c0-.054-.003-.11-.007-.167-.018-.29-.037-.593.452-.605.504-.013.49.299.476.598-.002.05-.005.099-.005.146l.004.794c.006 1.509.012 3.018-.015 4.527-.01.542.116.747.701.735l.089-.002c1.257-.025 1.257-.025 1.257-1.351V35.6c0-1.152.001-2.304-.001-3.457V32.1c-.002-.325-.003-.586.497-.596.49-.01.48.249.47.52-.002.043-.004.087-.004.13.005.733.004 1.465.004 2.198l-.001.853zm23.402-13.307v-1.232h-.002l.002-1.334v-.001c.004-1.165.008-2.33-.013-3.493-.009-.473.136-.639.6-.612.345.02.691.027 1.037.034.34.007.68.013 1.02.033l.042.002.054.004c.286.022.53.04.534-.4.003-.384-.067-.631-.539-.629-2.391.013-4.782.012-7.173-.002-.483-.003-.517.26-.529.634-.014.44.19.508.57.471a25.28 25.28 0 0 1 1.057-.072c.355-.019.71-.038 1.064-.072.576-.056.766.13.76.741-.016 1.589-.014 3.178-.013 4.767.002 1.583.003 3.165-.012 4.748-.008.711.359.662.713.614.14-.018.277-.037.389-.008.444.112.441-.233.438-.525v-.072c.002-1.199.002-2.397.001-3.596zm17.383-1.258c0-.448-.004-.895-.007-1.342-.009-1.092-.019-2.183.027-3.272.03-.71-.236-.861-.849-.801-.37.036-.741.058-1.112.08-.313.018-.627.037-.94.064-.329.029-.564 0-.545-.42l.001-.026.002-.048c.011-.317.021-.602.489-.601 2.438.005 4.876.004 7.314-.005.416-.001.409.236.401.476-.001.057-.003.115.001.17.025.348-.126.428-.472.399-.344-.03-.691-.037-1.037-.044a15.09 15.09 0 0 1-1.088-.049c-.595-.055-.704.197-.701.733.017 2.336.015 4.671.013 7.006l-.002 2.295c0 .75-.579 1.127-1.273.828-.242-.104-.232-.307-.223-.503l.003-.113c-.003-1.236-.003-2.472-.002-3.709V20.64zm-39.798-1.34c.004.446.007.892.007 1.338h-.002v1.171c0 1.218-.001 2.435.003 3.653 0 .038-.002.077-.004.117-.01.194-.021.395.217.502.683.307 1.246-.073 1.246-.839l.001-2.205c.002-2.386.004-4.773-.011-7.16-.004-.486.125-.69.634-.654.342.023.684.03 1.026.036.367.007.734.014 1.099.042.369.028.526-.069.531-.445.006-.36-.072-.587-.502-.585-2.389.01-4.778.016-7.167.001-.495-.003-.504.27-.516.635-.015.439.184.506.567.465.35-.037.701-.057 1.053-.077.332-.019.664-.038.995-.07.618-.063.877.1.85.802-.044 1.09-.035 2.181-.027 3.273zm-1.3 28.524c0 .194.004.388.007.582.007.443.015.886-.017 1.325-.045.637.24.741.76.582 1.021-.311 1.714-1.393 1.666-2.596-.049-1.232-.807-2.183-1.894-2.425-.387-.086-.527.04-.525.413.003.44.003.88.003 1.321v.798zm-.93.038h-.002c0-.207-.003-.413-.005-.62-.006-.48-.011-.96.013-1.438.026-.534-.175-.659-.671-.55-1.143.249-1.84 1.282-1.789 2.704.042 1.177.924 2.256 1.944 2.405.37.055.526-.055.516-.443-.013-.483-.01-.966-.008-1.45l.002-.608zm4.482.012c-.003 1.55-1.132 2.797-2.736 3.015l-.135.015c-.287.03-.54.056-.686.463-.119.333-.668.357-.783.02-.145-.427-.413-.45-.7-.476-.06-.005-.121-.01-.183-.02-1.274-.194-2.365-1.143-2.621-2.282-.302-1.339.12-2.541 1.14-3.271.371-.267.797-.399 1.228-.524.105-.03.213-.046.322-.062.314-.045.626-.09.815-.482.099-.204.586-.195.682.03.158.368.432.402.71.436.077.009.154.018.229.035 1.791.396 2.723 1.456 2.718 3.103zm3.09.651-.776.969-.19-.066V44.84l.002-.065c.009-.308.018-.602-.486-.614-.524-.013-.521.282-.518.631l.001.063c.004 1.076.004 2.151.005 3.227 0 .958 0 1.916.003 2.874.001.047-.005.097-.01.148-.02.19-.042.393.208.458.198.051.31-.11.414-.257.023-.034.046-.067.07-.097l1.724-2.184.002-.003c.698-.886 1.396-1.772 2.096-2.655.022-.029.042-.06.063-.094.077-.124.16-.258.395-.216V47.358c0 1.213.001 2.428-.003 3.643-.001.332.002.607.468.603.412-.003.525-.177.523-.56-.008-1.373-.007-2.747-.007-4.12V44.73l.002-.09c.007-.182.014-.373-.229-.439-.25-.067-.391.108-.526.278-.486.611-.971 1.222-1.458 1.831l-1.761 2.199-.001.002-.001.001-.002.002-.001.002-.001.001-.002.002-.001.002-.001.001-.002.002zm37.917-2.542-.265.318c-.192.23-.384.46-.569.695-.413.524-.824 1.048-1.235 1.573h-.001v.001c-.668.852-1.335 1.704-2.008 2.552-.033.041-.064.09-.095.14-.112.178-.232.369-.481.28-.216-.077-.191-.277-.167-.465.008-.058.015-.116.015-.168-.008-1.986-.006-3.973-.004-5.96 0-.048-.002-.098-.004-.147-.012-.325-.025-.645.514-.638.529.008.499.317.471.614a2.026 2.026 0 0 0-.013.2c.008.807.008 1.614.008 2.42v.006c0 .54 0 1.079.002 1.618a.911.911 0 0 1-.007.1c-.014.134-.029.278.151.313.118.024.187-.08.253-.177.018-.027.036-.054.055-.078l.761-.958c.952-1.199 1.903-2.397 2.857-3.593a2.41 2.41 0 0 0 .082-.108c.142-.196.294-.404.584-.32.304.087.274.323.246.544a1.214 1.214 0 0 0-.016.184c.006 1.082.006 2.164.006 3.246 0 .928 0 1.857.004 2.785.002.363.001.645-.5.645-.488 0-.486-.277-.483-.596l.001-.065c.003-1.203.003-2.406.002-3.609v-1.278l-.164-.074zm-54.178 2.525-.822 1.025c-.164-.185-.156-.333-.148-.467a1.42 1.42 0 0 0 .003-.082l-.002-1.017c-.003-1.056-.005-2.112.004-3.169.003-.37-.008-.647-.506-.635-.45.01-.472.256-.47.603.005 1.156.005 2.312.006 3.468 0 .925 0 1.85.004 2.775 0 .04-.005.084-.01.129-.016.171-.035.356.193.414.204.051.304-.1.4-.245.025-.038.05-.076.076-.11l1.34-1.698v-.002h.001v-.002h.001l.001-.001v-.001h.001v-.001l.001-.001.001-.001v-.001h.001l.002-.002c.78-.99 1.559-1.98 2.342-2.967.034-.043.065-.098.096-.154.09-.162.184-.332.394-.256.166.06.14.238.115.407-.009.06-.018.12-.017.172.009 1.466.01 2.932 0 4.398-.002.354.116.527.492.514.296-.011.512-.065.511-.424V48.86c0-1.428 0-2.855-.008-4.282-.003-.476-.291-.507-.611-.267-.133.099-.236.239-.338.378-.04.054-.079.108-.12.16L86.18 48.45l-.012.016-.014.016-.016.02-.003.005zm46.606-2.576-.619.786-1.549 1.965-.6.76-.003.005c-.473.6-.945 1.2-1.419 1.799l-.024.03-.032.043c-.109.15-.226.31-.445.213-.169-.074-.155-.237-.141-.39.003-.043.007-.084.007-.122l-.001-2.136c.001-1.394.001-2.789-.007-4.183-.002-.352.086-.528.467-.536.393-.008.546.133.54.54a223.95 223.95 0 0 0-.008 4.099v.09c0 .038-.005.08-.01.122-.019.15-.039.312.162.358.139.032.219-.089.294-.202a1.13 1.13 0 0 1 .064-.091l1.909-2.388 1.636-2.048c.028-.035.055-.073.083-.111.159-.215.327-.444.643-.313.234.097.208.313.183.519-.008.063-.016.125-.015.182.004 1.078.004 2.156.004 3.234v.007c0 .931 0 1.863.002 2.795v.018c.001.348.002.63-.497.63-.485.001-.481-.27-.476-.576l.001-.086c.004-1.42.005-2.84 0-4.26 0-.04.002-.08.004-.122.008-.188.017-.392-.153-.63zm-12.46 1.003-.001.895c0 .293.003.585.006.878.007.7.014 1.402-.018 2.1-.028.612.206.768.778.756 1.174-.025 2.349-.018 3.523-.011l.876.005c.17 0 .339.021.509.042l.192.023c.063.007.125.057.186.106.114.093.225.184.337-.02.128-.232.188-.636-.094-.764-.37-.168-.362-.424-.354-.698l.001-.031.001-.03v-.94c-.001-1.481-.002-2.962.004-4.442v-.01c.002-.379.003-.706-.532-.688-.46.016-.447.295-.434.57.002.047.004.094.004.14l-.003.833a285.53 285.53 0 0 0 .007 4.628c.005.465-.138.627-.604.612a32.294 32.294 0 0 0-2.695.005c-.59.031-.713-.203-.705-.74.017-1.083.016-2.165.014-3.248-.001-.715-.002-1.429.003-2.143.002-.378-.047-.654-.517-.653-.492.001-.493.31-.489.67.008.719.006 1.437.005 2.155zm-8.922-10.103.43-.532.931-1.153c.874-1.088 1.747-2.177 2.619-3.267l.035-.045.001-.001c.137-.175.279-.356.535-.285.259.073.246.279.234.476-.002.041-.005.082-.005.122l.001 2.51c0 1.198 0 2.397.003 3.595v.013c0 .35.001.646-.501.637-.478-.008-.474-.29-.469-.593l.001-.088.001-.858c.001-1.157.002-2.315-.005-3.473 0-.038.006-.081.012-.125.02-.148.041-.309-.161-.353-.137-.03-.212.089-.282.202-.023.035-.045.07-.068.1l-1.243 1.574c-.816 1.035-1.632 2.07-2.454 3.1-.034.044-.066.094-.099.145-.116.18-.24.372-.473.308-.256-.071-.228-.296-.202-.504.007-.061.015-.122.014-.176-.009-1.791-.007-3.582-.005-5.374v-.003l.001-.587-.002-.12c-.009-.284-.018-.558.458-.561.518-.004.514.298.51.629l-.001.03v.057c-.002 1.102-.002 2.204-.001 3.306v1.225l.185.069zm-2.8-1.597-.001.812.001 2.168v.065c.003.317.006.62-.476.614-.465-.006-.457-.295-.449-.58v-.001l.002-.067v-.056l-.001-.087c-.005-.751-.011-1.503.007-2.254.01-.406-.104-.614-.558-.603-.969.022-1.94.017-2.909 0-.421-.007-.597.141-.584.58.017.547.015 1.095.013 1.644-.001.28-.002.559 0 .838.002.307-.027.571-.433.587-.435.017-.503-.24-.503-.591.005-2.058.006-4.115 0-6.173-.001-.346.044-.619.482-.612.45.007.457.31.453.639-.002.227 0 .453.002.68v.001c.003.365.006.729-.009 1.092-.018.455.148.634.615.622a53.21 53.21 0 0 1 2.839 0c.404.01.551-.13.54-.527a36.1 36.1 0 0 1-.006-1.091c.002-.299.003-.597-.001-.895-.006-.344.095-.527.484-.52.376.007.497.173.495.522-.006.766-.005 1.532-.004 2.298l.001.895zM90.144 6.291l-.002-.795-.001-.857c-.002-.73-.003-1.46.005-2.19.004-.37-.011-.65-.508-.638-.494.012-.503.305-.496.665.004.25.003.5.001.75-.002.34-.004.681.01 1.021.018.428-.144.591-.575.583a49.79 49.79 0 0 0-2.836.008c-.44.017-.595-.132-.583-.557.01-.363.009-.726.008-1.09-.001-.298-.002-.596.003-.894.006-.318-.1-.482-.445-.486-.342-.004-.535.095-.533.478.007 2.126.008 4.253.002 6.38 0 .352.128.515.496.523.39.01.483-.185.478-.525-.004-.351-.002-.703-.001-1.054.002-.5.004-.999-.01-1.498-.012-.421.118-.592.562-.58a50.59 50.59 0 0 0 2.836.002c.478-.013.617.18.6.63a32.343 32.343 0 0 0-.003 2.127c.002.07-.005.147-.011.225-.026.32-.054.66.482.668.581.009.552-.355.524-.695-.007-.08-.013-.159-.012-.231a73.49 73.49 0 0 0 .01-1.97zM73.223 34.705v.001l.031.332a4.583 4.583 0 0 1-.515 2.123c-.48.914-1.202 1.433-2.286 1.358-1.017-.07-1.748-.565-2.16-1.48-.548-1.218-.459-2.455.067-3.65.482-1.094 1.51-1.649 2.64-1.504 1.035.133 1.917.988 2.134 2.098.046.238.067.48.089.722zm-6.32.476c.017 2.297 1.486 3.834 3.66 3.829 2.229-.005 3.787-1.597 3.807-3.89.02-2.27-1.498-3.787-3.782-3.78-2.142.005-3.701 1.63-3.685 3.841zm-.156 10.782h-.003l.001.277c.001.215.003.429-.003.642-.008.296.12.432.42.427h.191c.359 0 .714.001 1.047-.2.546-.33.81-1.044.585-1.662-.213-.586-1.03-.928-1.884-.738-.462.102-.41.39-.358.678.028.154.056.308.006.435a.212.212 0 0 0-.005.094l.003.047zm-.001 3.466v1.135c.002.167.013.324.198.415.502.245 1.605-.047 1.953-.526.454-.626.423-1.63-.067-2.108-.33-.322-1.555-.605-1.881-.385-.277.187-.243.45-.21.715.018.136.036.273.011.4a1.008 1.008 0 0 0-.007.239l.003.115zm-.995-1.665.002-.86c.003-.73.006-1.46-.009-2.19-.008-.398.127-.558.529-.546.281.008.563.005.845.001.405-.005.81-.01 1.211.02.673.047 1.353.193 1.598.95.247.766.042 1.443-.542 2.003-.036.034-.082.068-.13.101-.184.132-.375.268.059.478.79.382 1.07 1.046.96 1.872-.115.864-.597 1.475-1.43 1.78-.647.235-1.311.206-1.975.177-.257-.012-.514-.023-.77-.02-.351.006-.35-.278-.349-.532v-3.234zM133.35 6.377l-.65.81c-.174-.282-.162-.493-.151-.681.003-.047.005-.092.005-.137a340.535 340.535 0 0 1 0-4.043c.003-.352-.119-.524-.494-.515-.349.01-.44.192-.439.5.002 1.417.001 2.835 0 4.253l-.001 2.13v.034c-.001.158-.002.334.162.403.201.083.315-.067.419-.204l.02-.027.016-.02c.274-.349.547-.7.82-1.05h.001v-.001h.001v-.001l.001-.001.001-.002.002-.002v-.001c.292-.374.583-.749.876-1.121.587-.747 1.177-1.492 1.772-2.246l.005-.005.02-.026.696-.881c.201.228.184.444.168.644v.001c-.004.054-.008.107-.008.16.011 1.394.007 2.79.002 4.184v.003c-.002.353-.003.671.496.659.437-.011.433-.288.43-.569l-.001-.08c.001-2.033.003-4.067-.002-6.1 0-.04.002-.082.005-.125v-.001c.013-.198.027-.41-.221-.481-.259-.075-.434.128-.585.319l-.059.073c-.597.753-1.194 1.507-1.794 2.258-.498.624-.998 1.247-1.513 1.89zM121.156 33.45h-.003V33.873c.005 1.052-.217 1.203-1.263.857-.866-.286-1.304-.972-1.134-1.776.166-.782 1.667-1.366 2.273-.881.129.104.128.251.127.395l-.001.063c.002.216.002.433.002.65l-.001.05v.218zm.927 2.568v-1.701c-.001-.735-.001-1.47.001-2.204.001-.303-.008-.59-.421-.586-.244.003-.488 0-.733-.002-.584-.007-1.168-.013-1.743.055-1.047.124-1.491.789-1.4 1.843.075.875.648 1.336 1.371 1.645.412.176.492.317.193.699a45.025 45.025 0 0 0-1.705 2.35 1.11 1.11 0 0 1-.171.176c-.182.164-.378.341-.098.535.27.187.782.194 1.098-.167.065-.075.117-.16.17-.246.034-.056.068-.113.107-.166l.119-.166c.564-.79 1.129-1.578 1.7-2.363l.047-.069c.089-.135.188-.283.388-.205.181.071.166.229.152.378a1.255 1.255 0 0 0-.007.12c.006.78.006 1.559-.001 2.339-.003.336.024.617.471.62.46.002.463-.3.462-.625v-2.26zm-45.59-2.67c.003 1.395.097 1.503 1.14 1.305.778-.148 1.277-.823 1.179-1.596-.093-.732-.713-1.118-1.816-1.041-.639.045-.573.399-.507.754.034.183.068.367.006.508-.006.014-.004.03-.003.048l.002.023zm0 3.465h-.006v1.064c-.001.224.02.448.292.49.652.101 1.291.077 1.778-.443.475-.508.603-1.117.343-1.773-.268-.675-1.18-1.094-2.049-.877-.46.115-.412.427-.363.74.025.156.05.313.01.446-.022.075-.016.157-.01.24.003.038.005.076.005.113zm-.966-1.62.002-.858c.003-.73.006-1.46-.007-2.189-.008-.435.094-.659.595-.625.365.025.732.026 1.098.027.366.002.731.003 1.095.028.649.043 1.207.296 1.41.986.212.717.066 1.399-.506 1.87-.48.397-.4.502.102.77.654.351.801 1.016.713 1.72-.109.878-.591 1.487-1.417 1.785-.693.249-1.412.22-2.13.193h-.001c-.204-.008-.407-.016-.61-.018-.352-.002-.348-.257-.344-.494v-.078c-.002-.83-.001-1.662 0-2.493v-.624zm-15.706-.925-.003.857.001.9c0 .74.002 1.481-.003 2.221v.007c-.002.352-.004.665.497.648.483-.017.482-.325.48-.666v-.022c-.002-.608-.001-1.215 0-1.823 0-1.165.002-2.331-.016-3.497-.008-.534.12-.775.71-.743.848.047 1.704.051 2.552 0 .612-.038.823.13.806.774-.03 1.196-.026 2.394-.023 3.59.002.6.004 1.2.001 1.8-.001.357.073.595.507.583.423-.01.427-.28.426-.58l-.001-1.41c-.002-1.61-.004-3.221.008-4.832.003-.454-.196-.557-.603-.553-1.584.015-3.17.022-4.753-.003-.486-.008-.606.183-.596.627.017.707.014 1.414.01 2.122zm.036 13.571.001-.873c.002-.749.004-1.498-.007-2.247-.005-.338.066-.547.454-.552.373-.004.573.112.559.532-.02.58-.018 1.162-.015 1.743l.002.455c0 .029-.003.06-.006.092-.01.112-.02.23.093.292.166.092.263-.028.35-.135.016-.021.033-.042.05-.06.408-.452.813-.907 1.219-1.361l.002-.002v-.001h.001a364.929 364.929 0 0 1 1.062-1.188c.105-.122.216-.249.351-.306.205-.087.495-.178.646.06.1.156-.026.258-.145.355-.038.03-.075.06-.104.091l-.55.589a96.73 96.73 0 0 1-1.643 1.727c-.303.308-.346.54-.052.898.765.93 1.503 1.884 2.215 2.855.039.053.101.11.167.169.186.168.395.356.133.543a.822.822 0 0 1-1.138-.2 58.006 58.006 0 0 0-1.59-2.085c-.087-.106-.176-.246-.266-.387-.214-.333-.43-.673-.617-.587-.297.135-.25.493-.201.857.022.17.045.34.033.49-.032.402-.02.807-.009 1.212l.006.206c.009.355-.06.587-.5.583-.423-.004-.51-.2-.503-.574.012-.762.01-1.524.008-2.287l-.002-.904h-.004zm59.116-41.33v-.775l.203-.048.152.19h.001c.109.138.219.275.325.415l.542.705c.497.647.994 1.293 1.472 1.953.328.453.828.415 1.13.222.302-.193.085-.397-.101-.571a1.321 1.321 0 0 1-.146-.152 71.843 71.843 0 0 0-2.285-2.897c-.268-.323-.278-.534.018-.836a84.628 84.628 0 0 0 1.61-1.7l.581-.623c.032-.034.072-.067.114-.1.134-.108.276-.22.131-.4-.161-.198-.451-.105-.654.007-.129.072-.235.19-.338.306a6.643 6.643 0 0 1-.072.08c-.393.425-.784.851-1.176 1.277-.344.376-.689.751-1.035 1.126a1.118 1.118 0 0 0-.067.083c-.081.106-.166.217-.317.17-.164-.053-.149-.194-.136-.326.004-.037.008-.073.008-.107-.004-.497-.003-.993-.002-1.49v-.001l.001-.568V2.38c.003-.288.006-.558-.439-.57-.492-.012-.49.284-.488.61v.05l.001 2.807a3323.166 3323.166 0 0 0 0 3.283c-.009.31-.018.616.48.63.509.014.498-.29.488-.592-.002-.047-.004-.094-.003-.14.004-.65.003-1.3.002-1.95zm-59.155-1.03.001-.906c0-.738.002-1.475-.004-2.213-.002-.322.048-.552.454-.55.401.002.54.176.528.564a50.514 50.514 0 0 0-.011 1.75l.002.377c0 .028-.003.059-.005.09-.01.112-.02.23.102.292.166.085.249-.028.327-.134a.989.989 0 0 1 .06-.077c.44-.486.877-.974 1.314-1.463l.673-.751.21-.227h.001l.175-.188c.237-.26.602-.365.812-.152.194.197.01.343-.158.476a1.257 1.257 0 0 0-.143.124 61.449 61.449 0 0 1-2.046 2.16c-.349.345-.323.593-.02.952a89.24 89.24 0 0 1 2.263 2.817c.04.052.094.102.148.153.17.161.35.332.178.604-.152.24-.95.04-1.189-.27-.193-.252-.384-.505-.575-.758-.379-.5-.757-1.001-1.15-1.49a2.921 2.921 0 0 1-.213-.325c-.182-.305-.37-.618-.66-.54-.198.053-.16.385-.124.721.018.16.036.32.029.452-.026.49-.017.982-.008 1.474l.005.227c.005.345-.116.52-.492.525-.386.005-.489-.182-.486-.524.005-.78.004-1.56.003-2.339v-.85zm6.925-1.684h.004l-.002-.046a.3.3 0 0 1 .003-.096c.04-.153.017-.327-.007-.5-.045-.326-.09-.649.3-.824.628-.282 1.645.066 1.916.544.347.612.201 1.448-.31 1.957-.457.452-1.014.45-1.588.41-.288-.021-.322-.22-.318-.454.004-.23.004-.462.003-.693l-.001-.298zm-.982.829c-.005.279-.01.558-.01.837l.001.297V7.327c0 .393 0 .786-.002 1.179v.053c-.004.321-.008.62.475.628.534.01.53-.322.525-.691v-.018c-.003-.247 0-.494.002-.74.004-.415.009-.83-.014-1.243-.027-.499.152-.691.648-.644.708.067 1.359-.13 1.943-.523.704-.473.968-1.302.75-2.275-.174-.77-.763-1.022-1.446-1.158-.407-.082-.817-.081-1.227-.081-.25 0-.5 0-.75-.019-.702-.052-.974.161-.92.904.046.638.035 1.28.025 1.924zm16.526 32.173v.423c-.004 1.077.553 1.406 1.517.897a1.68 1.68 0 0 0 .805-1.989c-.236-.712-.899-1.039-1.95-.774-.497.125-.439.474-.38.828.032.191.065.385.009.545-.005.014-.004.03-.002.047v.023zm-1.05-1.671v-.817c0-.696.001-1.392-.002-2.088v-.078c-.005-.336-.009-.641.515-.624.503.017.496.316.489.634l-.002.107v.668c.002.462.004.924-.009 1.386-.01.388.118.554.53.539.438-.017.878.021 1.316.059l.026.002c.746.064 1.315.379 1.498 1.168.238 1.023-.036 1.836-.755 2.332-.822.568-1.727.518-2.63.469a15.87 15.87 0 0 0-.672-.028c-.317-.004-.313-.287-.309-.53l.001-.082c-.002-.758-.002-1.516-.001-2.273v-.844h.005zm16.485-.892-.003.893v2.185l-.001.935v.025c0 .309 0 .618.446.618h.515c.75.001 1.5.001 2.251.005.252.001.42-.098.422-.362.002-.293-.198-.32-.439-.314-.246.007-.492.007-.739.007-.32 0-.642 0-.962.016-.407.02-.56-.145-.524-.538.012-.13.01-.26.007-.391l-.002-.176c.007-1.79.007-1.79 1.789-1.813h.001l.131.003c.243.01.498.02.516-.342.02-.382-.241-.375-.484-.368-.044.001-.086.002-.127.001h-.006c-.96-.025-1.439-.037-1.668-.283-.228-.245-.208-.722-.167-1.674l.002-.038c.018-.414.172-.53.553-.513.275.012.551.011.827.011h.001c.243 0 .487 0 .731.008.04.001.081.005.121.01.196.02.376.039.39-.28.016-.366-.209-.415-.508-.411l-.452.007a28.66 28.66 0 0 1-1.958-.011c-.556-.029-.688.204-.675.706.02.694.016 1.39.012 2.084zM73.563 3.287l-.253.61-.604 1.46c-.058.142-.072.327.112.335.493.023.99.02 1.483-.018.174-.013.157-.205.1-.346-.183-.449-.367-.897-.588-1.434l-.25-.607zm2.679 5.957c-.428.071-.578-.199-.691-.545-.089-.27-.184-.537-.28-.805-.119-.334-.238-.667-.343-1.005-.12-.382-.351-.498-.736-.51h-.026c-1.867-.053-1.869-.053-2.462 1.722l-.067.203c-.072.225-.144.45-.244.662-.121.256-.386.295-.613.194-.215-.095-.135-.262-.065-.408.014-.028.027-.055.037-.08.883-2.168 1.77-4.333 2.661-6.496l.035-.094c.063-.172.131-.362.354-.351.177.008.218.163.258.31.012.045.024.09.04.128l.877 2.22v.001a637.53 637.53 0 0 0 1.684 4.24c.189.47.117.68-.42.614zm30.573-5.506h-.002V3.456c.002-.642.003-.927.145-1.053.114-.1.317-.1.683-.097 1.105.005 1.578.404 1.58 1.331.003 1.11-.976 1.857-2.078 1.608-.272-.062-.332-.215-.329-.45.003-.246.002-.493.001-.74v-.317zm-.932.875a268.068 268.068 0 0 0 0 1.735c.002.737.005 1.474-.007 2.21-.006.393.077.646.535.634.438-.012.475-.293.472-.63a44.275 44.275 0 0 1 0-.815c.001-.438.003-.875-.011-1.312-.013-.428.15-.612.578-.577.655.052 1.269-.1 1.84-.415.801-.443 1.158-1.324.955-2.322-.145-.707-.685-1.156-1.617-1.227a15.221 15.221 0 0 0-1.311-.024c-.295.003-.59.006-.885-.003-.436-.012-.57.17-.56.595.017.716.014 1.434.011 2.151zm8.604 4.678c-2.338.06-3.644-1.714-3.506-4.083.191-3.255 3.228-4.01 5.357-3.294.426.143.55.4.387.817-.095.242-.242.29-.429.124-.853-.758-1.806-.935-2.812-.391-.996.538-1.286 1.529-1.419 2.563a4.466 4.466 0 0 0 .128 1.688c.496 1.906 2.135 2.588 3.846 1.612.044-.025.091-.069.141-.114.149-.139.319-.295.476-.014.171.306-.062.587-.375.733-.588.276-1.205.41-1.794.359zM87.4 35.225v.864c-.002.727-.003 1.455.003 2.182.003.375-.057.65-.534.633-.448-.017-.447-.304-.446-.606v-.035l.002-1.849c.002-1.438.003-2.876 0-4.313 0-.345.03-.594.484-.587.44.008.496.246.494.595a257.47 257.47 0 0 0-.004 2.24l.001.876z" fill="#fff"/></svg>