<svg width="142" height="59" fill="none" xmlns="http://www.w3.org/2000/svg"><mask id="a" style="mask-type:alpha" maskUnits="userSpaceOnUse" x="113" y="11" width="29" height="28"><path fill-rule="evenodd" clip-rule="evenodd" d="M113.508 11.464h27.882v27.12h-27.882v-27.12z" fill="#fff"/></mask><g mask="url(#a)"><path fill-rule="evenodd" clip-rule="evenodd" d="M135.674 22.321c-.572.902-1.136 1.783-1.692 2.669-1.522 2.425-3.051 4.845-4.552 7.283-.233.38-.49.532-.916.484-.234-.026-.482-.046-.708.002-1.541.33-2.353-.422-3.096-1.713-1.639-2.85-3.448-5.6-5.191-8.39-.084-.133-.13-.309-.323-.363-.193.142-.088.346-.088.515-.007 4.994-.018 9.989.008 14.983.003.622-.148.814-.785.79-1.372-.051-2.746-.035-4.119-.005-.508.012-.705-.105-.704-.662.017-8.592.017-17.184.002-25.775-.001-.555.2-.677.707-.665 1.254.03 2.51.04 3.764-.004.552-.02.849.186 1.131.638 2.666 4.276 5.362 8.534 8.025 12.811.318.513.434.438.714-.014 2.634-4.24 5.294-8.466 7.924-12.709.32-.516.653-.76 1.294-.73 1.252.061 2.509.035 3.763.01.44-.01.557.135.557.566-.012 8.662-.012 17.325.001 25.988.001.46-.162.547-.575.542-1.421-.02-2.842-.03-4.262.008-.581.016-.761-.145-.758-.75.025-4.995.015-9.989.011-14.983 0-.151.087-.327-.132-.526z" fill="#fff"/></g><path fill-rule="evenodd" clip-rule="evenodd" d="M85.655 25.018c0-4.259.009-8.518-.012-12.777-.002-.567.123-.772.74-.77 6.982.021 13.964.02 20.945 0 .612-.002.802.138.801.784-.022 8.518-.02 17.036.004 25.554.002.648-.194.794-.805.773a64.668 64.668 0 0 0-4.046-.005c-.58.016-.762-.142-.76-.747.022-6.72.014-13.44.014-20.16 0-.897.002-.896-.927-.895-3.171 0-6.343.02-9.514-.015-.663-.008-.877.133-.874.841.029 6.744.008 13.487.032 20.23.003.622-.198.76-.768.745a69.449 69.449 0 0 0-4.046.002c-.613.02-.804-.14-.8-.782.03-4.26.016-8.518.016-12.777z" fill="#fff"/><mask id="b" style="mask-type:alpha" maskUnits="userSpaceOnUse" x="85" y="0" width="24" height="7"><path fill-rule="evenodd" clip-rule="evenodd" d="M85.538.452h22.693v5.575H85.538V.452z" fill="#fff"/></mask><g mask="url(#b)"><path fill-rule="evenodd" clip-rule="evenodd" d="M96.921 6.014c-3.526 0-7.052-.013-10.578.013-.618.005-.827-.16-.802-.798.049-1.3.051-2.603 0-3.902-.027-.674.16-.877.854-.874 6.413.027 12.827.017 19.24.017.663 0 1.327.028 1.988-.014.481-.032.608.147.601.602-.022 1.419-.035 2.84.006 4.258.016.579-.196.71-.731.707-3.526-.019-7.052-.01-10.578-.01z" fill="#E85047"/></g><path fill-rule="evenodd" clip-rule="evenodd" d="M80.229 16.799c.004 7.052.005 14.104.022 21.157.002.457-.115.627-.593.618a98.957 98.957 0 0 0-4.331.006c-.543.014-.683-.157-.68-.683.019-4.141.01-8.283.011-12.424l.002-8.662 5.569-.012zM63.351 16.828c.007 7.07.011 14.142.027 21.213 0 .395-.117.539-.527.534a119.983 119.983 0 0 0-4.54.006c-.637.016-.527-.373-.527-.74 0-6.054-.005-12.108.005-18.162.001-.967-.077-1.937.054-2.902l5.508.05z" fill="#fff"/><path fill-rule="evenodd" clip-rule="evenodd" d="m63.351 16.827-5.508-.05c-.008-1.585-.001-3.17-.035-4.754-.01-.481.175-.605.62-.605 7.1.008 14.2.004 21.299.004.29 0 .58-.026.569.417-.044 1.653.08 3.308-.068 4.96l-5.568.012c-3.77-.04-7.54-.07-11.309.016zM29.743 27.529l.002-5.14c.28-.006.56-.012.841-.02 1.564-.036 3.13.077 4.692-.06.258.023.515.065.772.066 3.353.005 6.707.006 10.06.003.21 0 .422-.032.633-.05l5.55.035c.13 1.728.13 3.456 0 5.184-1.632-.001-3.263-.01-4.894.003-.233.002-.53-.145-.694.172-.137-.026-.274-.076-.411-.076-3.469-.003-6.938-.003-10.406.004-.184 0-.368.056-.552.085-.144-.341-.446-.181-.672-.184-1.64-.02-3.28-.018-4.921-.022z" fill="#E85047"/><path fill-rule="evenodd" clip-rule="evenodd" d="M.148 33.293c-.002-6.98.004-13.96-.02-20.94-.001-.654.134-.918.85-.886 1.323.06 2.652.048 3.976.004.636-.022.846.144.843.82-.025 6.72-.015 13.44-.012 20.159 0 .28-.066.57.102.83-1.913.08-3.826.052-5.739.013zM16.962 33.297c.195-.278.112-.596.112-.896.005-6.696.012-13.392-.008-20.088-.002-.625.12-.876.81-.846 1.347.059 2.699.047 4.046.003.613-.02.747.202.745.772-.02 7.003-.016 14.006-.018 21.009-1.895.151-3.791.057-5.687.047z" fill="#fff"/><mask id="c" style="mask-type:alpha" maskUnits="userSpaceOnUse" x="0" y="33" width="23" height="6"><path fill-rule="evenodd" clip-rule="evenodd" d="M.042 33.244H22.65v5.304H.042v-5.304z" fill="#fff"/></mask><g mask="url(#c)"><path fill-rule="evenodd" clip-rule="evenodd" d="M16.962 33.297c1.896.01 3.792.104 5.687-.047l-.017-.006c-.167.256-.09.545-.093.817-.01 1.267 0 2.535-.01 3.802-.001.2.133.512-.27.514-.441.003-.855.225-1.304.16L.95 38.526c-.904 0-.904 0-.903-.93.001-1.206 0-2.412.004-3.617 0-.232-.055-.475.096-.687 1.914.039 3.827.066 5.74-.013l11.074.017z" fill="#E85047"/></g><path fill-rule="evenodd" clip-rule="evenodd" d="M46.705 27.722c.165-.317.461-.17.694-.172 1.631-.012 3.262-.004 4.893-.003.011 3.5.017 7.001.039 10.502.002.415-.168.531-.55.528-1.467-.014-2.934-.037-4.4.002-.579.015-.648-.23-.645-.713.017-3.122.01-6.244.008-9.367 0-.259-.025-.518-.039-.777zM29.743 27.53c1.64.004 3.281.002 4.921.022.226.002.528-.158.672.184l-.015.492V28.2c-.006 3.188-.032 6.376-.003 9.563.006.654-.17.844-.825.82-1.415-.051-2.834-.026-4.251-.01-.37.004-.562-.058-.56-.494.016-3.448.012-6.895.017-10.343 0-.069.028-.138.044-.207zM52.293 22.363l-5.55-.035c0-3.357.019-6.714-.011-10.07-.006-.632.17-.81.795-.789 1.393.046 2.79.02 4.185.007.387-.004.62.059.616.534-.023 3.45-.026 6.902-.035 10.353zM35.278 22.31c-1.563.137-3.128.024-4.692.06l-.841.02c-.127-1.178-.04-2.36-.048-3.54-.018-2.246.006-4.492-.018-6.738-.005-.498.149-.648.644-.638 1.466.03 2.933.02 4.399.004.406-.005.592.09.589.549-.024 3.427-.025 6.855-.033 10.283zM20.955 38.537c.449.066.863-.156 1.304-.159.402-.002.268-.314.27-.514.01-1.267-.001-2.535.01-3.802.002-.272-.074-.56.093-.817.921.004 1.843.02 2.763.004.4-.007.535.135.534.535-.013 3.36-.017 6.72-.001 10.079.002.48-.175.602-.624.593a76.988 76.988 0 0 0-3.691.002c-.531.015-.63-.207-.627-.671.007-1.75-.018-3.5-.031-5.25zM122.725 50.924c-.614 0-1.229-.013-1.842.005-.358.01-.511-.112-.506-.487.015-1.063.005-2.126.004-3.188 0-.25.002-.49.358-.471.346.018.337.256.336.504-.003.779.04 1.561-.015 2.337-.04.574.24.58.674.588.468.01.68-.086.647-.617-.048-.776-.009-1.558-.013-2.337-.001-.26.034-.474.368-.478.365-.003.336.256.336.492.003.803.037 1.608-.01 2.408-.033.574.303.523.669.523.362 0 .704.056.673-.517-.043-.8-.009-1.605-.008-2.408 0-.242-.016-.495.338-.495.339 0 .355.228.354.485-.004 1.039-.014 2.078.006 3.117.007.394-.119.557-.527.541-.613-.023-1.228-.006-1.842-.006v.004zM40.063 55.743c0-.26-.022-.52.005-.777.043-.42-.098-.592-.544-.592-.432 0-.553.148-.578.572-.033.56-.172 1.113-.277 1.668-.04.212-.133.396.204.472.899.204 1.19-.009 1.19-.919v-.424zm-.465-2.068c1.157.006 1.157.006 1.159 1.152 0 .449-.019.898.006 1.346.02.362-.103.704.361 1.025.321.222.125.886.078 1.35-.016.164-.225.121-.362.122-.227.002-.284-.15-.257-.33.077-.53-.24-.572-.642-.555-.4.017-.803.018-1.204.004-.464-.016-.939-.08-.821.646.028.173-.108.235-.273.24-.192.005-.357-.057-.317-.269.095-.498-.269-1.07.437-1.483.38-.222.352-.892.448-1.377.045-.23.04-.47.063-.705.113-1.171.113-1.17 1.324-1.166zM94.142 55.478c-.231.37-.46.742-.694 1.11-.25.39-.517.383-.762.003-.252-.389-.483-.79-.873-1.145 0 .623-.003 1.245.001 1.867.002.26-.026.472-.368.471-.358 0-.347-.235-.347-.482.004-1.04 0-2.08.009-3.12.001-.192-.108-.45.226-.503.273-.043.44.082.572.313.281.492.589.97.867 1.464.196.345.356.408.574.016.276-.495.586-.97.864-1.465.13-.23.282-.369.56-.326.375.056.25.346.252.557.008 1.017 0 2.033.004 3.05 0 .253-.003.49-.344.496-.338.005-.359-.221-.355-.482.008-.587.003-1.175.003-1.763l-.189-.061zM135.11 49.332c.44-.655.869-1.318 1.324-1.963.191-.271.325-.724.782-.56.388.14.189.538.197.816.026.896.018 1.794.007 2.69-.003.234.12.584-.294.594-.467.01-.328-.372-.334-.626-.015-.633-.005-1.268-.005-1.98-.496.26-.607.723-.87 1.053-.307.387-.566.814-.826 1.236-.155.25-.345.392-.64.302-.283-.086-.206-.338-.207-.538-.005-1.015-.001-2.03-.002-3.046 0-.27-.015-.54.38-.528.362.011.324.275.325.507.004.66.002 1.319.002 1.978l.161.065zM58.39 56.206c.462-.696.924-1.39 1.382-2.088.173-.262.342-.538.722-.425.376.112.196.435.201.66.021.968.011 1.936.013 2.904 0 .238.036.498-.315.519-.422.025-.351-.282-.352-.535-.002-.674-.001-1.348-.14-2.065-.495.73-.99 1.46-1.483 2.191-.162.24-.318.497-.668.405-.372-.098-.234-.418-.237-.652-.013-.992-.002-1.984-.007-2.976-.001-.26.015-.465.36-.47.371-.007.339.237.338.477v2.002l.187.053zM29.69 48.794v-1.562c0-.218-.01-.44.306-.45.328-.008.391.19.39.46-.003.781.02 1.563-.01 2.343-.017.44.087.65.575.628 1.453-.066 1.177.206 1.203-1.191a60.12 60.12 0 0 0 0-1.704c-.003-.28.002-.54.383-.538.364.003.32.274.322.507.003.592-.026 1.185.01 1.775.026.446-.184.91.356 1.315.264.198.11.849.035 1.29-.028.165-.207.172-.352.152-.177-.024-.24-.16-.219-.308.096-.642-.324-.6-.746-.592-.592.011-1.185-.016-1.776.008-.382.016-.496-.142-.484-.5.02-.544.006-1.088.006-1.633zM112.445 48.493c.533-.034 1.029.04 1.011-.548-.016-.536-.489-.453-.853-.482-.374-.03-.618.03-.624.51-.005.48.227.553.466.52zm.22 1.747c.395-.042.955.083.953-.544-.001-.636-.55-.578-.997-.603-.399-.023-.653.014-.644.553.008.538.212.672.688.594zm-1.36-1.399c0-.52.01-1.04-.003-1.559-.009-.35.106-.537.489-.504.539.047 1.087-.066 1.621.097.705.215 1.017.862.639 1.494-.182.304-.152.429.052.7.54.717.166 1.623-.723 1.773-.667.113-1.564.378-1.951-.082-.324-.386-.066-1.26-.066-1.918h-.058zM81.09 48.48c.466-.005.94.042.953-.524.013-.488-.41-.485-.767-.49-.346-.005-.706-.083-.703.49.002.457.175.586.516.524zm.125 1.766c.41-.044.988.081.968-.592-.017-.592-.536-.544-.954-.565-.37-.018-.681-.038-.658.527.019.477.117.723.644.63zm-1.32-1.387c0-.213-.03-.43.005-.638.079-.468-.29-1.197.204-1.358.685-.224 1.52-.241 2.207.153.527.302.621.85.308 1.357-.188.307-.143.44.062.71.52.691.159 1.565-.679 1.76-.022.004-.047.004-.07.009-1.94.384-2.037.288-2.037-1.993zM123.536 54.32c-.172-.019-.486-.058-.474.467.008.394.067.626.532.58.412-.04.946.05.956-.538.007-.491-.464-.495-1.014-.509zm.031 2.824c.572-.047 1.144.039 1.134-.602-.01-.632-.579-.53-1.012-.567-.411-.034-.642.031-.632.551.009.502.156.696.51.618zm-.069-3.459c.236 0 .474-.022.707.004.926.102 1.33.799.895 1.61-.136.254-.132.359.037.591.588.806.215 1.67-.76 1.842-1.918.338-2.007.267-2.006-1.602.001-.543.055-1.092-.009-1.626-.085-.706.187-.942.853-.83.092.016.188.002.283.002v.01zM59.173 48.826c0-.52.014-1.04-.005-1.559-.014-.372.137-.5.5-.49.71.02 1.418.02 2.127.004.345-.008.53.081.526.468-.01 1.087-.002 2.173.004 3.26.002.248-.065.417-.355.403-.297-.014-.326-.219-.325-.446.003-.78-.015-1.56.017-2.338.02-.45-.114-.673-.59-.617a1.6 1.6 0 0 1-.424.002c-.614-.095-.847.128-.793.771.059.704.015 1.416.014 2.125 0 .238.023.495-.329.51-.405.016-.37-.272-.37-.534v-1.56h.003zM52.498 55.73c.005-.832-.503-1.412-1.25-1.427-.714-.014-1.27.605-1.267 1.415.002.836.511 1.406 1.258 1.409.76.002 1.254-.547 1.26-1.397zm.7.03c-.011 1.264-.825 2.114-2 2.09-1.121-.023-1.921-.9-1.928-2.114-.008-1.238.818-2.115 1.986-2.11 1.188.005 1.955.847 1.943 2.134zM97.822 47.432c-.704-.004-1.265.624-1.27 1.422-.006.809.53 1.4 1.268 1.4.734 0 1.267-.588 1.271-1.401.005-.795-.551-1.418-1.269-1.421zm1.964 1.439c-.006 1.24-.842 2.125-2 2.115-1.127-.01-1.972-.958-1.945-2.18.027-1.2.851-2.059 1.976-2.058 1.174 0 1.975.864 1.969 2.123zM79.978 55.738c.01-.84-.488-1.417-1.237-1.435-.718-.016-1.271.594-1.277 1.407-.006.847.482 1.399 1.249 1.412.764.013 1.254-.523 1.265-1.384zm.694.037c-.004 1.23-.788 2.069-1.936 2.07-1.179.001-1.971-.858-1.964-2.128.008-1.291.777-2.102 1.985-2.09 1.191.01 1.92.827 1.915 2.148zM91.238 48.89c.012-.832-.484-1.424-1.22-1.454-.71-.029-1.294.581-1.316 1.376-.022.808.501 1.418 1.232 1.436.76.019 1.292-.535 1.304-1.357zm-1.285-2.142c1.185-.004 1.98.839 1.987 2.104.007 1.23-.841 2.143-1.982 2.133-1.145-.01-1.967-.918-1.96-2.164.005-1.196.83-2.07 1.955-2.073zM87.829 55.713c-.003-.839-.512-1.406-1.267-1.412-.71-.006-1.257.62-1.257 1.436 0 .821.53 1.397 1.28 1.39.756-.007 1.247-.565 1.244-1.414zm-1.222-2.087c1.184.01 1.94.855 1.924 2.15-.015 1.217-.814 2.065-1.952 2.07-1.168.006-1.96-.86-1.951-2.133.01-1.289.777-2.098 1.98-2.087zM34.23 48.85v-.142c0-2.082 0-2.078 2.094-1.93.271.019.467.062.473.38.006.342-.218.368-.477.362-.284-.007-.569.012-.852-.007-.37-.024-.554.069-.564.502-.011.48.254.475.583.467.284-.007.568 0 .852 0 .235 0 .343.114.335.352-.008.224-.096.359-.337.359-.284 0-.57.02-.851-.003-.426-.036-.575.128-.584.562-.01.493.292.45.6.452.308.002.616.003.923-.002.239-.003.42.044.424.341.004.278-.132.381-.39.38-.616-.003-1.231-.015-1.846.001-.334.009-.393-.167-.39-.441.008-.544.003-1.088.003-1.633h.004zM107.161 48.854c.003.865.483 1.406 1.245 1.4.761-.006 1.271-.57 1.267-1.4-.003-.815-.547-1.423-1.267-1.418-.747.005-1.247.574-1.245 1.418zm3.169.037c-.004 1.256-.751 2.076-1.908 2.092-1.159.017-1.965-.856-1.966-2.127-.002-1.29.763-2.111 1.964-2.108 1.195.003 1.913.81 1.91 2.143zM126.266 48.825c0-.497.012-.993-.005-1.489-.012-.37.079-.58.509-.557.542.028 1.087.019 1.63.003.298-.009.443.092.437.4-.006.289-.17.352-.419.342-.283-.01-.567.008-.85-.008-.371-.02-.629.017-.63.51-.001.483.273.464.596.456.26-.006.52.004.78-.002.255-.006.404.08.398.364-.007.287-.171.356-.418.35-.259-.006-.52.013-.779-.003-.367-.023-.567.073-.576.5-.009.42.159.536.541.514.353-.021.709-.002 1.063.001.228.002.352.104.339.347-.011.214-.084.371-.328.37-.662 0-1.324 0-1.985-.013-.299-.006-.308-.23-.307-.455.003-.544.001-1.087.001-1.63h.003zM34.042 55.726c0-.52.015-1.04-.005-1.558-.014-.356.09-.515.477-.496.565.028 1.133.01 1.7.006.238-.002.425.042.413.343-.011.268-.153.37-.41.364-.33-.007-.662.009-.992 0-.322-.01-.537.042-.535.453.002.403.153.553.546.524.282-.02.566.004.85-.006.251-.008.415.066.41.35-.006.281-.175.357-.421.353-.283-.004-.569.019-.85-.005-.398-.034-.541.117-.54.523.002.41.163.541.551.515.353-.023.708-.006 1.063-.002.208.002.367.063.374.318.007.275-.127.38-.388.378-.614-.004-1.228-.01-1.842.004-.32.007-.405-.15-.4-.435.01-.543.003-1.086.003-1.63h-.004zM29.69 55.721c.001-.52.02-1.04-.005-1.558-.018-.36.084-.51.47-.496a34.9 34.9 0 0 0 2.197.003c.37-.01.493.124.486.492-.02 1.04-.009 2.079-.005 3.118.001.248.016.492-.333.498-.351.007-.347-.236-.346-.485.003-.78-.02-1.56.01-2.338.016-.429-.116-.59-.559-.578-1.448.037-1.198-.16-1.22 1.182-.01.59-.004 1.181.008 1.772.006.28-.065.452-.39.45-.32-.001-.315-.206-.314-.43.002-.543 0-1.087.002-1.63zM41.03 48.884c0 .544-.003 1.087 0 1.631.003.255-.093.4-.367.409-.313.01-.334-.192-.33-.422.002-.047.004-.095.003-.142-.026-1.197-.026-1.17-1.235-1.178-.522-.003-.67.194-.616.668.026.234.008.472.007.709 0 .222-.094.362-.337.354-.245-.008-.319-.158-.318-.377 0-1.111 0-2.222-.002-3.333 0-.24.059-.43.35-.417.248.01.306.18.305.39v.426c.014.924-.21.924.902.918 1.149-.006.914.047.953-1.024.009-.257-.206-.69.312-.707.51-.017.34.402.362.677.02.235.01.472.01.709.002.236.001.473 0 .709zM105.49 48.91v1.629c0 .21-.046.377-.306.377-.261 0-.387-.117-.385-.387.007-.779-.023-1.559.016-2.336.025-.516-.126-.766-.669-.68-.023.003-.047 0-.071 0-1.123.046-1.059-.259-1.061 1.044 0 .614.002 1.227 0 1.84-.001.232.051.51-.309.518-.335.008-.359-.228-.358-.485.004-1.038.014-2.077-.002-3.115-.006-.396.141-.546.539-.535.708.02 1.417.02 2.124-.001.382-.012.494.15.483.504-.017.542-.005 1.085-.005 1.628h.004zM133.062 48.848c0 .52-.001 1.04.001 1.559 0 .24.031.5-.322.511-.395.014-.373-.27-.371-.537.001-.165-.021-.334.006-.495.097-.59-.185-.715-.721-.702-1.089.028-1.082.002-1.11 1.082-.006.25.146.635-.319.641-.449.007-.348-.356-.349-.623-.005-.992-.002-1.983 0-2.975.001-.233-.047-.506.31-.52.401-.014.36.283.363.543v.071c.022 1.098.45 1.4 1.547 1.114.2-.053.275-.154.275-.34.001-.213-.024-.43.005-.638.04-.284-.197-.755.359-.746.503.008.299.444.315.71.028.447.008.897.008 1.345h.003zM65.887 55.687v-.071c0-2.145.073-2.207 2.215-1.943.211.026.371.055.371.312 0 .253-.096.404-.374.399-.331-.006-.663.014-.993-.003-.353-.019-.58.028-.581.48-.002.43.183.528.556.502.282-.019.567.007.85-.006.268-.012.403.099.4.367-.003.238-.143.332-.365.333-.284 0-.57.025-.851-.001-.414-.039-.599.08-.593.539.005.437.2.516.567.492.33-.021.662 0 .993-.005.242-.004.418.052.42.344.002.28-.144.378-.4.364a1.638 1.638 0 0 0-.143-.002c-2.072.07-2.072.071-2.072-2.101zM107.588 55.69c0-.07-.005-.142.001-.213.054-.578-.278-1.417.133-1.679.575-.368 1.42-.094 2.15-.12.272-.009.288.18.286.384-.003.24-.128.334-.358.33-.379-.007-.758.01-1.135-.011-.374-.022-.421.184-.421.485 0 .29.019.519.403.496.306-.018.615 0 .922-.005.261-.005.473.028.465.372-.008.308-.204.327-.433.325-.26-.003-.522.021-.78-.003-.415-.04-.592.084-.583.542.008.424.173.526.55.499.33-.024.662.003.993-.005.243-.006.425.045.426.337.001.27-.135.385-.399.364-.047-.004-.095-.002-.142 0-2.093.074-2.093.074-2.078-2.098zM67.372 48.783l.001-.07c.002-2.175.002-2.171 2.163-1.933.247.027.409.082.414.361.005.274-.134.38-.394.376-.33-.005-.663.018-.992-.008-.397-.03-.534.11-.54.52-.007.422.207.462.525.453.307-.009.614-.002.921-.004.223-.001.365.085.36.33-.004.215-.09.37-.327.38-.307.01-.615.021-.921.007-.365-.017-.562.07-.567.503-.005.43.173.528.548.507.353-.02.709-.002 1.063-.004.22-.001.362.073.367.322.006.258-.092.398-.37.396a92.857 92.857 0 0 0-1.843.001c-.305.004-.417-.142-.412-.436.01-.567.003-1.134.004-1.7zM55.586 48.855c0-.497.015-.995-.005-1.491-.016-.411.109-.614.563-.587.543.032 1.089.011 1.633.004.264-.003.386.098.384.375-.002.284-.138.368-.397.36-.33-.01-.665.024-.993-.006-.41-.038-.53.12-.53.52-.002.41.192.47.523.452.307-.016.615.001.923-.002.23-.002.36.086.346.334-.01.216-.092.372-.33.378-.307.008-.617.026-.922-.003-.397-.037-.54.1-.541.511 0 .41.136.544.535.51.352-.032.71 0 1.065-.008.23-.005.36.077.368.319.008.255-.09.404-.368.402a120.79 120.79 0 0 0-1.846 0c-.303.003-.417-.14-.411-.436.011-.544.003-1.088.003-1.632zM140.735 48.175c.13-.547-.125-.693-.642-.672-.474.02-.903.108-.901.646.001.58.477.648.957.687.526.044.682-.18.586-.661zm.647.677c0 .544.002 1.088-.001 1.632-.001.208.041.453-.3.433-.283-.016-.346-.196-.34-.437.004-.165.005-.331.002-.497-.003-.203.072-.453-.24-.5-.243-.038-.461-.012-.613.236-.198.322-.431.622-.64.937-.189.284-.499.382-.736.217-.305-.213.069-.39.163-.567.109-.208.253-.4.404-.582.175-.21.157-.347-.075-.51-.568-.404-.633-.981-.427-1.585.213-.626.759-.801 1.355-.842 1.447-.097 1.447-.093 1.447 1.355l.001.71zM83.856 48.811c0-.52.003-1.04-.002-1.56-.002-.266.048-.478.377-.471.299.006.326.215.328.442 0 .048 0 .095.002.142.04 1.173.04 1.156 1.235 1.17.45.005.669-.105.608-.595-.034-.28-.004-.567 0-.85.002-.2.102-.31.307-.3.184.008.331.078.332.287a446.42 446.42 0 0 1-.001 3.548c-.001.203-.145.281-.333.29-.204.012-.31-.08-.31-.288.001-.095 0-.19-.002-.284-.021-1.18-.021-1.16-1.24-1.16-.456.001-.664.127-.606.602.025.21.006.425.007.638.001.243.016.492-.34.495-.336.003-.371-.211-.369-.474.006-.544.002-1.088.002-1.632h.005zM51.177 48.807c0-.52.004-1.04-.002-1.56-.004-.273.06-.463.385-.462.315 0 .323.209.323.433v.142c.036 1.184.307 1.383 1.507 1.158.28-.053.34-.194.336-.434-.007-.308-.002-.615-.003-.923 0-.213.062-.376.312-.38.242-.003.331.136.33.361a1432 1432 0 0 0 .002 3.406c0 .219-.069.37-.32.366-.244-.005-.327-.152-.328-.37l.003-.426c.005-.926.005-.926-.91-.925-.913 0-.908 0-.93 1.098-.005.256.129.625-.34.625-.446 0-.361-.345-.364-.618-.004-.497-.001-.994-.001-1.49zM73.27 55.66c0-.544.007-1.087-.003-1.631-.004-.24.093-.346.33-.351.255-.006.321.134.316.358-.006.283-.001.567.003.85.003.185-.039.399.219.455.224.05.427.005.56-.202.24-.379.484-.756.708-1.145.117-.202.25-.323.499-.322.329 0 .468.084.241.403-.027.038-.044.086-.077.118-1.057 1.04-.826 2.044.064 3.05.112.126.4.335.083.506-.188.101-.473.1-.635-.148-.257-.397-.52-.79-.762-1.196-.167-.281-.396-.42-.706-.326-.319.097-.177.392-.196.609-.016.187.002.378-.002.567-.005.227.065.508-.303.518-.424.011-.335-.308-.338-.553-.007-.52-.002-1.04-.002-1.56zM43.628 54.574c-.206.533-.334.896-.486 1.248-.16.371.012.43.34.44.749.027.785-.008.53-.69-.102-.275-.21-.548-.384-.998zm1.831 2.935c.026.142-.042.225-.173.256-.228.055-.417.007-.542-.214-.12-.213-.09-.573-.42-.593a9.167 9.167 0 0 0-1.482.024c-.242.025-.217.336-.302.519-.125.267-.338.344-.58.272-.336-.102-.135-.334-.068-.51.409-1.08.833-2.155 1.233-3.238.1-.27.259-.352.529-.355.258-.003.379.117.464.341.426 1.124.861 2.243 1.293 3.365.017.044.032.088.048.133zM127.764 54.568c-.201.525-.307.857-.454 1.17-.194.413-.054.502.364.53.618.039.762-.149.483-.7-.132-.262-.217-.547-.393-1zm1.833 2.968c.015.16-.048.238-.192.247-.193.01-.431.026-.488-.188-.298-1.102-1.179-.526-1.812-.636-.26-.045-.328.215-.384.425-.09.334-.326.498-.638.374-.363-.143-.081-.41-.015-.591.374-1.018.778-2.025 1.163-3.038.097-.255.184-.463.527-.464.335-.001.447.187.545.447.391 1.036.79 2.07 1.185 3.106.042.11.076.223.109.318zM97.706 54.582c-.196.501-.314.832-.455 1.154-.175.396-.082.52.37.536.616.024.778-.14.478-.704-.14-.264-.225-.557-.393-.986zm-1.475 3.208c-.39-.013-.403-.178-.305-.429.437-1.119.873-2.24 1.296-3.364.09-.238.233-.316.475-.329.33-.018.45.172.55.437.396 1.059.804 2.113 1.202 3.172.06.16.23.375-.036.48-.227.09-.538.06-.587-.222-.126-.737-.664-.583-1.14-.595-.472-.013-.967-.096-1.086.577a.327.327 0 0 1-.368.273zM111.878 55.06c-.035.398-.039.745.514.675.462-.06 1.013-.013 1.034-.674.019-.613-.446-.648-.925-.683-.559-.042-.714.205-.623.683zm-.665.7c0-.307-.037-.62.009-.921.073-.477-.392-1.227.714-1.184 1.622.063 2.185.345 2.209 1.357.021.875-.503 1.4-1.514 1.369-.631-.02-.856.163-.768.79.034.245.13.627-.35.6-.42-.023-.292-.357-.299-.592-.013-.473-.003-.946-.003-1.419h.002zM47.025 47.519c-.45-.103-.655.102-.585.601.045.326-.185.808.483.752.509-.043 1.06-.06 1.06-.732.001-.549-.45-.64-.958-.621zm-1.279 1.328c0-.284-.032-.572.008-.85.058-.399-.236-.892.184-1.183.384-.266 2.052.04 2.378.377.423.44.474.968.28 1.517-.251.715-.87.84-1.503.798-.557-.037-.728.168-.65.68.017.117-.005.237.001.355.014.273-.118.384-.384.38-.254-.004-.318-.153-.318-.37.002-.568 0-1.136 0-1.704h.005zM115.979 49.557c-.134.542.117.689.639.656.497-.03.933-.106.907-.714-.026-.628-.534-.59-.987-.636-.555-.055-.643.235-.559.694zm.237 1.376c-.732.148-.959-.142-.908-.876.064-.917.012-1.842.012-2.763 0-.24-.02-.507.328-.509.363-.002.345.285.309.51-.113.713.143.939.88.909.896-.037 1.358.46 1.388 1.26.032.887-.341 1.295-1.304 1.414-.234.03-.47.037-.705.055zM75.5 49.587c-.176.54.131.647.631.625.495-.02.935-.097.908-.712-.028-.633-.537-.589-.988-.639-.563-.061-.639.237-.55.726zm-.658-.744c0-.544 0-1.087-.002-1.631 0-.233.03-.433.334-.428.314.006.342.233.304.447-.138.78.165 1.003.948.979.878-.028 1.307.493 1.312 1.329.005.826-.358 1.217-1.236 1.332-1.66.218-1.66.218-1.66-1.39v-.638zM72.294 47.52c-.46-.091-.728.052-.659.623.044.356-.118.807.527.725.465-.06 1.014-.003 1.033-.683.015-.567-.375-.702-.9-.665zm-1.292 1.306c0-.52.015-1.04-.004-1.56-.014-.37.13-.513.498-.485.4.03.808-.01 1.201.05.89.136 1.256.596 1.214 1.44-.04.772-.483 1.248-1.349 1.223-.739-.022-1.05.185-.924.94.04.241.01.501-.343.48-.359-.023-.294-.296-.293-.529.002-.52 0-1.04 0-1.56zM64.715 55.736c0 .543-.004 1.087.002 1.63.003.25-.068.41-.353.417-.302.007-.346-.184-.351-.416 0-.024-.003-.048.002-.071.186-.836-.196-.955-.945-.88-.89.09-1.342-.407-1.374-1.317-.012-.354.005-.71-.01-1.064-.01-.243.098-.344.33-.352.231-.008.355.08.346.329-.009.26-.003.52-.001.78.007.791.59 1.176 1.341.896.233-.088.332-.236.321-.483a7.23 7.23 0 0 1 0-.85c.02-.267-.177-.687.356-.667.519.02.311.437.328.7.027.448.007.898.008 1.348zM71.368 53.62c.106.021.366.051.61.131.272.09.344.324.257.576-.102.296-.31.11-.466.058-.638-.213-1.182-.064-1.573.466-.404.548-.417 1.166-.038 1.727.396.584.995.663 1.644.492.171-.045.39-.335.487.055.069.276-.022.504-.34.603-.619.19-1.218.173-1.783-.153-.813-.468-1.148-1.496-.852-2.56.244-.875.948-1.392 2.055-1.396zM64.818 47.517c-.498-.1-.698.122-.631.657.041.33-.122.752.482.696.503-.046 1.075-.03 1.088-.716.01-.553-.427-.668-.939-.637zm-1.285 1.342c0-.284-.033-.573.007-.85.058-.4-.25-1.05.188-1.154.76-.18 1.618-.23 2.321.293.45.336.465.857.37 1.362-.124.662-.581 1.034-1.422.995-.678-.032-.895.196-.808.836.033.25.064.566-.33.575-.424.01-.31-.33-.323-.567-.014-.26-.003-.52-.003-.78v-.71zM100.009 55.754c.007-1.488 1.15-2.43 2.524-2.082.209.053.422.103.496.342.042.136.067.292-.04.404-.153.159-.306.004-.454-.038-.999-.28-1.815.324-1.822 1.352-.008 1.014.802 1.605 1.841 1.364.178-.042.451-.38.545.07.069.33-.124.493-.457.587-1.418.401-2.639-.514-2.633-1.999zM116.892 53.6c.193.041.454.07.696.153.285.098.3.36.224.593-.104.322-.31.085-.456.035-.644-.223-1.177-.05-1.565.48-.383.523-.396 1.112-.057 1.663.353.576.91.682 1.548.598.189-.025.491-.44.597.07.072.345-.164.505-.479.579-.797.187-1.526.06-2.075-.565-.646-.734-.644-1.606-.302-2.463.315-.788.979-1.108 1.869-1.142zM43.024 49.228c0-.237-.014-.474.004-.71.047-.611.069-1.178-.837-1.008-.236.045-.332-.133-.334-.353-.002-.218.08-.37.325-.37.805-.003 1.61-.004 2.414-.002.25 0 .315.161.312.378-.003.226-.103.391-.337.347-.88-.166-.886.362-.853.992.034.66.006 1.325.006 1.988 0 .232-.036.426-.338.426-.286 0-.365-.161-.363-.41.003-.426.001-.852.001-1.278zM119.674 56.086c.001-.236-.015-.473.004-.708.049-.612.065-1.171-.835-.999-.228.044-.332-.118-.347-.344-.018-.292.147-.362.395-.36.756.004 1.511.006 2.267.001.255-.001.41.082.394.365-.015.272-.175.39-.423.345-.758-.143-.782.307-.757.865.03.684.004 1.369.008 2.053.002.259-.025.48-.364.477-.351-.003-.346-.244-.344-.491.003-.401.001-.803.002-1.204zM104.887 56.025c0-.19-.01-.379.002-.567.042-.639.103-1.28-.887-1.078-.247.05-.323-.129-.329-.347-.006-.221.062-.358.318-.356.802.006 1.604.002 2.407.002.21 0 .375.054.376.31.002.253-.109.443-.373.393-.843-.159-.845.35-.817.947.03.659.005 1.32.012 1.981.003.261-.026.473-.363.473-.353 0-.348-.238-.347-.485l.001-1.273zM46.293 55.692c0-.117-.009-.236.002-.353.049-.531-.255-1.327.127-1.539.63-.35 1.468-.108 2.218-.113.171-.002.24.126.245.284.005.174-.021.348-.22.39-.16.033-.329.022-.493.024-1.172.01-1.172.01-1.173 1.213 0 .566-.004 1.132 0 1.698.003.247.017.489-.337.489-.32 0-.382-.187-.375-.465.013-.542.004-1.085.004-1.628h.002zM54.144 55.666v-.07c.001-2.057 0-2.054 2.08-1.923.252.015.484.011.468.36-.016.331-.241.36-.495.353h-.071c-1.274.047-1.274.047-1.273 1.31v1.555c0 .26.043.55-.365.531-.394-.017-.345-.301-.344-.561.002-.518 0-1.037 0-1.555zM92.885 48.861v-.282c0-1.95.158-2.078 2.151-1.802.255.036.388.123.387.39-.001.286-.169.33-.412.355-.475.05-1.122-.256-1.382.18-.22.368-.067.96-.073 1.454-.004.447-.002.895.002 1.342.002.24-.052.418-.345.416-.302-.002-.332-.197-.331-.428.002-.541 0-1.083 0-1.625h.003zM81.648 55.713c0-.543.01-1.086-.004-1.628-.008-.3.097-.423.409-.413.566.02 1.133.013 1.699.005.265-.004.48.025.457.366-.018.267-.173.33-.425.355-.47.047-1.1-.279-1.373.19-.208.356-.067.917-.073 1.387-.005.449-.003.897.005 1.345.005.27-.048.464-.38.458-.318-.006-.316-.215-.316-.437v-1.628zM78.018 48.875c0-.541.002-1.083 0-1.624-.002-.254.019-.481.363-.467.28.011.346.18.345.425a363.23 363.23 0 0 0 0 3.317c.001.267-.11.387-.375.392-.305.006-.335-.187-.333-.42.002-.54 0-1.082 0-1.623zM119.206 48.808c0 .565-.007 1.13.004 1.695.005.257-.079.4-.35.417-.292.017-.361-.15-.361-.396.002-1.107.002-2.213 0-3.32-.001-.236.042-.425.338-.423.271.002.372.147.37.402-.003.542-.001 1.083-.001 1.625zM35.375 28.256v.056l.064-.029-.064-.027z" fill="#fff"/></svg>