<svg width="141" height="58" viewBox="0 0 141 58" fill="none" xmlns="http://www.w3.org/2000/svg">
<mask id="mask0_46_2245" style="mask-type:alpha" maskUnits="userSpaceOnUse" x="112" y="10" width="29" height="28">
<path fill-rule="evenodd" clip-rule="evenodd" d="M112.979 10.9062H140.596V37.7672H112.979V10.9062Z" fill="white"/>
</mask>
<g mask="url(#mask0_46_2245)">
<path fill-rule="evenodd" clip-rule="evenodd" d="M134.933 21.6602C134.367 22.5531 133.809 23.426 133.258 24.3034C131.75 26.7049 130.236 29.1025 128.749 31.5171C128.518 31.8926 128.264 32.0443 127.842 31.9966C127.611 31.9703 127.365 31.9506 127.141 31.9986C125.615 32.325 124.81 31.58 124.075 30.3015C122.451 27.4798 120.66 24.7547 118.933 21.9926C118.85 21.8603 118.804 21.686 118.612 21.6325C118.422 21.7725 118.526 21.9751 118.526 22.1426C118.519 27.089 118.508 32.0356 118.534 36.9819C118.537 37.5984 118.387 37.7889 117.756 37.7652C116.398 37.7142 115.036 37.7302 113.677 37.7602C113.174 37.7713 112.978 37.6559 112.979 37.1042C112.996 28.5944 112.996 20.0846 112.981 11.5748C112.98 11.0249 113.18 10.9041 113.682 10.9162C114.924 10.946 116.168 10.9567 117.409 10.9126C117.956 10.8932 118.251 11.0963 118.53 11.5444C121.171 15.7796 123.84 19.9965 126.478 24.2335C126.794 24.7409 126.908 24.6669 127.186 24.2194C129.795 20.019 132.429 15.8343 135.034 11.6314C135.351 11.1206 135.681 10.8782 136.316 10.9088C137.556 10.9689 138.801 10.9429 140.043 10.9174C140.479 10.9084 140.595 11.0519 140.594 11.4786C140.583 20.0587 140.582 28.6389 140.596 37.219C140.596 37.675 140.435 37.7613 140.025 37.7555C138.619 37.736 137.211 37.7267 135.805 37.7643C135.229 37.7797 135.05 37.6199 135.053 37.0202C135.079 32.0737 135.069 27.1273 135.064 22.1807C135.064 22.0308 135.151 21.8573 134.933 21.6602Z" fill="#333333"/>
</g>
<path fill-rule="evenodd" clip-rule="evenodd" d="M85.3913 24.3327C85.3911 20.1141 85.4004 15.8957 85.38 11.6773C85.3773 11.1154 85.502 10.9121 86.1124 10.9141C93.0276 10.9356 99.9431 10.9348 106.858 10.9145C107.464 10.9127 107.653 11.051 107.651 11.6904C107.63 20.1274 107.632 28.5644 107.656 37.0014C107.657 37.643 107.463 37.7879 106.858 37.7668C105.524 37.7204 104.186 37.725 102.851 37.7622C102.276 37.7781 102.096 37.6212 102.098 37.0216C102.12 30.3659 102.112 23.7099 102.112 17.054C102.112 16.1656 102.114 16.1673 101.194 16.1676C98.0526 16.1684 94.9111 16.187 91.7703 16.1525C91.1136 16.1452 90.9014 16.2846 90.9045 16.9861C90.9332 23.6652 90.9126 30.3446 90.9367 37.0239C90.9388 37.6386 90.7407 37.7751 90.176 37.7606C88.8409 37.7262 87.503 37.7195 86.1682 37.7629C85.5611 37.7826 85.3716 37.6239 85.3761 36.9881C85.4059 32.7699 85.3914 28.5513 85.3913 24.3327Z" fill="#333333"/>
<mask id="mask1_46_2245" style="mask-type:alpha" maskUnits="userSpaceOnUse" x="85" y="0" width="23" height="6">
<path fill-rule="evenodd" clip-rule="evenodd" d="M85.2764 0H107.753V5.52189H85.2764V0Z" fill="white"/>
</mask>
<g mask="url(#mask1_46_2245)">
<path fill-rule="evenodd" clip-rule="evenodd" d="M96.5508 5.50875C93.0583 5.50931 89.5656 5.49609 86.0732 5.52183C85.4617 5.52634 85.255 5.36269 85.2789 4.73162C85.3276 3.44456 85.33 2.153 85.2788 0.866223C85.2522 0.199266 85.4385 -0.00166485 86.1253 0.00129002C92.4774 0.0280246 98.8297 0.0178936 105.182 0.018175C105.838 0.018175 106.496 0.0456131 107.15 0.00340065C107.627 -0.0274144 107.753 0.149596 107.746 0.599722C107.724 2.0054 107.712 3.41248 107.752 4.81731C107.768 5.39098 107.558 5.52029 107.028 5.51747C103.536 5.49932 100.043 5.50819 96.5508 5.50875Z" fill="#E85047"/>
</g>
<path fill-rule="evenodd" clip-rule="evenodd" d="M80.0173 16.1914C80.0218 23.1764 80.0225 30.1613 80.0398 37.1464C80.0409 37.599 79.9254 37.7676 79.4522 37.7594C78.0225 37.7348 76.5913 37.7271 75.1622 37.7651C74.6248 37.7793 74.4858 37.6089 74.4883 37.0885C74.5073 32.9866 74.4994 28.8846 74.5 24.7826C74.5006 21.923 74.5013 19.0634 74.502 16.2038C76.3403 16.1997 78.1788 16.1955 80.0173 16.1914Z" fill="#333333"/>
<path fill-rule="evenodd" clip-rule="evenodd" d="M63.3004 16.22C63.3072 23.2235 63.3115 30.2271 63.3269 37.2306C63.3277 37.6224 63.2109 37.7644 62.8054 37.7593C61.3061 37.7405 59.8059 37.7281 58.3074 37.7661C57.6774 37.782 57.7865 37.3967 57.7865 37.0327C57.7861 31.0363 57.7818 25.0399 57.7911 19.0435C57.7925 18.0859 57.7151 17.1256 57.8451 16.1699C59.6637 16.1867 61.482 16.2033 63.3004 16.22Z" fill="#333333"/>
<path fill-rule="evenodd" clip-rule="evenodd" d="M63.3006 16.2192C61.4822 16.2025 59.6639 16.1859 57.8454 16.1691C57.8369 14.5995 57.8438 13.0295 57.8105 11.4603C57.8003 10.9839 57.9838 10.8609 58.4248 10.8613C65.4565 10.8691 72.4884 10.8657 79.5202 10.8651C79.8072 10.8651 80.0954 10.8399 80.0837 11.2787C80.0402 12.9157 80.1636 14.5551 80.0172 16.1909C78.1788 16.195 76.3403 16.1992 74.5018 16.2033C70.768 16.1631 67.0343 16.1345 63.3006 16.2192Z" fill="#E85047"/>
<path fill-rule="evenodd" clip-rule="evenodd" d="M30.0127 26.8176C30.0135 25.121 30.0144 23.4243 30.0152 21.7275C30.2927 21.721 30.5703 21.7149 30.8479 21.7082C32.3969 21.6717 33.9477 21.7834 35.4954 21.6484C35.7504 21.6708 36.0052 21.7125 36.2601 21.7129C39.5813 21.7182 42.9024 21.7188 46.2235 21.7167C46.4326 21.7165 46.6416 21.6843 46.8507 21.667C48.6831 21.6785 50.5157 21.6901 52.3482 21.7016C52.4775 23.4131 52.4772 25.1246 52.3476 26.8361C50.732 26.8345 49.1164 26.8262 47.5009 26.8387C47.2704 26.8406 46.9766 26.6949 46.8135 27.0094C46.6777 26.9831 46.5418 26.9343 46.4059 26.9341C42.9704 26.9309 39.5348 26.9315 36.0993 26.9375C35.9171 26.9379 35.735 26.993 35.5528 27.0226C35.41 26.684 35.111 26.8425 34.8874 26.8399C33.2626 26.8204 31.6376 26.8224 30.0127 26.8176Z" fill="#E85047"/>
<path fill-rule="evenodd" clip-rule="evenodd" d="M0.700942 32.5286C0.698831 25.615 0.704741 18.7016 0.681665 11.7881C0.679554 11.1397 0.813931 10.8791 1.52324 10.9108C2.83337 10.9692 4.149 10.9576 5.46026 10.9139C6.09091 10.8927 6.29859 11.057 6.29606 11.726C6.27059 18.3817 6.28073 25.0374 6.2834 31.6931C6.2834 31.97 6.21825 32.2584 6.38527 32.5158C4.49049 32.594 2.59572 32.5669 0.700942 32.5286Z" fill="#333333"/>
<path fill-rule="evenodd" clip-rule="evenodd" d="M17.354 32.5326C17.5473 32.2566 17.4652 31.9417 17.4654 31.6442C17.4702 25.0122 17.4768 18.3802 17.4569 11.7483C17.455 11.1289 17.5763 10.8809 18.26 10.9106C19.5937 10.9684 20.9325 10.9571 22.2671 10.9135C22.8737 10.8938 23.0063 11.1139 23.0047 11.6784C22.9857 18.6143 22.9889 25.5504 22.9864 32.4865C21.1101 32.6362 19.2316 32.5428 17.354 32.5326Z" fill="#333333"/>
<mask id="mask2_46_2245" style="mask-type:alpha" maskUnits="userSpaceOnUse" x="0" y="32" width="23" height="6">
<path fill-rule="evenodd" clip-rule="evenodd" d="M0.595703 32.4805H22.9864V37.7342H0.595703V32.4805Z" fill="white"/>
</mask>
<g mask="url(#mask2_46_2245)">
<path fill-rule="evenodd" clip-rule="evenodd" d="M17.354 32.5327C19.2317 32.5428 21.1101 32.6362 22.9865 32.4865L22.9698 32.4805C22.8047 32.7343 22.8799 33.0201 22.8777 33.2898C22.8669 34.5448 22.8781 35.8001 22.8681 37.055C22.8666 37.2534 22.999 37.5623 22.6002 37.5647C22.1633 37.5674 21.7534 37.7869 21.3086 37.7223C14.7042 37.7193 8.09981 37.7162 1.49539 37.7131C0.600484 37.7127 0.600625 37.7121 0.601329 36.7913C0.602173 35.5973 0.600766 34.4031 0.605128 33.2091C0.605831 32.9793 0.550392 32.7384 0.700669 32.5286C2.59559 32.5671 4.49036 32.5943 6.38514 32.5161C10.0416 32.5217 13.6979 32.5272 17.354 32.5327Z" fill="#E85047"/>
</g>
<path fill-rule="evenodd" clip-rule="evenodd" d="M46.8135 27.0094C46.9764 26.6949 47.2704 26.8405 47.5007 26.8389C49.1163 26.8263 50.7319 26.8345 52.3475 26.836C52.3581 30.3032 52.3637 33.7703 52.3857 37.2373C52.3882 37.6485 52.2189 37.7637 51.8411 37.7603C50.3883 37.7473 48.9347 37.7242 47.4827 37.7626C46.9097 37.7778 46.8411 37.5355 46.8436 37.0567C46.8605 33.964 46.8541 30.8714 46.8522 27.7787C46.852 27.5223 46.827 27.2658 46.8135 27.0094Z" fill="#333333"/>
<path fill-rule="evenodd" clip-rule="evenodd" d="M30.0127 26.8192C31.6376 26.824 33.2627 26.822 34.8874 26.8414C35.111 26.8441 35.41 26.6855 35.5528 27.0242C35.5479 27.1863 35.5428 27.3487 35.5378 27.5109C35.5376 27.5109 35.5375 27.4833 35.5375 27.4833C35.5313 30.6407 35.5065 33.7983 35.5348 36.9554C35.5406 37.6036 35.3668 37.7913 34.7177 37.7677C33.3159 37.7165 31.9107 37.7417 30.5072 37.7573C30.1409 37.7612 29.9507 37.7 29.9527 37.2683C29.9684 33.8536 29.9645 30.4388 29.969 27.0241C29.9691 26.9557 29.9975 26.8874 30.0127 26.8192Z" fill="#333333"/>
<path fill-rule="evenodd" clip-rule="evenodd" d="M52.3479 21.7016C50.5155 21.6901 48.6829 21.6786 46.8505 21.6672C46.8517 18.3421 46.8696 15.0169 46.8395 11.6919C46.8339 11.0666 47.0079 10.8913 47.6269 10.9117C49.0072 10.9573 50.3903 10.9316 51.7722 10.9182C52.1559 10.9145 52.3856 10.9767 52.3825 11.447C52.36 14.8651 52.3571 18.2834 52.3479 21.7016Z" fill="#333333"/>
<path fill-rule="evenodd" clip-rule="evenodd" d="M35.4955 21.6493C33.9478 21.7842 32.3969 21.6725 30.848 21.7092C30.5704 21.7157 30.2928 21.722 30.0153 21.7285C29.8901 20.5613 29.9766 19.3906 29.9676 18.2219C29.9503 15.9974 29.9738 13.7726 29.95 11.5483C29.9447 11.0548 30.0973 10.9066 30.5881 10.9165C32.0398 10.9457 33.4925 10.9366 34.9444 10.9201C35.3473 10.9156 35.5311 11.0102 35.528 11.4637C35.5043 14.8588 35.5035 18.2541 35.4955 21.6493Z" fill="#333333"/>
<path fill-rule="evenodd" clip-rule="evenodd" d="M21.3086 37.7223C21.7534 37.7869 22.1633 37.5672 22.6002 37.5647C22.9991 37.5623 22.8665 37.2534 22.8681 37.055C22.8782 35.7999 22.8668 34.5448 22.8776 33.2897C22.88 33.0201 22.8046 32.7343 22.9698 32.4805C23.8823 32.4838 24.7951 32.501 25.7071 32.4844C26.1024 32.4772 26.2369 32.6184 26.2355 33.0145C26.2231 36.3418 26.219 39.6694 26.2344 42.9967C26.2366 43.4725 26.0607 43.5933 25.6164 43.5846C24.398 43.5608 23.1782 43.5522 21.9604 43.5868C21.4348 43.6016 21.3376 43.3817 21.3394 42.9214C21.3463 41.1885 21.3215 39.4554 21.3086 37.7223Z" fill="#333333"/>
<path fill-rule="evenodd" clip-rule="evenodd" d="M122.108 49.9907C121.5 49.9907 120.891 49.9781 120.284 49.9954C119.929 50.0054 119.778 49.885 119.783 49.5131C119.798 48.4607 119.788 47.4081 119.787 46.3555C119.787 46.1092 119.789 45.8713 120.142 45.8894C120.484 45.9069 120.475 46.1431 120.474 46.3884C120.471 47.1602 120.514 47.9349 120.46 48.703C120.42 49.2718 120.697 49.2781 121.127 49.2861C121.591 49.2947 121.8 49.2003 121.767 48.6747C121.72 47.9059 121.758 47.1317 121.755 46.36C121.753 46.1016 121.789 45.8901 122.119 45.8868C122.48 45.8831 122.452 46.1403 122.453 46.3742C122.455 47.1693 122.489 47.9667 122.442 48.7592C122.409 49.3272 122.743 49.2771 123.105 49.2767C123.463 49.2763 123.802 49.3326 123.771 48.7652C123.728 47.9723 123.762 47.1754 123.763 46.3801C123.764 46.1405 123.748 45.8894 124.098 45.8893C124.434 45.8893 124.45 46.1148 124.449 46.3694C124.445 47.3985 124.435 48.4278 124.455 49.4567C124.462 49.8473 124.337 50.0084 123.933 49.9929C123.326 49.9697 122.717 49.9869 122.108 49.9869V49.9907Z" fill="#333333"/>
<path fill-rule="evenodd" clip-rule="evenodd" d="M40.2347 54.7635C40.2347 54.5067 40.2133 54.2478 40.2395 53.9938C40.2824 53.5783 40.1425 53.4075 39.7003 53.4071C39.2731 53.4065 39.1526 53.5537 39.1279 53.9738C39.0951 54.5281 38.9573 55.0767 38.8536 55.6257C38.8138 55.8361 38.7216 56.0179 39.0557 56.0936C39.9459 56.2952 40.2352 56.0846 40.2354 55.1836C40.2354 55.0435 40.2354 54.9035 40.2347 54.7635ZM39.7744 52.7155C40.9201 52.7205 40.9202 52.7205 40.9216 53.8562C40.9222 54.3004 40.9032 54.7458 40.9277 55.1888C40.9475 55.5475 40.8262 55.887 41.2855 56.2043C41.6035 56.424 41.4094 57.0815 41.363 57.5406C41.3466 57.7037 41.1397 57.6615 41.0044 57.6625C40.7796 57.6642 40.7234 57.5148 40.7494 57.3358C40.8259 56.8098 40.511 56.7687 40.1138 56.7857C39.7169 56.8028 39.3182 56.8032 38.9212 56.7897C38.4618 56.7739 37.9912 56.7099 38.1079 57.4295C38.1357 57.6014 38.0009 57.6626 37.838 57.6669C37.6475 57.6719 37.4837 57.6111 37.5237 57.4013C37.6175 56.9082 37.2574 56.3407 37.956 55.9322C38.3323 55.7123 38.3053 55.0483 38.3997 54.5685C38.4446 54.3404 38.4406 54.103 38.463 53.8703C38.5745 52.7101 38.5749 52.7103 39.7744 52.7155Z" fill="#333333"/>
<path fill-rule="evenodd" clip-rule="evenodd" d="M93.798 54.5006C93.5691 54.8673 93.3432 55.2358 93.1105 55.5999C92.8637 55.986 92.5989 55.9798 92.3555 55.6034C92.1061 55.2183 91.8771 54.8201 91.4912 54.4695C91.4912 55.0858 91.4883 55.7022 91.4926 56.3185C91.4945 56.5762 91.4668 56.7854 91.1275 56.7853C90.7729 56.785 90.7836 56.5517 90.7843 56.3074C90.7874 55.277 90.7843 54.2466 90.7928 53.2163C90.7943 53.0274 90.6855 52.771 91.0165 52.7192C91.2875 52.6767 91.4523 52.8007 91.5828 53.0288C91.862 53.5163 92.1665 53.9894 92.4426 54.4785C92.6358 54.8207 92.7942 54.8829 93.0103 54.4954C93.2839 54.005 93.5912 53.5335 93.8664 53.0441C93.9946 52.816 94.1457 52.6787 94.4216 52.7205C94.7921 52.7768 94.6684 53.0634 94.6703 53.2726C94.6786 54.2795 94.6708 55.2866 94.6745 56.2935C94.6753 56.5437 94.6712 56.7795 94.3338 56.7845C93.9988 56.7896 93.9785 56.5659 93.9821 56.3077C93.9902 55.7256 93.9847 55.1433 93.9847 54.5611C93.9224 54.541 93.8602 54.5207 93.798 54.5006Z" fill="#333333"/>
<path fill-rule="evenodd" clip-rule="evenodd" d="M134.375 48.4143C134.81 47.7649 135.236 47.1085 135.686 46.4696C135.875 46.201 136.008 45.7529 136.461 45.9155C136.846 46.0534 136.648 46.4482 136.656 46.723C136.682 47.6109 136.674 48.5 136.663 49.3886C136.66 49.6192 136.782 49.9664 136.372 49.976C135.909 49.9869 136.047 49.6072 136.041 49.3565C136.026 48.7288 136.036 48.1004 136.036 47.395C135.545 47.6529 135.435 48.1106 135.175 48.4381C134.871 48.8214 134.614 49.2441 134.356 49.6617C134.203 49.9103 134.015 50.0505 133.723 49.9612C133.442 49.8758 133.518 49.6268 133.518 49.4281C133.513 48.4226 133.517 47.4171 133.516 46.4116C133.515 46.1443 133.5 45.8763 133.892 45.8884C134.25 45.8996 134.212 46.1606 134.214 46.3906C134.218 47.0437 134.215 47.6968 134.215 48.35C134.269 48.3714 134.322 48.3929 134.375 48.4143Z" fill="#333333"/>
<path fill-rule="evenodd" clip-rule="evenodd" d="M58.3876 55.2213C58.8439 54.5323 59.3018 53.8443 59.7559 53.1539C59.9268 52.894 60.0943 52.621 60.4707 52.7327C60.8434 52.8435 60.6653 53.1637 60.67 53.3866C60.6906 54.3451 60.6812 55.3042 60.683 56.2631C60.6836 56.4982 60.7182 56.756 60.3708 56.7767C59.9531 56.8016 60.0228 56.4971 60.0219 56.2475C60.0195 55.5797 60.0211 54.9118 59.8833 54.202C59.3934 54.9251 58.9023 55.6474 58.4144 56.3717C58.2542 56.6094 58.0992 56.8641 57.7533 56.773C57.3844 56.6761 57.5209 56.3588 57.5179 56.1266C57.5057 55.1445 57.5166 54.1622 57.5113 53.1799C57.5099 52.9228 57.5261 52.7185 57.8676 52.7133C58.2355 52.7076 58.2034 52.9486 58.203 53.1862C58.2022 53.8472 58.2027 54.5082 58.2027 55.1692C58.2644 55.1866 58.326 55.204 58.3876 55.2213Z" fill="#333333"/>
<path fill-rule="evenodd" clip-rule="evenodd" d="M29.9598 47.8814C29.9606 47.3657 29.9604 46.85 29.9608 46.3343C29.9611 46.1182 29.9497 45.8977 30.2637 45.8893C30.5881 45.8804 30.6512 46.0768 30.65 46.3442C30.6465 47.1178 30.6701 47.8923 30.6397 48.6646C30.6227 49.1005 30.7264 49.3085 31.2098 49.2865C32.6482 49.2217 32.3755 49.491 32.4008 48.1067C32.4111 47.5441 32.407 46.9815 32.4012 46.4189C32.3984 46.1428 32.4031 45.8837 32.7802 45.8867C33.1411 45.8897 33.098 46.158 33.0991 46.3889C33.102 46.975 33.0734 47.5627 33.1086 48.1467C33.1353 48.5881 32.9263 49.0475 33.4615 49.4489C33.7228 49.6449 33.5714 50.2901 33.4968 50.7274C33.4689 50.8902 33.2918 50.8975 33.1473 50.8777C32.9722 50.8536 32.9096 50.7188 32.9313 50.5722C33.0254 49.9366 32.6099 49.9774 32.1916 49.9856C31.6057 49.9971 31.0186 49.9697 30.4334 49.9939C30.0545 50.0095 29.9416 49.8529 29.954 49.4987C29.9727 48.9602 29.959 48.4206 29.9598 47.8814Z" fill="#333333"/>
<path fill-rule="evenodd" clip-rule="evenodd" d="M111.926 47.5829C112.454 47.5497 112.946 47.6236 112.928 47.0399C112.912 46.5093 112.443 46.5911 112.083 46.5625C111.712 46.5332 111.471 46.5928 111.465 47.0674C111.459 47.5434 111.689 47.6157 111.926 47.5829ZM112.144 49.3134C112.535 49.2714 113.09 49.3955 113.089 48.7747C113.087 48.1449 112.543 48.2026 112.101 48.1773C111.706 48.1546 111.454 48.1911 111.463 48.7252C111.471 49.2581 111.673 49.3907 112.144 49.3134ZM110.798 47.9281C110.798 47.4134 110.807 46.8984 110.794 46.3841C110.785 46.0372 110.9 45.8518 111.279 45.8846C111.813 45.9309 112.355 45.819 112.884 45.9801C113.583 46.1932 113.891 46.8344 113.517 47.4601C113.337 47.7609 113.366 47.8849 113.569 48.1536C114.103 48.8634 113.733 49.7607 112.852 49.9095C112.192 50.0211 111.303 50.284 110.92 49.8282C110.599 49.4462 110.854 48.5803 110.854 47.9285C110.835 47.9284 110.817 47.9282 110.798 47.9281Z" fill="#333333"/>
<path fill-rule="evenodd" clip-rule="evenodd" d="M80.8697 47.5708C81.3319 47.5654 81.8009 47.6122 81.8149 47.0516C81.827 46.5681 81.408 46.5716 81.0546 46.5666C80.7119 46.5615 80.3552 46.4835 80.3582 47.052C80.3604 47.5042 80.5322 47.6317 80.8697 47.5708ZM80.9943 49.3197C81.4011 49.2763 81.9732 49.3999 81.9537 48.733C81.9367 48.1471 81.4228 48.1944 81.0081 48.1739C80.6426 48.1556 80.3334 48.1363 80.3561 48.6958C80.3754 49.1685 80.4727 49.4117 80.9943 49.3197ZM79.6866 47.9455C79.6866 47.7347 79.6582 47.5192 79.6924 47.3141C79.7697 46.8506 79.4055 46.1285 79.8937 45.9691C80.5723 45.7475 81.399 45.73 82.08 46.1205C82.6018 46.4197 82.6952 46.9615 82.3854 47.4648C82.1984 47.7688 82.2434 47.8995 82.4464 48.1685C82.9621 48.8524 82.6038 49.7173 81.7743 49.9101C81.7516 49.9153 81.7277 49.9153 81.7048 49.9198C79.7833 50.2998 79.6866 50.2053 79.6866 47.9455Z" fill="#333333"/>
<path fill-rule="evenodd" clip-rule="evenodd" d="M122.911 53.3537C122.741 53.3351 122.43 53.2962 122.442 53.8159C122.45 54.2067 122.508 54.4363 122.969 54.391C123.377 54.3508 123.906 54.4403 123.915 53.8579C123.923 53.3714 123.457 53.3672 122.911 53.3537ZM122.942 56.1503C123.509 56.1044 124.075 56.1891 124.065 55.555C124.056 54.9288 123.492 55.029 123.063 54.9932C122.656 54.9592 122.427 55.0236 122.437 55.5388C122.446 56.0362 122.592 56.228 122.942 56.1503ZM122.873 52.725C123.107 52.725 123.343 52.7034 123.574 52.7288C124.491 52.8297 124.891 53.5198 124.461 54.3224C124.326 54.5745 124.33 54.6788 124.498 54.9087C125.08 55.7066 124.71 56.563 123.744 56.7334C121.845 57.0681 121.757 56.9976 121.758 55.1461C121.758 54.6088 121.812 54.0653 121.748 53.5358C121.665 52.8369 121.933 52.6023 122.593 52.7141C122.684 52.7294 122.78 52.7162 122.873 52.7162V52.725Z" fill="#333333"/>
<path fill-rule="evenodd" clip-rule="evenodd" d="M59.1621 47.9117C59.1621 47.397 59.1766 46.8818 59.1571 46.3678C59.1432 45.9994 59.2928 45.8734 59.6534 45.8834C60.3548 45.9028 61.0574 45.9019 61.759 45.8859C62.1008 45.878 62.284 45.9671 62.2802 46.3502C62.2696 47.4262 62.2786 48.5024 62.2845 49.5785C62.2858 49.8242 62.2197 49.9923 61.9322 49.9782C61.6388 49.9639 61.6097 49.7616 61.6105 49.5359C61.6135 48.7639 61.5955 47.9912 61.6277 47.2204C61.6464 46.7742 61.515 46.5541 61.0432 46.6093C60.9046 46.6255 60.7598 46.6331 60.6229 46.6118C60.0148 46.5171 59.7841 46.7384 59.8375 47.3753C59.8957 48.0722 59.8527 48.7777 59.8515 49.4796C59.8512 49.7153 59.8743 49.9698 59.5261 49.9842C59.1249 50.0008 59.1594 49.7155 59.1588 49.4557C59.158 48.9409 59.1585 48.4264 59.1585 47.9117H59.1621Z" fill="#333333"/>
<path fill-rule="evenodd" clip-rule="evenodd" d="M52.5511 54.7503C52.5559 53.9262 52.0523 53.351 51.3133 53.3367C50.6051 53.3229 50.0556 53.9364 50.0576 54.7384C50.0597 55.566 50.5643 56.1307 51.3037 56.1332C52.0558 56.1359 52.5462 55.5921 52.5511 54.7503ZM53.2449 54.7795C53.233 56.0318 52.4267 56.8741 51.2628 56.8501C50.1524 56.8272 49.3601 55.9583 49.3531 54.7557C49.3458 53.53 50.1641 52.6608 51.3206 52.666C52.4978 52.6714 53.257 53.5054 53.2449 54.7795Z" fill="#333333"/>
<path fill-rule="evenodd" clip-rule="evenodd" d="M97.4431 46.5309C96.745 46.5274 96.1895 47.149 96.1842 47.9397C96.1788 48.7407 96.71 49.3266 97.4412 49.3262C98.1673 49.3259 98.6954 48.7435 98.7 47.9382C98.7047 47.1514 98.1537 46.5344 97.4431 46.5309ZM99.3879 47.956C99.3823 49.1848 98.5541 50.0611 97.4076 50.0511C96.2914 50.0414 95.4535 49.1022 95.4806 47.8913C95.5074 46.7028 96.3236 45.8528 97.4377 45.8535C98.6003 45.8544 99.3937 46.7097 99.3879 47.956Z" fill="#333333"/>
<path fill-rule="evenodd" clip-rule="evenodd" d="M79.7683 54.7596C79.7788 53.9287 79.2855 53.3564 78.5437 53.339C77.8327 53.3224 77.2842 53.9264 77.2786 54.7325C77.2727 55.5709 77.7563 56.1175 78.5155 56.1305C79.2721 56.1436 79.7574 55.6124 79.7683 54.7596ZM80.4563 54.7966C80.4527 56.015 79.6755 56.8453 78.5382 56.8467C77.3709 56.848 76.586 55.9972 76.5933 54.739C76.6009 53.4604 77.3634 52.6572 78.5594 52.6681C79.7393 52.6788 80.4604 53.488 80.4563 54.7966Z" fill="#333333"/>
<path fill-rule="evenodd" clip-rule="evenodd" d="M90.921 47.976C90.933 47.1507 90.4418 46.5649 89.7129 46.5351C89.0095 46.5063 88.4309 47.1109 88.4094 47.8973C88.3874 48.6977 88.9059 49.3023 89.6296 49.3202C90.3827 49.3387 90.9092 48.7905 90.921 47.976ZM89.6489 45.8535C90.8228 45.8497 91.6106 46.684 91.617 47.9377C91.6231 49.1562 90.7833 50.06 89.6541 50.05C88.52 50.0399 87.7053 49.141 87.7115 47.9069C87.7174 46.7225 88.5339 45.857 89.6489 45.8535Z" fill="#333333"/>
<path fill-rule="evenodd" clip-rule="evenodd" d="M87.545 54.7328C87.5422 53.9027 87.0376 53.3405 86.2903 53.3346C85.5869 53.3291 85.0449 53.9481 85.0449 54.757C85.0448 55.5702 85.5705 56.1406 86.3137 56.1336C87.062 56.1266 87.548 55.5737 87.545 54.7328ZM86.3351 52.6661C87.5077 52.6768 88.2555 53.5128 88.2401 54.796C88.2256 56.0013 87.4343 56.8407 86.3071 56.846C85.1499 56.8515 84.3652 55.9937 84.3746 54.7334C84.384 53.4568 85.144 52.6553 86.3351 52.6661Z" fill="#333333"/>
<path fill-rule="evenodd" clip-rule="evenodd" d="M34.4565 47.9366C34.4565 47.8897 34.4565 47.8429 34.4565 47.796C34.4565 45.733 34.4563 45.7375 36.5311 45.8837C36.7995 45.9025 36.9935 45.9449 36.9993 46.2606C37.0056 46.5986 36.784 46.6246 36.5271 46.6186C36.2459 46.6118 35.9637 46.6311 35.6837 46.6124C35.3167 46.5879 35.1346 46.6799 35.1246 47.1087C35.1136 47.5848 35.3764 47.5799 35.7025 47.5716C35.9835 47.5646 36.2649 47.5719 36.5461 47.572C36.7788 47.5721 36.8854 47.6847 36.8776 47.9198C36.8702 48.142 36.7826 48.2755 36.5441 48.2755C36.2628 48.2755 35.98 48.2962 35.7008 48.2727C35.2787 48.2373 35.1311 48.3995 35.1227 48.8298C35.1131 49.3179 35.4118 49.2756 35.7173 49.2774C36.0221 49.2792 36.3267 49.2798 36.6313 49.2753C36.8677 49.2718 37.0464 49.3185 37.0509 49.6131C37.0551 49.8879 36.9198 49.9908 36.664 49.9894C36.0548 49.9864 35.4452 49.975 34.8363 49.9905C34.5058 49.9989 34.4467 49.8252 34.4504 49.5532C34.4577 49.0144 34.4526 48.4755 34.4526 47.9366H34.4565Z" fill="#333333"/>
<path fill-rule="evenodd" clip-rule="evenodd" d="M106.693 47.9394C106.695 48.7963 107.172 49.3317 107.926 49.3259C108.68 49.3202 109.185 48.7618 109.181 47.9397C109.178 47.132 108.639 46.5295 107.926 46.5346C107.186 46.5398 106.691 47.1032 106.693 47.9394ZM109.831 47.976C109.828 49.22 109.088 50.032 107.942 50.0483C106.794 50.0646 105.995 49.2006 105.994 47.9418C105.993 46.6627 106.75 45.8501 107.94 45.8535C109.123 45.8568 109.835 46.6556 109.831 47.976Z" fill="#333333"/>
<path fill-rule="evenodd" clip-rule="evenodd" d="M125.615 47.9104C125.615 47.4191 125.628 46.9272 125.611 46.4364C125.598 46.0704 125.689 45.8624 126.115 45.8844C126.652 45.9121 127.192 45.9032 127.73 45.8875C128.024 45.8789 128.168 45.9787 128.162 46.2841C128.156 46.5698 127.994 46.6321 127.747 46.6225C127.467 46.6116 127.185 46.63 126.905 46.6147C126.537 46.5947 126.282 46.631 126.281 47.1197C126.281 47.5978 126.551 47.5794 126.872 47.5715C127.129 47.5652 127.387 47.5754 127.644 47.5692C127.896 47.5632 128.044 47.6489 128.038 47.9301C128.031 48.2137 127.869 48.2828 127.625 48.2767C127.367 48.2705 127.109 48.2895 126.852 48.2735C126.489 48.251 126.291 48.3461 126.282 48.7693C126.274 49.1846 126.439 49.2997 126.818 49.2774C127.168 49.2569 127.52 49.276 127.871 49.2791C128.097 49.2811 128.22 49.3818 128.207 49.6224C128.196 49.8348 128.123 49.9903 127.881 49.9897C127.226 49.9884 126.571 49.9881 125.916 49.9758C125.619 49.9703 125.611 49.748 125.612 49.5251C125.615 48.9869 125.613 48.4487 125.613 47.9104H125.615Z" fill="#333333"/>
<path fill-rule="evenodd" clip-rule="evenodd" d="M34.2711 54.7461C34.2711 54.2317 34.2863 53.7167 34.2659 53.2031C34.2518 52.8508 34.3552 52.6936 34.7381 52.7124C35.298 52.7402 35.8604 52.7213 36.4217 52.7177C36.6579 52.7161 36.8429 52.7593 36.831 53.0572C36.8204 53.3235 36.6797 53.4239 36.4248 53.4184C36.0975 53.4115 35.7696 53.4268 35.4426 53.4175C35.1238 53.4085 34.9105 53.4596 34.9127 53.867C34.915 54.2664 35.0647 54.4152 35.4533 54.3863C35.7323 54.3658 36.0146 54.3898 36.2949 54.3803C36.5444 54.3718 36.7062 54.4453 36.701 54.7274C36.6959 55.005 36.528 55.0806 36.2845 55.0766C36.0039 55.0723 35.7215 55.0951 35.4429 55.0714C35.0485 55.0378 34.9064 55.1876 34.9079 55.5891C34.9095 55.9962 35.0696 56.1255 35.4539 56.0999C35.8031 56.0766 36.1552 56.0931 36.506 56.0975C36.7122 56.0999 36.8704 56.1598 36.8769 56.4125C36.8838 56.6844 36.7512 56.7883 36.4924 56.7867C35.8844 56.7826 35.2762 56.7768 34.6683 56.7906C34.3503 56.7979 34.2669 56.6416 34.2718 56.3595C34.2809 55.8218 34.2745 55.2839 34.2745 54.7461H34.2711Z" fill="#333333"/>
<path fill-rule="evenodd" clip-rule="evenodd" d="M29.961 54.7425C29.9618 54.2278 29.9807 53.7123 29.9555 53.1988C29.9379 52.8421 30.0391 52.6941 30.4217 52.7079C31.1462 52.7339 31.8725 52.7306 32.5974 52.711C32.9643 52.701 33.0851 52.8336 33.0784 53.1987C33.0591 54.2277 33.0695 55.2573 33.0737 56.2865C33.0747 56.5324 33.0891 56.7734 32.7434 56.7799C32.3959 56.7863 32.3995 56.5461 32.4005 56.2992C32.4038 55.5273 32.3819 54.7545 32.411 53.9836C32.427 53.5588 32.2959 53.4001 31.8573 53.4112C30.4225 53.4478 30.6711 53.2524 30.6493 54.5823C30.6398 55.1669 30.6448 55.7521 30.6567 56.3368C30.6623 56.6142 30.5925 56.7845 30.2714 56.7831C29.9537 56.7816 29.9583 56.5782 29.9593 56.3568C29.9617 55.8187 29.9601 55.2806 29.961 54.7425Z" fill="#333333"/>
<path fill-rule="evenodd" clip-rule="evenodd" d="M41.1923 47.9695C41.192 48.508 41.189 49.0465 41.1933 49.5849C41.1952 49.8371 41.1001 49.9817 40.8287 49.99C40.5193 49.9996 40.4978 49.7998 40.503 49.5721C40.5039 49.5253 40.5056 49.4784 40.5046 49.4316C40.4789 48.2454 40.4788 48.2723 39.2819 48.2647C38.7644 48.2614 38.6187 48.4572 38.6714 48.9263C38.6972 49.1576 38.6797 49.394 38.6788 49.6281C38.6778 49.8486 38.5859 49.9868 38.3444 49.9788C38.1025 49.9708 38.0292 49.823 38.0294 49.6059C38.0306 48.5053 38.0299 47.4048 38.0283 46.3043C38.028 46.067 38.0863 45.8787 38.3747 45.8912C38.62 45.9018 38.6775 46.0701 38.6771 46.2786C38.6768 46.419 38.6756 46.5596 38.6775 46.7C38.6902 47.6148 38.4682 47.6152 39.5705 47.6093C40.708 47.6031 40.4751 47.656 40.5135 46.595C40.5228 46.3404 40.3096 45.9111 40.8233 45.8942C41.3275 45.8778 41.1599 46.2925 41.1819 46.5649C41.2006 46.7977 41.191 47.0329 41.1923 47.2671C41.1936 47.5012 41.1926 47.7353 41.1923 47.9695Z" fill="#333333"/>
<path fill-rule="evenodd" clip-rule="evenodd" d="M105.038 47.997C105.038 48.5345 105.037 49.0721 105.038 49.6096C105.038 49.8169 104.992 49.9833 104.735 49.9831C104.476 49.9829 104.351 49.8671 104.353 49.5996C104.36 48.8284 104.33 48.0556 104.369 47.2862C104.394 46.7748 104.244 46.5273 103.707 46.612C103.684 46.6156 103.66 46.612 103.636 46.613C102.524 46.6581 102.587 46.356 102.585 47.6467C102.585 48.2545 102.588 48.862 102.585 49.4698C102.584 49.6983 102.635 49.9734 102.279 49.9819C101.948 49.99 101.924 49.7558 101.925 49.5018C101.929 48.4734 101.939 47.4448 101.923 46.4167C101.917 46.0242 102.063 45.8751 102.457 45.8866C103.158 45.9072 103.86 45.907 104.56 45.8854C104.938 45.8737 105.05 46.0346 105.039 46.3843C105.022 46.9214 105.034 47.4593 105.034 47.997H105.038Z" fill="#333333"/>
<path fill-rule="evenodd" clip-rule="evenodd" d="M132.347 47.9342C132.347 48.4487 132.346 48.9632 132.348 49.4777C132.348 49.7151 132.378 49.9725 132.03 49.9843C131.638 49.9977 131.659 49.7162 131.661 49.4521C131.663 49.2885 131.641 49.1211 131.667 48.9616C131.763 48.3767 131.485 48.2537 130.954 48.267C129.875 48.294 129.881 48.2685 129.854 49.3387C129.848 49.5857 129.998 49.967 129.538 49.9735C129.094 49.9797 129.193 49.6208 129.192 49.3562C129.188 48.3739 129.191 47.3916 129.193 46.4093C129.193 46.179 129.146 45.908 129.5 45.895C129.897 45.8807 129.856 46.175 129.859 46.4325C129.859 46.4559 129.858 46.4793 129.859 46.5026C129.881 47.5899 130.305 47.889 131.391 47.6056C131.59 47.554 131.664 47.4538 131.664 47.2683C131.664 47.0578 131.639 46.8441 131.669 46.6377C131.708 46.3566 131.474 45.8895 132.024 45.8984C132.522 45.9064 132.32 46.3387 132.336 46.6015C132.364 47.0442 132.344 47.4898 132.344 47.9342H132.347Z" fill="#333333"/>
<path fill-rule="evenodd" clip-rule="evenodd" d="M65.812 54.7083C65.812 54.6849 65.812 54.6614 65.812 54.6381C65.812 52.5135 65.8843 52.4527 68.0057 52.7137C68.2153 52.7395 68.3739 52.7688 68.3737 53.0232C68.3735 53.2736 68.2789 53.4231 68.0028 53.4181C67.6751 53.4124 67.3464 53.4321 67.0196 53.4149C66.6699 53.3967 66.4458 53.4428 66.4441 53.8901C66.4427 54.3166 66.6259 54.4131 66.9947 54.3882C67.2744 54.3692 67.5569 54.3942 67.8374 54.3817C68.1023 54.3699 68.2361 54.4798 68.2328 54.7452C68.2297 54.981 68.0916 55.0741 67.871 55.0748C67.59 55.076 67.3069 55.1003 67.0284 55.0741C66.619 55.0359 66.4358 55.1529 66.441 55.6078C66.4459 56.0404 66.6387 56.119 67.0028 56.0954C67.3294 56.0743 67.6584 56.0954 67.9862 56.0903C68.2259 56.0867 68.4008 56.1415 68.4027 56.4314C68.4046 56.7079 68.2593 56.8054 68.0054 56.7922C67.9585 56.7896 67.9117 56.7884 67.8648 56.7899C65.812 56.8599 65.812 56.86 65.812 54.7083Z" fill="#333333"/>
<path fill-rule="evenodd" clip-rule="evenodd" d="M107.116 54.7122C107.116 54.642 107.111 54.5712 107.117 54.5016C107.17 53.9285 106.842 53.0977 107.248 52.8381C107.817 52.474 108.655 52.7454 109.377 52.7201C109.647 52.7105 109.664 52.8972 109.661 53.0997C109.658 53.3379 109.534 53.4299 109.306 53.426C108.932 53.4194 108.556 53.4367 108.182 53.4152C107.812 53.3938 107.765 53.5977 107.765 53.8958C107.766 54.184 107.784 54.4097 108.164 54.3872C108.468 54.3692 108.773 54.3868 109.078 54.3818C109.336 54.3778 109.546 54.4096 109.538 54.7504C109.53 55.0557 109.336 55.0748 109.109 55.0726C108.852 55.0702 108.592 55.0937 108.337 55.0695C107.926 55.0305 107.751 55.1529 107.759 55.607C107.767 56.0269 107.931 56.1275 108.304 56.1007C108.631 56.0772 108.96 56.1033 109.288 56.0958C109.528 56.0903 109.708 56.14 109.709 56.4297C109.71 56.6975 109.575 56.8112 109.314 56.7898C109.267 56.7858 109.22 56.7878 109.173 56.7895C107.101 56.8634 107.101 56.8634 107.116 54.7122Z" fill="#333333"/>
<path fill-rule="evenodd" clip-rule="evenodd" d="M67.2833 47.8704C67.2842 47.8471 67.2842 47.8236 67.2842 47.8002C67.2864 45.6468 67.2859 45.6507 69.4265 45.8864C69.6709 45.9133 69.8313 45.9675 69.8367 46.2441C69.8419 46.5158 69.7036 46.6205 69.4462 46.6163C69.1185 46.6111 68.7891 46.6344 68.4634 46.609C68.0705 46.578 67.9345 46.7173 67.9284 47.1231C67.9222 47.542 68.1336 47.5807 68.4485 47.572C68.7525 47.5637 69.057 47.57 69.3614 47.5682C69.5823 47.5669 69.7231 47.6526 69.7181 47.8946C69.7137 48.1076 69.6286 48.2624 69.3939 48.2707C69.0898 48.2814 68.7848 48.2927 68.4813 48.2786C68.1199 48.2619 67.9246 48.3483 67.9197 48.777C67.9148 49.2022 68.0909 49.2999 68.4627 49.2785C68.8126 49.2584 69.1647 49.2771 69.5159 49.275C69.7341 49.2737 69.8744 49.3471 69.8795 49.5937C69.8848 49.8496 69.7883 49.9881 69.5131 49.9855C68.9045 49.9802 68.2957 49.9805 67.6871 49.9872C67.3849 49.9906 67.2744 49.8458 67.2795 49.5555C67.2892 48.994 67.2823 48.4321 67.2833 47.8704Z" fill="#333333"/>
<path fill-rule="evenodd" clip-rule="evenodd" d="M55.6095 47.9412C55.6095 47.449 55.6246 46.9562 55.6049 46.4647C55.5887 46.0578 55.712 45.8567 56.1624 45.8832C56.6997 45.9147 57.2405 45.8948 57.7797 45.8877C58.0414 45.8842 58.162 45.9843 58.1601 46.259C58.1583 46.5404 58.0235 46.623 57.767 46.615C57.4392 46.6049 57.1084 46.6391 56.783 46.6091C56.3774 46.5717 56.2586 46.729 56.2574 47.1252C56.2559 47.5302 56.4487 47.5894 56.7764 47.5724C57.0804 47.5568 57.3857 47.5732 57.6905 47.5703C57.9174 47.568 58.046 47.6552 58.0332 47.9013C58.0223 48.1154 57.9415 48.2693 57.7062 48.2755C57.4017 48.2837 57.0947 48.3007 56.7926 48.2727C56.3993 48.2361 56.2576 48.3717 56.2571 48.7789C56.2564 49.1839 56.3917 49.3179 56.7873 49.283C57.1361 49.2521 57.4901 49.2844 57.8416 49.2759C58.0688 49.2706 58.1988 49.3523 58.2062 49.5917C58.214 49.8444 58.1177 49.9918 57.8417 49.99C57.2325 49.9861 56.6229 49.9852 56.0136 49.9907C55.7131 49.9934 55.6002 49.851 55.6063 49.5583C55.6174 49.0196 55.6095 48.4802 55.6095 47.9412Z" fill="#333333"/>
<path fill-rule="evenodd" clip-rule="evenodd" d="M139.947 47.2684C140.076 46.7267 139.823 46.5824 139.31 46.6033C138.842 46.6225 138.417 46.7101 138.418 47.2433C138.42 47.8184 138.891 47.8846 139.366 47.924C139.887 47.9673 140.042 47.7457 139.947 47.2684ZM140.587 47.939C140.587 48.4778 140.589 49.0166 140.586 49.5553C140.585 49.7622 140.627 50.004 140.29 49.9846C140.009 49.9684 139.946 49.7902 139.952 49.5519C139.957 49.388 139.958 49.224 139.955 49.06C139.951 48.859 140.026 48.611 139.717 48.5636C139.476 48.5266 139.261 48.5529 139.11 48.7983C138.913 49.117 138.683 49.4145 138.476 49.7263C138.288 50.0071 137.981 50.1048 137.747 49.941C137.445 49.7299 137.815 49.5555 137.908 49.379C138.016 49.1734 138.159 48.9829 138.308 48.8034C138.482 48.5948 138.464 48.4595 138.234 48.2971C137.671 47.8979 137.607 47.3259 137.811 46.7285C138.022 46.1081 138.563 45.9342 139.153 45.8945C140.586 45.7981 140.587 45.8024 140.586 47.2363C140.586 47.4706 140.586 47.7049 140.587 47.939Z" fill="#333333"/>
<path fill-rule="evenodd" clip-rule="evenodd" d="M83.6096 47.8994C83.6096 47.384 83.613 46.8686 83.6082 46.3532C83.6057 46.0905 83.6552 45.88 83.9815 45.8869C84.277 45.8934 84.3043 46.1006 84.306 46.3256C84.3064 46.3725 84.306 46.4195 84.3077 46.4662C84.3483 47.6279 84.3486 47.6104 85.5317 47.6243C85.9775 47.6296 86.1936 47.5204 86.1339 47.0353C86.1 46.7586 86.1292 46.4739 86.1331 46.1928C86.1359 45.9952 86.2343 45.8869 86.4377 45.896C86.6197 45.9042 86.7659 45.9736 86.7666 46.1805C86.7702 47.3519 86.7709 48.5233 86.7653 49.6947C86.7643 49.8955 86.6215 49.973 86.4358 49.9829C86.2341 49.9935 86.1282 49.9027 86.1292 49.6963C86.1297 49.6026 86.1287 49.5089 86.127 49.4151C86.1057 48.2461 86.1057 48.2661 84.8981 48.2672C84.4466 48.2677 84.2411 48.3928 84.2977 48.8626C84.3227 49.0705 84.3042 49.2839 84.3052 49.4946C84.3061 49.7353 84.3209 49.9815 83.9689 49.9847C83.6361 49.9878 83.6005 49.7759 83.6032 49.5159C83.6086 48.9771 83.6048 48.4382 83.6048 47.8994C83.6064 47.8994 83.6081 47.8994 83.6096 47.8994Z" fill="#333333"/>
<path fill-rule="evenodd" clip-rule="evenodd" d="M51.2423 47.8937C51.2421 47.3783 51.2468 46.8629 51.2401 46.3476C51.2366 46.078 51.2995 45.8899 51.622 45.8902C51.9338 45.8904 51.9413 46.0973 51.9414 46.319C51.9416 46.3659 51.941 46.4129 51.9424 46.4596C51.9775 47.6325 52.2462 47.8294 53.4342 47.6068C53.7124 47.5547 53.7718 47.4146 53.7667 47.1766C53.7602 46.8723 53.7647 46.5677 53.7639 46.263C53.7632 46.0517 53.8257 45.8902 54.0736 45.8868C54.3129 45.8835 54.401 46.0216 54.4009 46.244C54.3999 47.3686 54.4003 48.493 54.402 49.6174C54.4024 49.8343 54.334 49.9845 54.0847 49.9798C53.8434 49.9755 53.7611 49.8296 53.7602 49.6133C53.7597 49.4727 53.7625 49.3322 53.7632 49.1916C53.7678 48.2749 53.7678 48.2749 52.8622 48.2754C51.9573 48.2759 51.9624 48.276 51.9407 49.3631C51.9357 49.6164 52.0679 49.9819 51.604 49.9819C51.1618 49.9818 51.2462 49.6399 51.2437 49.3696C51.2392 48.8777 51.2424 48.3856 51.2423 47.8937Z" fill="#333333"/>
<path fill-rule="evenodd" clip-rule="evenodd" d="M73.1244 54.6821C73.1253 54.1436 73.1319 53.605 73.1222 53.0666C73.118 52.829 73.2142 52.7239 73.449 52.7188C73.7018 52.7135 73.767 52.8519 73.7621 53.0735C73.7558 53.3542 73.7604 53.6354 73.7645 53.9162C73.7673 54.0984 73.7262 54.3102 73.9815 54.3665C74.2041 54.4156 74.4049 54.3716 74.5354 54.1661C74.7739 53.7909 75.0153 53.4169 75.2377 53.032C75.3531 52.8324 75.4844 52.7122 75.7315 52.7129C76.0572 52.7139 76.195 52.7958 75.971 53.1119C75.9438 53.1501 75.9266 53.1971 75.8941 53.2292C74.8475 54.2593 75.0763 55.2541 75.9574 56.2493C76.0682 56.3744 76.3533 56.5818 76.0395 56.7509C75.8533 56.8513 75.5718 56.8511 75.4114 56.6043C75.1563 56.2117 74.8957 55.8223 74.6566 55.4201C74.4911 55.1415 74.2639 55.0033 73.9574 55.0969C73.6414 55.1933 73.7815 55.4854 73.763 55.7C73.7469 55.8859 73.7646 56.0743 73.7606 56.2616C73.7558 56.4867 73.8253 56.7649 73.4602 56.7747C73.0411 56.786 73.1289 56.4697 73.1257 56.2272C73.1189 55.7124 73.1236 55.1972 73.1244 54.6821Z" fill="#333333"/>
<path fill-rule="evenodd" clip-rule="evenodd" d="M43.7653 53.6062C43.561 54.1347 43.4344 54.4935 43.2842 54.8423C43.1257 55.2102 43.2963 55.2676 43.6207 55.279C44.3625 55.3049 44.3989 55.2709 44.1465 54.5942C44.0451 54.3222 43.9378 54.0525 43.7653 53.6062ZM45.5791 56.5136C45.6049 56.6538 45.5377 56.7364 45.408 56.7673C45.182 56.8212 44.9946 56.7741 44.8712 56.5553C44.7517 56.3436 44.7825 55.9878 44.4545 55.9679C43.9671 55.9387 43.4727 55.9415 42.9875 55.9913C42.7477 56.0159 42.7718 56.3239 42.6875 56.5053C42.5645 56.7697 42.3529 56.8464 42.1138 56.7745C41.7804 56.6742 41.9797 56.4438 42.046 56.2691C42.4511 55.1995 42.8711 54.1356 43.2672 53.0629C43.3661 52.7953 43.5239 52.7137 43.7908 52.711C44.0469 52.7084 44.1666 52.8268 44.2509 53.0491C44.673 54.1617 45.104 55.2709 45.5316 56.3814C45.5482 56.4248 45.5629 56.469 45.5791 56.5136Z" fill="#333333"/>
<path fill-rule="evenodd" clip-rule="evenodd" d="M127.099 53.5994C126.9 54.1196 126.796 54.4483 126.65 54.7576C126.457 55.1669 126.596 55.2557 127.01 55.2823C127.622 55.3217 127.765 55.1357 127.488 54.5896C127.357 54.3307 127.273 54.0483 127.099 53.5994ZM128.914 56.5394C128.93 56.6978 128.868 56.7751 128.725 56.7834C128.534 56.7942 128.298 56.8095 128.241 56.5972C127.946 55.5062 127.074 56.0763 126.447 55.9677C126.189 55.9229 126.122 56.1804 126.066 56.3888C125.977 56.7189 125.743 56.8816 125.434 56.7594C125.075 56.6171 125.354 56.3522 125.42 56.1733C125.79 55.1654 126.19 54.1683 126.571 53.1645C126.667 52.9123 126.754 52.7061 127.093 52.7051C127.425 52.7041 127.536 52.8907 127.633 53.1475C128.021 54.1742 128.416 55.1983 128.807 56.2238C128.849 56.3328 128.882 56.4447 128.914 56.5394Z" fill="#333333"/>
<path fill-rule="evenodd" clip-rule="evenodd" d="M97.3277 53.6135C97.1332 54.1096 97.0167 54.4379 96.8769 54.7559C96.7042 55.1481 96.7958 55.2705 97.2431 55.2876C97.8534 55.3109 98.0137 55.1481 97.7172 54.5896C97.5784 54.3283 97.4944 54.038 97.3277 53.6135ZM95.8673 56.7905C95.4808 56.778 95.4673 56.6144 95.5642 56.3662C95.9977 55.2575 96.4294 54.1479 96.8486 53.0338C96.9374 52.7981 97.0795 52.7211 97.319 52.7082C97.6458 52.6906 97.7649 52.8783 97.863 53.1404C98.2554 54.1895 98.6602 55.2337 99.0539 56.2823C99.1137 56.4413 99.2819 56.6542 99.0182 56.7579C98.7932 56.8463 98.485 56.8167 98.4375 56.5384C98.3125 55.808 97.779 55.9606 97.3072 55.9484C96.8407 55.9363 96.3498 55.8536 96.2323 56.5207C96.196 56.7265 96.0112 56.8107 95.8673 56.7905Z" fill="#333333"/>
<path fill-rule="evenodd" clip-rule="evenodd" d="M111.364 54.0873C111.33 54.4809 111.326 54.8249 111.873 54.755C112.331 54.6966 112.877 54.7429 112.898 54.088C112.917 53.4804 112.456 53.4459 111.981 53.4108C111.428 53.3698 111.274 53.6141 111.364 54.0873ZM110.706 54.78C110.706 54.4755 110.669 54.1652 110.715 53.8676C110.787 53.3954 110.327 52.6524 111.422 52.6951C113.028 52.7576 113.586 53.0369 113.61 54.039C113.631 54.9054 113.112 55.4254 112.111 55.3949C111.486 55.3759 111.263 55.5563 111.35 56.1772C111.383 56.4205 111.478 56.798 111.003 56.7717C110.587 56.7489 110.714 56.4185 110.707 56.1855C110.694 55.7174 110.704 55.2486 110.704 54.78H110.706Z" fill="#333333"/>
<path fill-rule="evenodd" clip-rule="evenodd" d="M47.1304 46.6167C46.6841 46.5151 46.4816 46.7181 46.5504 47.2125C46.5953 47.5347 46.3671 48.0125 47.0288 47.9569C47.5331 47.9146 48.0784 47.898 48.0792 47.232C48.0799 46.6882 47.6336 46.5985 47.1304 46.6167ZM45.8638 47.9326C45.8638 47.6513 45.8316 47.3653 45.8715 47.0898C45.9288 46.6951 45.6375 46.2064 46.0533 45.9184C46.4335 45.655 48.0864 45.9582 48.4088 46.2922C48.8281 46.727 48.878 47.2504 48.6864 47.7948C48.4375 48.5022 47.8251 48.6269 47.1971 48.5848C46.6456 48.5479 46.4764 48.7511 46.5528 49.2592C46.57 49.3737 46.5492 49.4935 46.5551 49.6104C46.5686 49.8807 46.4376 49.9906 46.1743 49.9864C45.9223 49.9823 45.8591 49.8351 45.8597 49.6204C45.8612 49.0577 45.8603 48.4952 45.8603 47.9326H45.8638Z" fill="#333333"/>
<path fill-rule="evenodd" clip-rule="evenodd" d="M115.427 48.6357C115.294 49.1727 115.542 49.3183 116.06 49.2862C116.552 49.2557 116.983 49.1804 116.958 48.5789C116.932 47.9564 116.429 47.9935 115.981 47.9491C115.43 47.8945 115.343 48.1814 115.427 48.6357ZM115.661 49.999C114.937 50.1451 114.711 49.8582 114.762 49.1316C114.826 48.2234 114.774 47.3071 114.774 46.3945C114.773 46.1576 114.754 45.8923 115.099 45.8906C115.458 45.8888 115.44 46.173 115.405 46.3954C115.293 47.1021 115.546 47.3256 116.276 47.2956C117.164 47.2592 117.622 47.7507 117.651 48.5431C117.683 49.4228 117.314 49.8267 116.36 49.9447C116.128 49.9734 115.894 49.9814 115.661 49.999Z" fill="#333333"/>
<path fill-rule="evenodd" clip-rule="evenodd" d="M75.3342 48.6666C75.1594 49.202 75.4637 49.3073 75.9589 49.2863C76.4488 49.2655 76.8844 49.1895 76.8575 48.5808C76.8301 47.9541 76.3265 47.9973 75.8793 47.9482C75.3213 47.887 75.2464 48.182 75.3342 48.6666ZM74.6816 47.9303C74.6809 47.3915 74.6822 46.8529 74.6802 46.3141C74.6793 46.0838 74.7103 45.8855 75.0107 45.8907C75.3214 45.8962 75.349 46.1209 75.3115 46.3331C75.1749 47.1059 75.4756 47.3268 76.2504 47.3025C77.1208 47.275 77.5452 47.791 77.5501 48.6189C77.555 49.4376 77.1961 49.8246 76.3262 49.9389C74.6827 50.1549 74.6827 50.1549 74.6824 48.5626C74.6823 48.3519 74.6824 48.1411 74.6816 47.9303Z" fill="#333333"/>
<path fill-rule="evenodd" clip-rule="evenodd" d="M72.1582 46.6207C71.7033 46.5298 71.4368 46.6717 71.5059 47.2377C71.5488 47.5904 71.3888 48.0371 72.027 47.9551C72.4879 47.896 73.0318 47.9523 73.0501 47.2792C73.0655 46.7171 72.6795 46.584 72.1582 46.6207ZM70.8789 47.9137C70.8789 47.3988 70.8932 46.8836 70.8739 46.3694C70.8603 46.0029 71.0037 45.8606 71.3681 45.8881C71.7638 45.9179 72.1677 45.8777 72.5574 45.9376C73.4382 46.0731 73.8016 46.5279 73.7593 47.3638C73.7206 48.1288 73.2814 48.6001 72.4236 48.5753C71.6919 48.5542 71.3836 48.7587 71.5082 49.5071C71.5481 49.7456 71.5177 50.0031 71.1689 49.9815C70.8136 49.9596 70.8777 49.6886 70.8784 49.458C70.88 48.9433 70.8789 48.4286 70.8789 47.9137Z" fill="#333333"/>
<path fill-rule="evenodd" clip-rule="evenodd" d="M64.6512 54.756C64.6517 55.2947 64.6478 55.8333 64.6536 56.3718C64.6562 56.6182 64.5862 56.7768 64.3039 56.7835C64.0052 56.7907 63.9616 56.6017 63.9559 56.3715C63.9554 56.3482 63.953 56.3238 63.958 56.3014C64.1424 55.4734 63.7643 55.3555 63.0221 55.4305C62.1398 55.5197 61.6929 55.0263 61.6613 54.1253C61.649 53.7745 61.6662 53.4226 61.652 53.0719C61.6423 52.8305 61.7484 52.7307 61.9784 52.7231C62.2074 52.7156 62.3298 52.802 62.3212 53.0486C62.3123 53.3058 62.3175 53.5637 62.3198 53.8212C62.3265 54.6051 62.904 54.9864 63.6482 54.7085C63.8792 54.6222 63.977 54.4752 63.9665 54.2308C63.9542 53.9502 63.9444 53.6675 63.9652 53.3882C63.9851 53.1237 63.7906 52.708 64.3183 52.728C64.8324 52.7476 64.6268 53.1613 64.643 53.4217C64.6704 53.8649 64.6506 54.3111 64.6512 54.756Z" fill="#333333"/>
<path fill-rule="evenodd" clip-rule="evenodd" d="M71.2414 52.6602C71.346 52.6818 71.6036 52.7115 71.8448 52.7912C72.1144 52.8801 72.1856 53.1115 72.0996 53.3613C71.9987 53.654 71.7929 53.4699 71.6378 53.4183C71.0067 53.2078 70.4674 53.3548 70.08 53.8804C69.6803 54.4228 69.6668 55.0352 70.0427 55.5904C70.4348 56.1693 71.0278 56.2474 71.6706 56.0782C71.8404 56.0335 72.0577 55.7466 72.1534 56.1326C72.221 56.4058 72.1318 56.6322 71.8158 56.7294C71.2033 56.9178 70.6105 56.9008 70.0502 56.5785C69.2448 56.115 68.9129 55.0969 69.2065 54.0426C69.448 53.1761 70.145 52.6645 71.2414 52.6602Z" fill="#333333"/>
<path fill-rule="evenodd" clip-rule="evenodd" d="M64.7539 46.6161C64.2605 46.5174 64.0619 46.7367 64.1284 47.2666C64.1696 47.5934 64.0077 48.0112 64.606 47.9562C65.1041 47.9106 65.6704 47.9266 65.6831 47.2464C65.6934 46.6997 65.2603 46.585 64.7539 46.6161ZM63.4807 47.9449C63.4804 47.6636 63.4484 47.3779 63.4882 47.1025C63.5453 46.707 63.2398 46.0632 63.6738 45.9601C64.426 45.7813 65.2769 45.7328 65.9731 46.2508C66.4193 46.5829 66.4339 47.0988 66.3396 47.5999C66.2162 48.2552 65.7634 48.6238 64.9312 48.5846C64.259 48.5529 64.0448 48.779 64.1301 49.4132C64.1633 49.6603 64.1938 49.9731 63.8035 49.9822C63.3834 49.9921 63.4961 49.6561 63.4835 49.4208C63.4699 49.1639 63.4809 48.9055 63.481 48.6478C63.4812 48.4135 63.4812 48.1792 63.4807 47.9449Z" fill="#333333"/>
<path fill-rule="evenodd" clip-rule="evenodd" d="M99.6094 54.7746C99.6159 53.3009 100.748 52.3675 102.109 52.7123C102.316 52.7648 102.527 52.8145 102.6 53.0512C102.642 53.1862 102.667 53.3407 102.56 53.4511C102.409 53.6084 102.258 53.4553 102.111 53.4139C101.122 53.1361 100.313 53.7347 100.306 54.753C100.299 55.7566 101.1 56.3429 102.129 56.1033C102.306 56.0622 102.576 55.7276 102.67 56.1728C102.738 56.4994 102.547 56.6617 102.217 56.7547C100.812 57.1521 99.6031 56.2455 99.6094 54.7746Z" fill="#333333"/>
<path fill-rule="evenodd" clip-rule="evenodd" d="M116.331 52.6406C116.522 52.6807 116.78 52.7097 117.02 52.792C117.303 52.8888 117.317 53.1473 117.242 53.3791C117.139 53.6975 116.935 53.4631 116.791 53.4131C116.153 53.1925 115.625 53.3636 115.24 53.8884C114.861 54.4069 114.848 54.99 115.184 55.5361C115.534 56.1067 116.086 56.2118 116.718 56.1284C116.905 56.1037 117.203 55.6923 117.308 56.1987C117.379 56.5395 117.146 56.6975 116.835 56.7708C116.045 56.9564 115.322 56.8298 114.779 56.2115C114.139 55.4849 114.141 54.6212 114.48 53.7718C114.792 52.9911 115.449 52.6744 116.331 52.6406Z" fill="#333333"/>
<path fill-rule="evenodd" clip-rule="evenodd" d="M43.1676 48.3112C43.168 48.0768 43.1528 47.8412 43.1708 47.6081C43.2178 47.0023 43.2395 46.4409 42.3423 46.6098C42.1088 46.6537 42.0131 46.4781 42.0113 46.2597C42.0094 46.0437 42.0903 45.8934 42.3329 45.8929C43.1302 45.8909 43.9273 45.8898 44.7245 45.8914C44.972 45.892 45.0363 46.0509 45.0335 46.2656C45.0306 46.4893 44.9315 46.6531 44.6989 46.6092C43.8281 46.4447 43.8216 46.9677 43.8541 47.592C43.8883 48.2466 43.8606 48.9044 43.8609 49.5608C43.861 49.7913 43.8246 49.9831 43.5253 49.983C43.2429 49.983 43.1645 49.8234 43.1663 49.5772C43.1696 49.1552 43.1672 48.7332 43.1676 48.3112Z" fill="#333333"/>
<path fill-rule="evenodd" clip-rule="evenodd" d="M119.086 55.1032C119.087 54.8694 119.072 54.6344 119.09 54.4021C119.139 53.7959 119.154 53.2417 118.263 53.4125C118.038 53.4556 117.934 53.2956 117.92 53.0718C117.902 52.7825 118.065 52.7135 118.311 52.7149C119.06 52.7189 119.808 52.7211 120.556 52.7164C120.809 52.7149 120.962 52.797 120.947 53.0773C120.932 53.3468 120.774 53.4647 120.528 53.4188C119.777 53.2781 119.753 53.7236 119.777 54.2762C119.807 54.953 119.782 55.6319 119.786 56.31C119.787 56.5656 119.761 56.7843 119.425 56.7818C119.078 56.7791 119.083 56.5404 119.085 56.2956C119.087 55.8981 119.085 55.5007 119.086 55.1032Z" fill="#333333"/>
<path fill-rule="evenodd" clip-rule="evenodd" d="M104.44 55.0422C104.441 54.8552 104.431 54.6676 104.443 54.4814C104.484 53.8483 104.545 53.2137 103.563 53.4133C103.319 53.463 103.244 53.2856 103.238 53.0699C103.232 52.8502 103.299 52.7148 103.553 52.7168C104.347 52.723 105.142 52.7195 105.937 52.7194C106.145 52.7194 106.308 52.7724 106.31 53.026C106.311 53.277 106.202 53.4647 105.94 53.4154C105.104 53.2583 105.103 53.7614 105.131 54.3531C105.161 55.006 105.135 55.6614 105.143 56.3156C105.146 56.5743 105.117 56.784 104.783 56.7844C104.433 56.7847 104.438 56.5477 104.439 56.3039C104.44 55.8833 104.439 55.4627 104.44 55.0422Z" fill="#333333"/>
<path fill-rule="evenodd" clip-rule="evenodd" d="M46.4056 54.7145C46.4056 54.5977 46.3964 54.4801 46.4071 54.3643C46.4557 53.8385 46.1548 53.0504 46.5332 52.8404C47.1575 52.4941 47.9871 52.7331 48.7301 52.7277C48.8994 52.7265 48.9672 52.8528 48.9722 53.01C48.9777 53.1822 48.9516 53.3546 48.7541 53.3958C48.5966 53.4287 48.4291 53.418 48.266 53.4194C47.1053 53.43 47.1053 53.4294 47.1046 54.6208C47.1042 55.1814 47.1004 55.7421 47.105 56.3026C47.107 56.5478 47.1211 56.7872 46.771 56.7869C46.4533 56.7866 46.3921 56.6016 46.399 56.3262C46.4122 55.7892 46.4028 55.2517 46.4028 54.7145H46.4056Z" fill="#333333"/>
<path fill-rule="evenodd" clip-rule="evenodd" d="M54.1815 54.6875C54.1808 54.6642 54.1808 54.6408 54.1808 54.6176C54.1826 52.5813 54.1825 52.5838 56.2413 52.7131C56.4909 52.7289 56.7215 52.7246 56.7049 53.0706C56.689 53.3982 56.4663 53.4272 56.2146 53.4193C56.1912 53.4186 56.1678 53.4183 56.1445 53.4192C54.883 53.4659 54.8829 53.4659 54.8835 54.7175C54.8836 55.2308 54.8839 55.7441 54.8843 56.2574C54.8846 56.5159 54.9265 56.8014 54.5227 56.7836C54.1321 56.7665 54.1806 56.4849 54.1816 56.2274C54.1836 55.7141 54.1822 55.2008 54.1815 54.6875Z" fill="#333333"/>
<path fill-rule="evenodd" clip-rule="evenodd" d="M92.5533 47.9478V47.6679C92.5533 45.7371 92.7097 45.6103 94.6837 45.8836C94.9365 45.9186 95.0682 46.0049 95.067 46.2696C95.0655 46.5525 94.8994 46.596 94.6589 46.6213C94.1882 46.6709 93.5476 46.3679 93.2899 46.7992C93.072 47.1638 93.2233 47.7509 93.218 48.2398C93.2134 48.6828 93.2157 49.1259 93.2197 49.569C93.2218 49.8068 93.1685 49.983 92.8777 49.981C92.5788 49.9791 92.549 49.7859 92.5498 49.5571C92.5519 49.0207 92.5505 48.4842 92.5505 47.9478H92.5533Z" fill="#333333"/>
<path fill-rule="evenodd" clip-rule="evenodd" d="M81.423 54.7347C81.4231 54.1972 81.433 53.6594 81.4193 53.1224C81.4117 52.8256 81.5156 52.7035 81.8241 52.7135C82.3846 52.7319 82.9462 52.7258 83.507 52.7177C83.7694 52.7139 83.9836 52.7423 83.9602 53.0807C83.9419 53.3444 83.7883 53.4066 83.5395 53.4316C83.0727 53.4783 82.4489 53.156 82.1787 53.6203C81.9734 53.9732 82.1123 54.5289 82.1071 54.9945C82.102 55.4384 82.104 55.8826 82.1119 56.3266C82.1167 56.5929 82.0646 56.7858 81.7347 56.7799C81.4207 56.7743 81.4223 56.5672 81.4226 56.3472C81.4233 55.8097 81.4228 55.2722 81.423 54.7347Z" fill="#333333"/>
<path fill-rule="evenodd" clip-rule="evenodd" d="M77.8278 47.9604C77.8276 47.4244 77.8295 46.8883 77.8267 46.3524C77.8254 46.1003 77.8463 45.8754 78.1869 45.8893C78.4644 45.9005 78.5295 46.0684 78.5287 46.3104C78.5245 47.4056 78.5228 48.501 78.5286 49.5962C78.53 49.8601 78.4192 49.979 78.1572 49.9842C77.8556 49.9901 77.826 49.7984 77.8273 49.5682C77.8299 49.0323 77.8281 48.4963 77.8278 47.9604Z" fill="#333333"/>
<path fill-rule="evenodd" clip-rule="evenodd" d="M118.623 47.8941C118.623 48.4538 118.616 49.0137 118.627 49.5731C118.632 49.827 118.549 49.9701 118.28 49.9858C117.991 50.0029 117.923 49.838 117.923 49.5937C117.925 48.4977 117.925 47.4016 117.922 46.3055C117.922 46.0718 117.965 45.8848 118.258 45.8867C118.526 45.8887 118.626 46.0324 118.625 46.2849C118.621 46.8213 118.623 47.3577 118.623 47.8941Z" fill="#333333"/>
<path fill-rule="evenodd" clip-rule="evenodd" d="M35.5375 27.4823C35.5375 27.4823 35.5378 27.5098 35.5378 27.5099L35.569 27.4959L35.5375 27.4823Z" fill="#E85047"/>
</svg>
