<svg width="161" height="37" viewBox="0 0 161 37" fill="none" xmlns="http://www.w3.org/2000/svg">
<path fill-rule="evenodd" clip-rule="evenodd" d="M147.118 3.31993C146.855 3.27865 146.602 3.2064 146.354 3.10835C146.106 3.0103 145.913 2.86064 145.771 2.66454C145.629 2.46585 145.559 2.22589 145.559 1.94205V1.73047H146.873C146.873 1.8311 146.883 1.91367 146.898 1.98076C146.916 2.04785 146.96 2.12009 147.027 2.1975C147.095 2.27491 147.208 2.33426 147.365 2.37296C147.525 2.41167 147.727 2.42973 147.974 2.42973C148.71 2.42973 149.076 2.1975 149.076 1.73047H150.392V1.94205C150.392 2.22589 150.32 2.46585 150.178 2.66454C150.039 2.86064 149.843 3.0103 149.597 3.10835C149.35 3.2064 149.094 3.27865 148.834 3.31993C148.573 3.3638 148.287 3.38444 147.974 3.38444C147.665 3.38444 147.378 3.3638 147.118 3.31993ZM79.8822 5.86359H80.0525L82.3206 9.46568H84.3642L81.6626 5.46106L84.3022 2.04991H82.1916L80.0318 5.23915H79.8822V2.04991H78.0605V9.46568H79.8822V5.86359ZM86.7169 5.47164C86.9981 5.32972 87.2458 5.26006 87.4574 5.26006C88.2651 5.26006 88.6676 5.77869 88.6676 6.81855C88.6676 7.84809 88.3089 8.36415 87.5968 8.36415C87.3491 8.36415 87.0549 8.29706 86.7169 8.16289V5.47164ZM86.7169 9.10728C86.7375 9.11244 86.833 9.15114 87.0033 9.22339C87.1736 9.29306 87.2974 9.34208 87.38 9.37047C87.46 9.39885 87.5916 9.42981 87.7722 9.46078C87.9503 9.49174 88.1335 9.5098 88.3167 9.5098C89.0082 9.5098 89.5242 9.30338 89.8648 8.88795C90.2029 8.4751 90.3732 7.78616 90.3732 6.81855C90.3732 5.83546 90.2003 5.1233 89.8545 4.68207C89.5062 4.24084 88.9953 4.01893 88.3167 4.01893C87.78 4.01893 87.2458 4.18923 86.7169 4.52725V4.16859H85.0216V11.5869H86.7169V9.10728ZM93.6571 8.55509C93.848 8.55509 94.1061 8.48542 94.4312 8.34351V7.33719H93.5952C93.3526 7.33719 93.1694 7.39138 93.0378 7.50233C92.9062 7.6107 92.8417 7.74746 92.8417 7.91002C92.8417 8.14224 92.9062 8.30738 93.0327 8.40802C93.1591 8.50607 93.3681 8.55509 93.6571 8.55509ZM91.6341 6.80565C91.9644 6.57343 92.4598 6.45731 93.1178 6.45731H94.4415V5.99028C94.4415 5.70903 94.3744 5.50776 94.2402 5.39165C94.1061 5.27554 93.8661 5.21877 93.5203 5.21877C93.0533 5.21877 92.4082 5.3065 91.58 5.48196L91.389 4.3905C92.2663 4.17117 93.0043 4.0628 93.6055 4.0628C94.4673 4.0628 95.1021 4.2202 95.5123 4.54015C95.9226 4.85753 96.1264 5.35811 96.1264 6.04446V9.46594H94.4312V9.10728C94.008 9.41691 93.4739 9.57173 92.8314 9.57173C91.7012 9.57173 91.1362 9.02987 91.1362 7.94098C91.1362 7.41718 91.3013 7.04046 91.6341 6.80565ZM99.761 9.56192C100.396 9.56192 100.989 9.45871 101.541 9.25487L101.309 8.05761C101.273 8.07051 101.185 8.10148 101.049 8.14792C100.912 8.19437 100.824 8.22017 100.788 8.22791C100.764 8.23154 100.724 8.24157 100.669 8.25528L100.669 8.25536C100.646 8.26111 100.62 8.26751 100.592 8.27436C100.496 8.30016 100.414 8.31564 100.339 8.3208C100.264 8.32854 100.184 8.3337 100.102 8.3337C99.663 8.3337 99.3405 8.24081 99.1366 8.05761C98.9302 7.87441 98.8296 7.55187 98.8296 7.09258V6.5533C98.8296 6.10175 98.9328 5.77921 99.1418 5.58827C99.3508 5.39733 99.6682 5.30186 100.102 5.30186C100.269 5.30186 100.481 5.33798 100.736 5.40765C100.989 5.4799 101.18 5.54182 101.309 5.59859L101.541 4.39101C100.984 4.16395 100.391 4.05041 99.761 4.05041C98.9766 4.05041 98.3316 4.26716 97.8232 4.69807C97.3123 5.12898 97.0595 5.70438 97.0595 6.42428V7.21902C97.0595 7.99826 97.3072 8.58141 97.8 8.97362C98.2954 9.36582 98.9483 9.56192 99.761 9.56192ZM106.055 7.30494H103.936V9.46723H102.241V4.1673H103.936V6.18251H106.055V4.1673H107.75V9.46723H106.055V7.30494ZM110.262 6.20289C110.262 5.52428 110.624 5.18626 111.343 5.18626C112.063 5.18626 112.425 5.5733 112.425 6.35255V7.29436C112.425 8.07103 112.063 8.46065 111.343 8.46065C110.624 8.46065 110.262 8.07103 110.262 7.29436V6.20289ZM111.343 9.58308C112.234 9.58308 112.92 9.38698 113.405 8.99477C113.888 8.60257 114.13 8.04265 114.13 7.315V6.32933C114.13 5.60169 113.888 5.04434 113.405 4.65472C112.92 4.26767 112.234 4.07415 111.343 4.07415C110.461 4.07415 109.785 4.26509 109.318 4.64956C108.853 5.0366 108.619 5.59395 108.619 6.32933V7.315C108.619 8.05039 108.853 8.61289 109.318 8.99994C109.785 9.38956 110.461 9.58308 111.343 9.58308ZM117.383 5.2696C117.05 5.2696 116.815 5.32379 116.678 5.42958C116.541 5.53537 116.472 5.72631 116.472 6.00241C116.48 6.28366 116.552 6.49008 116.689 6.61652C116.825 6.74295 117.058 6.80746 117.383 6.80746H118.464V5.2696H117.383ZM114.712 9.46774L116.134 7.70798C115.179 7.65122 114.702 7.08613 114.702 6.01273C114.702 5.37539 114.89 4.91094 115.269 4.61421C115.646 4.31747 116.232 4.16782 117.021 4.16782H120.159V9.46774H118.464V7.83442H117.754L116.557 9.46774H114.712ZM122.957 5.47164C123.238 5.32972 123.486 5.26006 123.697 5.26006C124.505 5.26006 124.908 5.77869 124.908 6.81855C124.908 7.84809 124.549 8.36415 123.837 8.36415C123.589 8.36415 123.295 8.29706 122.957 8.16289V5.47164ZM122.957 9.10728C122.978 9.11244 123.073 9.15114 123.243 9.22339C123.414 9.29306 123.537 9.34208 123.62 9.37047C123.7 9.39885 123.832 9.42981 124.012 9.46078C124.19 9.49174 124.373 9.5098 124.557 9.5098C125.248 9.5098 125.764 9.30338 126.105 8.88795C126.443 8.4751 126.613 7.78616 126.613 6.81855C126.613 5.83546 126.44 5.1233 126.095 4.68207C125.746 4.24084 125.235 4.01893 124.557 4.01893C124.02 4.01893 123.486 4.18923 122.957 4.52725V4.16859H121.262V11.5869H122.957V9.10728ZM131.858 9.25487C131.306 9.45871 130.712 9.56192 130.077 9.56192C129.265 9.56192 128.612 9.36582 128.116 8.97362C127.624 8.58141 127.376 7.99826 127.376 7.21902V6.42428C127.376 5.70438 127.629 5.12898 128.14 4.69807C128.648 4.26716 129.293 4.05041 130.077 4.05041C130.707 4.05041 131.301 4.16395 131.858 4.39101L131.626 5.59859C131.497 5.54182 131.306 5.4799 131.053 5.40765C130.797 5.33798 130.586 5.30186 130.415 5.30186C129.985 5.30186 129.667 5.39733 129.458 5.58827C129.249 5.77921 129.146 6.10175 129.146 6.5533V7.09258C129.146 7.55187 129.247 7.87441 129.453 8.05761C129.657 8.24081 129.979 8.3337 130.415 8.3337C130.501 8.3337 130.581 8.32854 130.655 8.3208C130.73 8.31564 130.813 8.30016 130.908 8.27436C130.937 8.26748 130.962 8.26105 130.986 8.25528C131.041 8.24157 131.081 8.23154 131.104 8.22791C131.141 8.22017 131.228 8.19437 131.365 8.14792C131.502 8.10148 131.59 8.07051 131.626 8.05761L131.858 9.25487ZM134.253 6.87016H134.317L136.033 9.46594H137.95L135.896 6.71276L137.93 4.16859H135.958L134.327 6.46763H134.253V4.16859H132.557V9.46594H134.253V6.87016ZM142.401 9.46645V6.383L140.038 9.46645H138.544V4.16911H140.239V7.26288L142.613 4.16911H144.096V9.46645H142.401ZM149.056 6.383V9.46645H150.751V4.16911H149.267L146.893 7.26288V4.16911H145.198V9.46645H146.692L149.056 6.383ZM79.6069 18.1579H81.684V22.3122H83.3793V17.0123H77.9116V22.3122H79.6069V18.1579ZM86.2344 18.1848C86.0899 18.337 86.0176 18.6105 86.0176 19.0053V19.1859H87.9683V18.9305C87.9683 18.5641 87.8832 18.3086 87.718 18.1693C87.5529 18.0274 87.2949 17.9577 86.9491 17.9577C86.6188 17.9577 86.3789 18.0325 86.2344 18.1848ZM87.0343 22.4164C85.2203 22.4164 84.312 21.7017 84.312 20.2671V19.3975C84.312 18.5641 84.5262 17.9396 84.9571 17.5268C85.388 17.1139 86.0537 16.9075 86.9491 16.9075C87.4368 16.9075 87.8651 16.9669 88.2315 17.083C88.6005 17.1991 88.9101 17.421 89.1656 17.7435C89.4184 18.0686 89.5475 18.4944 89.5475 19.0156V20.0555H86.0176V20.3832C86.0176 20.7573 86.1183 21.0024 86.3195 21.1134C86.5208 21.2269 86.8227 21.2837 87.2252 21.2837C87.9245 21.2837 88.5953 21.1934 89.2378 21.0076L89.4081 22.1326C88.6108 22.3235 87.8187 22.4164 87.0343 22.4164ZM94.2617 21.1671H92.311C92.7135 20.4394 92.9147 19.3944 92.9147 18.0294H94.2617V21.1671ZM96.4859 24.008L96.5813 21.1671H95.9569V17.0128H91.3795C91.3795 19.2241 91.1189 20.6097 90.5951 21.1671H90.0764V24.008H91.5498L91.6452 22.3127H95.0151V24.008H96.4859ZM99.888 21.4001C100.079 21.4001 100.337 21.3304 100.662 21.1885V20.1822H99.8261C99.5835 20.1822 99.4003 20.2363 99.2687 20.3473C99.1371 20.4557 99.0726 20.5924 99.0726 20.755C99.0726 20.9872 99.1371 21.1524 99.2636 21.253C99.39 21.351 99.599 21.4001 99.888 21.4001ZM97.8109 18.3269L97.6199 17.2355C98.4972 17.0161 99.2352 16.9078 99.8364 16.9078C100.698 16.9078 101.333 17.0652 101.743 17.3851C102.153 17.7025 102.357 18.2031 102.357 18.8894V22.3109H100.662V21.9522C100.239 22.2619 99.7048 22.4167 99.0623 22.4167C97.9321 22.4167 97.367 21.8748 97.367 20.7859C97.367 20.2621 97.5322 19.8854 97.865 19.6506C98.1953 19.4184 98.6907 19.3023 99.3487 19.3023H100.672V18.8352C100.672 18.554 100.605 18.3527 100.471 18.2366C100.337 18.1205 100.097 18.0637 99.7512 18.0637C99.2842 18.0637 98.6391 18.1515 97.8109 18.3269ZM107.422 18.306V17.0133H103.459V22.3106H105.154V18.306H107.422ZM110.295 18.0312C109.575 18.0312 109.213 18.3692 109.213 19.0479V20.1393C109.213 20.916 109.575 21.3056 110.295 21.3056C111.014 21.3056 111.376 20.916 111.376 20.1393V19.1975C111.376 18.4183 111.014 18.0312 110.295 18.0312ZM108.269 21.8449C107.805 21.4579 107.57 20.8954 107.57 20.16V19.1743C107.57 18.4389 107.805 17.8816 108.269 17.4945C108.736 17.1101 109.412 16.9191 110.295 16.9191C111.185 16.9191 111.871 17.1126 112.356 17.4997C112.839 17.8893 113.081 18.4467 113.081 19.1743V20.16C113.081 20.8876 112.839 21.4475 112.356 21.8397C111.871 22.2319 111.185 22.4281 110.295 22.4281C109.412 22.4281 108.736 22.2345 108.269 21.8449ZM113.95 22.3117H115.645V18.3071H117.913V17.0143H113.95V22.3117ZM118.612 22.3106V17.0133H120.307V20.1071L122.681 17.0133H124.165V22.3106H122.47V19.2272L120.106 22.3106H118.612ZM125.161 17.0133V18.804C125.161 19.511 125.326 20.0271 125.654 20.3574C125.981 20.6851 126.492 20.8502 127.184 20.8502C127.615 20.8502 128.107 20.8063 128.657 20.7212V22.3106H130.352V17.0133H128.657V19.6091C128.409 19.6736 128.092 19.7045 127.705 19.7045C127.387 19.7045 127.166 19.6349 127.042 19.4981C126.918 19.3614 126.856 19.1266 126.856 18.7937V17.0133H125.161ZM133.209 18.1848C133.064 18.337 132.992 18.6105 132.992 19.0053V19.1859H134.943V18.9305C134.943 18.5641 134.857 18.3086 134.692 18.1693C134.527 18.0274 134.269 17.9577 133.923 17.9577C133.593 17.9577 133.353 18.0325 133.209 18.1848ZM134.009 22.4164C132.195 22.4164 131.286 21.7017 131.286 20.2671V19.3975C131.286 18.5641 131.5 17.9396 131.931 17.5268C132.362 17.1139 133.028 16.9075 133.923 16.9075C134.411 16.9075 134.839 16.9669 135.206 17.083C135.575 17.1991 135.884 17.421 136.14 17.7435C136.393 18.0686 136.522 18.4944 136.522 19.0156V20.0555H132.992V20.3832C132.992 20.7573 133.093 21.0024 133.294 21.1134C133.495 21.2269 133.797 21.2837 134.199 21.2837C134.899 21.2837 135.57 21.1934 136.212 21.0076L136.382 22.1326C135.585 22.3235 134.793 22.4164 134.009 22.4164ZM137.22 20.0653C137.22 20.8419 137.467 21.4277 137.96 21.8199C138.456 22.2095 139.108 22.4082 139.921 22.4082C140.559 22.4082 141.152 22.305 141.702 22.0985L141.469 20.9013C141.443 20.9128 141.388 20.9313 141.305 20.9591L141.305 20.9592L141.209 20.9916C141.072 21.038 140.984 21.0638 140.948 21.0716C140.915 21.0793 140.848 21.0948 140.755 21.1206C140.659 21.1438 140.574 21.1593 140.499 21.1671C140.424 21.1748 140.344 21.1774 140.262 21.1774C139.823 21.1774 139.501 21.0871 139.297 20.9013C139.09 20.7181 138.99 20.3981 138.99 19.9388V19.397C138.99 18.9454 139.093 18.6229 139.302 18.4345C139.511 18.2436 139.831 18.1481 140.262 18.1481C140.43 18.1481 140.641 18.1817 140.897 18.2539C141.152 18.3236 141.343 18.3881 141.469 18.4448L141.702 17.2373C141.144 17.0102 140.551 16.8967 139.921 16.8967C139.137 16.8967 138.492 17.1134 137.983 17.5443C137.475 17.9752 137.22 18.5506 137.22 19.2705V20.0653ZM142.401 17.0133H144.097V19.3123H144.172L145.802 17.0133H147.774L145.74 19.5575L147.794 22.3106H145.877L144.161 19.7149H144.097V22.3106H142.401V17.0133ZM150.084 20.1078V17.0141H148.389V22.3114H149.883L152.246 19.228V22.3114H153.941V17.0141H152.458L150.084 20.1078ZM156.738 20.1071L159.112 17.0133H160.596V22.3106H158.9V19.2272L156.537 22.3106H155.043V17.0133H156.738V20.1071ZM156.198 15.9536C156.446 16.0516 156.699 16.1239 156.962 16.1652C157.223 16.209 157.509 16.2297 157.819 16.2297C158.131 16.2297 158.417 16.209 158.678 16.1652C158.939 16.1239 159.194 16.0516 159.442 15.9536C159.687 15.8555 159.883 15.7059 160.022 15.5098C160.164 15.3111 160.236 15.0711 160.236 14.7873V14.5757H158.921C158.921 15.0427 158.554 15.275 157.819 15.275C157.571 15.275 157.37 15.2569 157.21 15.2182C157.052 15.1795 156.939 15.1201 156.872 15.0427C156.805 14.9653 156.761 14.8931 156.743 14.826C156.727 14.7589 156.717 14.6763 156.717 14.5757H155.404V14.7873C155.404 15.0711 155.473 15.3111 155.615 15.5098C155.757 15.7059 155.951 15.8555 156.198 15.9536ZM79.6714 32.5609H79.6069V35.1566H77.9116V29.8593H79.6069V32.1583H79.6817L81.3125 29.8593H83.2838L81.2505 32.4035L83.3044 35.1566H81.3873L79.6714 32.5609ZM87.1514 32.0422V32.984C87.1514 33.7633 86.7902 34.1503 86.0703 34.1503C85.3504 34.1503 84.9891 33.7633 84.9891 32.984V31.8926C84.9891 31.2165 85.3504 30.8759 86.0703 30.8759C86.7902 30.8759 87.1514 31.2656 87.1514 32.0422ZM84.0473 30.3418C83.5803 30.7263 83.348 31.2862 83.348 32.0216V33.0073C83.348 33.7401 83.5803 34.3026 84.0473 34.6922C84.5118 35.0792 85.1878 35.2728 86.0703 35.2728C86.9605 35.2728 87.6468 35.0767 88.1319 34.687C88.6144 34.2948 88.857 33.7349 88.857 33.0073V32.0216C88.857 31.2939 88.6144 30.734 88.1319 30.347C87.6468 29.9574 86.9605 29.7638 86.0703 29.7638C85.1878 29.7638 84.5118 29.9574 84.0473 30.3418ZM89.0066 33.971C89.1744 33.9916 89.3163 34.002 89.4298 34.002C90.0878 34.002 90.4155 32.6215 90.4155 29.858H94.9929V35.1579H93.2977V30.9933H91.8785C91.8785 31.4036 91.8733 31.7442 91.8604 32.0203C91.8501 32.2964 91.8269 32.6163 91.7882 32.9802C91.7495 33.344 91.6824 33.6459 91.5921 33.8859C91.4992 34.1258 91.3857 34.358 91.2463 34.58C91.1096 34.8019 90.9238 34.9696 90.6916 35.0779C90.4568 35.1863 90.1884 35.2431 89.8865 35.2431C89.6104 35.2431 89.3705 35.2147 89.164 35.1579L89.0066 33.971ZM96.5715 35.2421C96.876 35.2421 97.1444 35.1879 97.3766 35.0769C97.6088 34.9685 97.7946 34.8034 97.9339 34.5789C98.0707 34.357 98.1868 34.1274 98.2771 33.8848C98.37 33.6449 98.4345 33.343 98.4732 32.9791C98.5119 32.6153 98.5377 32.2954 98.548 32.0218C98.5584 31.7458 98.5635 31.4026 98.5635 30.9923H99.9827V35.1569H101.678V29.8596H97.1005C97.1005 32.6205 96.7728 34.0009 96.1148 34.0009C96.0039 34.0009 95.862 33.9906 95.6917 33.97L95.8516 35.1569C96.0555 35.2137 96.2955 35.2421 96.5715 35.2421ZM104.535 31.0302C104.39 31.1825 104.318 31.456 104.318 31.8508V32.0314H106.269V31.7759C106.269 31.4095 106.183 31.1541 106.018 31.0148C105.853 30.8728 105.595 30.8032 105.249 30.8032C104.919 30.8032 104.679 30.878 104.535 31.0302ZM107.848 31.8611V32.901H104.318V33.2287C104.318 33.6028 104.418 33.8479 104.62 33.9589C104.821 34.0724 105.123 34.1292 105.525 34.1292C106.225 34.1292 106.896 34.0389 107.538 33.8531L107.708 34.9781C106.911 35.169 106.119 35.2619 105.334 35.2619C103.521 35.2619 102.612 34.5472 102.612 33.1125V32.243C102.612 31.4095 102.826 30.7851 103.257 30.3723C103.688 29.9594 104.354 29.753 105.249 29.753C105.737 29.753 106.165 29.8123 106.532 29.9285C106.901 30.0446 107.21 30.2665 107.466 30.589C107.719 30.9141 107.848 31.3399 107.848 31.8611ZM112.562 34.0128H110.611C111.014 33.2852 111.215 32.2401 111.215 30.8752H112.562V34.0128ZM114.786 36.8537L114.882 34.0128H114.257V29.8585H109.68C109.68 32.0698 109.419 33.4555 108.895 34.0128H108.377V36.8537H109.85L109.945 35.1585H113.315V36.8537H114.786ZM118.697 32.2226V29.859H120.328V32.2226H120.467L121.824 29.859H123.625L121.971 32.4135L123.615 35.1564H121.824L120.457 32.5709H120.328V35.1564H118.697V32.5916H118.581L117.139 35.1564H115.402L117.128 32.4135L115.392 29.859H117.159L118.571 32.2226H118.697ZM131.635 32.3387L129.05 27.7406H127.228V35.1564H128.838V30.4938L131.465 35.1564H133.246V27.7406H131.635V32.3387ZM137.813 33.9911H133.915V32.9848H137.813V33.9911ZM136.383 30.7701C136.383 30.9895 136.347 31.152 136.272 31.2578C136.197 31.3636 136.047 31.4178 135.82 31.4178C135.596 31.4178 135.446 31.3636 135.371 31.2578C135.297 31.152 135.26 30.9895 135.26 30.7701V30.4837C135.26 30.2644 135.297 30.1018 135.371 29.9909C135.446 29.8825 135.596 29.8258 135.82 29.8258C136.047 29.8258 136.197 29.8825 136.272 29.9909C136.347 30.1018 136.383 30.2644 136.383 30.4837V30.7701ZM137.812 30.4631C137.812 29.9677 137.655 29.5677 137.338 29.2607C137.018 28.9536 136.515 28.7988 135.82 28.7988C134.52 28.7988 133.872 29.3536 133.872 30.4631V30.7908C133.872 31.8926 134.52 32.4448 135.82 32.4448C136.515 32.4448 137.018 32.2951 137.338 31.9932C137.655 31.6939 137.812 31.2939 137.812 30.7908V30.4631ZM144.298 27.7391V35.1574H142.477V29.9426L140.356 31.7463L139.891 30.3684L142.699 27.7391H144.298Z" fill="black"/>
<path fill-rule="evenodd" clip-rule="evenodd" d="M46.2073 30.172H39.1404V24.0702H26.5721V30.172H19.5052V7.25108H29.3311L30.0052 6.17548C30.6277 5.18276 31.696 4.58971 32.8636 4.58787C34.0295 4.58971 35.0977 5.18276 35.7202 6.17548L36.3943 7.25108H46.2073V30.172ZM50.8044 2.66321H38.8034C37.3079 0.979826 35.1714 0.00368356 32.8692 0C30.5541 0.00368356 28.4194 0.979826 26.9239 2.66321H14.921V11.8353H0.595703V16.4194H14.921V21.0036H0.595703V25.5878H14.921V30.172H0.595703V34.7562H31.1563V28.6544H34.5562V34.7562H65.1169V30.172H50.7915V25.5878H65.1169V21.0036H50.7915V16.4194H65.1169V11.8353H50.7915L50.8044 2.66321Z" fill="black"/>
</svg>
