<svg width="195" height="68" fill="none" xmlns="http://www.w3.org/2000/svg"><g fill-rule="evenodd" clip-rule="evenodd"><path d="M140.46 57.53c.095 0 .18-.127.26-.381l.19-.638c.466-1.246 1.731-1.87 3.799-1.87.551 0 1.268.098 2.143.295.875.2 1.681.298 2.416.298 1.491 0 2.604-.2 3.336-.593.79-.425 1.186-.86 1.186-1.303 0-.039-.054-.08-.162-.124a.765.765 0 0 0-.301-.064c-.149 0-.39.15-.723.447-.415.381-.732.698-.945.949-.46.126-1.224.19-2.296.19-.45 0-1.182-.111-2.197-.333-1.015-.219-1.941-.33-2.778-.33-1.129 0-2.086.247-2.876.745-.891.568-1.338 1.342-1.338 2.321 0 .26.095.39.286.39zm-9.351 1.667c.25-.133.415-.2.485-.2.165 0 .247.064.247.19 0 .172-.19.35-.574.534-.38.18-.766.36-1.152.54l-.001.001h-.001c-1.002.508-1.646.758-1.928.758-.105 0-.206-.057-.308-.17-.104-.115-.155-.22-.155-.315 0-.266.111-.615.333-1.04.095-.174.358-.615.793-1.328.047-.076.279-.39.697-.933.308-.412.463-.675.463-.792 0-.111-.057-.168-.168-.168-.092 0-.447.136-1.065.402-.669.302-1.199.574-1.586.819-.45.282-.894.621-1.338 1.017l-.54.499-.002.001c-.21.194-.419.387-.628.578-.301.283-.602.565-.9.84-.371.34-.622.508-.745.508a.447.447 0 0 1-.257-.082c-.083-.054-.124-.124-.124-.2 0-.143.203-.438.606-.888.355-.396.669-.7.945-.913.418-.308.84-.618 1.268-.936.498-.37.856-.678 1.078-.922.891-.996 1.335-1.744 1.335-2.248 0-.238-.054-.356-.165-.356-.26 0-.885.39-1.871 1.17-.647.562-1.664 1.418-3.053 2.569-.679.609-1.674 1.443-2.984 2.498a7.699 7.699 0 0 1-1.858 1.006c-.45.168-.806.25-1.066.25-.244 0-.431-.136-.555-.403a1.66 1.66 0 0 1-.155-.735c0-.495.238-.745.71-.745.229 0 .384.04.463.12.054.045.099.156.13.33.023.133.038.254.048.355 0 .073-.006.14-.019.203a1.21 1.21 0 0 0-.019.105c.19 0 .498-.105.926-.32a9.627 9.627 0 0 0 1.42-.889c.165-.123 1.101-.913 2.803-2.365.784-.672 1.979-1.642 3.59-2.914.827-.653 1.424-.983 1.785-.983.168 0 .308.057.422.174a.584.584 0 0 1 .171.432c0 .339-.124.76-.368 1.265-.33.688-.495 1.034-.495 1.043 1.231-.552 2.068-.83 2.509-.83a.44.44 0 0 1 .342.161c.095.108.143.206.143.301 0 .165-.137.463-.412.888l-.166.253c-.224.341-.449.684-.678 1.025-.71 1.09-1.065 1.68-1.065 1.776 0 .088.063.13.19.13.222 0 .723-.187 1.503-.568l.064-.032c.133-.066.444-.22.932-.466zm-21.262 1.15c-.047 0-.228.08-.545.238-.45.228-.71.358-.78.39-.828.377-1.484.567-1.966.567-.314 0-.473-.063-.473-.19 0-.063.13-.222.39-.479.26-.256.486-.45.676-.586.726-.52 1.087-.856 1.087-1.005 0-.165-.066-.248-.199-.248-.105 0-.308.099-.616.295-.183.123-.372.245-.563.367l-.09.058c-1.024.64-1.905 1.062-2.638 1.268a69.646 69.646 0 0 0 1.681-1.506c.149-.123.301-.25.45-.377.197-.18.295-.31.295-.39 0-.19-.064-.285-.19-.285-.118 0-.489.272-1.113.818a10.996 10.996 0 0 1-2.249 1.528c-.339.171-.732.34-1.176.495-.447.158-.732.237-.859.237-.222 0-.336-.06-.343-.177 0-.064.054-.187.165-.368a.974.974 0 0 0 .165-.507c0-.168-.098-.25-.295-.25-.101 0-.253.16-.45.484-.005.008-.007.015-.01.021-.002.006-.004.013-.009.02-.018.008-.035.013-.051.019l-.095.035c-.34.137-.574.222-.7.26-.575.175-.949.264-1.123.264-.371 0-.558-.111-.558-.333 0-.086.107-.197.32-.333.308-.197.501-.33.58-.403.213-.187.32-.4.32-.637 0-.165-.06-.25-.177-.25-.089 0-.301.136-.64.405-.489.393-.812.64-.97.745-.797.536-1.586.806-2.366.806-.295 0-.441-.073-.441-.216 0-.133.282-.438.84-.916.561-.476.84-.752.84-.825 0-.171-.05-.247-.152-.222-.222.045-.64.333-1.255.863-.631.551-.945.92-.945 1.1 0 .197.076.365.228.498a.787.787 0 0 0 .539.203c.615 0 1.094-.048 1.433-.143.222-.057.58-.21 1.078-.463.203.19.343.301.413.333.206.117.481.178.83.178.308 0 .774-.111 1.395-.333.169-.06.311-.114.441-.168-.035.11-.06.218-.06.31 0 .387.184.58.555.58.339 0 .869-.13 1.585-.39a8.186 8.186 0 0 0 1.329-.662c-.152.212-.225.371-.225.472 0 .127.123.19.377.19.102 0 .425-.11.97-.326.546-.215.999-.415 1.364-.596l-.038.065c-.053.09-.11.188-.171.287a.82.82 0 0 0-.124.32c-.006.127.086.241.285.34.197.098.441.145.733.145.444 0 1.183-.231 2.226-.697.853-.378 1.278-.622 1.278-.733 0-.127-.07-.19-.213-.19zm1.515.556c-.127-.009-.241.045-.343.153a.516.516 0 0 0-.155.355c0 .136.051.244.149.326.098.083.216.12.349.111a.387.387 0 0 0 .285-.158.522.522 0 0 0 .118-.323c0-.286-.134-.441-.403-.463zm21.782 0c-.127-.009-.241.045-.342.153a.513.513 0 0 0-.156.355c0 .136.051.244.149.326.099.083.216.12.349.111a.387.387 0 0 0 .285-.158.522.522 0 0 0 .118-.323c0-.286-.133-.441-.403-.463zm11.567-4.5c.133 0 .2.038.2.108 0 .213-1.107 1.354-3.314 3.422-.767.716-1.325 1.208-1.683 1.468-.622.456-1.155.688-1.595.688-.064 0-.156-.07-.273-.203-.121-.133-.178-.254-.178-.355 0-.15.073-.374.225-.676.172-.355.346-.532.52-.532.159 0 .235.057.235.164 0 .042-.066.156-.2.346-.133.187-.199.317-.199.39 0 .111.053.165.164.165.299 0 .717-.212 1.256-.637.308-.244.764-.67 1.373-1.269.403-.364.97-.888 1.703-1.576 1.059-1.002 1.646-1.503 1.766-1.503zm.709 5.318c.371 0 .98-.434 1.823-1.303a.8.8 0 0 0 0-.39c-.041-.19-.101-.31-.19-.368a2.892 2.892 0 0 0-.923.603c-.561.57-.84.992-.84 1.268 0 .127.044.19.13.19zm12.217-1.683c.117 0 .178.053.178.155 0 .089-.187.171-.562.25-.377.077-.742.156-1.097.235-.621.175-1.509.4-2.663.675l-.086.035c-.183.074-.364.147-.542.213-.203.08-.374.12-.507.12-.206 0-.311-.092-.321-.272-.006-.073.035-.124.13-.156.149-.032.254-.07.308-.117.38-.292.568-.504.568-.64 0-.143-.026-.213-.083-.213-.26 0-.65.12-1.17.355-.279.127-.457.19-.533.19-.088 0-.241-.063-.463-.19-.222.159-.681.561-1.385 1.208a194.669 194.669 0 0 1-1.954 1.788c-.361.324-1.268 1.174-2.723 2.556-.993.948-1.545 1.42-1.656 1.42-.212 0-.32-.091-.32-.272 0-.117 1.405-1.474 4.214-4.071a157.34 157.34 0 0 1 3.111-2.769c-.057.02-.111.035-.181.051a5.131 5.131 0 0 1-1.202.137c-.275 0-.554-.06-.84-.178-.593.593-.992.967-1.208 1.126-.466.355-.926.532-1.382.532a.503.503 0 0 1-.394-.196c-.111-.13-.165-.25-.165-.362 0-.26.124-.58.368-.964.244-.383.565-.745.958-1.084a4.27 4.27 0 0 1 1.16-.675c.365-.14.631-.213.806-.213.101 0 .215.06.342.178.127.12.191.26.191.428 0 .165-.099.444-.295.84.107.054.301.111.58.165.212 0 .495-.025.85-.076.355-.05.558-.076.605-.076.095 0 .146.019.172.054 1.09-.942 2.327-1.973 3.722-3.098.349-.286.752-.565 1.215-.84.459-.276.751-.416.868-.416.102 0 .156.073.156.216 0 .053-.178.2-.533.437-.571.377-1.018.695-1.351.945-.561.434-1.167.942-1.823 1.516-.599.53-.986.894-1.16 1.09.031.023.06.048.082.07a.23.23 0 0 0 .168.048c.211-.054.55-.145 1.017-.27h.001l.009-.003c.356-.085.647-.13.879-.13.117 0 .225.041.323.117.098.08.149.175.149.286 0 .149-.158.374-.472.675.45-.127 1.198-.307 2.248-.545.954-.19 1.519-.285 1.693-.285zm1.113 1.209c-.356.212-.641.32-.853.32-.111 0-.165-.029-.165-.083-.048-.174.095-.421.425-.745.332-.326.64-.488.925-.488.108 0 .188.076.235.225.048.27-.143.526-.567.77zm1.931-2.509c.843-.65 1.252-1.027 1.23-1.138-.025-.117-.111-.178-.26-.178-.121 0-.568.318-1.351.949-.403.323-.843.748-1.325 1.277l-.133.065h-.001l-.399.195a3.291 3.291 0 0 0-.568.343c-.567.444-.818.828-.745 1.151.086.377.365.568.84.568.647 0 1.183-.21 1.608-.628.365-.35.517-.634.463-.866a.88.88 0 0 0-.2-.39c-.104-.117-.203-.178-.298-.178.435-.535.815-.925 1.139-1.17zm16.181 2.983c.371 0 .979-.434 1.823-1.303a.8.8 0 0 0 0-.39c-.041-.19-.102-.31-.19-.368a2.892 2.892 0 0 0-.923.603c-.561.57-.84.992-.84 1.268 0 .127.044.19.13.19zm-9.554 0c.371 0 .98-.434 1.823-1.303a.8.8 0 0 0 0-.39c-.038-.19-.101-.31-.19-.368a2.892 2.892 0 0 0-.923.603c-.561.57-.84.992-.84 1.268 0 .127.044.19.13.19zm13.803-1.474c.355-.05.558-.076.605-.076.133 0 .2.028.2.092 0 .127-.19.238-.574.326a5.137 5.137 0 0 1-1.202.137c-.276 0-.555-.06-.84-.178-.593.593-.993.967-1.208 1.126-.466.355-.926.532-1.383.532a.503.503 0 0 1-.393-.196c-.111-.13-.165-.25-.165-.362 0-.222.108-.498.286-.805-.108.047-.454.19-1.066.438-.387.168-.773.336-1.16.51a3.28 3.28 0 0 1-1.186.213c-.235 0-.425-.07-.568-.213a.556.556 0 0 1-.187-.425c0-.08.146-.257.444-.53.295-.269.615-.51.964-.713.228-.136.46-.27.698-.402.244-.165.367-.318.367-.45 0-.032-.031-.048-.095-.048-.269 0-.691.127-1.268.377-.251.11-.587.346-1.005.7l-.038.03a.366.366 0 0 1-.149.126c-.251.2-.413.304-.476.304-.12 0-.177-.047-.203-.123a5.14 5.14 0 0 1-.923.089c-.275 0-.554-.06-.84-.178-.59.593-.992.967-1.208 1.126-.463.355-.926.532-1.382.532a.503.503 0 0 1-.394-.196c-.107-.13-.165-.25-.165-.362 0-.11.035-.24.08-.377-.206.086-.444.18-.742.295-.955.365-1.709.545-2.261.545-.324 0-.568-.158-.733-.472-.126-.248-.19-.546-.19-.9-.196.1-.526.275-.983.52-.222.126-.437.253-.65.38-.263.123-.482.187-.663.187-.104 0-.155-.117-.155-.355 0-.054.102-.178.308-.365l.345-.317.213-.193c1.236-1.215 1.905-1.824 1.997-1.824.064 0 .121.029.175.083.051.057.076.11.076.165 0 .152-.412.605-1.23 1.363.212-.08.485-.177.814-.295.489-.326 1.316-.837 2.474-1.54.333-.197.659-.394.983-.594.355-.203.593-.307.71-.307.136 0 .203.047.203.142 0 .08-.209.238-.628.473-.72.428-1.1.656-1.148.688-.916.593-1.642 1.097-2.178 1.516a.86.86 0 0 1-.048.272.898.898 0 0 0-.047.282c0 .175.054.333.165.476.111.143.222.213.333.213.355 0 1.024-.165 2.013-.498l.7-.236.343-.116a.829.829 0 0 0 .038-.074.848.848 0 0 1 .054-.1c.244-.384.565-.746.958-1.085a4.27 4.27 0 0 1 1.16-.675c.365-.14.631-.213.806-.213.101 0 .219.06.342.178.127.12.191.26.191.428 0 .165-.099.444-.295.84.111.054.301.111.58.165.212 0 .498-.025.85-.076.063-.01.114-.016.165-.022.085-.096.187-.203.323-.327.409-.387.802-.663 1.183-.83.482-.213 1.052-.318 1.715-.318.133 0 .244.05.333.159.086.108.13.228.13.361 0 .33-.463.758-1.386 1.278a4.384 4.384 0 0 0-.681.457c-.21.168-.314.288-.314.361 0 .048.025.092.079.14.051.047.098.073.146.073.184 0 .491-.083.926-.248.399-.168.799-.33 1.195-.488.181-.07.489-.203.923-.4.33-.152.52-.225.568-.225h.009a5.51 5.51 0 0 1 .606-.618 4.27 4.27 0 0 1 1.16-.675c.365-.14.631-.213.806-.213.101 0 .215.06.342.178.127.12.19.26.19.428 0 .165-.098.444-.295.84.108.054.302.111.581.165.212 0 .494-.025.85-.076zM177.734 4.095a4.325 4.325 0 0 1-.923-.256 1.559 1.559 0 0 1-.705-.536c-.171-.24-.255-.53-.255-.873v-.256h1.587c0 .121.012.221.031.302a.7.7 0 0 0 .156.262c.081.094.218.166.409.212a3.2 3.2 0 0 0 .736.069c.888 0 1.331-.28 1.331-.845h1.591v.256c0 .343-.088.633-.259.873a1.55 1.55 0 0 1-.702.536 4.358 4.358 0 0 1-.923.256 6.28 6.28 0 0 1-1.038.078c-.375 0-.721-.025-1.036-.078zm-81.26 3.074h.207l2.74 4.353h2.471l-3.265-4.84 3.19-4.122h-2.551l-2.61 3.854h-.181V2.56h-2.202v8.962h2.202V7.17zm8.261-.474c.34-.171.639-.255.895-.255.976 0 1.463.626 1.463 1.883 0 1.244-.434 1.868-1.294 1.868-.3 0-.655-.08-1.064-.243V6.695zm0 4.394c.025.006.14.053.346.14.206.085.356.144.456.178.096.035.255.072.474.11.215.037.436.059.658.059.835 0 1.459-.25 1.871-.752.408-.499.614-1.331.614-2.5 0-1.189-.209-2.05-.627-2.583-.421-.533-1.038-.801-1.858-.801-.649 0-1.295.205-1.934.614V5.12h-2.049v8.966h2.049V11.09zm8.388-.667c.231 0 .543-.084.935-.256V8.95h-1.01c-.293 0-.514.065-.674.2a.613.613 0 0 0-.237.492c0 .281.078.48.231.602.153.119.406.178.755.178zm-2.445-2.114c.399-.281.998-.421 1.793-.421h1.6v-.565c0-.34-.081-.583-.243-.723-.162-.14-.452-.21-.87-.21-.565 0-1.344.107-2.345.319l-.231-1.32c1.06-.264 1.952-.395 2.679-.395 1.041 0 1.808.19 2.304.577.496.383.742.988.742 1.818v4.135h-2.049v-.434c-.511.374-1.157.562-1.933.562-1.366 0-2.049-.655-2.049-1.971 0-.633.2-1.089.602-1.372zm9.822 3.33c.767 0 1.484-.124 2.152-.37l-.281-1.447c-.044.015-.15.053-.315.109a3.602 3.602 0 0 1-.459.13 17.1 17.1 0 0 1-.093.023c-.115.03-.215.05-.305.056-.091.01-.188.015-.287.015-.53 0-.92-.112-1.167-.333-.249-.222-.371-.612-.371-1.167v-.651c0-.546.125-.936.378-1.167.252-.23.636-.346 1.16-.346.202 0 .458.044.767.128.305.087.536.162.692.23l.281-1.459a5.65 5.65 0 0 0-2.152-.411c-.948 0-1.728.262-2.342.782-.617.521-.923 1.217-.923 2.087v.96c0 .942.299 1.647.895 2.12.599.475 1.388.712 2.37.712zm7.606-2.727h-2.56v2.613h-2.049V5.12h2.049v2.435h2.56V5.12h2.049v6.405h-2.049V8.911zm5.086-1.332c0-.82.436-1.229 1.306-1.229.87 0 1.307.468 1.307 1.41v1.138c0 .939-.437 1.41-1.307 1.41-.87 0-1.306-.471-1.306-1.41V7.58zm1.306 4.085c1.076 0 1.906-.237 2.492-.71.583-.475.876-1.151.876-2.03V7.731c0-.88-.293-1.553-.876-2.024-.586-.468-1.416-.702-2.492-.702-1.066 0-1.883.231-2.448.696-.561.468-.845 1.141-.845 2.03v1.191c0 .889.284 1.569.845 2.037.565.47 1.382.704 2.448.704zm7.299-5.213c-.402 0-.686.066-.851.193-.166.128-.25.36-.25.693.01.34.097.59.262.742.166.153.446.23.839.23h1.307V6.452h-1.307zm-3.228 5.074 1.719-2.127c-1.154-.068-1.731-.751-1.731-2.049 0-.77.228-1.331.686-1.69.455-.359 1.163-.54 2.118-.54h3.792v6.406h-2.049V9.55h-.858l-1.447 1.974h-2.23zm9.965-4.83c.34-.171.639-.255.895-.255.976 0 1.463.626 1.463 1.883 0 1.244-.434 1.868-1.295 1.868-.299 0-.655-.08-1.063-.243V6.695zm0 4.394c.025.006.14.053.346.14.206.085.356.144.455.178.097.035.256.072.474.11.216.037.437.059.658.059.836 0 1.46-.25 1.872-.752.408-.499.614-1.331.614-2.5 0-1.189-.209-2.05-.627-2.583-.421-.533-1.038-.801-1.859-.801-.648 0-1.294.205-1.933.614V5.12h-2.049v8.966h2.049V11.09zm10.758.179a6.171 6.171 0 0 1-2.152.37c-.983 0-1.772-.236-2.37-.71-.596-.474-.895-1.18-.895-2.12v-.961c0-.87.305-1.566.923-2.087.614-.52 1.394-.782 2.342-.782a5.65 5.65 0 0 1 2.152.411l-.281 1.46a5.903 5.903 0 0 0-.692-.231 3.05 3.05 0 0 0-.771-.128c-.521 0-.904.116-1.157.346-.252.231-.377.62-.377 1.167v.651c0 .555.122.945.371 1.167.246.221.636.333 1.163.333.103 0 .2-.006.29-.015.091-.006.191-.025.306-.056a17.1 17.1 0 0 0 .093-.023c.067-.017.115-.03.144-.034.044-.009.15-.04.315-.096s.271-.094.315-.11l.281 1.448zm2.894-2.882h.078l2.074 3.137h2.317l-2.483-3.328 2.458-3.075h-2.383l-1.971 2.78h-.09V5.12h-2.049v6.403h2.049V8.386zm9.848 3.137V7.797l-2.857 3.726h-1.805V5.121h2.049v3.74l2.869-3.74h1.793v6.402h-2.049zm8.043-3.726v3.726h2.048V5.121h-1.793l-2.869 3.74V5.12h-2.049v6.402h1.806l2.857-3.726zm-83.935 14.23h2.51v5.021h2.049v-6.405h-6.608v6.405h2.05v-5.02zm8.01.033c-.175.184-.262.515-.262.992v.218h2.358v-.309c0-.442-.103-.751-.303-.92-.2-.171-.511-.255-.929-.255-.399 0-.689.09-.864.274zm.967 5.114c-2.193 0-3.29-.863-3.29-2.597v-1.051c0-1.008.259-1.762.779-2.261.521-.5 1.326-.748 2.408-.748.589 0 1.107.071 1.55.212.446.14.82.408 1.129.798.305.393.461.907.461 1.537v1.257h-4.266v.396c0 .452.122.748.365.883.243.137.608.205 1.094.205.846 0 1.656-.109 2.433-.333l.206 1.36c-.964.23-1.921.342-2.869.342zm8.735-1.51h-2.358c.486-.879.73-2.142.73-3.792h1.628v3.793zm2.688 3.434.115-3.433h-.755v-5.021h-5.532c0 2.672-.315 4.347-.948 5.02h-.627v3.434h1.781l.115-2.049h4.073v2.049h1.778zm4.111-3.152c.231 0 .543-.084.936-.256v-1.216h-1.01c-.294 0-.515.066-.674.2a.613.613 0 0 0-.237.492c0 .281.078.48.231.602.153.119.405.178.754.178zm-2.51-3.714-.231-1.32c1.061-.264 1.952-.395 2.679-.395 1.042 0 1.809.19 2.305.577.495.383.742.988.742 1.818v4.135h-2.049v-.434c-.511.375-1.157.562-1.933.562-1.366 0-2.049-.655-2.049-1.971 0-.633.199-1.088.602-1.372.399-.28.997-.421 1.793-.421h1.599v-.565c0-.34-.081-.583-.243-.723-.162-.14-.452-.21-.87-.21-.564 0-1.344.107-2.345.319zm11.616-.025v-1.563h-4.79v6.403h2.049v-4.84h2.741zm3.472-.332c-.87 0-1.307.408-1.307 1.228v1.32c0 .938.437 1.409 1.307 1.409.87 0 1.306-.471 1.306-1.41v-1.138c0-.942-.436-1.41-1.306-1.41zm-2.448 4.609c-.562-.468-.846-1.148-.846-2.037v-1.19c0-.89.284-1.563.846-2.031.564-.465 1.381-.695 2.448-.695 1.075 0 1.905.233 2.491.701.583.471.877 1.145.877 2.024v1.191c0 .88-.294 1.556-.877 2.03-.586.474-1.416.712-2.491.712-1.067 0-1.884-.234-2.448-.705zm6.865.564h2.049v-4.84h2.741v-1.562h-4.79v6.402zm5.635-.001v-6.403h2.049v3.74l2.869-3.74h1.793v6.403h-2.049V23.32l-2.856 3.727h-1.806zm7.914-6.403v2.165c0 .854.2 1.478.596 1.877.396.396 1.014.596 1.849.596.521 0 1.117-.053 1.781-.156v1.92h2.049v-6.402h-2.049v3.138c-.299.078-.683.115-1.151.115-.383 0-.651-.084-.801-.25-.15-.165-.225-.449-.225-.85v-2.153h-2.049zm9.727 1.416c-.175.184-.262.515-.262.992v.218h2.358v-.309c0-.442-.103-.751-.303-.92-.199-.171-.511-.255-.929-.255-.399 0-.689.09-.864.274zm.967 5.114c-2.193 0-3.29-.863-3.29-2.597v-1.051c0-1.008.259-1.762.779-2.261.521-.5 1.326-.748 2.408-.748.589 0 1.107.071 1.55.212.446.14.82.408 1.129.798.305.393.461.907.461 1.537v1.257h-4.266v.396c0 .452.122.748.365.883.243.137.608.205 1.095.205a8.71 8.71 0 0 0 2.432-.333l.206 1.36c-.964.23-1.921.342-2.869.342zm3.881-2.841c0 .939.299 1.646.895 2.12.598.471 1.387.712 2.37.712.77 0 1.487-.125 2.152-.375l-.281-1.447c-.032.014-.099.037-.199.07l-.116.04a3.62 3.62 0 0 1-.315.096c-.041.01-.122.028-.234.06a2.324 2.324 0 0 1-.596.068c-.53 0-.92-.11-1.166-.334-.249-.221-.371-.608-.371-1.163v-.655c0-.545.125-.935.377-1.163.253-.23.64-.346 1.16-.346.203 0 .459.04.768.128.308.084.539.162.692.23l.281-1.459a5.65 5.65 0 0 0-2.152-.412c-.948 0-1.728.262-2.342.783-.615.52-.923 1.216-.923 2.086v.96zm6.262-3.689h2.049v2.779h.091l1.97-2.779h2.383l-2.457 3.075 2.482 3.328h-2.317l-2.074-3.138h-.078v3.138h-2.049v-6.403zm9.285 3.74v-3.739h-2.049v6.402h1.806l2.856-3.726v3.726h2.049v-6.402h-1.793l-2.869 3.74zm8.042 0 2.869-3.74h1.793v6.403h-2.048V23.32l-2.857 3.727h-1.806v-6.403h2.049v3.74zm-.652-5.02c.299.118.605.205.923.255a6.27 6.27 0 0 0 1.035.078c.378 0 .724-.025 1.039-.078.315-.05.623-.137.923-.255.296-.119.533-.3.701-.537.172-.24.259-.53.259-.873v-.256h-1.59c0 .565-.443.845-1.332.845a3.21 3.21 0 0 1-.736-.068c-.19-.047-.327-.119-.408-.212a.7.7 0 0 1-.156-.262 1.33 1.33 0 0 1-.031-.303h-1.588v.256c0 .343.085.633.256.873.172.237.405.418.705.537zM96.22 39.434h-.078v3.138h-2.049V36.17h2.05v2.778h.09l1.97-2.778h2.383l-2.457 3.075 2.482 3.327h-2.317l-2.074-3.137zm9.04-.626v1.138c0 .942-.436 1.41-1.306 1.41-.87 0-1.307-.468-1.307-1.41v-1.319c0-.817.437-1.229 1.307-1.229.87 0 1.306.471 1.306 1.41zm-3.751-2.055c-.565.465-.845 1.141-.845 2.03v1.191c0 .886.28 1.566.845 2.037.561.467 1.378.701 2.445.701 1.075 0 1.905-.237 2.491-.708.583-.474.877-1.15.877-2.03v-1.191c0-.88-.294-1.556-.877-2.024-.586-.47-1.416-.705-2.491-.705-1.067 0-1.884.234-2.445.699zm5.993 4.386c.203.025.375.037.512.037.795 0 1.191-1.668 1.191-5.008h5.532v6.406h-2.049V37.54h-1.715c0 .496-.006.908-.021 1.242-.013.333-.041.72-.088 1.16-.047.44-.128.804-.237 1.094-.112.29-.249.57-.418.839-.165.268-.39.47-.67.602a2.3 2.3 0 0 1-.973.2c-.334 0-.624-.035-.873-.103l-.191-1.435zm9.143 1.536c.368 0 .693-.065.973-.2.281-.13.505-.33.674-.601a4.85 4.85 0 0 0 .415-.84c.112-.29.19-.654.237-1.094.046-.44.078-.826.09-1.157.012-.333.019-.748.019-1.244h1.715v5.033h2.049V36.17h-5.532c0 3.337-.397 5.005-1.192 5.005-.134 0-.305-.012-.511-.037l.193 1.434c.247.069.537.103.87.103zm9.624-5.09c-.174.184-.262.514-.262.992v.218h2.358v-.309c0-.443-.103-.751-.303-.92-.199-.171-.511-.256-.929-.256-.399 0-.689.09-.864.275zm4.004 1.004v1.257h-4.266v.396c0 .452.122.748.365.882.243.138.608.206 1.095.206.845 0 1.656-.109 2.432-.334l.206 1.36c-.964.231-1.921.343-2.869.343-2.192 0-3.29-.864-3.29-2.597V39.05c0-1.008.259-1.762.78-2.261.52-.5 1.325-.749 2.407-.749.589 0 1.107.072 1.55.212.446.14.82.409 1.129.799.305.393.461.907.461 1.537zm5.698 2.6h-2.358c.487-.879.73-2.142.73-3.791h1.628v3.792zm2.688 3.434.115-3.433h-.754v-5.021h-5.533c0 2.672-.314 4.347-.948 5.02h-.626v3.434h1.78l.116-2.049h4.072v2.049h1.778zm4.727-5.597v-2.857h1.971v2.857h.168l1.64-2.857h2.177l-1.999 3.088 1.986 3.315h-2.164l-1.653-3.125h-.155v3.125h-1.971v-3.1h-.141l-1.743 3.1h-2.099l2.087-3.315-2.099-3.088h2.136l1.706 2.857h.153zm15.637.14-3.125-5.557h-2.202v8.963h1.946v-5.635l3.175 5.635h2.152v-8.963h-1.946v5.557zm7.466 1.997h-4.712v-1.216h4.712v1.216zm-1.729-3.892c0 .265-.043.461-.134.589-.09.128-.271.193-.545.193-.272 0-.453-.065-.543-.193-.09-.128-.134-.324-.134-.59v-.346c0-.265.044-.461.134-.595.09-.131.271-.2.543-.2.274 0 .455.069.545.2.091.134.134.33.134.595v.347zm1.728-.371c0-.6-.19-1.083-.574-1.454-.386-.37-.995-.558-1.833-.558-1.572 0-2.355.67-2.355 2.012v.395c0 1.332.783 2 2.355 2 .838 0 1.447-.181 1.833-.546.384-.362.574-.845.574-1.454V36.9zm7.839-3.293v8.966h-2.202V36.27l-2.563 2.18-.561-1.665 3.393-3.178h1.933z" fill="#fff"/><path d="M55.776 36.548h-8.54v-7.374h-15.19v7.374h-8.541V8.846H35.38l.815-1.3a4.065 4.065 0 0 1 3.454-1.918c1.41.002 2.7.719 3.453 1.919l.814 1.3h11.86v27.701zm5.556-33.246H46.828A9.572 9.572 0 0 0 39.656.083a9.575 9.575 0 0 0-7.185 3.219H17.964v11.085H.651v5.54h17.313v5.54H.651v5.54h17.313v5.541H.651v5.54h36.935v-7.374h4.109v7.375H78.63v-5.54H61.316v-5.541H78.63v-5.54H61.316v-5.54H78.63v-5.541H61.316l.016-11.085z" fill="#FEFEFE"/></g></svg>