<svg width="20" height="20" fill="none" xmlns="http://www.w3.org/2000/svg"><path fill-rule="evenodd" clip-rule="evenodd" d="M16 15a1 1 0 0 1-1 1H5a1 1 0 0 1 0-2h10a1 1 0 0 1 1 1zM5 10h10a1 1 0 0 1 0 2H5a1 1 0 0 1 0-2zm13 7a1 1 0 0 1-1 1H3a1 1 0 0 1-1-1V3a1 1 0 0 1 1-1h9v4a2 2 0 0 0 2 2h4v9zm1.707-11.293L14.293.293A1 1 0 0 0 13.586 0H2a2 2 0 0 0-2 2v16a2 2 0 0 0 2 2h16a2 2 0 0 0 2-2V6.414a1 1 0 0 0-.293-.707z" fill="url(#a)"/><defs><linearGradient id="a" x1=".193" y1=".097" x2=".193" y2="19.903" gradientUnits="userSpaceOnUse"><stop stop-color="#E7C85D"/><stop offset="1" stop-color="#DEAF2F"/></linearGradient></defs></svg>