<svg width="144" height="59" viewBox="0 0 144 59" fill="none" xmlns="http://www.w3.org/2000/svg">
<mask id="mask0_46_2091" style="mask-type:alpha" maskUnits="userSpaceOnUse" x="0" y="18" width="46" height="41">
<path fill-rule="evenodd" clip-rule="evenodd" d="M0.595703 18.0449H45.6266V58.8667H0.595703V18.0449Z" fill="white"/>
</mask>
<g mask="url(#mask0_46_2091)">
<path fill-rule="evenodd" clip-rule="evenodd" d="M45.431 27.7543C45.4318 30.2677 45.4615 32.7816 45.421 35.2945C45.3953 36.8967 45.6908 38.4789 45.6137 40.084C45.5475 41.4671 45.4362 42.8503 45.0071 44.1579C44.4979 45.7095 43.5102 46.9851 42.3266 48.1139C40.7416 49.6252 38.8659 50.7292 36.9916 51.7976C34.7048 53.1013 32.2802 54.161 29.9715 55.4286C28.5345 56.2177 27.0556 56.9261 25.6205 57.7199C24.7245 58.2154 23.8616 58.9737 22.6975 58.8542C22.4842 58.8322 22.2897 58.8257 22.0908 58.6949C21.0563 58.0141 19.9353 57.4883 18.8356 56.9241C17.383 56.1785 15.9005 55.4943 14.4989 54.6446C13.6695 54.1419 12.7339 53.8365 11.8922 53.323C10.7203 52.6081 9.48068 52.0017 8.27729 51.3353C7.10953 50.6885 6.00689 49.963 4.94449 49.1718C2.96815 47.6999 1.46768 45.8567 0.695307 43.4819C0.623445 43.2615 0.617265 43.0127 0.616834 42.777C0.61051 39.7131 0.625888 36.6489 0.59585 33.5852C0.590101 32.9922 0.751215 32.808 1.35313 32.8134C4.53732 32.8408 7.72208 32.8109 10.9063 32.8417C11.5612 32.8481 11.7923 32.6701 11.7588 31.9959C11.7044 30.8972 11.7679 29.7933 11.7298 28.6935C11.71 28.1261 11.9017 27.9509 12.4672 27.9549C15.6514 27.9771 18.8363 27.9442 22.0204 27.982C22.7295 27.9903 22.9138 27.7638 22.8799 27.091C22.827 26.0404 22.9037 24.9835 22.8527 23.9327C22.8208 23.2752 23.0217 23.0794 23.6905 23.0867C26.8985 23.1212 30.1073 23.0975 33.3156 23.108C33.8005 23.1096 34.0591 23.1244 33.9979 22.4344C33.8843 21.1519 33.9795 19.852 33.9621 18.5596C33.957 18.1836 34.0864 18.0494 34.4566 18.0501C37.9524 18.0561 41.448 18.058 44.9437 18.0449C45.4632 18.0431 45.4341 18.3495 45.4335 18.7059C45.4279 21.7221 45.4303 24.7381 45.431 27.7543Z" fill="#E85047"/>
</g>
<path fill-rule="evenodd" clip-rule="evenodd" d="M22.9841 0.539947C29.5924 0.539947 36.2006 0.532904 42.8089 0.548714C43.6633 0.550726 44.5129 0.637103 45.1098 1.42758C45.3274 1.7156 45.4349 1.97689 45.4343 2.327C45.4278 5.77392 45.4188 9.22098 45.4442 12.6677C45.4482 13.2231 45.2579 13.3514 44.7424 13.3489C41.3426 13.3317 37.9426 13.353 34.5428 13.3303C33.9599 13.3264 33.7371 13.4763 33.7642 14.0913C33.812 15.1664 33.7838 16.245 33.7782 17.3222C33.774 18.1435 33.5732 18.2544 32.7496 18.2307C31.1228 18.1841 29.4939 18.2099 27.8658 18.2073C26.2856 18.2048 24.7052 18.2162 23.1253 18.1956C22.7011 18.1902 22.5745 18.2388 22.6118 18.7445C22.7049 20.0067 22.6787 21.2779 22.6927 22.5456C22.6981 23.0457 22.3635 23.0743 21.9705 23.0733C18.7381 23.065 15.5056 23.0873 12.2737 23.0539C11.5744 23.0466 11.2839 23.1982 11.3348 23.9599C11.4032 24.9847 11.3335 26.0179 11.3621 27.0464C11.3752 27.5217 11.2606 27.738 10.7322 27.7351C7.54783 27.7174 4.36335 27.7215 1.17902 27.7343C0.75417 27.736 0.601823 27.6153 0.602542 27.1655C0.615477 18.7876 0.615477 10.4097 0.608578 2.03179C0.608003 1.31735 1.1004 1.00633 1.62398 0.801379C2.09971 0.615401 2.61941 0.528018 3.15938 0.529311C9.76763 0.545552 16.3759 0.539947 22.9841 0.539947Z" fill="#E85047"/>
<path fill-rule="evenodd" clip-rule="evenodd" d="M106.635 22.8013C107.365 21.9018 108.1 21.0057 108.825 20.1019C110.351 18.199 111.877 16.2953 113.392 14.3835C113.629 14.0838 113.875 13.8066 114.28 13.9352C114.688 14.0647 114.54 14.4559 114.541 14.7423C114.55 18.2115 114.534 21.681 114.56 25.1502C114.564 25.7543 114.368 25.9198 113.781 25.9242C113.191 25.9283 113.053 25.7113 113.058 25.1683C113.08 22.5366 113.072 19.9046 113.066 17.2727C113.065 17.0781 113.209 16.7864 112.933 16.7096C112.693 16.6429 112.605 16.9373 112.48 17.0939C110.297 19.8493 108.119 22.6093 105.939 25.3672C105.82 25.517 105.713 25.6907 105.56 25.7951C105.262 25.9995 105.013 25.9753 104.958 25.5456C104.946 25.4513 104.954 25.3544 104.953 25.2587C104.94 21.6467 104.928 18.0345 104.913 14.4223C104.912 14.1265 104.965 13.8359 105.335 13.9488C105.714 14.0644 106.408 13.5428 106.435 14.4055C106.469 15.5051 106.442 16.6064 106.442 17.7071C106.442 19.378 106.442 21.0489 106.442 22.72C106.506 22.747 106.571 22.7742 106.635 22.8013Z" fill="#333333"/>
<path fill-rule="evenodd" clip-rule="evenodd" d="M60.8213 19.8936C60.8213 18.1217 60.8613 16.3486 60.8038 14.5785C60.7766 13.7396 61.3295 13.9844 61.7464 13.9247C62.2815 13.8484 62.3159 14.188 62.3147 14.5915C62.3071 17.1055 62.308 19.6196 62.312 22.1338C62.3123 22.3136 62.2049 22.5637 62.408 22.6587C62.6824 22.787 62.7585 22.481 62.8793 22.3308C64.9784 19.7204 67.0707 17.1045 69.1647 14.4899C69.2544 14.3779 69.3435 14.2652 69.4384 14.1574C69.6305 13.9388 69.878 13.8622 70.1525 13.9394C70.4656 14.0272 70.4108 14.3042 70.4111 14.536C70.414 18.1036 70.4062 21.6713 70.4223 25.2389C70.4249 25.7927 70.1462 25.8541 69.7001 25.8496C69.2461 25.845 68.9205 25.8285 68.9259 25.2161C68.9491 22.5585 68.9388 19.9006 68.9254 17.2429C68.9244 17.0313 69.0875 16.7009 68.779 16.6197C68.5694 16.5645 68.4589 16.8613 68.3298 17.0253C66.1225 19.8263 63.9174 22.629 61.7102 25.4302C61.5365 25.6507 61.3851 25.9874 61.0517 25.8874C60.6832 25.7769 60.8315 25.4029 60.8301 25.1373C60.8202 23.3893 60.8249 21.6415 60.8249 19.8936H60.8213Z" fill="#333333"/>
<path fill-rule="evenodd" clip-rule="evenodd" d="M73.1771 19.8724C73.1771 18.125 73.1972 16.377 73.1654 14.6302C73.1551 14.0576 73.3398 13.8863 73.9065 13.8991C74.4364 13.911 74.6948 14.0169 74.6767 14.6147C74.6398 15.8345 74.6822 17.0566 74.6543 18.2766C74.6441 18.721 74.7593 18.9642 75.2332 18.96C77.0969 18.9435 78.9604 18.9273 80.824 18.9178C81.2647 18.9155 81.2295 18.6231 81.228 18.3256C81.2223 17.1047 81.2535 15.8829 81.2102 14.6636C81.1881 14.0381 81.4405 13.9008 82.0099 13.9005C82.5461 13.9004 82.7861 14.0154 82.7825 14.6104C82.7613 18.153 82.7555 21.6961 82.7843 25.2386C82.7902 25.9609 82.382 25.8827 81.9083 25.9159C81.369 25.9536 81.1991 25.775 81.2109 25.2328C81.2444 23.7015 81.2106 22.1688 81.2342 20.6371C81.242 20.1434 81.0829 19.9684 80.5757 19.9713C78.8287 19.981 77.0809 19.9649 75.3344 19.9214C74.7889 19.9077 74.6419 20.0986 74.6533 20.6259C74.6856 22.1334 74.6376 23.6427 74.6783 25.1496C74.695 25.7655 74.4762 25.9144 73.8933 25.9251C73.308 25.9358 73.1564 25.7455 73.166 25.1864C73.1962 23.4154 73.1771 21.6438 73.1771 19.8724Z" fill="#333333"/>
<path fill-rule="evenodd" clip-rule="evenodd" d="M86.4235 19.9124C86.4408 21.5625 86.7532 23.1201 88.0341 24.2879C89.4449 25.5739 91.5278 25.6126 93.2107 24.473C93.4312 24.3237 93.7193 23.8224 93.9299 24.1692C94.119 24.4808 94.1005 25.046 93.5776 25.3352C92.7197 25.8098 91.798 26.0429 90.8334 26.0731C87.1986 26.1866 85.0642 24.2373 84.7158 20.5146C84.3619 16.7316 86.6375 13.9161 90.3058 13.661C91.5123 13.5772 92.6792 13.8642 93.801 14.322C94.0201 14.4115 94.2265 14.5124 94.1722 14.7677C94.0944 15.1339 94.0309 15.5432 93.8181 15.8265C93.6797 16.0107 93.4812 15.6678 93.3339 15.537C91.9428 14.3013 90.124 14.0774 88.6295 15.0367C87.0503 16.0505 86.5602 17.6502 86.4252 19.4099C86.4124 19.5765 86.4235 19.7448 86.4235 19.9124Z" fill="#333333"/>
<path fill-rule="evenodd" clip-rule="evenodd" d="M117.932 45.8968C117.873 45.8862 117.815 45.8756 117.756 45.8651C117.615 46.2117 117.469 46.5565 117.335 46.9055C116.79 48.3147 116.834 48.3572 118.381 48.2022C118.739 48.1664 118.779 48.0354 118.665 47.7489C118.418 47.1324 118.176 46.5143 117.932 45.8968ZM114.812 51.5466C115.302 50.3577 115.749 49.2788 116.192 48.1983C116.7 46.9588 117.204 45.7175 117.712 44.4779C117.781 44.3077 117.8 44.0717 118.051 44.0723C118.296 44.0728 118.338 44.3085 118.404 44.4743C119.286 46.6969 120.16 48.9232 121.036 51.1488C121.116 51.3523 121.23 51.6215 120.898 51.6459C120.558 51.6708 120.115 51.8685 119.94 51.3112C119.733 50.6498 119.474 50.0042 119.273 49.3412C119.131 48.8725 118.855 48.7328 118.374 48.7338C116.566 48.7381 116.566 48.7216 115.996 50.4738C115.914 50.7241 115.832 50.9744 115.764 51.2282C115.665 51.5945 115.441 51.7428 115.069 51.6531C115.023 51.642 114.97 51.598 114.934 51.6101C113.674 52.0371 113.173 51.1466 112.591 50.3145C112.064 49.5615 111.45 48.8692 110.698 48.195C110.698 49.1329 110.693 50.0708 110.701 51.0088C110.704 51.3605 110.742 51.6798 110.218 51.6801C109.743 51.6803 109.681 51.4512 109.684 51.0495C109.7 48.9669 109.699 46.8844 109.688 44.8018C109.686 44.4199 109.719 44.1526 110.204 44.148C110.712 44.1431 110.711 44.4431 110.703 44.8094C110.689 45.4793 110.695 46.1499 110.703 46.82C110.705 46.9746 110.626 47.1847 110.819 47.2658C111.023 47.3507 111.101 47.1346 111.204 47.0209C111.942 46.2043 112.669 45.3789 113.408 44.5625C113.533 44.4238 113.674 44.2723 113.84 44.2046C114.029 44.1275 114.298 44.0583 114.439 44.2582C114.588 44.4699 114.333 44.5865 114.213 44.7149C113.461 45.5184 112.704 46.3169 111.948 47.1165C111.765 47.3099 111.549 47.4913 111.787 47.7869C112.773 49.011 113.757 50.2363 114.812 51.5466Z" fill="#333333"/>
<path fill-rule="evenodd" clip-rule="evenodd" d="M126.011 13.8609C126.618 13.6676 126.937 14.1143 127.255 14.6907C128.259 16.5141 129.353 18.2837 130.538 19.9978C130.859 20.461 131.004 20.4325 131.221 19.9337C132.022 18.0916 132.848 16.2604 133.661 14.4235C133.748 14.2271 133.792 13.9709 134.02 13.92C134.294 13.8588 134.631 13.8137 134.853 13.9855C135.141 14.2093 134.848 14.462 134.746 14.6779C133.091 18.2068 131.428 21.7319 129.769 25.2595C129.678 25.4547 129.626 25.6922 129.408 25.7721C129.09 25.889 128.69 25.959 128.443 25.7618C128.132 25.513 128.516 25.2599 128.632 25.0281C129.038 24.2153 129.457 23.4085 129.888 22.6081C130.052 22.3031 130.053 22.0581 129.855 21.7505C128.316 19.3558 126.795 16.9496 125.273 14.5443C125.151 14.3526 124.859 14.1836 124.996 13.9348C125.139 13.6747 125.435 13.9041 125.659 13.863C125.728 13.8502 125.802 13.8609 126.011 13.8609Z" fill="#333333"/>
<path fill-rule="evenodd" clip-rule="evenodd" d="M74.8804 45.6734C74.5415 46.5298 74.283 47.1822 74.0253 47.8351C73.9798 47.9503 73.9514 48.1104 74.0852 48.1394C74.5989 48.2506 75.1222 48.21 75.6403 48.1614C75.7862 48.1477 75.8023 47.9893 75.7581 47.876C75.4968 47.2036 75.2253 46.5353 74.8804 45.6734ZM81.395 45.7608C80.5021 47.4504 79.8202 49.1526 79.3074 50.9138C79.1371 51.4986 78.9164 51.717 78.2693 51.6606C77.112 51.56 77.1393 51.6005 76.7296 50.5147C75.8967 48.3077 76.5523 48.8224 74.1553 48.7348C73.7766 48.721 73.5826 48.8786 73.4734 49.2201C73.255 49.903 72.9973 50.5744 72.8052 51.2642C72.6889 51.6813 72.4194 51.7474 72.1009 51.6376C71.6991 51.4991 72.0105 51.2297 72.0801 51.0571C72.9547 48.8845 73.8449 46.7183 74.7371 44.5528C74.8152 44.3635 74.8323 44.0727 75.0874 44.0592C75.4089 44.042 75.3993 44.3763 75.4805 44.5799C76.3133 46.6675 77.1344 48.7598 77.9646 50.8484C78.0226 50.9945 78.0139 51.2292 78.2115 51.2476C78.4689 51.2716 78.4656 51.0044 78.53 50.844C79.3404 48.8261 80.1405 46.8042 80.9509 44.7863C81.0516 44.5355 81.0631 44.1803 81.451 44.1722C81.8493 44.1639 81.8626 44.5335 81.9581 44.7774C82.7687 46.8475 83.5643 48.9236 84.3585 50.9999C84.435 51.1997 84.6822 51.4779 84.3232 51.5952C84.0229 51.6931 83.635 51.7456 83.4643 51.3242C83.2671 50.8369 83.0857 50.3431 82.9032 49.8501C82.3989 48.4876 81.8976 47.124 81.395 45.7608Z" fill="#333333"/>
<path fill-rule="evenodd" clip-rule="evenodd" d="M97.4934 35.0905C97.4934 36.1433 97.4812 37.1962 97.4993 38.2486C97.5067 38.6832 97.3453 38.8306 96.9086 38.8263C94.9464 38.8071 92.9839 38.8075 91.0217 38.8209C90.5931 38.8238 90.422 38.6774 90.4243 38.2407C90.436 36.1353 90.4304 34.0299 90.4253 31.9245C90.4246 31.586 90.4452 31.304 90.8982 31.2934C91.3679 31.2822 91.3745 31.5821 91.3744 31.9128C91.3739 33.7789 91.3953 35.6455 91.3633 37.511C91.3544 38.0249 91.5084 38.1777 92.0075 38.1662C93.8567 38.1238 93.5056 38.3929 93.5256 36.6682C93.5433 35.1371 93.5226 33.6057 93.5312 32.0745C93.5331 31.7445 93.3891 31.3087 93.9806 31.2934C94.5752 31.278 94.4569 31.7096 94.4579 32.0463C94.4641 33.8407 94.4785 35.6355 94.4461 37.4293C94.4364 37.9777 94.5641 38.1849 95.156 38.173C96.5169 38.1455 96.5175 38.177 96.5175 36.804C96.5175 35.2009 96.5192 33.598 96.5163 31.995C96.5158 31.6445 96.4903 31.3568 97.0189 31.3463C97.5946 31.3348 97.4883 31.689 97.4906 32.0042C97.4981 33.0329 97.4934 34.0618 97.4934 35.0905Z" fill="#333333"/>
<path fill-rule="evenodd" clip-rule="evenodd" d="M121.169 20.381C121.169 22.0092 121.171 23.6374 121.167 25.2657C121.167 25.5721 121.211 25.9926 120.725 25.8695C120.324 25.7678 119.599 26.2595 119.609 25.2563C119.642 22.048 119.603 18.8389 119.635 15.6306C119.642 15.0123 119.449 14.824 118.866 14.8804C118.153 14.9492 117.434 14.9581 116.72 15.0265C116.336 15.0635 116.129 14.9948 116.144 14.5501C116.156 14.172 116.19 13.9052 116.679 13.9082C119.098 13.923 121.517 13.9233 123.936 13.9105C124.414 13.9081 124.484 14.1585 124.481 14.5462C124.477 15.0416 124.173 14.964 123.844 14.9452C123.151 14.9055 122.455 14.9185 121.763 14.8779C121.293 14.8505 121.147 15.0185 121.155 15.4964C121.185 17.124 121.166 18.7527 121.166 20.381H121.169Z" fill="#333333"/>
<path fill-rule="evenodd" clip-rule="evenodd" d="M138.755 20.3549C138.755 18.7986 138.71 17.2405 138.775 15.687C138.806 14.9685 138.536 14.8161 137.916 14.8767C137.226 14.944 136.532 14.9629 135.841 15.0227C135.507 15.0516 135.27 15.0232 135.289 14.5972C135.305 14.2481 135.277 13.9133 135.787 13.9145C138.253 13.9204 140.72 13.9191 143.187 13.9102C143.708 13.9083 143.572 14.2759 143.593 14.5628C143.619 14.9152 143.466 14.9966 143.115 14.9665C142.401 14.9052 141.679 14.9395 140.966 14.8734C140.364 14.8178 140.253 15.0727 140.257 15.615C140.279 18.7512 140.268 21.8875 140.268 25.024C140.268 25.7827 139.681 26.1649 138.98 25.8623C138.687 25.7357 138.758 25.4674 138.757 25.239C138.753 23.6109 138.755 21.983 138.755 20.3549Z" fill="#333333"/>
<path fill-rule="evenodd" clip-rule="evenodd" d="M98.4995 20.3531C98.4995 18.798 98.4568 17.2412 98.5186 15.6885C98.5469 14.9777 98.2843 14.8138 97.6594 14.8765C96.9705 14.9456 96.2755 14.9537 95.587 15.0264C95.1996 15.0675 94.9988 14.9997 95.0134 14.5559C95.0257 14.1853 95.035 13.9101 95.5357 13.9133C97.9527 13.9285 100.37 13.9229 102.787 13.9121C103.222 13.9103 103.3 14.1391 103.295 14.5037C103.289 14.8847 103.131 14.9829 102.757 14.9543C102.043 14.8995 101.323 14.9245 100.608 14.8751C100.092 14.8394 99.9626 15.0448 99.9657 15.5376C99.9854 18.6955 99.9766 21.8536 99.9766 25.0116C99.9766 25.7864 99.4068 26.1703 98.7152 25.8603C98.425 25.7301 98.5005 25.4607 98.4997 25.2336C98.4946 23.6068 98.497 21.9799 98.497 20.3531H98.4995Z" fill="#333333"/>
<path fill-rule="evenodd" clip-rule="evenodd" d="M97.177 47.8574C97.177 48.5007 97.2125 49.1466 97.1669 49.7868C97.1212 50.4302 97.4085 50.5363 97.936 50.3752C98.9686 50.06 99.6697 48.9655 99.6213 47.7482C99.5717 46.5021 98.8049 45.5405 97.7044 45.2958C97.3128 45.2088 97.1712 45.3361 97.1739 45.7129C97.1788 46.4277 97.1754 47.1425 97.177 47.8574ZM96.2363 47.8955C96.2353 47.8955 96.2343 47.8955 96.2333 47.8955C96.2333 47.2015 96.2071 46.506 96.2416 45.8137C96.2686 45.2734 96.0648 45.1467 95.5627 45.2562C94.407 45.5086 93.7019 46.5541 93.7532 47.9921C93.7957 49.1828 94.688 50.2746 95.7199 50.4262C96.0949 50.4812 96.2515 50.3701 96.2413 49.9775C96.2232 49.2839 96.2363 48.5896 96.2363 47.8955ZM100.771 47.9077C100.767 49.476 99.6253 50.7368 98.0022 50.9574C97.6571 51.0043 97.3415 50.9667 97.1716 51.4416C97.0512 51.7786 96.4953 51.8028 96.3792 51.461C96.2015 50.9387 95.8419 51.014 95.4866 50.9598C94.1973 50.7635 93.0938 49.8036 92.8339 48.6508C92.5288 47.2969 92.9552 46.0804 93.9869 45.3416C94.3636 45.0718 94.7943 44.9387 95.2307 44.8119C95.6391 44.6931 96.1233 44.7958 96.3809 44.2612C96.4805 44.0547 96.9732 44.0643 97.0705 44.2909C97.275 44.7677 97.6696 44.6909 98.02 44.7682C99.8324 45.1688 100.775 46.2413 100.771 47.9077Z" fill="#333333"/>
<path fill-rule="evenodd" clip-rule="evenodd" d="M103.111 49.5454C103.971 48.4721 104.831 47.3992 105.69 46.3253C106.183 45.7089 106.674 45.091 107.165 44.473C107.302 44.3004 107.444 44.1239 107.697 44.1919C107.985 44.2693 107.926 44.5201 107.926 44.7268C107.929 46.8561 107.922 48.9855 107.933 51.1147C107.936 51.5016 107.822 51.6781 107.404 51.6814C106.933 51.6852 106.931 51.4072 106.932 51.0711C106.937 49.4017 106.934 47.7322 106.934 46.0678C106.633 46.0144 106.579 46.2458 106.471 46.3815C105.179 48.012 103.895 49.6491 102.604 51.2807C102.476 51.443 102.361 51.7023 102.115 51.6385C101.793 51.5548 101.916 51.2465 101.915 51.0258C101.908 48.9684 101.914 46.9108 101.906 44.8533C101.904 44.4724 101.868 44.1374 102.429 44.1508C103.009 44.1646 102.918 44.5469 102.919 44.8993C102.92 46.4258 102.919 47.9524 102.919 49.479C102.983 49.5012 103.047 49.5233 103.111 49.5454Z" fill="#333333"/>
<path fill-rule="evenodd" clip-rule="evenodd" d="M142.256 45.9941C141.975 46.3354 141.686 46.6716 141.413 47.0193C140.318 48.4098 139.231 49.8069 138.131 51.1933C137.98 51.3837 137.872 51.7335 137.549 51.6184C137.262 51.5162 137.395 51.2007 137.394 50.9781C137.387 48.9683 137.388 46.9583 137.39 44.9485C137.391 44.5775 137.279 44.1458 137.906 44.1544C138.566 44.1635 138.367 44.6376 138.37 44.9775C138.384 46.3413 138.374 47.7053 138.38 49.069C138.381 49.2202 138.295 49.4419 138.526 49.4871C138.678 49.517 138.75 49.339 138.837 49.2293C140.057 47.6938 141.275 46.1572 142.498 44.6247C142.672 44.4072 142.822 44.0906 143.171 44.1912C143.569 44.3058 143.402 44.6691 143.404 44.9282C143.415 46.9621 143.406 48.9959 143.414 51.0296C143.416 51.3971 143.415 51.6825 142.908 51.6825C142.382 51.6824 142.42 51.3632 142.421 51.0139C142.425 49.3657 142.423 47.7173 142.423 46.0691C142.367 46.0441 142.312 46.0191 142.256 45.9941Z" fill="#333333"/>
<path fill-rule="evenodd" clip-rule="evenodd" d="M86.6137 49.586C87.9057 47.974 89.1585 46.4102 90.4125 44.8472C90.562 44.6608 90.6899 44.4428 90.8759 44.3032C91.1995 44.0605 91.4913 44.0925 91.494 44.5735C91.5064 46.7985 91.4993 49.0235 91.5028 51.2485C91.5034 51.6117 91.2849 51.6664 90.9854 51.6774C90.6047 51.6912 90.4854 51.5164 90.4878 51.1582C90.4977 49.6749 90.4963 48.1915 90.4872 46.7081C90.4861 46.5073 90.6173 46.2061 90.3885 46.1227C90.1032 46.019 90.0288 46.3662 89.8927 46.5375C88.6434 48.1113 87.4038 49.6928 86.1587 51.2699C86.031 51.4317 85.9377 51.6935 85.6774 51.6279C85.3862 51.5545 85.492 51.2762 85.4914 51.0788C85.4848 48.9734 85.4908 46.8679 85.4811 44.7625C85.4795 44.4121 85.5015 44.1638 85.9577 44.1527C86.4615 44.1405 86.4719 44.4213 86.4689 44.7957C86.4574 46.2073 86.4651 47.6189 86.4667 49.0304C86.4669 49.1894 86.4135 49.3595 86.6137 49.586Z" fill="#333333"/>
<path fill-rule="evenodd" clip-rule="evenodd" d="M134.596 45.9432C133.837 46.9059 133.12 47.8158 132.403 48.726C131.721 49.5908 131.04 50.4563 130.357 51.3199C130.227 51.4839 130.109 51.7246 129.85 51.6099C129.633 51.5139 129.715 51.2748 129.715 51.0915C129.712 48.9605 129.719 46.8293 129.706 44.6983C129.704 44.3428 129.794 44.1645 130.179 44.1566C130.577 44.1484 130.731 44.2911 130.726 44.7029C130.705 46.1152 130.712 47.5282 130.717 48.9408C130.718 49.1124 130.61 49.366 130.871 49.4258C131.052 49.4673 131.134 49.2536 131.233 49.1294C132.431 47.6348 133.623 46.1367 134.819 44.6418C135.009 44.4049 135.178 44.057 135.554 44.2126C135.864 44.341 135.723 44.676 135.724 44.9223C135.731 46.9577 135.725 48.993 135.73 51.0284C135.731 51.3886 135.741 51.6848 135.227 51.6852C134.691 51.6857 134.746 51.3567 134.747 51.0145C134.751 49.5777 134.752 48.141 134.747 46.7042C134.746 46.4809 134.806 46.2376 134.596 45.9432Z" fill="#333333"/>
<path fill-rule="evenodd" clip-rule="evenodd" d="M121.989 47.8626C121.989 46.8341 121.996 45.8054 121.985 44.777C121.981 44.4123 121.982 44.1 122.479 44.0991C122.956 44.0982 123.005 44.3766 123.003 44.7596C122.992 46.5775 123.015 48.3957 122.986 50.2132C122.977 50.7568 123.102 50.9935 123.699 50.962C124.606 50.9142 125.518 50.9291 126.426 50.9571C126.897 50.9717 127.042 50.8078 127.036 50.3377C127.014 48.4962 127.026 46.6541 127.032 44.8122C127.033 44.4963 126.923 44.1132 127.468 44.0945C128.013 44.0758 128.007 44.4128 128.006 44.8007C127.998 46.5947 128.001 48.3888 128.002 50.1828C128.002 50.5057 127.928 50.818 128.358 51.0135C128.644 51.1431 128.582 51.5521 128.453 51.7867C128.279 52.1022 128.107 51.7189 127.924 51.6995C127.688 51.6743 127.451 51.6345 127.215 51.6334C125.731 51.6269 124.247 51.6078 122.765 51.6395C122.185 51.6519 121.949 51.4941 121.977 50.8759C122.024 49.8735 121.99 48.8673 121.989 47.8626Z" fill="#333333"/>
<path fill-rule="evenodd" clip-rule="evenodd" d="M112.964 36.7351C113.423 36.1672 113.884 35.6003 114.341 35.031C115.225 33.93 116.108 32.8282 116.99 31.7254C117.141 31.5364 117.287 31.3125 117.568 31.3911C117.886 31.48 117.8 31.7665 117.8 31.9956C117.802 34.0544 117.799 36.1133 117.804 38.1721C117.804 38.5311 117.812 38.839 117.297 38.8301C116.767 38.8209 116.823 38.4782 116.824 38.1406C116.824 36.6802 116.828 35.2199 116.82 33.7595C116.819 33.5893 116.934 33.3336 116.669 33.2757C116.486 33.2355 116.414 33.456 116.315 33.5813C115.068 35.1576 113.827 36.7385 112.575 38.3105C112.42 38.505 112.299 38.8512 111.996 38.7677C111.659 38.6748 111.808 38.3194 111.806 38.0798C111.796 36.0687 111.799 34.0577 111.802 32.0466C111.802 31.7208 111.714 31.3612 112.263 31.3575C112.833 31.3536 112.778 31.715 112.778 32.0817C112.775 33.6096 112.777 35.1375 112.777 36.6654C112.839 36.6887 112.902 36.7119 112.964 36.7351Z" fill="#333333"/>
<path fill-rule="evenodd" clip-rule="evenodd" d="M126.797 6.74047C128.003 5.23095 129.195 3.7105 130.424 2.22009C130.719 1.86294 130.904 1.14145 131.508 1.3704C132.053 1.57707 131.737 2.22598 131.746 2.66664C131.78 4.46102 131.757 6.25656 131.761 8.05166C131.762 8.4285 131.789 8.77818 131.236 8.77703C130.69 8.77574 130.775 8.40537 130.774 8.08141C130.77 6.43492 130.772 4.78842 130.772 3.15659C130.441 3.06863 130.402 3.31699 130.296 3.44892C128.981 5.09269 127.675 6.74421 126.358 8.38611C126.234 8.54061 126.125 8.82087 125.865 8.71796C125.62 8.62066 125.702 8.34572 125.702 8.14048C125.699 6.08208 125.703 4.02367 125.702 1.96527C125.701 1.61387 125.678 1.28531 126.201 1.30558C126.692 1.32455 126.629 1.65339 126.629 1.96067C126.63 3.53171 126.63 5.10275 126.63 6.67379C126.685 6.69606 126.742 6.7182 126.797 6.74047Z" fill="#333333"/>
<path fill-rule="evenodd" clip-rule="evenodd" d="M110.131 35.121C110.131 36.1259 110.13 37.1308 110.131 38.1358C110.132 38.4789 110.17 38.8289 109.649 38.8223C109.112 38.8154 109.2 38.4334 109.198 38.1107C109.192 37.3211 109.185 36.5312 109.204 35.742C109.214 35.3309 109.098 35.1214 108.639 35.1317C107.658 35.1539 106.677 35.1496 105.696 35.1327C105.27 35.1253 105.092 35.2749 105.106 35.718C105.131 36.5547 105.114 37.3928 105.118 38.2301C105.12 38.5407 105.091 38.8079 104.68 38.8237C104.24 38.8407 104.171 38.5815 104.172 38.2255C104.177 36.144 104.178 34.0624 104.172 31.9808C104.171 31.6308 104.216 31.3547 104.659 31.3614C105.115 31.3685 105.121 31.6749 105.118 32.0076C105.111 32.6058 105.135 33.2047 105.111 33.8019C105.092 34.2615 105.26 34.4433 105.733 34.4305C106.689 34.4046 107.648 34.4057 108.604 34.4308C109.013 34.4416 109.162 34.2987 109.151 33.8979C109.133 33.2284 109.154 32.5579 109.143 31.8882C109.138 31.5401 109.24 31.3553 109.634 31.3623C110.014 31.3691 110.137 31.5378 110.134 31.8908C110.125 32.9674 110.131 34.0442 110.131 35.121Z" fill="#333333"/>
<path fill-rule="evenodd" clip-rule="evenodd" d="M91.4992 5.03593C91.4992 5.96826 91.5133 6.90074 91.4925 7.83264C91.4838 8.21696 91.7006 8.78093 90.9745 8.76929C90.2998 8.75851 90.5072 8.2319 90.4973 7.8657C90.4782 7.14909 90.472 6.43076 90.5 5.71473C90.5177 5.25942 90.377 5.06396 89.8935 5.07732C88.9379 5.10377 87.9804 5.10233 87.0248 5.07517C86.5754 5.06237 86.4439 5.23556 86.4558 5.66213C86.4798 6.52203 86.4572 7.38322 86.4675 8.24355C86.4716 8.58719 86.3783 8.78438 85.9834 8.77503C85.6107 8.76641 85.4809 8.60214 85.4819 8.24498C85.4881 6.09359 85.4871 3.94219 85.4795 1.7908C85.4781 1.4039 85.6728 1.30329 86.0193 1.30717C86.367 1.31105 86.4751 1.47734 86.4693 1.79885C86.4575 2.46803 86.4765 3.13792 86.458 3.80666C86.446 4.2364 86.6036 4.38673 87.0481 4.3702C88.0033 4.33485 88.9608 4.34232 89.9168 4.36144C90.3533 4.3702 90.5164 4.20449 90.4987 3.77217C90.4743 3.17543 90.4986 2.57697 90.4871 1.97965C90.4801 1.61618 90.49 1.3191 90.989 1.30703C91.4919 1.29467 91.5078 1.57924 91.5035 1.95235C91.4914 2.98011 91.4992 4.00802 91.4992 5.03593Z" fill="#333333"/>
<path fill-rule="evenodd" clip-rule="evenodd" d="M104.781 3.2469C104.781 2.93789 104.783 2.62889 104.78 2.32002C104.779 2.15575 104.816 1.9153 104.645 1.8729C104.111 1.74053 103.55 1.71998 103.033 1.91702C102.639 2.0675 102.418 2.42063 102.366 2.8587C102.271 3.67591 102.767 4.40746 103.578 4.63799C104.495 4.89914 104.784 4.68513 104.781 3.74605C104.781 3.57962 104.781 3.41333 104.781 3.2469ZM105.786 5.0729C105.786 6.1021 105.78 7.13131 105.789 8.16051C105.792 8.5178 105.723 8.76458 105.287 8.76889C104.853 8.77306 104.768 8.53721 104.773 8.17402C104.784 7.3604 104.782 6.5465 104.777 5.73273C104.776 5.55509 104.856 5.31594 104.597 5.25169C104.405 5.20412 104.303 5.38406 104.209 5.51427C103.578 6.38639 102.954 7.2631 102.328 8.13895C102.216 8.2946 102.137 8.48719 101.994 8.6026C101.666 8.86777 101.198 8.89723 100.93 8.67691C100.63 8.42941 101.064 8.19788 101.214 7.98962C101.799 7.17313 102.396 6.36454 103.008 5.56788C103.251 5.25198 103.215 5.11084 102.836 4.95131C102.158 4.66674 101.559 4.25785 101.398 3.46823C101.132 2.1671 101.958 1.26179 103.42 1.25403C104.017 1.25072 104.615 1.3154 105.212 1.30749C105.657 1.3016 105.798 1.49232 105.791 1.91358C105.775 2.96649 105.786 4.0197 105.786 5.0729Z" fill="#333333"/>
<path fill-rule="evenodd" clip-rule="evenodd" d="M74.4141 34.9218C74.3749 34.5658 74.3605 34.2049 74.292 33.8545C74.0725 32.7312 73.181 31.8663 72.1325 31.732C70.9906 31.5857 69.9499 32.1462 69.4626 33.2539C68.9308 34.4626 68.8401 35.714 69.3943 36.9455C69.8112 37.8722 70.5506 38.3726 71.5803 38.4439C72.6762 38.5197 73.4063 37.9938 73.8927 37.0692C74.244 36.4015 74.4069 35.6823 74.4141 34.9218ZM71.692 38.94C69.492 38.9452 68.0052 37.3901 67.9884 35.0664C67.9722 32.8298 69.5492 31.1856 71.7164 31.1797C74.0275 31.1734 75.5628 32.7082 75.5426 35.0048C75.5224 37.324 73.9463 38.9347 71.692 38.94Z" fill="#333333"/>
<path fill-rule="evenodd" clip-rule="evenodd" d="M67.8304 45.9742H67.8275C67.8275 46.2845 67.834 46.5949 67.8255 46.9049C67.8175 47.2042 67.9475 47.3414 68.2511 47.3368C68.6789 47.3302 69.1064 47.3738 69.5029 47.134C70.0559 46.7996 70.322 46.0774 70.095 45.4532C69.8793 44.8597 69.0533 44.5141 68.1887 44.7058C67.4717 44.8648 67.9778 45.4627 67.8325 45.8319C67.8163 45.8731 67.8304 45.9265 67.8304 45.9742ZM67.8297 49.481C67.8297 49.8639 67.8281 50.2468 67.8304 50.6295C67.8315 50.7984 67.8429 50.9572 68.0304 51.0489C68.5379 51.2971 69.6541 51.0018 70.0055 50.5174C70.4656 49.8834 70.4336 48.8688 69.9384 48.3847C69.6051 48.0589 68.365 47.7729 68.035 47.9952C67.6101 48.2814 67.9077 48.7456 67.834 49.1229C67.8114 49.238 67.8304 49.3614 67.8297 49.481ZM66.823 47.7964C66.8233 46.7678 66.8374 45.7389 66.8163 44.7107C66.8079 44.3083 66.9446 44.1469 67.3508 44.1585C68.0442 44.1782 68.7412 44.1301 69.4316 44.1792C70.1118 44.2276 70.8004 44.3748 71.0478 45.1416C71.2977 45.9161 71.0903 46.6007 70.4995 47.1678C70.323 47.3371 69.8766 47.4866 70.4273 47.753C71.2264 48.1397 71.5111 48.8117 71.3993 49.6469C71.2825 50.5214 70.7948 51.1392 69.9516 51.4472C69.0441 51.7786 68.1026 51.593 67.1759 51.6077C66.8005 51.6136 66.8225 51.2935 66.8225 51.0259C66.8227 49.9494 66.8226 48.8729 66.823 47.7964Z" fill="#333333"/>
<path fill-rule="evenodd" clip-rule="evenodd" d="M134.555 6.74581C135.315 5.79767 136.03 4.90716 136.742 4.01463C137.369 3.23005 137.993 2.44331 138.617 1.65657C138.77 1.46326 138.947 1.25845 139.209 1.33362C139.515 1.42158 139.427 1.7221 139.427 1.94804C139.433 4.00515 139.431 6.0624 139.43 8.11951C139.43 8.42909 139.48 8.76325 138.996 8.77547C138.489 8.78812 138.492 8.46431 138.494 8.10615C138.499 6.69493 138.503 5.28357 138.492 3.87249C138.49 3.62687 138.589 3.35308 138.33 3.05887C137.477 4.13881 136.641 5.1946 135.808 6.25341C135.232 6.98654 134.662 7.72514 134.086 8.45856C133.97 8.60616 133.852 8.80608 133.626 8.71194C133.448 8.63778 133.462 8.43743 133.462 8.26999C133.462 6.11716 133.465 3.96433 133.463 1.81164C133.462 1.50077 133.554 1.31609 133.907 1.30703C134.287 1.29726 134.409 1.47102 134.407 1.82803C134.398 3.19139 134.399 4.55489 134.407 5.91825C134.408 6.14677 134.335 6.38937 134.555 6.74581Z" fill="#333333"/>
<path fill-rule="evenodd" clip-rule="evenodd" d="M99.0844 4.75225C99.1321 4.39223 99.0788 4.01165 98.9845 3.63969C98.7107 2.5586 97.8872 1.79098 96.8694 1.65027C95.8087 1.50382 94.8174 1.91688 94.3498 2.79273C93.7191 3.9737 93.4943 5.23085 93.9104 6.54031C94.2358 7.56506 94.9347 8.21368 96.0076 8.36546C97.146 8.52657 98.0066 8.07858 98.5805 7.06534C98.986 6.34931 99.0698 5.57478 99.0844 4.75225ZM96.3537 8.87984C94.1251 8.87697 92.6781 7.3397 92.7 4.99845C92.7215 2.70448 94.2894 1.10657 96.5065 1.11922C98.7168 1.13186 100.189 2.60905 100.197 4.8221C100.205 7.26626 98.6742 8.88286 96.3537 8.87984Z" fill="#333333"/>
<path fill-rule="evenodd" clip-rule="evenodd" d="M122.873 33.3151H122.876C122.876 33.0053 122.878 32.6954 122.875 32.3857C122.873 32.221 122.897 32.043 122.747 31.9227C122.134 31.4326 120.615 32.0231 120.448 32.8145C120.276 33.6276 120.719 34.3212 121.595 34.6109C122.653 34.9608 122.878 34.8083 122.873 33.7441C122.872 33.6011 122.873 33.4581 122.873 33.3151ZM123.813 35.1168C123.813 36.1445 123.812 37.1721 123.814 38.1997C123.815 38.5287 123.811 38.8334 123.346 38.8308C122.894 38.8284 122.867 38.5438 122.87 38.2039C122.877 37.4153 122.877 36.6267 122.87 35.8381C122.869 35.6598 122.958 35.4261 122.724 35.3344C122.486 35.2409 122.39 35.4652 122.284 35.6111C121.666 36.4609 121.055 37.3158 120.443 38.1703C120.346 38.3062 120.273 38.4616 120.164 38.5863C119.844 38.9522 119.326 38.9454 119.052 38.7558C118.666 38.4877 119.176 38.2526 119.325 38.0363C119.879 37.2292 120.444 36.4277 121.049 35.6585C121.352 35.2729 121.271 35.1304 120.854 34.952C120.123 34.6393 119.543 34.173 119.467 33.2881C119.375 32.2213 119.825 31.5488 120.883 31.423C121.709 31.3251 122.553 31.3793 123.389 31.3698C123.807 31.3651 123.816 31.6557 123.815 31.9623C123.811 33.0137 123.814 34.0652 123.813 35.1168Z" fill="#333333"/>
<path fill-rule="evenodd" clip-rule="evenodd" d="M77.6914 33.2119C77.6937 34.6228 77.7885 34.7313 78.8442 34.5311C79.6313 34.3818 80.1359 33.6988 80.0367 32.9171C79.9426 32.1758 79.3157 31.7854 78.1994 31.8635C77.2209 31.9319 77.8763 32.7179 77.6926 33.1406C77.6838 33.1607 77.6914 33.188 77.6914 33.2119ZM77.6912 36.7167C77.689 36.7167 77.6867 36.7167 77.6845 36.7167C77.6845 37.0755 77.6858 37.4341 77.6841 37.7926C77.6831 38.0194 77.7044 38.2464 77.9802 38.2891C78.6393 38.3913 79.2865 38.3664 79.7783 37.8406C80.2592 37.3266 80.3887 36.711 80.1255 36.047C79.8546 35.3636 78.9328 34.9396 78.0532 35.1596C77.3531 35.3347 77.8148 35.9557 77.696 36.3594C77.6637 36.4695 77.6912 36.5972 77.6912 36.7167ZM76.7134 35.0773C76.7138 34.0498 76.7265 33.022 76.7079 31.995C76.6999 31.5552 76.8038 31.3285 77.3104 31.3628C78.0479 31.4123 78.7916 31.3686 79.5292 31.4179C80.185 31.4618 80.7504 31.7173 80.9558 32.4155C81.1694 33.1415 81.0217 33.8309 80.4439 34.3078C79.9577 34.7091 80.039 34.8153 80.5462 35.0871C81.2083 35.4421 81.357 36.1145 81.2683 36.8274C81.1579 37.7155 80.6698 38.3313 79.8342 38.6321C78.9338 38.9561 77.9898 38.8172 77.0616 38.8101C76.6663 38.807 76.715 38.4894 76.7143 38.2314C76.711 37.1801 76.7128 36.1288 76.7134 35.0773Z" fill="#333333"/>
<path fill-rule="evenodd" clip-rule="evenodd" d="M60.8213 35.0101C60.8214 34.0055 60.8377 33.0004 60.8141 31.9964C60.8035 31.5467 60.9248 31.3537 61.4164 31.3616C63.0191 31.3873 64.6225 31.3802 66.2254 31.3649C66.6376 31.361 66.8387 31.4648 66.8352 31.9242C66.8193 34.0291 66.8275 36.1342 66.8286 38.2392C66.8288 38.5427 66.8249 38.8149 66.3973 38.8263C65.9581 38.8379 65.8834 38.5972 65.8848 38.2361C65.8923 36.4183 65.8615 34.5996 65.9071 32.7828C65.9233 32.1308 65.7102 31.9619 65.0913 31.9995C64.2331 32.0517 63.3675 32.0473 62.5087 32.0003C61.9124 31.9676 61.7832 32.2114 61.7913 32.7519C61.8184 34.5456 61.8015 36.3398 61.8075 38.1338C61.8088 38.4882 61.8207 38.812 61.3219 38.8297C60.8115 38.8477 60.8165 38.5266 60.8188 38.1676C60.8253 37.1151 60.8211 36.0626 60.8213 35.0101Z" fill="#333333"/>
<path fill-rule="evenodd" clip-rule="evenodd" d="M60.8598 47.8719C60.8598 46.8197 60.8696 45.7674 60.8542 44.7155C60.8493 44.3734 60.9211 44.1614 61.3134 44.157C61.6906 44.1527 61.8926 44.2697 61.8783 44.6946C61.853 45.4351 61.864 46.177 61.8656 46.9182C61.8659 47.0526 61.8063 47.2258 61.9536 47.307C62.1549 47.4179 62.255 47.2232 62.3579 47.1093C63.1107 46.2757 63.8545 45.4342 64.6057 44.5992C64.7325 44.4582 64.8602 44.2878 65.0244 44.2183C65.2319 44.1307 65.5245 44.038 65.6776 44.2781C65.81 44.486 65.5498 44.5992 65.4262 44.7307C64.6892 45.5143 63.9607 46.3064 63.2068 47.0736C62.9009 47.385 62.8574 47.6204 63.1545 47.982C63.928 48.9233 64.6748 49.8877 65.395 50.8703C65.5474 51.0783 66.0563 51.3352 65.699 51.5902C65.4084 51.7975 64.8759 51.8327 64.5473 51.3881C64.0217 50.6771 63.4956 49.9654 62.9386 49.2791C62.6453 48.9178 62.3145 48.1703 62.0453 48.293C61.6055 48.4935 61.9138 49.1797 61.8755 49.6565C61.8376 50.1317 61.8601 50.6126 61.8724 51.0905C61.8816 51.4496 61.8119 51.6851 61.3669 51.6809C60.939 51.6769 60.8514 51.4788 60.8577 51.1001C60.8755 50.0243 60.8639 48.948 60.8639 47.8719H60.8598Z" fill="#333333"/>
<path fill-rule="evenodd" clip-rule="evenodd" d="M120.667 5.27359C120.667 6.1927 120.671 7.11196 120.665 8.03107C120.662 8.37572 120.768 8.78763 120.175 8.7711C119.602 8.75515 119.691 8.35703 119.691 8.00692C119.688 5.99566 119.69 3.9844 119.688 1.97313C119.687 1.62432 119.658 1.29174 120.182 1.30554C120.667 1.31819 120.625 1.63495 120.625 1.95014C120.625 2.64446 120.621 3.33879 120.626 4.03312C120.627 4.18891 120.544 4.40263 120.756 4.47047C120.95 4.53256 121.037 4.33278 121.145 4.21536C121.892 3.40577 122.634 2.59272 123.381 1.78371C123.511 1.64386 123.635 1.48289 123.796 1.39378C124.002 1.2801 124.295 1.1861 124.457 1.38703C124.649 1.62374 124.347 1.74634 124.21 1.89236C123.474 2.67838 122.748 3.47432 121.994 4.24295C121.694 4.54808 121.704 4.7618 121.975 5.08848C122.77 6.04568 123.542 7.02328 124.287 8.01957C124.438 8.22107 124.936 8.49544 124.537 8.75084C124.232 8.94601 123.726 8.98482 123.393 8.5262C122.734 7.61557 122.039 6.73095 121.356 5.83685C121.199 5.63017 121.034 5.42853 120.873 5.22458C120.804 5.24097 120.735 5.25721 120.667 5.27359Z" fill="#333333"/>
<path fill-rule="evenodd" clip-rule="evenodd" d="M60.821 5.01749C60.8207 3.96558 60.8253 2.91381 60.8179 1.8619C60.8156 1.53594 60.8664 1.30354 61.2769 1.30526C61.6829 1.30713 61.8224 1.48305 61.8109 1.87613C61.7899 2.59273 61.799 3.3102 61.8016 4.02738C61.8022 4.16219 61.7424 4.33466 61.8997 4.41457C62.1113 4.52193 62.1892 4.3144 62.2917 4.201C62.9647 3.4568 63.6319 2.70728 64.3021 1.9605C64.4297 1.81835 64.5635 1.68182 64.6923 1.54054C64.9316 1.27781 65.3018 1.17117 65.5141 1.38718C65.7728 1.65034 65.3668 1.82267 65.2096 1.99427C64.5316 2.73401 63.8518 3.47361 63.1391 4.17944C62.7864 4.52869 62.8124 4.7792 63.1194 5.14282C63.9053 6.07371 64.6614 7.03033 65.409 7.99242C65.5789 8.21102 65.9684 8.39671 65.7387 8.75846C65.585 9.00064 64.7775 8.79957 64.5355 8.48424C63.9536 7.72639 63.3887 6.95488 62.7901 6.21054C62.5198 5.87437 62.3142 5.22632 61.9068 5.33555C61.6127 5.41445 61.8325 6.10605 61.8108 6.52256C61.781 7.09472 61.7978 7.66962 61.8075 8.24322C61.8134 8.59232 61.6903 8.76996 61.3098 8.7747C60.9193 8.77959 60.8159 8.59045 60.8184 8.2448C60.8261 7.16903 60.8212 6.09326 60.821 5.01749Z" fill="#333333"/>
<path fill-rule="evenodd" clip-rule="evenodd" d="M67.8302 3.31235H67.8263C67.8263 3.64694 67.8308 3.98153 67.8249 4.31583C67.8207 4.55182 67.8548 4.75318 68.1467 4.77388C68.7274 4.81513 69.2908 4.81699 69.7522 4.35938C70.27 3.84542 70.4172 2.99875 70.0665 2.37959C69.7927 1.89611 68.7638 1.54398 68.1284 1.82971C67.5256 2.10077 67.9499 2.72165 67.8318 3.16935C67.82 3.21405 67.8302 3.26464 67.8302 3.31235ZM66.8238 4.99809C66.8235 4.06647 66.8746 3.13126 66.8074 2.20454C66.7531 1.45358 67.0282 1.238 67.7391 1.29074C68.4032 1.34004 69.0757 1.25884 69.7384 1.39135C70.4298 1.52961 71.0259 1.78472 71.2012 2.56341C71.4225 3.54749 71.1551 4.38654 70.4432 4.86471C69.8518 5.26196 69.1932 5.46202 68.4766 5.3939C67.9751 5.34618 67.7944 5.5405 67.8218 6.0454C67.8582 6.71213 67.825 7.3826 67.8332 8.05134C67.8378 8.43192 67.8509 8.7783 67.3027 8.7691C66.787 8.76047 66.8194 8.42387 66.8215 8.07937C66.8248 7.55392 66.8237 7.02832 66.824 6.50287C66.8243 6.00127 66.824 5.49968 66.8238 4.99809Z" fill="#333333"/>
<path fill-rule="evenodd" clip-rule="evenodd" d="M83.5521 36.7011C83.5521 36.8438 83.5525 36.9865 83.5519 37.1291C83.5486 38.2188 84.1116 38.5515 85.0876 38.0363C85.8034 37.6584 86.1548 36.7898 85.9014 36.0246C85.6628 35.3038 84.9922 34.9732 83.9289 35.2414C83.1528 35.4372 83.7143 36.1699 83.5532 36.6301C83.5457 36.6512 83.5522 36.6774 83.5521 36.7011ZM82.4898 35.0105C82.4898 34.031 82.4924 33.0517 82.4884 32.0722C82.4869 31.7033 82.4378 31.3429 83.0088 31.3621C83.5752 31.381 83.5031 31.7527 83.5018 32.1111C83.4992 32.8039 83.5118 33.4969 83.4929 34.1892C83.4822 34.5819 83.6121 34.7499 84.0294 34.7342C84.4804 34.7174 84.9351 34.7577 85.3863 34.7965C86.1417 34.8614 86.7171 35.1795 86.9023 35.9774C87.1426 37.013 86.8655 37.8351 86.1379 38.3377C85.0995 39.0551 83.9288 38.7976 82.7978 38.7835C82.4392 38.779 82.4871 38.4212 82.4862 38.1636C82.4831 37.1126 82.4849 36.0615 82.4849 35.0105H82.4898Z" fill="#333333"/>
<path fill-rule="evenodd" clip-rule="evenodd" d="M99.165 35.0121C99.1642 34.0081 99.1834 33.0035 99.1562 32C99.1425 31.4925 99.2765 31.2568 99.8384 31.2855C100.649 31.3272 101.464 31.3005 102.277 31.2896C102.579 31.2854 102.807 31.3348 102.791 31.7055C102.774 32.0941 102.512 31.9866 102.274 31.9784C101.748 31.9603 101.221 31.9825 100.696 31.959C100.311 31.9419 100.155 32.0599 100.137 32.4789C100.052 34.4483 100.04 34.446 101.997 34.497C102.268 34.5041 102.639 34.412 102.616 34.868C102.594 35.301 102.237 35.2078 101.961 35.2113C100.158 35.2345 100.158 35.2339 100.15 37.0451C100.15 37.2364 100.163 37.429 100.145 37.6187C100.108 38.0163 100.263 38.1833 100.675 38.1631C101.248 38.1354 101.823 38.1564 102.396 38.14C102.64 38.133 102.842 38.161 102.84 38.4573C102.838 38.725 102.668 38.8248 102.413 38.8237C101.48 38.8192 100.548 38.8198 99.6152 38.8192C99.1509 38.8189 99.1638 38.4882 99.1635 38.1679C99.1632 37.642 99.1651 37.116 99.1655 36.5901C99.166 36.0641 99.1657 35.5382 99.165 35.0121Z" fill="#333333"/>
<path fill-rule="evenodd" clip-rule="evenodd" d="M74.7266 2.79924C74.3836 3.62665 74.1202 4.25946 73.8598 4.89343C73.8007 5.03715 73.787 5.22442 73.9726 5.23305C74.4717 5.25633 74.9746 5.25202 75.4728 5.21479C75.6494 5.20157 75.632 5.00683 75.574 4.86425C75.3236 4.24969 75.0705 3.63628 74.7266 2.79924ZM77.4363 8.82613C77.0033 8.89842 76.8522 8.62492 76.7375 8.27509C76.5363 7.66154 76.2993 7.05948 76.107 6.44334C75.9866 6.0573 75.7519 5.9393 75.3631 5.92824C73.4479 5.87391 73.4487 5.86543 72.8452 7.66959C72.7469 7.96379 72.6628 8.26589 72.5309 8.54472C72.4083 8.80371 72.1407 8.84323 71.9106 8.74133C71.6515 8.62664 71.8175 8.40732 71.8829 8.24664C72.7754 6.05428 73.6731 3.86394 74.5748 1.67532C74.6533 1.48474 74.701 1.21239 74.968 1.22503C75.2019 1.2361 75.2019 1.49926 75.269 1.66871C76.1332 3.84755 76.985 6.03128 77.8605 8.20553C78.0515 8.67982 77.979 8.89238 77.4363 8.82613Z" fill="#333333"/>
<path fill-rule="evenodd" clip-rule="evenodd" d="M108.365 3.25645H108.367C108.367 3.61302 108.37 3.9696 108.366 4.32618C108.363 4.56418 108.424 4.71897 108.698 4.78106C109.814 5.03301 110.804 4.27688 110.801 3.15483C110.799 2.21618 110.32 1.81289 109.203 1.80743C108.369 1.80355 108.369 1.80355 108.365 2.97116C108.364 3.0663 108.365 3.1613 108.365 3.25645ZM107.422 5.04925C107.421 4.0212 107.438 2.99271 107.413 1.96524C107.403 1.53665 107.538 1.35111 107.98 1.3639C108.72 1.38531 109.465 1.33487 110.202 1.39106C111.144 1.46292 111.691 1.91666 111.837 2.63226C112.043 3.64191 111.682 4.53386 110.871 4.98156C110.294 5.30062 109.672 5.45398 109.01 5.40094C108.577 5.36616 108.411 5.55228 108.425 5.98503C108.448 6.70149 108.429 7.41939 108.436 8.13643C108.439 8.47748 108.402 8.76177 107.959 8.77398C107.495 8.78678 107.411 8.53023 107.417 8.13327C107.433 7.1055 107.422 6.0773 107.422 5.04925Z" fill="#333333"/>
<path fill-rule="evenodd" clip-rule="evenodd" d="M116.129 8.87409C113.763 8.9356 112.442 7.13978 112.582 4.74348C112.776 1.45049 115.847 0.686892 118.002 1.41126C118.432 1.55599 118.558 1.81584 118.393 2.23724C118.297 2.48243 118.148 2.53129 117.959 2.36342C117.097 1.59652 116.132 1.41744 115.114 1.96732C114.106 2.51175 113.813 3.51422 113.679 4.56038C113.605 5.13053 113.662 5.70528 113.808 6.26839C114.31 8.19687 115.968 8.88602 117.699 7.89921C117.878 7.79731 118.112 7.39043 118.324 7.77001C118.496 8.0793 118.261 8.36301 117.944 8.51119C117.349 8.78987 116.725 8.92569 116.129 8.87409Z" fill="#333333"/>
<path fill-rule="evenodd" clip-rule="evenodd" d="M81.9906 8.87507C80.1403 8.86458 79.0173 8.02236 78.5805 6.24566C78.2146 4.75769 78.3238 3.28654 79.4839 2.16549C80.7004 0.989982 82.2025 0.881327 83.7738 1.38235C84.1248 1.49431 84.4078 1.62596 84.2497 2.08602C84.1262 2.44461 84.0144 2.53688 83.6544 2.25963C82.1082 1.06874 80.3612 1.61834 79.7304 3.47424C79.3895 4.47757 79.3626 5.49226 79.7077 6.50436C80.3137 8.2815 81.9198 8.86401 83.5599 7.92564C83.741 7.82201 83.9665 7.4022 84.1873 7.75949C84.3754 8.06404 84.1163 8.33898 83.8084 8.49651C83.218 8.79861 82.5888 8.9077 81.9906 8.87507Z" fill="#333333"/>
<path fill-rule="evenodd" clip-rule="evenodd" d="M88.7255 35.1119C88.7255 36.139 88.7203 37.166 88.7283 38.1931C88.7311 38.5729 88.6706 38.8503 88.1879 38.8331C87.7173 38.8161 87.7367 38.5031 87.737 38.1847C87.7381 36.1067 87.7436 34.0287 87.739 31.9507C87.7383 31.6021 87.7689 31.3497 88.2282 31.3576C88.6732 31.3652 88.7308 31.6057 88.7283 31.9591C88.7206 33.01 88.7255 34.061 88.7255 35.1119Z" fill="#333333"/>
<mask id="mask1_46_2091" style="mask-type:alpha" maskUnits="userSpaceOnUse" x="134" y="0" width="5" height="2">
<path fill-rule="evenodd" clip-rule="evenodd" d="M134.402 0H138.427V1.13401H134.402V0Z" fill="white"/>
</mask>
<g mask="url(#mask1_46_2091)">
<path fill-rule="evenodd" clip-rule="evenodd" d="M136.402 1.13403C135.85 1.11793 135.298 0.98858 134.767 0.74655C134.531 0.638613 134.312 0.539157 134.44 0.227134C134.577 -0.109323 134.789 0.022328 135.021 0.13745C135.961 0.603401 136.908 0.584286 137.848 0.13127C138.043 0.0369878 138.243 -0.129731 138.382 0.1741C138.511 0.458097 138.344 0.617055 138.093 0.726141C137.562 0.95696 137.017 1.12282 136.402 1.13403Z" fill="#333333"/>
</g>
</svg>
