<svg width="297" height="60" fill="none" xmlns="http://www.w3.org/2000/svg"><path fill-rule="evenodd" clip-rule="evenodd" d="M39.414 57.206h-7.027V51.7h-9.37v5.506h-7.025v-7.848h23.422v7.848zM23.878 18.909h7.648l4.015 28.107H19.863l4.015-28.107zm-2.031-2.342h11.71v-2.342h-11.71v2.342zm2.342-4.685h7.027V7.198h-7.027v4.684zm3.514-8.713 2.108 1.687h-4.216l2.108-1.687zm22.186 46.31v-2.463H37.908l-4.015-28.107H35.9v-7.026h-2.342V4.856L27.703.172l-5.856 4.684v7.027h-2.342v7.026h2.008l-4.015 28.107H6.663v2.463h6.986v2.57H6.663v2.465h6.987v2.57H6.663v2.464H25.36v-5.505h4.684v5.505h19.844v-2.463h-8.133v-2.571h8.133V52.05h-8.133v-2.571h8.133z" fill="#2C498D"/><path fill-rule="evenodd" clip-rule="evenodd" d="m38.414 10.538 16.603 7.092v-2.878L38.414 7.66v2.878zM38.414 19.216l16.603 16.603v-3.497L38.414 15.719v3.497zM16.603 10.39 0 17.482v-2.878l16.603-7.092v2.878zM16.603 19.067 0 35.67v-3.497L16.603 15.57v3.497z" fill="#FFDC65"/><path fill-rule="evenodd" clip-rule="evenodd" d="M32.888 30.419h-10.4l.8-5.567 8.824.004.776 5.563zM34.379 41.67l-13.361.026.796-5.567H33.65l.729 5.542z" fill="#C2CBDD"/><path fill-rule="evenodd" clip-rule="evenodd" d="M216.24 22.398c.602.564 1.564.846 2.886.846s2.283-.282 2.885-.846c.601-.565.902-1.396.902-2.496h-2.562c0 .58-.1.984-.301 1.215-.2.23-.508.345-.924.345-.387 0-.68-.115-.88-.345-.201-.23-.301-.635-.301-1.215h-2.607c0 1.1.301 1.931.902 2.496zm.368 2.072h-2.941v11.808h2.718l5.258-7.575v7.575h2.941V24.47h-2.718l-5.258 7.575V24.47zM73.753 20.682h-6.015v15.596h3.342V30.93h2.674c2.109 0 3.675-.465 4.7-1.393 1.025-.928 1.538-2.172 1.538-3.732s-.513-2.803-1.538-3.731c-1.024-.929-2.591-1.393-4.7-1.393zm2.173 6.884c-.483.401-1.319.602-2.507.602H71.08v-4.723h2.34c1.188 0 2.023.204 2.506.612.482.409.724.992.724 1.75 0 .772-.242 1.358-.724 1.76zm8.8 8.611c.72.245 1.482.368 2.284.368 1.38 0 2.54-.312 3.475-.936.936-.624 1.523-1.552 1.76-2.785H89.55c-.163.431-.438.758-.824.98-.386.223-.958.335-1.715.335-.357 0-.71-.056-1.059-.167a2.534 2.534 0 0 1-.924-.524 2.58 2.58 0 0 1-.646-.925c-.164-.378-.253-.828-.268-1.347h8.355v-1.248c0-1.857-.483-3.275-1.448-4.255s-2.377-1.47-4.233-1.47c-.787 0-1.523.122-2.206.367a5.205 5.205 0 0 0-1.804 1.091c-.52.483-.929 1.088-1.226 1.816-.297.728-.445 1.582-.445 2.562v.446c0 1.025.156 1.92.468 2.685.311.765.735 1.396 1.27 1.893a5.172 5.172 0 0 0 1.882 1.114zm1.159-9.435c.334-.089.672-.134 1.013-.134.371 0 .72.037 1.047.112.327.074.613.208.858.4.245.194.438.454.58.78.14.327.218.736.233 1.226h-5.503c.015-.46.104-.854.268-1.18.163-.328.371-.588.623-.78.253-.194.546-.335.88-.424zm17.388-2.272h-8.466v11.808h2.941V26.92h5.525v-2.45zm1.783 0h2.941v7.575l5.258-7.575h2.718v11.808h-2.941v-7.575l-5.258 7.575h-2.718V24.47zm18.937 12.075a7.036 7.036 0 0 1-2.283-.368 5.093 5.093 0 0 1-1.883-1.125c-.535-.505-.958-1.136-1.27-1.894-.312-.757-.468-1.648-.468-2.673v-.446c0-.965.156-1.812.468-2.54a5.234 5.234 0 0 1 1.27-1.826 5.252 5.252 0 0 1 1.883-1.103 7.039 7.039 0 0 1 2.283-.368c.802 0 1.56.123 2.273.368a5.38 5.38 0 0 1 1.882 1.103c.542.49.969 1.099 1.281 1.827.312.727.468 1.574.468 2.54v.445c0 1.01-.156 1.894-.468 2.651-.312.758-.739 1.389-1.281 1.894a5.347 5.347 0 0 1-1.882 1.136 6.76 6.76 0 0 1-2.273.379zm0-2.495c.832 0 1.526-.297 2.083-.892.557-.594.836-1.485.836-2.673v-.446c0-1.084-.279-1.912-.836-2.484-.557-.572-1.251-.857-2.083-.857-.846 0-1.545.285-2.094.857-.55.572-.824 1.4-.824 2.484v.446c0 1.203.274 2.098.824 2.685.549.586 1.248.88 2.094.88zm8.021-9.58h2.941v4.567h5.035V24.47h2.941v11.808h-2.941v-4.79h-5.035v4.79h-2.941V24.47zm17.132 12.075c-.638 0-1.203-.093-1.693-.279a3.555 3.555 0 0 1-1.247-.78 3.337 3.337 0 0 1-.78-1.18 4.017 4.017 0 0 1-.268-1.482c0-2.376 1.412-3.564 4.234-3.564h3.52v-.557c0-.773-.175-1.315-.524-1.627-.349-.312-.902-.468-1.66-.468-.668 0-1.151.116-1.448.346-.297.23-.468.516-.512.857h-2.941c.03-.505.16-.98.39-1.425a3.36 3.36 0 0 1 .98-1.148c.423-.32.939-.572 1.548-.757.609-.186 1.307-.279 2.095-.279a8.05 8.05 0 0 1 2.061.245 4.068 4.068 0 0 1 1.581.791c.439.364.776.836 1.014 1.415.238.58.357 1.277.357 2.094v4.523c0 .624.011 1.17.033 1.637.022.468.063.925.122 1.37h-2.74a5.978 5.978 0 0 1-.1-.746c-.008-.17-.011-.427-.011-.768-.327.475-.821.89-1.482 1.247-.661.357-1.504.535-2.529.535zm.914-2.273c.356 0 .705-.048 1.047-.144.342-.097.646-.245.913-.446.268-.2.483-.457.647-.769.163-.311.245-.675.245-1.091v-.557h-2.963c-.565 0-1.007.13-1.326.39-.319.26-.479.612-.479 1.058 0 .475.163.854.49 1.136.327.282.802.424 1.426.424zm8.466 2.273c-.119 0-.267-.004-.446-.011a2.262 2.262 0 0 1-.445-.056v-2.651c.074.015.186.022.334.022.282 0 .527-.085.735-.256.208-.17.383-.464.524-.88.141-.416.245-.97.312-1.66s.1-1.548.1-2.573v-4.01h9.357v11.808h-2.941V26.92h-3.698v2.005c0 1.53-.078 2.79-.234 3.777-.156.988-.393 1.764-.713 2.328-.319.564-.72.958-1.203 1.18-.483.224-1.043.335-1.682.335zm13.145-12.075h2.941v3.965h2.517c3.045 0 4.567 1.307 4.567 3.921 0 .58-.085 1.11-.256 1.593a3.03 3.03 0 0 1-.813 1.237c-.371.342-.847.609-1.426.802-.579.193-1.27.29-2.072.29h-5.458V24.47zm5.124 9.446c.713 0 1.218-.13 1.515-.39.297-.26.446-.65.446-1.17 0-.52-.153-.91-.457-1.17-.305-.26-.806-.39-1.504-.39h-2.183v3.12h2.183zm6.795-9.446h2.941v4.567h5.035V24.47h2.941v11.808h-2.941v-4.79h-5.035v4.79h-2.941V24.47zm16.531 0h-2.94v11.808h5.012c.802 0 1.493-.097 2.072-.29.58-.193 1.055-.46 1.426-.802a3.01 3.01 0 0 0 .813-1.237 4.742 4.742 0 0 0 .257-1.593c0-2.614-1.523-3.92-4.568-3.92h-2.072V24.47zm3.253 9.056c-.297.26-.802.39-1.515.39h-1.738v-3.12h1.738c.698 0 1.2.13 1.504.39.305.26.457.65.457 1.17 0 .52-.149.91-.446 1.17zm4.679-9.056h2.941v11.808h-2.941V24.47zm24.774 11.808h9.558v2.785h2.585v-5.236h-1.671V24.47h-2.941v9.357h-4.59V24.47h-2.941v11.808zm17.1-.1c.72.244 1.481.367 2.283.367 1.382 0 2.54-.312 3.476-.936.936-.624 1.522-1.552 1.76-2.785h-2.696c-.163.431-.438.758-.824.98-.386.223-.958.335-1.716.335-.356 0-.709-.056-1.058-.167a2.542 2.542 0 0 1-.925-.524 2.593 2.593 0 0 1-.646-.925c-.163-.378-.252-.828-.267-1.347h8.355v-1.248c0-1.857-.483-3.275-1.448-4.255-.966-.98-2.377-1.47-4.233-1.47-.788 0-1.523.122-2.206.367a5.21 5.21 0 0 0-1.805 1.091c-.52.483-.928 1.088-1.225 1.816-.297.728-.446 1.582-.446 2.562v.446c0 1.025.156 1.92.468 2.685.312.765.735 1.396 1.27 1.893a5.171 5.171 0 0 0 1.883 1.114zm1.158-9.436c.334-.089.672-.134 1.014-.134.371 0 .72.037 1.047.112.327.074.613.208.858.4.245.194.438.454.579.78.141.327.219.736.234 1.226h-5.503c.015-.46.104-.854.267-1.18a2.21 2.21 0 0 1 .624-.78 2.49 2.49 0 0 1 .88-.424zm11.641-2.272h-2.941v11.808h2.941v-4.79h5.035v4.79h2.941V24.47h-2.941v4.567h-5.035V24.47zm13.524 2.45h-3.766v-2.45h10.472v2.45h-3.766v9.358h-2.94V26.92zm8.488-2.45h2.74v1.737c.297-.534.765-1.002 1.404-1.403.639-.401 1.448-.602 2.428-.602 1.575 0 2.804.487 3.688 1.46.883.972 1.325 2.432 1.325 4.377v.446c0 2.035-.449 3.553-1.348 4.556-.898 1.003-2.12 1.504-3.665 1.504-.802 0-1.511-.175-2.127-.524a4.443 4.443 0 0 1-1.504-1.37v6.082h-2.941V24.47zm5.882 9.58c.772 0 1.418-.294 1.938-.88.52-.587.78-1.482.78-2.685v-.446c0-1.114-.253-1.949-.758-2.506-.505-.557-1.158-.835-1.96-.835-.847 0-1.549.24-2.106.724-.557.482-.835 1.206-.835 2.172v1.337c0 1.054.271 1.838.813 2.35.542.513 1.251.769 2.128.769zM67.293 47.707h2.94v4.567h5.035v-4.567h2.941v11.808h-2.94v-4.79h-5.036v4.79h-2.94V47.707zm17.132 12.075c-.638 0-1.203-.093-1.693-.278a3.56 3.56 0 0 1-1.248-.78 3.344 3.344 0 0 1-.78-1.18 4.013 4.013 0 0 1-.267-1.482c0-2.377 1.411-3.565 4.233-3.565h3.52v-.557c0-.772-.174-1.315-.523-1.627-.35-.311-.902-.467-1.66-.467-.668 0-1.151.115-1.448.345-.297.23-.468.516-.513.858h-2.94c.03-.505.16-.98.39-1.426a3.36 3.36 0 0 1 .98-1.148c.423-.319.94-.571 1.548-.757.61-.186 1.307-.279 2.094-.279.758 0 1.445.082 2.061.246a4.07 4.07 0 0 1 1.582.79c.438.364.776.836 1.014 1.415.237.58.356 1.278.356 2.094v4.523c0 .624.011 1.17.034 1.638.022.468.063.924.122 1.37h-2.74a6.012 6.012 0 0 1-.1-.746c-.008-.171-.011-.427-.011-.77-.327.476-.821.892-1.482 1.248-.661.357-1.504.535-2.529.535zm.914-2.272a3.83 3.83 0 0 0 1.047-.145c.341-.097.646-.245.913-.446.268-.2.483-.456.646-.768.164-.312.245-.676.245-1.092v-.557h-2.963c-.564 0-1.006.13-1.325.39-.32.26-.48.613-.48 1.058 0 .475.164.854.49 1.136.328.283.803.424 1.427.424zm13.59 2.272a6.728 6.728 0 0 1-2.284-.378 5.04 5.04 0 0 1-1.838-1.137c-.52-.505-.928-1.136-1.225-1.894-.297-.757-.446-1.64-.446-2.65v-.446c0-.95.156-1.79.468-2.518a5.311 5.311 0 0 1 1.26-1.827 5.331 5.331 0 0 1 1.837-1.114 6.5 6.5 0 0 1 2.228-.378c.832 0 1.571.11 2.217.334.646.222 1.192.527 1.637.913.446.386.795.84 1.047 1.36a4.57 4.57 0 0 1 .446 1.67h-2.985c-.119-.55-.361-.984-.724-1.303-.364-.32-.91-.48-1.638-.48-.386 0-.746.068-1.08.201a2.491 2.491 0 0 0-.892.613c-.26.275-.464.62-.612 1.036-.149.416-.223.913-.223 1.493v.445c0 .624.07 1.163.212 1.615.14.453.337.825.59 1.114.252.29.55.502.891.635.342.134.713.2 1.114.2.58 0 1.081-.151 1.504-.456.423-.304.709-.746.858-1.325h2.985a4.744 4.744 0 0 1-.546 1.77 4.407 4.407 0 0 1-1.136 1.349 5.134 5.134 0 0 1-1.638.857c-.623.201-1.3.301-2.027.301zm6.461-9.624h3.765v9.357h2.941v-9.357h3.765v-2.451H105.39v2.45zm13.212 9.346c.49.185 1.054.278 1.693.278 1.025 0 1.868-.178 2.529-.534.66-.357 1.154-.773 1.481-1.248 0 .342.004.598.011.769.008.17.041.42.1.746h2.741c-.06-.446-.1-.902-.123-1.37a35.397 35.397 0 0 1-.033-1.638v-4.523c0-.816-.119-1.515-.357-2.094a3.547 3.547 0 0 0-1.013-1.415 4.072 4.072 0 0 0-1.582-.79 8.045 8.045 0 0 0-2.061-.245c-.787 0-1.485.092-2.094.278-.609.186-1.125.438-1.549.757a3.36 3.36 0 0 0-.98 1.148c-.23.446-.36.92-.39 1.426h2.941c.045-.342.215-.628.513-.858.297-.23.779-.345 1.448-.345.757 0 1.31.156 1.659.468.35.311.524.854.524 1.626v.557h-3.52c-2.822 0-4.233 1.188-4.233 3.565 0 .534.089 1.028.267 1.481.178.453.438.847.78 1.18.342.335.757.595 1.248.78zm3.653-2.14c-.341.098-.69.146-1.047.146-.624 0-1.099-.141-1.426-.424-.326-.282-.49-.66-.49-1.136 0-.445.16-.798.479-1.058.32-.26.761-.39 1.326-.39h2.963v.557c0 .416-.082.78-.245 1.092a2.249 2.249 0 0 1-.646.768c-.267.2-.572.35-.914.446zm13.234-9.657h-5.926v11.808h6.372c1.455 0 2.54-.305 3.253-.914.713-.609 1.069-1.425 1.069-2.45a2.67 2.67 0 0 0-.613-1.75c-.408-.497-.976-.835-1.704-1.013a2.41 2.41 0 0 0 1.37-.97c.334-.482.501-.998.501-1.547 0-.46-.081-.884-.245-1.27a2.525 2.525 0 0 0-.779-1.003c-.357-.282-.806-.501-1.348-.657-.542-.156-1.192-.234-1.95-.234zm1.348 9.145c-.319.201-.813.301-1.481.301h-2.852v-2.54h2.852c.698 0 1.199.1 1.503.301.305.2.457.524.457.97 0 .445-.159.768-.479.968zm-1.771-4.422c.683 0 1.155-.096 1.415-.29.26-.193.39-.49.39-.89 0-.387-.134-.68-.401-.88-.268-.201-.736-.301-1.404-.301h-2.562v2.361h2.562zm7.308-4.723h2.94v4.567h5.036v-4.567h2.94v11.808h-2.94v-4.79h-5.036v4.79h-2.94V47.707zm16.531 0h-2.941v11.808h2.718l5.258-7.575v7.575h2.941V47.707h-2.718l-5.258 7.575v-7.575zm17.623 7.463c-.342.208-.75.394-1.226.557-.475.164-1.054.245-1.737.245-1.441 0-2.525-.341-3.253-1.024-.728-.684-1.092-1.76-1.092-3.23v-4.011h2.941v3.676c0 .772.163 1.314.49 1.626.327.312.891.468 1.693.468.565 0 1.029-.067 1.393-.2.364-.134.627-.26.791-.38v-5.19h2.941v11.808h-2.941V55.17zm10.961 4.612a7.046 7.046 0 0 1-2.284-.367 5.176 5.176 0 0 1-1.882-1.114c-.535-.498-.958-1.13-1.27-1.894-.312-.765-.468-1.66-.468-2.685v-.445c0-.98.149-1.835.446-2.562.297-.728.705-1.334 1.225-1.816a5.2 5.2 0 0 1 1.805-1.092 6.48 6.48 0 0 1 2.205-.367c1.857 0 3.268.49 4.233 1.47.966.98 1.448 2.399 1.448 4.255v1.248h-8.354c.015.52.104.97.267 1.348.164.379.379.687.646.924.268.238.576.413.925.524.349.111.702.167 1.058.167.758 0 1.329-.111 1.716-.334.386-.223.661-.55.824-.98h2.696c-.238 1.232-.825 2.16-1.76 2.785-.936.623-2.095.935-3.476.935zm-.111-9.936c-.342 0-.68.044-1.014.133-.334.09-.628.23-.88.424a2.2 2.2 0 0 0-.624.78c-.163.326-.252.72-.267 1.18h5.503c-.015-.49-.093-.898-.234-1.225a1.955 1.955 0 0 0-.579-.78 2.131 2.131 0 0 0-.858-.4 4.717 4.717 0 0 0-1.047-.112zm12.922 9.936a6.732 6.732 0 0 1-2.284-.378 5.046 5.046 0 0 1-1.838-1.137c-.52-.505-.928-1.136-1.225-1.894-.297-.757-.446-1.64-.446-2.65v-.446c0-.95.156-1.79.468-2.518a5.303 5.303 0 0 1 1.259-1.827 5.33 5.33 0 0 1 1.838-1.114 6.497 6.497 0 0 1 2.228-.378c.831 0 1.57.11 2.216.334.647.222 1.192.527 1.638.913.446.386.795.84 1.047 1.36a4.57 4.57 0 0 1 .446 1.67h-2.986c-.119-.55-.36-.984-.724-1.303-.364-.32-.91-.48-1.637-.48a2.88 2.88 0 0 0-1.081.201 2.493 2.493 0 0 0-.891.613c-.26.275-.464.62-.613 1.036-.148.416-.223.913-.223 1.493v.445c0 .624.071 1.163.212 1.615.141.453.338.825.591 1.114.252.29.549.502.891.635.341.134.713.2 1.114.2.579 0 1.08-.151 1.503-.456.424-.304.71-.746.858-1.325h2.986a4.78 4.78 0 0 1-.546 1.77c-.29.528-.669.977-1.136 1.349a5.134 5.134 0 0 1-1.638.857c-.624.201-1.3.301-2.027.301zm6.461-9.624h3.765v9.357h2.941v-9.357h3.765v-2.451h-10.471v2.45zm12.253-2.451h5.927c.757 0 1.407.078 1.949.234.542.156.991.375 1.348.657.356.282.616.616.78 1.003.163.386.245.81.245 1.27 0 .55-.167 1.065-.502 1.548a2.41 2.41 0 0 1-1.37.97c.728.177 1.296.515 1.705 1.013.408.497.612 1.08.612 1.749 0 1.024-.356 1.841-1.069 2.45-.713.61-1.797.914-3.253.914h-6.372V47.707zm5.793 9.446c.668 0 1.162-.1 1.481-.3.32-.201.479-.524.479-.97 0-.445-.152-.768-.456-.969-.305-.2-.806-.3-1.504-.3h-2.852v2.54h2.852zm1.125-5.013c-.26.194-.732.29-1.415.29h-2.562V50.07h2.562c.669 0 1.136.1 1.404.3.267.2.401.494.401.88 0 .401-.13.698-.39.891zm9.435 7.642c-.638 0-1.203-.093-1.693-.278a3.567 3.567 0 0 1-1.248-.78 3.347 3.347 0 0 1-.779-1.18 3.997 3.997 0 0 1-.268-1.482c0-2.377 1.411-3.565 4.233-3.565h3.52v-.557c0-.772-.174-1.315-.523-1.627-.349-.311-.902-.467-1.66-.467-.668 0-1.151.115-1.448.345-.297.23-.468.516-.513.858h-2.94c.029-.505.159-.98.389-1.426.231-.446.557-.828.981-1.148.423-.319.939-.571 1.548-.757.609-.186 1.307-.279 2.094-.279.758 0 1.445.082 2.061.246a4.065 4.065 0 0 1 1.582.79c.438.364.776.836 1.014 1.415.237.58.356 1.278.356 2.094v4.523c0 .624.011 1.17.034 1.638.022.468.063.924.122 1.37h-2.74a5.794 5.794 0 0 1-.1-.746c-.008-.171-.012-.427-.012-.77-.326.476-.82.892-1.481 1.248-.661.357-1.504.535-2.529.535zm.914-2.272c.356 0 .705-.048 1.047-.145.341-.097.646-.245.913-.446.268-.2.483-.456.646-.768.164-.312.245-.676.245-1.092v-.557h-2.963c-.564 0-1.006.13-1.325.39-.32.26-.479.613-.479 1.058 0 .475.163.854.49 1.136.327.283.802.424 1.426.424z" fill="#2C498D"/></svg>