<svg width="295" height="60" viewBox="0 0 295 60" fill="none" xmlns="http://www.w3.org/2000/svg">
<path fill-rule="evenodd" clip-rule="evenodd" d="M39.4136 57.2069H32.3866V51.7009H23.0176V57.2069H15.9916V49.3589H39.4136V57.2069ZM23.8776 18.9099H31.5256L35.5406 47.0169H19.8626L23.8776 18.9099ZM21.8466 16.5679H33.5576V14.2259H21.8466V16.5679ZM24.1886 11.8829H31.2156V7.19885H24.1886V11.8829ZM27.7026 3.16985L29.8106 4.85685H25.5946L27.7026 3.16985ZM49.8886 49.4799V47.0169H41.7556H41.3206H37.9076L33.8926 18.9099H35.8996V11.8839H33.5576V4.85685L27.7026 0.172852L21.8466 4.85685V11.8839H19.5046V18.9099H21.5126L17.4976 47.0169H14.7946H13.6486H6.6626V49.4799H13.6486V52.0508H6.6626V54.5149H13.6496V57.0858H6.6626V59.5489H13.6496H14.7946H25.3606V54.0438H30.0446V59.5489H41.2656H41.7556H49.8886V57.0858H41.7556V54.5149H49.8886V52.0508H41.7556V49.4799H49.8886Z" fill="white"/>
<path fill-rule="evenodd" clip-rule="evenodd" d="M38.4136 10.5391L55.0166 17.6311V14.7531L38.4136 7.66113V10.5391Z" fill="url(#paint0_linear_0_9414)"/>
<path fill-rule="evenodd" clip-rule="evenodd" d="M38.4136 19.2157L55.0166 35.8188V32.3218L38.4136 15.7188V19.2157Z" fill="url(#paint1_linear_0_9414)"/>
<path fill-rule="evenodd" clip-rule="evenodd" d="M16.6025 10.3912L-0.000488281 17.4832V14.6052L16.6025 7.51318V10.3912Z" fill="url(#paint2_linear_0_9414)"/>
<path fill-rule="evenodd" clip-rule="evenodd" d="M16.6025 19.0678L-0.000488281 35.6708V32.1738L16.6025 15.5708V19.0678Z" fill="url(#paint3_linear_0_9414)"/>
<path fill-rule="evenodd" clip-rule="evenodd" d="M32.8878 30.421H22.4878L23.2878 24.854L32.1118 24.858L32.8878 30.421Z" fill="#6F96C3"/>
<path fill-rule="evenodd" clip-rule="evenodd" d="M34.3781 41.6729L21.0171 41.6979L21.8131 36.1309L33.6491 36.1319L34.3781 41.6729Z" fill="#6F96C3"/>
<path fill-rule="evenodd" clip-rule="evenodd" d="M214.24 22.3981C214.842 22.9625 215.804 23.2447 217.126 23.2447C218.448 23.2447 219.409 22.9625 220.011 22.3981C220.612 21.8337 220.913 21.0019 220.913 19.9028H218.351C218.351 20.4821 218.251 20.8868 218.05 21.1171C217.85 21.3473 217.542 21.4624 217.126 21.4624C216.739 21.4624 216.446 21.3473 216.246 21.1171C216.045 20.8868 215.945 20.4821 215.945 19.9028H213.338C213.338 21.0019 213.639 21.8337 214.24 22.3981ZM214.608 24.4701H211.667V36.2781H214.385L219.643 28.7031V36.2781H222.584V24.4701H219.866L214.608 32.045V24.4701ZM71.7535 20.6826H65.7381V36.2781H69.08V30.9311H71.7535C73.8626 30.9311 75.4295 30.4669 76.4544 29.5386C77.4792 28.6103 77.9917 27.3664 77.9917 25.8068C77.9917 24.2473 77.4792 23.0034 76.4544 22.0751C75.4295 21.1468 73.8626 20.6826 71.7535 20.6826ZM73.9257 27.5669C73.443 27.9679 72.6075 28.1684 71.4193 28.1684H69.08V23.4452H71.4193C72.6075 23.4452 73.443 23.6495 73.9257 24.0579C74.4084 24.4664 74.6498 25.0493 74.6498 25.8068C74.6498 26.5792 74.4084 27.1659 73.9257 27.5669ZM82.726 36.1778C83.4464 36.4229 84.2076 36.5454 85.0096 36.5454C86.3909 36.5454 87.5495 36.2335 88.4852 35.6097C89.4209 34.9859 90.0076 34.0576 90.2452 32.8248H87.5495C87.3861 33.2555 87.1113 33.5823 86.7251 33.8051C86.339 34.0279 85.7671 34.1393 85.0096 34.1393C84.6532 34.1393 84.3004 34.0836 83.9514 33.9722C83.6023 33.8608 83.2941 33.6863 83.0268 33.4486C82.7594 33.211 82.5441 32.9028 82.3807 32.524C82.2173 32.1453 82.1282 31.696 82.1133 31.1761H90.468V29.9285C90.468 28.0719 89.9853 26.6534 89.0199 25.6732C88.0545 24.6929 86.6434 24.2027 84.7868 24.2027C83.9996 24.2027 83.2644 24.3253 82.5812 24.5703C81.898 24.8154 81.2964 25.1793 80.7766 25.662C80.2567 26.1447 79.8483 26.75 79.5512 27.4778C79.2541 28.2056 79.1056 29.0596 79.1056 30.0399V30.4855C79.1056 31.5103 79.2616 32.4052 79.5735 33.1701C79.8854 33.9351 80.3087 34.5663 80.8434 35.0639C81.3781 35.5614 82.0056 35.9328 82.726 36.1778ZM83.8845 26.7426C84.2187 26.6534 84.5566 26.6089 84.8982 26.6089C85.2695 26.6089 85.6186 26.646 85.9454 26.7203C86.2721 26.7945 86.558 26.9282 86.8031 27.1213C87.0482 27.3144 87.2413 27.5743 87.3824 27.9011C87.5235 28.2278 87.6014 28.6363 87.6163 29.1264H82.1133C82.1282 28.666 82.2173 28.2724 82.3807 27.9456C82.5441 27.6189 82.752 27.359 83.0045 27.1659C83.257 26.9728 83.5503 26.8317 83.8845 26.7426ZM101.273 24.4701H92.8074V36.2781H95.7482V26.9208H101.273V24.4701ZM103.056 24.4701H105.997V32.045L111.255 24.4701H113.973V36.2781H111.032V28.7031L105.774 36.2781H103.056V24.4701ZM121.993 36.5454C121.191 36.5454 120.43 36.4229 119.71 36.1778C118.989 35.9328 118.362 35.5577 117.827 35.0527C117.292 34.5477 116.869 33.9165 116.557 33.159C116.245 32.4015 116.089 31.5103 116.089 30.4855V30.0399C116.089 29.0745 116.245 28.2278 116.557 27.5001C116.869 26.7723 117.292 26.1633 117.827 25.6732C118.362 25.183 118.989 24.8154 119.71 24.5703C120.43 24.3253 121.191 24.2027 121.993 24.2027C122.795 24.2027 123.553 24.3253 124.266 24.5703C124.979 24.8154 125.606 25.183 126.148 25.6732C126.69 26.1633 127.117 26.7723 127.429 27.5001C127.741 28.2278 127.897 29.0745 127.897 30.0399V30.4855C127.897 31.4955 127.741 32.3792 127.429 33.1367C127.117 33.8942 126.69 34.5255 126.148 35.0304C125.606 35.5354 124.979 35.9142 124.266 36.1667C123.553 36.4192 122.795 36.5454 121.993 36.5454ZM121.993 34.0502C122.825 34.0502 123.519 33.7531 124.076 33.159C124.633 32.5649 124.912 31.6737 124.912 30.4855V30.0399C124.912 28.9556 124.633 28.1276 124.076 27.5558C123.519 26.9839 122.825 26.698 121.993 26.698C121.147 26.698 120.448 26.9839 119.899 27.5558C119.349 28.1276 119.075 28.9556 119.075 30.0399V30.4855C119.075 31.6886 119.349 32.5834 119.899 33.1701C120.448 33.7568 121.147 34.0502 121.993 34.0502ZM130.014 24.4701H132.955V29.0373H137.99V24.4701H140.931V36.2781H137.99V31.488H132.955V36.2781H130.014V24.4701ZM147.146 36.5454C146.508 36.5454 145.943 36.4526 145.453 36.2669C144.963 36.0813 144.547 35.8214 144.206 35.4872C143.864 35.153 143.604 34.7594 143.426 34.3064C143.248 33.8534 143.158 33.3595 143.158 32.8248C143.158 30.4483 144.57 29.2601 147.392 29.2601H150.912V28.7031C150.912 27.9308 150.737 27.3887 150.388 27.0768C150.039 26.7648 149.486 26.6089 148.728 26.6089C148.06 26.6089 147.577 26.724 147.28 26.9542C146.983 27.1844 146.812 27.4704 146.768 27.812H143.827C143.857 27.307 143.987 26.8317 144.217 26.3861C144.447 25.9405 144.774 25.5581 145.197 25.2387C145.62 24.9194 146.136 24.6669 146.745 24.4812C147.354 24.2956 148.052 24.2027 148.84 24.2027C149.597 24.2027 150.284 24.2844 150.901 24.4478C151.517 24.6112 152.044 24.8748 152.482 25.2387C152.921 25.6026 153.258 26.0742 153.496 26.6534C153.734 27.2327 153.853 27.9308 153.853 28.7477V33.2704C153.853 33.8942 153.864 34.44 153.886 34.9079C153.908 35.3758 153.949 35.8325 154.008 36.2781H151.268C151.209 35.9513 151.175 35.7025 151.168 35.5317C151.16 35.3609 151.157 35.1047 151.157 34.7631C150.83 35.2384 150.336 35.6543 149.675 36.0107C149.014 36.3672 148.171 36.5454 147.146 36.5454ZM148.06 34.273C148.416 34.273 148.765 34.2247 149.107 34.1281C149.449 34.0316 149.753 33.8831 150.02 33.6826C150.288 33.482 150.503 33.2258 150.667 32.9139C150.83 32.602 150.912 32.2381 150.912 31.8222V31.2653H147.949C147.384 31.2653 146.942 31.3952 146.623 31.6551C146.304 31.9151 146.144 32.2678 146.144 32.7134C146.144 33.1887 146.307 33.5674 146.634 33.8496C146.961 34.1319 147.436 34.273 148.06 34.273ZM156.526 36.5454C156.407 36.5454 156.259 36.5417 156.08 36.5343C155.902 36.5269 155.754 36.5083 155.635 36.4786V33.8274C155.709 33.8422 155.821 33.8496 155.969 33.8496C156.251 33.8496 156.496 33.7642 156.704 33.5934C156.912 33.4226 157.087 33.1293 157.228 32.7134C157.369 32.2975 157.473 31.7443 157.54 31.0536C157.607 30.3629 157.64 29.5052 157.64 28.4803V24.4701H166.997V36.2781H164.056V26.9208H160.358V28.9259C160.358 30.4558 160.28 31.7146 160.124 32.7023C159.968 33.69 159.731 34.466 159.411 35.0304C159.092 35.5949 158.691 35.9885 158.208 36.2112C157.725 36.434 157.165 36.5454 156.526 36.5454ZM169.671 24.4701H172.612V28.4358H175.129C178.174 28.4358 179.696 29.7428 179.696 32.3569C179.696 32.9362 179.611 33.4672 179.44 33.9499C179.269 34.4326 178.998 34.8448 178.627 35.1864C178.256 35.528 177.78 35.7954 177.201 35.9885C176.622 36.1815 175.931 36.2781 175.129 36.2781H169.671V24.4701ZM174.795 33.9165C175.508 33.9165 176.013 33.7865 176.31 33.5266C176.607 33.2667 176.756 32.8768 176.756 32.3569C176.756 31.8371 176.603 31.4472 176.299 31.1873C175.994 30.9274 175.493 30.7974 174.795 30.7974H172.612V33.9165H174.795ZM181.59 24.4701H184.531V29.0373H189.566V24.4701H192.507V36.2781H189.566V31.488H184.531V36.2781H181.59V24.4701ZM198.121 24.4701H195.181V36.2781H200.193C200.995 36.2781 201.686 36.1815 202.265 35.9885C202.845 35.7954 203.32 35.528 203.691 35.1864C204.063 34.8448 204.334 34.4326 204.504 33.9499C204.675 33.4672 204.761 32.9362 204.761 32.3569C204.761 29.7428 203.238 28.4358 200.193 28.4358H198.121V24.4701ZM201.374 33.5266C201.077 33.7865 200.572 33.9165 199.859 33.9165H198.121V30.7974H199.859C200.557 30.7974 201.059 30.9274 201.363 31.1873C201.668 31.4472 201.82 31.8371 201.82 32.3569C201.82 32.8768 201.671 33.2667 201.374 33.5266ZM206.053 24.4701H208.994V36.2781H206.053V24.4701ZM230.827 36.2781H240.385V39.063H242.97V33.8274H241.299V24.4701H238.358V33.8274H233.768V24.4701H230.827V36.2781ZM247.927 36.1778C248.647 36.4229 249.408 36.5454 250.21 36.5454C251.592 36.5454 252.75 36.2335 253.686 35.6097C254.622 34.9859 255.208 34.0576 255.446 32.8248H252.75C252.587 33.2555 252.312 33.5823 251.926 33.8051C251.54 34.0279 250.968 34.1393 250.21 34.1393C249.854 34.1393 249.501 34.0836 249.152 33.9722C248.803 33.8608 248.495 33.6863 248.227 33.4486C247.96 33.211 247.745 32.9028 247.581 32.524C247.418 32.1453 247.329 31.696 247.314 31.1761H255.669V29.9285C255.669 28.0719 255.186 26.6534 254.221 25.6732C253.255 24.6929 251.844 24.2027 249.988 24.2027C249.2 24.2027 248.465 24.3253 247.782 24.5703C247.099 24.8154 246.497 25.1793 245.977 25.662C245.457 26.1447 245.049 26.75 244.752 27.4778C244.455 28.2056 244.306 29.0596 244.306 30.0399V30.4855C244.306 31.5103 244.462 32.4052 244.774 33.1701C245.086 33.9351 245.509 34.5663 246.044 35.0639C246.579 35.5614 247.206 35.9328 247.927 36.1778ZM249.085 26.7426C249.419 26.6534 249.757 26.6089 250.099 26.6089C250.47 26.6089 250.819 26.646 251.146 26.7203C251.473 26.7945 251.759 26.9282 252.004 27.1213C252.249 27.3144 252.442 27.5743 252.583 27.9011C252.724 28.2278 252.802 28.6363 252.817 29.1264H247.314C247.329 28.666 247.418 28.2724 247.581 27.9456C247.745 27.6189 247.953 27.359 248.205 27.1659C248.458 26.9728 248.751 26.8317 249.085 26.7426ZM260.726 24.4701H257.785V36.2781H260.726V31.488H265.761V36.2781H268.702V24.4701H265.761V29.0373H260.726V24.4701ZM274.25 26.9208H270.484V24.4701H280.956V26.9208H277.19V36.2781H274.25V26.9208ZM282.738 24.4701H285.478V26.2079C285.775 25.6732 286.243 25.2053 286.882 24.8043C287.521 24.4032 288.33 24.2027 289.31 24.2027C290.885 24.2027 292.114 24.6892 292.998 25.662C293.881 26.6349 294.323 28.0942 294.323 30.0399V30.4855C294.323 32.5203 293.874 34.039 292.975 35.0416C292.077 36.0442 290.855 36.5454 289.31 36.5454C288.508 36.5454 287.799 36.3709 287.183 36.0219C286.566 35.6728 286.065 35.2161 285.679 34.6517V40.7339H282.738V24.4701ZM288.62 34.0502C289.392 34.0502 290.038 33.7568 290.558 33.1701C291.078 32.5834 291.338 31.6886 291.338 30.4855V30.0399C291.338 28.9259 291.085 28.0905 290.58 27.5335C290.075 26.9765 289.422 26.698 288.62 26.698C287.773 26.698 287.071 26.9394 286.514 27.4221C285.957 27.9048 285.679 28.6289 285.679 29.5943V30.9311C285.679 31.9856 285.95 32.7691 286.492 33.2815C287.034 33.7939 287.743 34.0502 288.62 34.0502ZM65.2925 47.7073H68.2333V52.2746H73.2685V47.7073H76.2093V59.5154H73.2685V54.7253H68.2333V59.5154H65.2925V47.7073ZM82.4252 59.7827C81.7866 59.7827 81.2221 59.6899 80.732 59.5042C80.2419 59.3186 79.826 59.0586 79.4844 58.7244C79.1428 58.3903 78.8828 57.9967 78.7046 57.5436C78.5264 57.0906 78.4372 56.5968 78.4372 56.0621C78.4372 53.6856 79.8483 52.4974 82.6703 52.4974H86.1904V51.9404C86.1904 51.1681 86.0159 50.6259 85.6669 50.314C85.3178 50.0021 84.7646 49.8462 84.0071 49.8462C83.3387 49.8462 82.856 49.9613 82.5589 50.1915C82.2618 50.4217 82.091 50.7076 82.0465 51.0492H79.1056C79.1353 50.5442 79.2653 50.0689 79.4955 49.6234C79.7257 49.1778 80.0525 48.7953 80.4758 48.476C80.8991 48.1566 81.4152 47.9041 82.0242 47.7185C82.6332 47.5328 83.3313 47.44 84.1185 47.44C84.8759 47.44 85.5629 47.5217 86.1793 47.6851C86.7957 47.8484 87.323 48.1121 87.7611 48.476C88.1993 48.8399 88.5372 49.3115 88.7748 49.8907C89.0125 50.47 89.1313 51.1681 89.1313 51.985V56.5077C89.1313 57.1315 89.1424 57.6773 89.1647 58.1452C89.187 58.613 89.2278 59.0698 89.2872 59.5154H86.5469C86.4875 59.1886 86.4541 58.9398 86.4466 58.769C86.4392 58.5982 86.4355 58.342 86.4355 58.0004C86.1087 58.4757 85.6149 58.8915 84.9539 59.248C84.293 59.6045 83.4501 59.7827 82.4252 59.7827ZM83.3387 57.5102C83.6951 57.5102 84.0442 57.4619 84.3858 57.3654C84.7274 57.2689 85.0319 57.1203 85.2993 56.9198C85.5666 56.7193 85.782 56.4631 85.9454 56.1512C86.1087 55.8393 86.1904 55.4754 86.1904 55.0595V54.5025H83.2273C82.6629 54.5025 82.221 54.6325 81.9017 54.8924C81.5823 55.1523 81.4227 55.5051 81.4227 55.9507C81.4227 56.426 81.586 56.8047 81.9128 57.0869C82.2396 57.3691 82.7149 57.5102 83.3387 57.5102ZM96.929 59.7827C96.1121 59.7827 95.3509 59.6565 94.6454 59.404C93.9399 59.1515 93.3272 58.7727 92.8074 58.2677C92.2875 57.7627 91.8791 57.1315 91.582 56.374C91.2849 55.6165 91.1364 54.7327 91.1364 53.7227V53.2772C91.1364 52.3266 91.2924 51.4874 91.6043 50.7596C91.9162 50.0318 92.3358 49.4228 92.8631 48.9327C93.3903 48.4426 94.003 48.0712 94.7011 47.8187C95.3992 47.5662 96.1418 47.44 96.929 47.44C97.7608 47.44 98.4997 47.5514 99.1458 47.7742C99.7919 47.997 100.338 48.3015 100.783 48.6876C101.229 49.0738 101.578 49.5268 101.83 50.0467C102.083 50.5665 102.231 51.1235 102.276 51.7176H99.2906C99.1718 51.1681 98.9304 50.7336 98.5666 50.4143C98.2027 50.0949 97.6568 49.9353 96.929 49.9353C96.5429 49.9353 96.1827 50.0021 95.8485 50.1358C95.5143 50.2695 95.2172 50.4737 94.9573 50.7485C94.6974 51.0232 94.4932 51.3686 94.3446 51.7845C94.1961 52.2003 94.1218 52.6979 94.1218 53.2772V53.7227C94.1218 54.3466 94.1924 54.885 94.3335 55.338C94.4746 55.791 94.6714 56.1623 94.9239 56.452C95.1764 56.7416 95.4734 56.9532 95.8151 57.0869C96.1567 57.2206 96.528 57.2874 96.929 57.2874C97.5083 57.2874 98.0096 57.1352 98.4329 56.8307C98.8562 56.5262 99.1421 56.0843 99.2906 55.5051H102.276C102.202 56.1586 102.02 56.749 101.73 57.2763C101.441 57.8036 101.062 58.2529 100.594 58.6242C100.126 58.9955 99.5803 59.2814 98.9564 59.4819C98.3326 59.6824 97.6568 59.7827 96.929 59.7827ZM103.39 50.1581H107.155V59.5154H110.096V50.1581H113.861V47.7073H103.39V50.1581ZM116.602 59.5042C117.092 59.6899 117.656 59.7827 118.295 59.7827C119.32 59.7827 120.163 59.6045 120.824 59.248C121.484 58.8915 121.978 58.4757 122.305 58.0004C122.305 58.342 122.309 58.5982 122.316 58.769C122.324 58.9398 122.357 59.1886 122.416 59.5154H125.157C125.097 59.0698 125.057 58.613 125.034 58.1452C125.012 57.6773 125.001 57.1315 125.001 56.5077V51.985C125.001 51.1681 124.882 50.47 124.644 49.8907C124.407 49.3115 124.069 48.8399 123.631 48.476C123.193 48.1121 122.665 47.8484 122.049 47.6851C121.432 47.5217 120.746 47.44 119.988 47.44C119.201 47.44 118.503 47.5328 117.894 47.7185C117.285 47.9041 116.769 48.1566 116.345 48.476C115.922 48.7953 115.595 49.1778 115.365 49.6234C115.135 50.0689 115.005 50.5442 114.975 51.0492H117.916C117.961 50.7076 118.131 50.4217 118.429 50.1915C118.726 49.9613 119.208 49.8462 119.877 49.8462C120.634 49.8462 121.187 50.0021 121.536 50.314C121.886 50.6259 122.06 51.1681 122.06 51.9404V52.4974H118.54C115.718 52.4974 114.307 53.6856 114.307 56.0621C114.307 56.5968 114.396 57.0906 114.574 57.5436C114.752 57.9967 115.012 58.3903 115.354 58.7244C115.696 59.0586 116.111 59.3186 116.602 59.5042ZM120.255 57.3654C119.914 57.4619 119.565 57.5102 119.208 57.5102C118.584 57.5102 118.109 57.3691 117.782 57.0869C117.456 56.8047 117.292 56.426 117.292 55.9507C117.292 55.5051 117.452 55.1523 117.771 54.8924C118.091 54.6325 118.532 54.5025 119.097 54.5025H122.06V55.0595C122.06 55.4754 121.978 55.8393 121.815 56.1512C121.652 56.4631 121.436 56.7193 121.169 56.9198C120.902 57.1203 120.597 57.2689 120.255 57.3654ZM133.489 47.7073H127.563V59.5154H133.935C135.39 59.5154 136.475 59.2109 137.188 58.6019C137.901 57.9929 138.257 57.176 138.257 56.1512C138.257 55.4828 138.053 54.8998 137.644 54.4023C137.236 53.9047 136.668 53.5668 135.94 53.3886C136.519 53.2252 136.976 52.9021 137.31 52.4194C137.644 51.9367 137.811 51.4206 137.811 50.871C137.811 50.4106 137.73 49.9873 137.566 49.6011C137.403 49.2149 137.143 48.8807 136.787 48.5985C136.43 48.3163 135.981 48.0972 135.439 47.9413C134.897 47.7853 134.247 47.7073 133.489 47.7073ZM134.837 56.853C134.518 57.0535 134.024 57.1538 133.356 57.1538H130.504V54.6139H133.356C134.054 54.6139 134.555 54.7142 134.859 54.9147C135.164 55.1152 135.316 55.4382 135.316 55.8838C135.316 56.3294 135.157 56.6525 134.837 56.853ZM133.066 52.4305C133.749 52.4305 134.221 52.334 134.481 52.1409C134.741 51.9478 134.871 51.6508 134.871 51.2497C134.871 50.8636 134.737 50.5702 134.47 50.3697C134.202 50.1692 133.734 50.0689 133.066 50.0689H130.504V52.4305H133.066ZM140.374 47.7073H143.314V52.2746H148.35V47.7073H151.29V59.5154H148.35V54.7253H143.314V59.5154H140.374V47.7073ZM156.905 47.7073H153.964V59.5154H156.682L161.94 51.9404V59.5154H164.881V47.7073H162.163L156.905 55.2823V47.7073ZM174.528 55.1709C174.186 55.3788 173.778 55.5645 173.302 55.7279C172.827 55.8913 172.248 55.9729 171.565 55.9729C170.124 55.9729 169.04 55.6313 168.312 54.9481C167.584 54.2649 167.22 53.188 167.22 51.7176V47.7073H170.161V51.3834C170.161 52.1558 170.324 52.6979 170.651 53.0098C170.978 53.3217 171.542 53.4777 172.344 53.4777C172.909 53.4777 173.373 53.4108 173.737 53.2772C174.101 53.1435 174.364 53.0172 174.528 52.8984V47.7073H177.469V59.5154H174.528V55.1709ZM185.489 59.7827C184.687 59.7827 183.926 59.6602 183.205 59.4151C182.485 59.17 181.858 58.7987 181.323 58.3011C180.788 57.8036 180.365 57.1723 180.053 56.4074C179.741 55.6425 179.585 54.7476 179.585 53.7227V53.2772C179.585 52.2969 179.734 51.4428 180.031 50.715C180.328 49.9873 180.736 49.382 181.256 48.8993C181.776 48.4166 182.377 48.0527 183.061 47.8076C183.744 47.5625 184.479 47.44 185.266 47.44C187.123 47.44 188.534 47.9301 189.499 48.9104C190.465 49.8907 190.947 51.3092 190.947 53.1658V54.4134H182.593C182.608 54.9333 182.697 55.3825 182.86 55.7613C183.024 56.14 183.239 56.4482 183.506 56.6859C183.774 56.9235 184.082 57.0981 184.431 57.2094C184.78 57.3208 185.133 57.3765 185.489 57.3765C186.247 57.3765 186.818 57.2651 187.205 57.0424C187.591 56.8196 187.866 56.4928 188.029 56.0621H190.725C190.487 57.2949 189.9 58.2232 188.965 58.847C188.029 59.4708 186.87 59.7827 185.489 59.7827ZM185.378 49.8462C185.036 49.8462 184.698 49.8907 184.364 49.9798C184.03 50.0689 183.736 50.21 183.484 50.4031C183.231 50.5962 183.024 50.8561 182.86 51.1829C182.697 51.5097 182.608 51.9033 182.593 52.3637H188.096C188.081 51.8736 188.003 51.4651 187.862 51.1384C187.721 50.8116 187.528 50.5517 187.283 50.3586C187.037 50.1655 186.752 50.0318 186.425 49.9576C186.098 49.8833 185.749 49.8462 185.378 49.8462ZM198.3 59.7827C197.483 59.7827 196.722 59.6565 196.016 59.404C195.311 59.1515 194.698 58.7727 194.178 58.2677C193.658 57.7627 193.25 57.1315 192.953 56.374C192.656 55.6165 192.507 54.7327 192.507 53.7227V53.2772C192.507 52.3266 192.663 51.4874 192.975 50.7596C193.287 50.0318 193.706 49.4228 194.234 48.9327C194.761 48.4426 195.374 48.0712 196.072 47.8187C196.77 47.5662 197.512 47.44 198.3 47.44C199.131 47.44 199.87 47.5514 200.516 47.7742C201.163 47.997 201.708 48.3015 202.154 48.6876C202.6 49.0738 202.949 49.5268 203.201 50.0467C203.454 50.5665 203.602 51.1235 203.647 51.7176H200.661C200.542 51.1681 200.301 50.7336 199.937 50.4143C199.573 50.0949 199.027 49.9353 198.3 49.9353C197.913 49.9353 197.553 50.0021 197.219 50.1358C196.885 50.2695 196.588 50.4737 196.328 50.7485C196.068 51.0232 195.864 51.3686 195.715 51.7845C195.567 52.2003 195.492 52.6979 195.492 53.2772V53.7227C195.492 54.3466 195.563 54.885 195.704 55.338C195.845 55.791 196.042 56.1623 196.295 56.452C196.547 56.7416 196.844 56.9532 197.186 57.0869C197.527 57.2206 197.899 57.2874 198.3 57.2874C198.879 57.2874 199.38 57.1352 199.803 56.8307C200.227 56.5262 200.513 56.0843 200.661 55.5051H203.647C203.572 56.1586 203.39 56.749 203.101 57.2763C202.811 57.8036 202.432 58.2529 201.965 58.6242C201.497 58.9955 200.951 59.2814 200.327 59.4819C199.703 59.6824 199.027 59.7827 198.3 59.7827ZM204.761 50.1581H208.526V59.5154H211.467V50.1581H215.232V47.7073H204.761V50.1581ZM217.014 47.7073H222.941C223.698 47.7073 224.348 47.7853 224.89 47.9413C225.432 48.0972 225.881 48.3163 226.238 48.5985C226.594 48.8807 226.854 49.2149 227.018 49.6011C227.181 49.9873 227.263 50.4106 227.263 50.871C227.263 51.4206 227.096 51.9367 226.761 52.4194C226.427 52.9021 225.97 53.2252 225.391 53.3886C226.119 53.5668 226.687 53.9047 227.096 54.4023C227.504 54.8998 227.708 55.4828 227.708 56.1512C227.708 57.176 227.352 57.9929 226.639 58.6019C225.926 59.2109 224.842 59.5154 223.386 59.5154H217.014V47.7073ZM222.807 57.1538C223.475 57.1538 223.969 57.0535 224.288 56.853C224.608 56.6525 224.767 56.3294 224.767 55.8838C224.767 55.4382 224.615 55.1152 224.311 54.9147C224.006 54.7142 223.505 54.6139 222.807 54.6139H219.955V57.1538H222.807ZM223.932 52.1409C223.672 52.334 223.2 52.4305 222.517 52.4305H219.955V50.0689H222.517C223.186 50.0689 223.653 50.1692 223.921 50.3697C224.188 50.5702 224.322 50.8636 224.322 51.2497C224.322 51.6508 224.192 51.9478 223.932 52.1409ZM233.367 59.7827C232.729 59.7827 232.164 59.6899 231.674 59.5042C231.184 59.3186 230.768 59.0586 230.426 58.7244C230.085 58.3903 229.825 57.9967 229.647 57.5436C229.468 57.0906 229.379 56.5968 229.379 56.0621C229.379 53.6856 230.79 52.4974 233.612 52.4974H237.132V51.9404C237.132 51.1681 236.958 50.6259 236.609 50.314C236.26 50.0021 235.707 49.8462 234.949 49.8462C234.281 49.8462 233.798 49.9613 233.501 50.1915C233.204 50.4217 233.033 50.7076 232.988 51.0492H230.048C230.077 50.5442 230.207 50.0689 230.437 49.6234C230.668 49.1778 230.994 48.7953 231.418 48.476C231.841 48.1566 232.357 47.9041 232.966 47.7185C233.575 47.5328 234.273 47.44 235.06 47.44C235.818 47.44 236.505 47.5217 237.121 47.6851C237.738 47.8484 238.265 48.1121 238.703 48.476C239.141 48.8399 239.479 49.3115 239.717 49.8907C239.954 50.47 240.073 51.1681 240.073 51.985V56.5077C240.073 57.1315 240.084 57.6773 240.107 58.1452C240.129 58.613 240.17 59.0698 240.229 59.5154H237.489C237.429 59.1886 237.396 58.9398 237.389 58.769C237.381 58.5982 237.377 58.342 237.377 58.0004C237.051 58.4757 236.557 58.8915 235.896 59.248C235.235 59.6045 234.392 59.7827 233.367 59.7827ZM234.281 57.5102C234.637 57.5102 234.986 57.4619 235.328 57.3654C235.669 57.2689 235.974 57.1203 236.241 56.9198C236.509 56.7193 236.724 56.4631 236.887 56.1512C237.051 55.8393 237.132 55.4754 237.132 55.0595V54.5025H234.169C233.605 54.5025 233.163 54.6325 232.844 54.8924C232.524 55.1523 232.365 55.5051 232.365 55.9507C232.365 56.426 232.528 56.8047 232.855 57.0869C233.182 57.3691 233.657 57.5102 234.281 57.5102Z" fill="white"/>
<defs>
<linearGradient id="paint0_linear_0_9414" x1="55.0166" y1="7.70931" x2="38.574" y2="7.70931" gradientUnits="userSpaceOnUse">
<stop stop-color="white"/>
<stop offset="1" stop-color="#E7B65D"/>
</linearGradient>
<linearGradient id="paint1_linear_0_9414" x1="55.0166" y1="15.8159" x2="38.574" y2="15.8159" gradientUnits="userSpaceOnUse">
<stop stop-color="white"/>
<stop offset="1" stop-color="#E7B65D"/>
</linearGradient>
<linearGradient id="paint2_linear_0_9414" x1="16.6025" y1="7.56136" x2="0.159978" y2="7.56136" gradientUnits="userSpaceOnUse">
<stop stop-color="#E7B65D"/>
<stop offset="1" stop-color="white"/>
</linearGradient>
<linearGradient id="paint3_linear_0_9414" x1="16.6025" y1="15.6679" x2="0.159978" y2="15.6679" gradientUnits="userSpaceOnUse">
<stop stop-color="#E7B65D"/>
<stop offset="1" stop-color="white"/>
</linearGradient>
</defs>
</svg>
