<svg width="61" height="57" viewBox="0 0 61 57" fill="none" xmlns="http://www.w3.org/2000/svg">
<g clip-path="url(#clip0_46_8532)">
<path fill-rule="evenodd" clip-rule="evenodd" d="M52.5874 21.3216C52.5874 25.302 51.4876 29.0276 49.573 32.2158H49.609L49.4212 32.4647C48.7288 33.5827 47.9353 34.6325 47.0535 35.6016L30.9019 57L15.0785 35.5544C11.6642 31.78 9.5874 26.7914 9.5874 21.3216C9.5874 9.54603 19.2133 0 31.0874 0C42.9615 0 52.5874 9.54603 52.5874 21.3216ZM31.0874 30.2057C36.035 30.2057 40.0457 26.2282 40.0457 21.3216C40.0457 16.4151 36.035 12.4376 31.0874 12.4376C26.1399 12.4376 22.1291 16.4151 22.1291 21.3216C22.1291 26.2282 26.1399 30.2057 31.0874 30.2057Z" fill="#2C498D"/>
<g clip-path="url(#clip1_46_8532)" filter="url(#filter0_d_46_8532)">
<path fill-rule="evenodd" clip-rule="evenodd" d="M32.7304 3.35406H60.0675C60.5822 3.35406 61 3.77053 61 4.28369V20.8762C61 21.3893 60.5822 21.8058 60.0675 21.8058H49.2413C48.0557 29.8879 40.1637 36.1337 30.6045 36.1337C21.0452 36.1337 13.1532 29.8879 11.9676 21.8058H0.932505C0.417762 21.8058 0 21.3893 0 20.8762V4.28369C0 3.77053 0.417762 3.35406 0.932505 3.35406H28.4786C29.1763 3.28531 29.8857 3.25 30.6045 3.25C31.3232 3.25 32.0326 3.28531 32.7304 3.35406Z" fill="url(#paint0_linear_46_8532)"/>
<path d="M12.5932 11.005H11.1632V14.25H9.75525V6.55H11.1632V9.773H12.6372L14.8482 6.55H16.3662L13.7372 10.279L16.4652 14.25H14.8482L12.5932 11.005ZM17.4323 8.376H18.8073V12.248L22.0523 8.376H23.3063V14.25H21.9313V10.378L18.6973 14.25H17.4323V8.376ZM28.4119 8.31C28.9839 8.31 29.4936 8.43467 29.9409 8.684C30.3956 8.93333 30.7513 9.28533 31.0079 9.74C31.2646 10.1947 31.3929 10.719 31.3929 11.313C31.3929 11.907 31.2646 12.435 31.0079 12.897C30.7513 13.3517 30.3956 13.7037 29.9409 13.953C29.4936 14.2023 28.9839 14.327 28.4119 14.327C27.6199 14.327 26.9929 14.063 26.5309 13.535V16.384H25.1559V8.376H26.4649V9.146C26.6923 8.86733 26.9709 8.65833 27.3009 8.519C27.6383 8.37967 28.0086 8.31 28.4119 8.31ZM28.2579 13.15C28.7639 13.15 29.1783 12.9813 29.5009 12.644C29.8309 12.3067 29.9959 11.863 29.9959 11.313C29.9959 10.763 29.8309 10.3193 29.5009 9.982C29.1783 9.64467 28.7639 9.476 28.2579 9.476C27.9279 9.476 27.6309 9.553 27.3669 9.707C27.1029 9.85367 26.8939 10.0663 26.7399 10.345C26.5859 10.6237 26.5089 10.9463 26.5089 11.313C26.5089 11.6797 26.5859 12.0023 26.7399 12.281C26.8939 12.5597 27.1029 12.776 27.3669 12.93C27.6309 13.0767 27.9279 13.15 28.2579 13.15ZM35.3794 14.327C34.7854 14.327 34.2501 14.1987 33.7734 13.942C33.2967 13.6853 32.9227 13.3297 32.6514 12.875C32.3874 12.413 32.2554 11.8923 32.2554 11.313C32.2554 10.7337 32.3874 10.2167 32.6514 9.762C32.9227 9.30733 33.2967 8.95167 33.7734 8.695C34.2501 8.43833 34.7854 8.31 35.3794 8.31C35.9807 8.31 36.5197 8.43833 36.9964 8.695C37.4731 8.95167 37.8434 9.30733 38.1074 9.762C38.3787 10.2167 38.5144 10.7337 38.5144 11.313C38.5144 11.8923 38.3787 12.413 38.1074 12.875C37.8434 13.3297 37.4731 13.6853 36.9964 13.942C36.5197 14.1987 35.9807 14.327 35.3794 14.327ZM35.3794 13.15C35.8854 13.15 36.3034 12.9813 36.6334 12.644C36.9634 12.3067 37.1284 11.863 37.1284 11.313C37.1284 10.763 36.9634 10.3193 36.6334 9.982C36.3034 9.64467 35.8854 9.476 35.3794 9.476C34.8734 9.476 34.4554 9.64467 34.1254 9.982C33.8027 10.3193 33.6414 10.763 33.6414 11.313C33.6414 11.863 33.8027 12.3067 34.1254 12.644C34.4554 12.9813 34.8734 13.15 35.3794 13.15ZM44.1297 11.192C44.8557 11.412 45.2187 11.8813 45.2187 12.6C45.2187 13.128 45.0207 13.535 44.6247 13.821C44.2287 14.107 43.6421 14.25 42.8647 14.25H39.8727V8.376H42.7437C43.4624 8.376 44.0234 8.508 44.4267 8.772C44.8301 9.036 45.0317 9.41 45.0317 9.894C45.0317 10.1947 44.9511 10.455 44.7897 10.675C44.6357 10.895 44.4157 11.0673 44.1297 11.192ZM41.1817 10.829H42.6227C43.3341 10.829 43.6897 10.5833 43.6897 10.092C43.6897 9.61533 43.3341 9.377 42.6227 9.377H41.1817V10.829ZM42.7547 13.249C43.5101 13.249 43.8877 13.0033 43.8877 12.512C43.8877 12.2553 43.7997 12.0647 43.6237 11.94C43.4477 11.808 43.1727 11.742 42.7987 11.742H41.1817V13.249H42.7547ZM48.8723 8.31C49.7376 8.31 50.3976 8.519 50.8523 8.937C51.3143 9.34767 51.5453 9.971 51.5453 10.807V14.25H50.2473V13.535C50.0786 13.7917 49.8366 13.9897 49.5213 14.129C49.2133 14.261 48.8393 14.327 48.3993 14.327C47.9593 14.327 47.5743 14.2537 47.2443 14.107C46.9143 13.953 46.6576 13.744 46.4743 13.48C46.2983 13.2087 46.2103 12.9043 46.2103 12.567C46.2103 12.039 46.4046 11.6173 46.7933 11.302C47.1893 10.9793 47.8089 10.818 48.6523 10.818H50.1703V10.73C50.1703 10.3193 50.0456 10.004 49.7963 9.784C49.5543 9.564 49.1913 9.454 48.7073 9.454C48.3773 9.454 48.0509 9.50533 47.7283 9.608C47.4129 9.71067 47.1453 9.85367 46.9253 10.037L46.3863 9.036C46.6943 8.80133 47.0646 8.62167 47.4973 8.497C47.9299 8.37233 48.3883 8.31 48.8723 8.31ZM48.6853 13.326C49.0299 13.326 49.3343 13.249 49.5983 13.095C49.8696 12.9337 50.0603 12.7063 50.1703 12.413V11.731H48.7513C47.9593 11.731 47.5633 11.9913 47.5633 12.512C47.5633 12.7613 47.6623 12.9593 47.8603 13.106C48.0583 13.2527 48.3333 13.326 48.6853 13.326Z" fill="white"/>
<path d="M28.4381 20.7117V30.5117H26.6181V22.2377H24.5461V20.7117H28.4381ZM34.5541 24.7577C35.4594 24.8697 36.1501 25.1777 36.6261 25.6817C37.1021 26.1857 37.3401 26.8157 37.3401 27.5717C37.3401 28.1411 37.1954 28.6591 36.9061 29.1257C36.6168 29.5924 36.1781 29.9657 35.5901 30.2457C35.0114 30.5164 34.3021 30.6517 33.4621 30.6517C32.7621 30.6517 32.0854 30.5537 31.4321 30.3577C30.7881 30.1524 30.2374 29.8724 29.7801 29.5177L30.5641 28.1037C30.9188 28.4024 31.3481 28.6404 31.8521 28.8177C32.3654 28.9857 32.8928 29.0697 33.4341 29.0697C34.0781 29.0697 34.5821 28.9391 34.9461 28.6777C35.3194 28.4071 35.5061 28.0431 35.5061 27.5857C35.5061 27.1284 35.3288 26.7737 34.9741 26.5217C34.6288 26.2604 34.0968 26.1297 33.3781 26.1297H32.4821V24.8837L34.7081 22.2377H30.2561V20.7117H36.9341V21.9297L34.5541 24.7577Z" fill="white"/>
</g>
</g>
<defs>
<filter id="filter0_d_46_8532" x="-6" y="3.25" width="73" height="44.8828" filterUnits="userSpaceOnUse" color-interpolation-filters="sRGB">
<feFlood flood-opacity="0" result="BackgroundImageFix"/>
<feColorMatrix in="SourceAlpha" type="matrix" values="0 0 0 0 0 0 0 0 0 0 0 0 0 0 0 0 0 0 127 0" result="hardAlpha"/>
<feOffset dy="6"/>
<feGaussianBlur stdDeviation="3"/>
<feColorMatrix type="matrix" values="0 0 0 0 0 0 0 0 0 0 0 0 0 0 0 0 0 0 0.307665 0"/>
<feBlend mode="normal" in2="BackgroundImageFix" result="effect1_dropShadow_46_8532"/>
<feBlend mode="normal" in="SourceGraphic" in2="effect1_dropShadow_46_8532" result="shape"/>
</filter>
<linearGradient id="paint0_linear_46_8532" x1="0" y1="3.25" x2="0" y2="36.1337" gradientUnits="userSpaceOnUse">
<stop stop-color="#4293E6"/>
<stop offset="1" stop-color="#1F5AC8"/>
</linearGradient>
<clipPath id="clip0_46_8532">
<rect width="61" height="57" fill="white"/>
</clipPath>
<clipPath id="clip1_46_8532">
<rect width="61" height="32.8837" fill="white" transform="translate(0 3.25)"/>
</clipPath>
</defs>
</svg>
