<svg xmlns="http://www.w3.org/2000/svg" width="524" height="107" viewBox="0 0 524 107" fill="none">
        <path fill-rule="evenodd" clip-rule="evenodd" d="M380.932 39.6907C382.001 40.6942 383.711 41.196 386.062 41.196C388.412 41.196 390.122 40.6942 391.192 39.6907C392.261 38.6871 392.796 37.2082 392.796 35.2539H388.24C388.24 36.2839 388.062 37.0035 387.706 37.4129C387.349 37.8222 386.801 38.0269 386.062 38.0269C385.375 38.0269 384.854 37.8222 384.497 37.4129C384.14 37.0035 383.962 36.2839 383.962 35.2539H379.327C379.327 37.2082 379.862 38.6871 380.932 39.6907ZM381.585 43.3747H376.356V64.37H381.189L390.538 50.9014V64.37H395.767V43.3747H390.934L381.585 56.8434V43.3747ZM127.582 36.6404H116.886V64.37H122.828V54.8627H127.582C131.332 54.8627 134.118 54.0374 135.94 52.3869C137.762 50.7363 138.674 48.5245 138.674 45.7516C138.674 42.9786 137.762 40.7668 135.94 39.1163C134.118 37.4657 131.332 36.6404 127.582 36.6404ZM131.444 48.8811C130.586 49.5941 129.1 49.9506 126.988 49.9506H122.828V41.5525H126.988C129.1 41.5525 130.586 41.9156 131.444 42.6419C132.302 43.3681 132.732 44.4047 132.732 45.7516C132.732 47.1248 132.302 48.168 131.444 48.8811ZM147.092 64.1918C148.372 64.6275 149.726 64.8454 151.152 64.8454C153.608 64.8454 155.668 64.2908 157.332 63.1816C158.995 62.0724 160.039 60.4219 160.461 58.2299H155.668C155.377 58.9958 154.889 59.5768 154.202 59.9729C153.516 60.369 152.499 60.5671 151.152 60.5671C150.518 60.5671 149.891 60.4681 149.27 60.27C148.65 60.0719 148.102 59.7616 147.626 59.3391C147.151 58.9165 146.768 58.3686 146.478 57.6951C146.187 57.0217 146.029 56.2228 146.002 55.2985H160.857V53.0801C160.857 49.779 159.999 47.2569 158.282 45.5139C156.566 43.7709 154.057 42.8994 150.756 42.8994C149.356 42.8994 148.049 43.1172 146.834 43.553C145.619 43.9887 144.55 44.6358 143.625 45.4941C142.701 46.3524 141.975 47.4285 141.447 48.7226C140.918 50.0166 140.654 51.5352 140.654 53.2782V54.0705C140.654 55.8927 140.932 57.4838 141.486 58.8439C142.041 60.204 142.793 61.3264 143.744 62.2111C144.695 63.0958 145.811 63.756 147.092 64.1918ZM149.151 47.4153C149.746 47.2569 150.346 47.1777 150.954 47.1777C151.614 47.1777 152.235 47.2437 152.816 47.3757C153.397 47.5078 153.905 47.7455 154.341 48.0888C154.777 48.4321 155.12 48.8943 155.371 49.4753C155.622 50.0563 155.76 50.7825 155.787 51.654H146.002C146.029 50.8353 146.187 50.1355 146.478 49.5545C146.768 48.9735 147.138 48.5113 147.587 48.168C148.036 47.8247 148.557 47.5738 149.151 47.4153ZM180.07 43.3747H165.017V64.37H170.246V47.7323H180.07V43.3747ZM183.239 43.3747H188.468V56.8434L197.817 43.3747H202.65V64.37H197.421V50.9014L188.072 64.37H183.239V43.3747ZM216.911 64.8454C215.485 64.8454 214.131 64.6275 212.85 64.1918C211.57 63.756 210.454 63.0892 209.503 62.1913C208.552 61.2934 207.8 60.171 207.245 58.8241C206.69 57.4772 206.413 55.8927 206.413 54.0705V53.2782C206.413 51.5616 206.69 50.0563 207.245 48.7622C207.8 47.4682 208.552 46.3854 209.503 45.5139C210.454 44.6424 211.57 43.9887 212.85 43.553C214.131 43.1172 215.485 42.8994 216.911 42.8994C218.337 42.8994 219.684 43.1172 220.951 43.553C222.219 43.9887 223.335 44.6424 224.299 45.5139C225.263 46.3854 226.022 47.4682 226.577 48.7622C227.131 50.0563 227.409 51.5616 227.409 53.2782V54.0705C227.409 55.8663 227.131 57.4376 226.577 58.7845C226.022 60.1314 225.263 61.2538 224.299 62.1517C223.335 63.0496 222.219 63.723 220.951 64.172C219.684 64.6209 218.337 64.8454 216.911 64.8454ZM216.911 60.4087C218.39 60.4087 219.624 59.8805 220.615 58.8241C221.605 57.7677 222.1 56.1832 222.1 54.0705V53.2782C222.1 51.3503 221.605 49.878 220.615 48.8612C219.624 47.8445 218.39 47.3361 216.911 47.3361C215.406 47.3361 214.164 47.8445 213.187 48.8612C212.21 49.878 211.721 51.3503 211.721 53.2782V54.0705C211.721 56.2096 212.21 57.8008 213.187 58.8439C214.164 59.8871 215.406 60.4087 216.911 60.4087ZM231.172 43.3747H236.401V51.4956H245.354V43.3747H250.583V64.37H245.354V55.8531H236.401V64.37H231.172V43.3747ZM261.635 64.8454C260.499 64.8454 259.496 64.6803 258.624 64.3502C257.753 64.0201 257.013 63.558 256.406 62.9638C255.798 62.3695 255.336 61.6697 255.019 60.8642C254.702 60.0587 254.544 59.1806 254.544 58.2299C254.544 54.0044 257.053 51.8917 262.071 51.8917H268.33V50.9014C268.33 49.5281 268.019 48.5641 267.399 48.0095C266.778 47.455 265.794 47.1777 264.447 47.1777C263.259 47.1777 262.401 47.3823 261.872 47.7917C261.344 48.201 261.041 48.7094 260.961 49.3168H255.732C255.785 48.4189 256.016 47.5738 256.426 46.7815C256.835 45.9892 257.416 45.3092 258.169 44.7414C258.921 44.1736 259.839 43.7247 260.922 43.3945C262.005 43.0644 263.246 42.8994 264.645 42.8994C265.992 42.8994 267.214 43.0446 268.31 43.3351C269.406 43.6256 270.343 44.0944 271.122 44.7414C271.901 45.3884 272.502 46.2269 272.925 47.2569C273.347 48.2868 273.559 49.5281 273.559 50.9806V59.0222C273.559 60.1314 273.578 61.1019 273.618 61.9338C273.658 62.7657 273.73 63.5778 273.836 64.37H268.963C268.858 63.789 268.798 63.3467 268.785 63.043C268.772 62.7393 268.765 62.2837 268.765 61.6763C268.184 62.5214 267.306 63.2609 266.131 63.8947C264.956 64.5285 263.457 64.8454 261.635 64.8454ZM263.259 60.8048C263.893 60.8048 264.513 60.719 265.121 60.5473C265.728 60.3757 266.27 60.1116 266.745 59.755C267.22 59.3985 267.603 58.943 267.894 58.3884C268.184 57.8338 268.33 57.1867 268.33 56.4473V55.4569H263.061C262.057 55.4569 261.272 55.688 260.704 56.1502C260.136 56.6123 259.852 57.2396 259.852 58.0318C259.852 58.8769 260.143 59.5504 260.724 60.0521C261.305 60.5539 262.15 60.8048 263.259 60.8048ZM278.312 64.8454C278.101 64.8454 277.837 64.8388 277.52 64.8256C277.203 64.8124 276.939 64.7794 276.728 64.7266V60.0125C276.86 60.0389 277.058 60.0521 277.322 60.0521C277.824 60.0521 278.259 59.9003 278.629 59.5966C278.999 59.2929 279.309 58.7713 279.56 58.0318C279.811 57.2924 279.996 56.3086 280.115 55.0806C280.233 53.8526 280.293 52.3274 280.293 50.5052V43.3747H296.931V64.37H291.702V47.7323H285.126V51.2975C285.126 54.0176 284.987 56.2558 284.71 58.012C284.433 59.7682 284.01 61.1481 283.442 62.1517C282.874 63.1552 282.161 63.8551 281.303 64.2512C280.445 64.6473 279.448 64.8454 278.312 64.8454ZM301.684 43.3747H306.913V50.426H311.39C316.804 50.426 319.511 52.75 319.511 57.398C319.511 58.428 319.359 59.3721 319.055 60.2304C318.751 61.0887 318.269 61.8216 317.609 62.429C316.949 63.0364 316.104 63.5117 315.074 63.8551C314.044 64.1984 312.816 64.37 311.39 64.37H301.684V43.3747ZM310.796 60.171C312.063 60.171 312.961 59.9399 313.489 59.4777C314.017 59.0156 314.282 58.3223 314.282 57.398C314.282 56.4737 314.011 55.7805 313.469 55.3183C312.928 54.8561 312.037 54.625 310.796 54.625H306.913V60.171H310.796ZM322.878 43.3747H328.107V51.4956H337.059V43.3747H342.288V64.37H337.059V55.8531H328.107V64.37H322.878V43.3747ZM352.271 43.3747H347.042V64.37H355.955C357.381 64.37 358.609 64.1984 359.639 63.8551C360.669 63.5117 361.514 63.0364 362.175 62.429C362.835 61.8216 363.317 61.0887 363.621 60.2304C363.924 59.3721 364.076 58.428 364.076 57.398C364.076 52.75 361.369 50.426 355.955 50.426H352.271V43.3747ZM358.055 59.4777C357.527 59.9399 356.629 60.171 355.361 60.171H352.271V54.625H355.361C356.602 54.625 357.494 54.8561 358.035 55.3183C358.576 55.7805 358.847 56.4737 358.847 57.398C358.847 58.3223 358.583 59.0156 358.055 59.4777ZM366.374 43.3747H371.603V64.37H366.374V43.3747ZM410.424 64.37H427.419V69.3218H432.014V60.0125H429.043V43.3747H423.814V60.0125H415.653V43.3747H410.424V64.37ZM440.828 64.1918C442.109 64.6275 443.462 64.8454 444.888 64.8454C447.344 64.8454 449.404 64.2908 451.068 63.1816C452.732 62.0724 453.775 60.4219 454.197 58.2299H449.404C449.114 58.9958 448.625 59.5768 447.938 59.9729C447.252 60.369 446.235 60.5671 444.888 60.5671C444.254 60.5671 443.627 60.4681 443.007 60.27C442.386 60.0719 441.838 59.7616 441.363 59.3391C440.887 58.9165 440.504 58.3686 440.214 57.6951C439.923 57.0217 439.765 56.2228 439.738 55.2985H454.594V53.0801C454.594 49.779 453.735 47.2569 452.019 45.5139C450.302 43.7709 447.793 42.8994 444.492 42.8994C443.092 42.8994 441.785 43.1172 440.57 43.553C439.355 43.9887 438.286 44.6358 437.362 45.4941C436.437 46.3524 435.711 47.4285 435.183 48.7226C434.655 50.0166 434.391 51.5352 434.391 53.2782V54.0705C434.391 55.8927 434.668 57.4838 435.222 58.8439C435.777 60.204 436.53 61.3264 437.48 62.2111C438.431 63.0958 439.547 63.756 440.828 64.1918ZM442.888 47.4153C443.482 47.2569 444.083 47.1777 444.69 47.1777C445.35 47.1777 445.971 47.2437 446.552 47.3757C447.133 47.5078 447.641 47.7455 448.077 48.0888C448.513 48.4321 448.856 48.8943 449.107 49.4753C449.358 50.0563 449.497 50.7825 449.523 51.654H439.738C439.765 50.8353 439.923 50.1355 440.214 49.5545C440.504 48.9735 440.874 48.5113 441.323 48.168C441.772 47.8247 442.294 47.5738 442.888 47.4153ZM463.586 43.3747H458.357V64.37H463.586V55.8531H472.539V64.37H477.768V43.3747H472.539V51.4956H463.586V43.3747ZM487.632 47.7323H480.937V43.3747H499.555V47.7323H492.861V64.37H487.632V47.7323ZM502.724 43.3747H507.597V46.4646C508.125 45.5139 508.957 44.682 510.092 43.9689C511.228 43.2559 512.667 42.8994 514.41 42.8994C517.21 42.8994 519.395 43.7643 520.966 45.4941C522.538 47.2239 523.324 49.8186 523.324 53.2782V54.0705C523.324 57.6885 522.525 60.3889 520.927 62.1715C519.329 63.9541 517.157 64.8454 514.41 64.8454C512.984 64.8454 511.723 64.5351 510.627 63.9145C509.531 63.2939 508.64 62.4818 507.953 61.4782V72.2928H502.724V43.3747ZM513.182 60.4087C514.556 60.4087 515.704 59.8871 516.629 58.8439C517.553 57.8008 518.015 56.2096 518.015 54.0705V53.2782C518.015 51.2975 517.566 49.812 516.668 48.8216C515.77 47.8313 514.608 47.3361 513.182 47.3361C511.677 47.3361 510.429 47.7653 509.439 48.6236C508.449 49.4819 507.953 50.7693 507.953 52.4859V54.8627C507.953 56.7378 508.435 58.1309 509.399 59.042C510.363 59.9531 511.624 60.4087 513.182 60.4087ZM116.094 84.6919H121.323V92.8127H130.275V84.6919H135.505V105.687H130.275V97.1703H121.323V105.687H116.094V84.6919ZM146.557 106.163C145.421 106.163 144.418 105.998 143.546 105.667C142.675 105.337 141.935 104.875 141.328 104.281C140.72 103.687 140.258 102.987 139.941 102.181C139.624 101.376 139.466 100.498 139.466 99.5471C139.466 95.3216 141.975 93.2089 146.993 93.2089H153.251V92.2185C153.251 90.8453 152.941 89.8813 152.321 89.3267C151.7 88.7721 150.716 88.4948 149.369 88.4948C148.181 88.4948 147.323 88.6995 146.794 89.1089C146.266 89.5182 145.963 90.0266 145.883 90.634H140.654C140.707 89.7361 140.938 88.891 141.348 88.0987C141.757 87.3064 142.338 86.6264 143.091 86.0586C143.843 85.4908 144.761 85.0418 145.844 84.7117C146.926 84.3816 148.168 84.2165 149.567 84.2165C150.914 84.2165 152.136 84.3618 153.232 84.6523C154.328 84.9428 155.265 85.4116 156.044 86.0586C156.823 86.7056 157.424 87.5441 157.847 88.5741C158.269 89.604 158.481 90.8453 158.481 92.2978V100.339C158.481 101.449 158.5 102.419 158.54 103.251C158.58 104.083 158.652 104.895 158.758 105.687H153.885C153.78 105.106 153.72 104.664 153.707 104.36C153.694 104.056 153.687 103.601 153.687 102.993C153.106 103.839 152.228 104.578 151.053 105.212C149.878 105.846 148.379 106.163 146.557 106.163ZM148.181 102.122C148.815 102.122 149.435 102.036 150.043 101.864C150.65 101.693 151.192 101.429 151.667 101.072C152.142 100.716 152.525 100.26 152.816 99.7055C153.106 99.1509 153.251 98.5039 153.251 97.7645V96.7741H147.983C146.979 96.7741 146.194 97.0052 145.626 97.4674C145.058 97.9295 144.774 98.5567 144.774 99.349C144.774 100.194 145.065 100.868 145.646 101.369C146.227 101.871 147.072 102.122 148.181 102.122ZM172.345 106.163C170.893 106.163 169.539 105.938 168.285 105.489C167.03 105.04 165.941 104.367 165.017 103.469C164.092 102.571 163.366 101.449 162.838 100.102C162.31 98.7548 162.046 97.1835 162.046 95.3876V94.5954C162.046 92.9052 162.323 91.4131 162.878 90.119C163.432 88.825 164.178 87.7422 165.116 86.8707C166.053 85.9992 167.143 85.3389 168.384 84.89C169.625 84.441 170.946 84.2165 172.345 84.2165C173.824 84.2165 175.138 84.4146 176.287 84.8108C177.436 85.2069 178.406 85.7483 179.199 86.4349C179.991 87.1216 180.611 87.927 181.06 88.8514C181.509 89.7757 181.773 90.766 181.853 91.8224H176.544C176.333 90.8453 175.904 90.0728 175.257 89.505C174.61 88.9372 173.639 88.6533 172.345 88.6533C171.659 88.6533 171.018 88.7721 170.424 89.0098C169.83 89.2475 169.302 89.6106 168.84 90.0992C168.377 90.5878 168.014 91.2018 167.75 91.9412C167.486 92.6807 167.354 93.5654 167.354 94.5954V95.3876C167.354 96.4968 167.479 97.4542 167.73 98.2596C167.981 99.0651 168.331 99.7253 168.78 100.24C169.229 100.755 169.757 101.132 170.365 101.369C170.972 101.607 171.632 101.726 172.345 101.726C173.375 101.726 174.267 101.455 175.019 100.914C175.772 100.372 176.28 99.5867 176.544 98.5567H181.853C181.721 99.7187 181.397 100.769 180.882 101.706C180.367 102.644 179.694 103.442 178.862 104.103C178.03 104.763 177.059 105.271 175.95 105.628C174.841 105.984 173.639 106.163 172.345 106.163ZM183.833 89.0494H190.528V105.687H195.757V89.0494H202.452V84.6919H183.833V89.0494ZM207.324 105.667C208.196 105.998 209.199 106.163 210.335 106.163C212.157 106.163 213.656 105.846 214.831 105.212C216.006 104.578 216.884 103.839 217.465 102.993C217.465 103.601 217.472 104.056 217.485 104.36C217.498 104.664 217.558 105.106 217.664 105.687H222.536C222.43 104.895 222.358 104.083 222.318 103.251C222.279 102.419 222.259 101.449 222.259 100.339V92.2978C222.259 90.8453 222.047 89.604 221.625 88.5741C221.202 87.5441 220.602 86.7056 219.822 86.0586C219.043 85.4116 218.106 84.9428 217.01 84.6523C215.914 84.3618 214.692 84.2165 213.346 84.2165C211.946 84.2165 210.705 84.3816 209.622 84.7117C208.539 85.0418 207.621 85.4908 206.869 86.0586C206.116 86.6264 205.535 87.3064 205.126 88.0987C204.716 88.891 204.485 89.7361 204.433 90.634H209.662C209.741 90.0266 210.044 89.5182 210.573 89.1089C211.101 88.6995 211.959 88.4948 213.148 88.4948C214.494 88.4948 215.478 88.7721 216.099 89.3267C216.719 89.8813 217.03 90.8453 217.03 92.2185V93.2089H210.771C205.753 93.2089 203.244 95.3216 203.244 99.5471C203.244 100.498 203.403 101.376 203.719 102.181C204.036 102.987 204.499 103.687 205.106 104.281C205.713 104.875 206.453 105.337 207.324 105.667ZM213.821 101.864C213.214 102.036 212.593 102.122 211.959 102.122C210.85 102.122 210.005 101.871 209.424 101.369C208.843 100.868 208.552 100.194 208.552 99.349C208.552 98.5567 208.836 97.9295 209.404 97.4674C209.972 97.0052 210.757 96.7741 211.761 96.7741H217.03V97.7645C217.03 98.5039 216.884 99.1509 216.594 99.7055C216.303 100.26 215.921 100.716 215.445 101.072C214.97 101.429 214.428 101.693 213.821 101.864ZM237.352 84.6919H226.814V105.687H238.144C240.732 105.687 242.66 105.146 243.927 104.063C245.195 102.98 245.829 101.528 245.829 99.7055C245.829 98.5171 245.466 97.4806 244.74 96.5959C244.013 95.7112 243.003 95.1103 241.709 94.7934C242.739 94.5029 243.551 93.9285 244.145 93.0702C244.74 92.2119 245.037 91.2942 245.037 90.3171C245.037 89.4984 244.891 88.7457 244.601 88.0591C244.31 87.3725 243.848 86.7782 243.214 86.2765C242.581 85.7747 241.782 85.3852 240.818 85.1079C239.854 84.8306 238.698 84.6919 237.352 84.6919ZM239.748 100.953C239.18 101.31 238.302 101.488 237.114 101.488H232.043V96.9722H237.114C238.355 96.9722 239.246 97.1505 239.788 97.507C240.329 97.8635 240.6 98.4379 240.6 99.2302C240.6 100.022 240.316 100.597 239.748 100.953ZM236.599 93.09C237.814 93.09 238.652 92.9184 239.114 92.5751C239.577 92.2317 239.808 91.7036 239.808 90.9905C239.808 90.3039 239.57 89.7823 239.095 89.4258C238.619 89.0692 237.787 88.891 236.599 88.891H232.043V93.09H236.599ZM249.592 84.6919H254.821V92.8127H263.774V84.6919H269.003V105.687H263.774V97.1703H254.821V105.687H249.592V84.6919ZM278.986 84.6919H273.757V105.687H278.59L287.938 92.2185V105.687H293.167V84.6919H288.335L278.986 98.1606V84.6919ZM310.32 97.9625C309.713 98.3323 308.986 98.6624 308.141 98.9529C307.296 99.2434 306.266 99.3886 305.052 99.3886C302.49 99.3886 300.562 98.7812 299.268 97.5664C297.974 96.3516 297.327 94.4369 297.327 91.8224V84.6919H302.556V91.2282C302.556 92.6015 302.846 93.5654 303.427 94.12C304.008 94.6746 305.012 94.9519 306.438 94.9519C307.442 94.9519 308.267 94.833 308.914 94.5954C309.561 94.3577 310.03 94.1332 310.32 93.9219V84.6919H315.549V105.687H310.32V97.9625ZM329.81 106.163C328.384 106.163 327.031 105.945 325.75 105.509C324.469 105.073 323.353 104.413 322.402 103.528C321.452 102.644 320.699 101.521 320.144 100.161C319.59 98.801 319.312 97.2099 319.312 95.3876V94.5954C319.312 92.8524 319.577 91.3338 320.105 90.0398C320.633 88.7457 321.359 87.6696 322.284 86.8113C323.208 85.953 324.277 85.3059 325.492 84.8702C326.707 84.4344 328.014 84.2165 329.414 84.2165C332.715 84.2165 335.224 85.0881 336.941 86.8311C338.657 88.5741 339.516 91.0961 339.516 94.3973V96.6157H324.66C324.687 97.54 324.845 98.3389 325.136 99.0123C325.426 99.6857 325.809 100.234 326.285 100.656C326.76 101.079 327.308 101.389 327.928 101.587C328.549 101.785 329.176 101.884 329.81 101.884C331.157 101.884 332.174 101.686 332.86 101.29C333.547 100.894 334.036 100.313 334.326 99.5471H339.119C338.697 101.739 337.654 103.39 335.99 104.499C334.326 105.608 332.266 106.163 329.81 106.163ZM329.612 88.4948C329.005 88.4948 328.404 88.5741 327.81 88.7325C327.215 88.891 326.694 89.1419 326.245 89.4852C325.796 89.8285 325.426 90.2907 325.136 90.8717C324.845 91.4527 324.687 92.1525 324.66 92.9712H334.445C334.419 92.0997 334.28 91.3734 334.029 90.7924C333.778 90.2114 333.435 89.7493 332.999 89.406C332.563 89.0626 332.055 88.825 331.474 88.6929C330.893 88.5609 330.272 88.4948 329.612 88.4948ZM352.588 106.163C351.136 106.163 349.782 105.938 348.528 105.489C347.273 105.04 346.184 104.367 345.26 103.469C344.335 102.571 343.609 101.449 343.081 100.102C342.553 98.7548 342.288 97.1835 342.288 95.3876V94.5954C342.288 92.9052 342.566 91.4131 343.12 90.119C343.675 88.825 344.421 87.7422 345.359 86.8707C346.296 85.9992 347.385 85.3389 348.627 84.89C349.868 84.441 351.188 84.2165 352.588 84.2165C354.067 84.2165 355.381 84.4146 356.53 84.8108C357.678 85.2069 358.649 85.7483 359.441 86.4349C360.234 87.1216 360.854 87.927 361.303 88.8514C361.752 89.7757 362.016 90.766 362.095 91.8224H356.787C356.576 90.8453 356.147 90.0728 355.5 89.505C354.853 88.9372 353.882 88.6533 352.588 88.6533C351.901 88.6533 351.261 88.7721 350.667 89.0098C350.073 89.2475 349.544 89.6106 349.082 90.0992C348.62 90.5878 348.257 91.2018 347.993 91.9412C347.729 92.6807 347.597 93.5654 347.597 94.5954V95.3876C347.597 96.4968 347.722 97.4542 347.973 98.2596C348.224 99.0651 348.574 99.7253 349.023 100.24C349.472 100.755 350 101.132 350.607 101.369C351.215 101.607 351.875 101.726 352.588 101.726C353.618 101.726 354.509 101.455 355.262 100.914C356.015 100.372 356.523 99.5867 356.787 98.5567H362.095C361.963 99.7187 361.64 100.769 361.125 101.706C360.61 102.644 359.936 103.442 359.105 104.103C358.273 104.763 357.302 105.271 356.193 105.628C355.084 105.984 353.882 106.163 352.588 106.163ZM364.076 89.0494H370.771V105.687H376V89.0494H382.695V84.6919H364.076V89.0494ZM385.864 84.6919H396.401C397.748 84.6919 398.903 84.8306 399.867 85.1079C400.831 85.3852 401.63 85.7747 402.264 86.2765C402.898 86.7782 403.36 87.3725 403.65 88.0591C403.941 88.7457 404.086 89.4984 404.086 90.3171C404.086 91.2942 403.789 92.2119 403.195 93.0702C402.6 93.9285 401.788 94.5029 400.758 94.7934C402.052 95.1103 403.063 95.7112 403.789 96.5959C404.515 97.4806 404.878 98.5171 404.878 99.7055C404.878 101.528 404.244 102.98 402.977 104.063C401.709 105.146 399.781 105.687 397.193 105.687H385.864V84.6919ZM396.163 101.488C397.352 101.488 398.23 101.31 398.798 100.953C399.365 100.597 399.649 100.022 399.649 99.2302C399.649 98.4379 399.379 97.8635 398.837 97.507C398.296 97.1505 397.404 96.9722 396.163 96.9722H391.093V101.488H396.163ZM398.164 92.5751C397.702 92.9184 396.863 93.09 395.648 93.09H391.093V88.891H395.648C396.837 88.891 397.669 89.0692 398.144 89.4258C398.619 89.7823 398.857 90.3039 398.857 90.9905C398.857 91.7036 398.626 92.2317 398.164 92.5751ZM414.94 106.163C413.805 106.163 412.801 105.998 411.93 105.667C411.058 105.337 410.319 104.875 409.711 104.281C409.104 103.687 408.642 102.987 408.325 102.181C408.008 101.376 407.849 100.498 407.849 99.5471C407.849 95.3216 410.358 93.2089 415.376 93.2089H421.635V92.2185C421.635 90.8453 421.325 89.8813 420.704 89.3267C420.083 88.7721 419.1 88.4948 417.753 88.4948C416.564 88.4948 415.706 88.6995 415.178 89.1089C414.65 89.5182 414.346 90.0266 414.267 90.634H409.038C409.091 89.7361 409.322 88.891 409.731 88.0987C410.14 87.3064 410.721 86.6264 411.474 86.0586C412.227 85.4908 413.144 85.0418 414.227 84.7117C415.31 84.3816 416.551 84.2165 417.951 84.2165C419.298 84.2165 420.519 84.3618 421.615 84.6523C422.711 84.9428 423.649 85.4116 424.428 86.0586C425.207 86.7056 425.808 87.5441 426.23 88.5741C426.653 89.604 426.864 90.8453 426.864 92.2978V100.339C426.864 101.449 426.884 102.419 426.923 103.251C426.963 104.083 427.036 104.895 427.141 105.687H422.269C422.163 105.106 422.104 104.664 422.09 104.36C422.077 104.056 422.071 103.601 422.071 102.993C421.49 103.839 420.612 104.578 419.436 105.212C418.261 105.846 416.762 106.163 414.94 106.163ZM416.564 102.122C417.198 102.122 417.819 102.036 418.426 101.864C419.034 101.693 419.575 101.429 420.05 101.072C420.526 100.716 420.909 100.26 421.199 99.7055C421.49 99.1509 421.635 98.5039 421.635 97.7645V96.7741H416.366C415.363 96.7741 414.577 97.0052 414.009 97.4674C413.441 97.9295 413.158 98.5567 413.158 99.349C413.158 100.194 413.448 100.868 414.029 101.369C414.61 101.871 415.455 102.122 416.564 102.122Z" fill="url(#gradient-pr)"/>
        <path fill-rule="evenodd" clip-rule="evenodd" d="M70.0803 101.583H57.5859V91.7926H40.9273V101.583H28.4347V87.6284H70.0803V101.583ZM42.4564 33.4883H56.055L63.1939 83.4642H35.3175L42.4564 33.4883ZM38.8452 29.3241H59.668V25.1599H38.8452V29.3241ZM43.0094 20.9939H55.5038V12.6655H43.0094V20.9939ZM49.2575 5.50169L53.0056 8.50127H45.5093L49.2575 5.50169ZM88.7055 87.8435V83.4642H74.2445H73.4711H67.4026L60.2637 33.4883H63.8322V20.9957H59.668V8.50127L49.2575 0.172852L38.8452 8.50127V20.9957H34.681V33.4883H38.2513L31.1124 83.4642H26.3063H24.2687H11.8472V87.8435H24.2687V92.4149H11.8472V96.796H24.2705V101.367H11.8472V105.747H24.2705H26.3063H45.0933V95.9586H53.4217V105.747H73.3733H74.2445H88.7055V101.367H74.2445V96.796H88.7055V92.4149H74.2445V87.8435H88.7055Z" fill="white"/>
        <path fill-rule="evenodd" clip-rule="evenodd" d="M68.3022 18.6046L97.8233 31.2145V26.0973L68.3022 13.4873V18.6046Z" fill="url(#paint1_linear_185_2)"/>
        <path fill-rule="evenodd" clip-rule="evenodd" d="M68.3022 34.0323L97.8233 63.5534V57.3355L68.3022 27.8145V34.0323Z" fill="url(#paint2_linear_185_2)"/>
        <path fill-rule="evenodd" clip-rule="evenodd" d="M29.5206 18.3414L-0.000488281 30.9513V25.8341L29.5206 13.2241V18.3414Z" fill="url(#paint3_linear_185_2)"/>
        <path fill-rule="evenodd" clip-rule="evenodd" d="M29.5206 33.7696L-0.000488281 63.2907V57.0728L29.5206 27.5518V33.7696Z" fill="url(#paint4_linear_185_2)"/>
        <path fill-rule="evenodd" clip-rule="evenodd" d="M58.4771 53.9556H39.9854L41.4078 44.0571L57.0974 44.0642L58.4771 53.9556Z" fill="#6F96C3"/>
        <path fill-rule="evenodd" clip-rule="evenodd" d="M61.1267 73.9624L37.3701 74.0068L38.7855 64.1084L59.8305 64.1102L61.1267 73.9624Z" fill="#6F96C3"/>
        <defs>
        <linearGradient id="gradient-pr" x1="540.636" y1="32.5725" x2="102.608" y2="32.5725" gradientUnits="userSpaceOnUse">
        <stop offset="0.000872419" stop-color="white" stop-opacity="0.0869175" />
        <stop offset="0.525315" stop-color="white" />
        <stop offset="1" stop-color="white" stop-opacity="0.089055" />
        <animate  attributeName="x1" values="400; 750; 400" dur="5s" repeatCount="indefinite"  /> 
        <animate  attributeName="x2" values="0; 160; 0; " dur="5s" repeatCount="indefinite"  /> 
        </linearGradient>
        <linearGradient id="paint1_linear_185_2" x1="97.8233" y1="13.573" x2="68.5876" y2="13.573" gradientUnits="userSpaceOnUse">
        <stop stop-color="white"/>
        <stop offset="1" stop-color="#E7B65D"/>
        </linearGradient>
        <linearGradient id="paint2_linear_185_2" x1="97.8233" y1="27.9872" x2="68.5876" y2="27.9872" gradientUnits="userSpaceOnUse">
        <stop stop-color="white"/>
        <stop offset="1" stop-color="#E7B65D"/>
        </linearGradient>
        <linearGradient id="paint3_linear_185_2" x1="29.5206" y1="13.3098" x2="0.284829" y2="13.3098" gradientUnits="userSpaceOnUse">
        <stop stop-color="#E7B65D"/>
        <stop offset="1" stop-color="white"/>
        </linearGradient>
        <linearGradient id="paint4_linear_185_2" x1="29.5206" y1="27.7245" x2="0.284829" y2="27.7245" gradientUnits="userSpaceOnUse">
        <stop stop-color="#E7B65D"/>
        <stop offset="1" stop-color="white"/>
        </linearGradient>
        </defs>
        </svg>