<svg width="157" height="157" fill="none" xmlns="http://www.w3.org/2000/svg"><path fill-rule="evenodd" clip-rule="evenodd" d="M103.833 106.72V91.152l.959.62c1.024.66 1.996 1.287 2.949 1.942.151.104.23.497.166.7-1.311 4.113-2.647 8.218-4.074 12.306zM89.598 91.872h.001c.362-.237.733-.48 1.12-.727v15.947c-.22-.677-.436-1.334-.647-1.978-.456-1.387-.89-2.713-1.32-4.039-.228-.706-.453-1.414-.678-2.12-.443-1.396-.886-2.79-1.36-4.175-.218-.639-.173-1.018.454-1.382.81-.468 1.593-.98 2.43-1.526zm19.093-78.571 7.362-7.353v1.588c1.647-.258 2.12.86 2.572 1.932l.097.228c.252.584.439 1.194.627 1.805.11.357.22.714.342 1.066.177.506.037.736-.504.735-2.668-.002-5.335-.002-7.941-.002h-2.555zm11.112 16.413c-2.899-4.485-5.574-8.82-7.518-13.789.487 0 .964-.001 1.435-.003h.001c1.503-.004 2.931-.008 4.357.034.235.007.595.403.663.677.091.367.189.734.287 1.102.325 1.22.652 2.446.729 3.685.116 1.865.092 3.74.067 5.699-.01.847-.021 1.71-.021 2.596zM94.496 84.297l-8.688 6.934-1.64-6.285-1.17-4.478 11.498 3.83zm10.512-1.746 6.261-2.088-2.812 10.771-8.689-6.937 5.24-1.746zm17.4-45.227v-1.462c0-.516.001-1.032.003-1.547v-.01c.004-1.392.009-2.783-.012-4.175-.01-.682.208-.937.925-.945 3.593-.037 6.594 2.37 7.059 5.719.483 3.482-1.637 6.633-5.055 7.511-2.534.65-2.921.364-2.92-2.165v-2.926zm-50.488-2.82-.002 1.431-.002 1.582c-.003 1.413-.005 2.826.009 4.239.005.55-.167.803-.755.846-4.119.297-7.533-2.866-7.346-6.963.183-3.994 3.533-6.745 7.532-6.401.208.018.53.51.537.788.035 1.492.031 2.985.027 4.479zM98.342 2.638c.448.005.913.01 1.403.01l-.871 1.089-1.378 1.72c-.47.587-.938 1.175-1.406 1.763-1.45 1.819-2.9 3.638-4.381 5.43-.276.334-.817.604-1.249.626-.914.046-1.83.04-2.747.034-.578-.003-1.156-.007-1.734.002-.603.01-.867-.19-.856-.825.013-.698.011-1.396.01-2.094-.003-.886-.005-1.772.022-2.657.01-.338.203-.767.457-.988 2.89-2.51 6.248-3.917 10.085-4.09.856-.04 1.714-.03 2.645-.02zM81.697 7.643c.271-.025.554-.051.85-.088-.085 1-.062 1.99-.04 2.97.05 2.21.098 4.365-1.09 6.437-1.6 2.794-3.113 5.637-4.626 8.48v.001l-.001.001v.001h-.001c-.674 1.267-1.349 2.534-2.03 3.796-.04.074-.094.14-.173.24-.047.059-.102.128-.17.217-.007-.13-.014-.238-.021-.333a5.93 5.93 0 0 1-.02-.426l.006-2.75c.008-3.353.015-6.705.034-10.057.01-1.899.231-3.729 1.353-5.38 1.075-1.582 2.589-2.421 4.356-2.88.494-.13 1.01-.177 1.573-.229zM30.555 106.54c-3.707-.022-6.685-3.078-6.64-6.813-.031-3.398 2.614-6.586 6.699-6.644 3.684-.053 6.721 3.126 6.686 6.792-.035 3.621-3.137 6.686-6.745 6.665zm51.084 20.213-.206.142-.238 3.074V129.977c-.203 2.598-.405 5.197-.6 7.797-.052.704-.092 1.41-.131 2.116v.002c-.04.694-.078 1.387-.13 2.08-.085 1.16-.173 1.22-1.286.978-1-.218-1.998-.439-2.997-.659l-.011-.003h-.002v-.001h-.001a479.87 479.87 0 0 0-5.809-1.259c-.66-.138-.86-.316-.747-1.058.715-4.68 1.37-9.37 2.01-14.061.078-.571.276-.795.838-.758l2.324.147h.008c2.082.129 4.162.258 6.238.441.187.017.35.319.511.621.076.14.15.28.229.392zm.82-53.07c-.003-.422-.006-.85-.006-1.286.463.167.906.337 1.338.502.957.367 1.856.712 2.783.952 1.199.31 2.459.511 3.695.53 2.42.035 4.84.033 7.26.03 2-.002 4-.004 6 .016 2.472.024 4.779-.57 7.008-1.573.214-.096.431-.185.679-.287.126-.051.26-.106.405-.167.022.099.047.188.07.272.046.165.085.307.087.45.006.524.004 1.048.003 1.572-.002.73-.004 1.46.013 2.19.013.548-.232.802-.72.964-1.548.514-3.095 1.03-4.642 1.546l-.008.003c-2.914.972-5.829 1.945-8.75 2.9-.36.118-.833.066-1.205-.056-2.053-.673-4.103-1.356-6.152-2.039h-.002c-2.336-.778-4.671-1.556-7.011-2.32-.657-.215-.886-.542-.864-1.219.031-.982.025-1.966.018-2.977v-.002zm42.57 52.188-.002-.001-2.323-.131.201-.105.234-.122c.206-.107.35-.182.494-.254l3.214-1.611c4.101-2.056 8.202-4.112 12.313-6.146a4.029 4.029 0 0 1 1.699-.408c2.178-.018 4.356-.018 6.535-.018 2.002 0 4.005 0 6.008-.014.757-.005 1.056.187 1.044 1.001a289.35 289.35 0 0 0 0 8.69c.013.84-.313 1.004-1.063.951a974.083 974.083 0 0 0-6.83-.445H146.54c-1.409-.089-2.817-.177-4.225-.269-1.975-.13-3.951-.263-5.926-.397H136.378a2509.7 2509.7 0 0 0-6.736-.449 501.917 501.917 0 0 0-4.611-.272h-.002zm-23.865-24.89-.001 3.213c0 1.319.009 2.638.017 3.957.021 3.284.043 6.569-.067 9.85-.045 1.341-.382 2.674-.718 4.004v.001h-.001v.002c-.126.497-.251.993-.361 1.49-.041.184-.374.426-.577.431a74.753 74.753 0 0 1-4.64-.005c-.236-.008-.59-.392-.667-.665-.686-2.441-1.17-4.885-1.14-7.473.083-7.277.06-14.554.035-21.832-.004-1.42-.01-2.84-.013-4.26-.002-.706.209-1.166.772-1.578.94-.686 1.85-1.418 2.73-2.181.46-.4.82-.4 1.218.024.026.028.057.05.087.074l.052.04c.326.274.689.53 1.052.787.83.587 1.659 1.173 2.048 1.974.386.792.309 1.812.233 2.828-.032.418-.063.834-.062 1.234.005 2.695.004 5.39.003 8.085zm-19.823 49.063.15.224-3.54.771-8.193 1.784c-2.328.506-4.657 1.01-6.988 1.508-.26.056-.529.1-.793.1l-3.176.005h-.007c-4.107.006-8.213.012-12.32-.007-3.11-.015-5.837-2.281-6.475-5.317a4.094 4.094 0 0 1-.079-.8c-.007-.833-.012-1.667-.017-2.5a487.223 487.223 0 0 0-.033-3.861c-.009-.636.231-.929.89-.922 1.25.012 2.5.004 3.75-.004 2.665-.017 5.33-.033 7.982.143 2.235.149 4.456.498 6.678.848 1.225.193 2.45.386 3.678.545 5.5.714 10.934 1.77 16.332 3.027.478.112.953.252.795.836-.381 1.414.32 2.405 1.18 3.361.062.069.113.148.186.259zm32.641-69.727.034-.102.074-.228c.608.115 1.214.23 1.815.342h.003c2.2.414 4.359.82 6.511 1.256.25.05.53.37.639.63 1.168 2.79 2.327 5.585 3.487 8.379l.001.002.001.002.001.004.002.004.001.004.002.003.003.007c1.034 2.491 2.067 4.982 3.107 7.47.275.658.016.822-.576.939-3.51.69-7.017 1.402-10.521 2.121-1.264.26-1.579.777-1.269 2.037l.16.651.197.8a457.45 457.45 0 0 0 1.838 7.317c.159.608.029 1.005-.367 1.442-1.084 1.195-2.163 2.394-3.243 3.593v.001h-.001v.001h-.001v.001h-.001a866.056 866.056 0 0 1-5.235 5.781c-.29.316-.8.558-1.23.597-1.248.112-2.5.185-3.751.259-.715.042-1.43.085-2.145.134-.749.051-.831-.233-.654-.907 1.899-7.244 3.784-14.492 5.669-21.74l.001-.002v-.002l.001-.003.001-.002v-.002l1.976-7.593c1.073-4.124 2.152-8.246 3.231-12.368l.093-.355c.038-.147.086-.292.146-.473zM64.691 98.89c-.108-.03-.226-.062-.36-.097l.463-1.12 2.02-4.882 1.067-2.572c1.074-2.589 2.148-5.178 3.204-7.774.223-.548.494-.859 1.118-.967 2.377-.41 4.746-.875 7.113-1.343.682-.135.98.052 1.166.77 2.71 10.473 5.436 20.94 8.162 31.408l.008.031 2.745 10.542c.043.164.065.333.09.539.014.108.03.226.05.358l-.69-.039-.511-.028a884.615 884.615 0 0 1-3.333-.189 2.564 2.564 0 0 1-.31-.044c-.166-.032-.332-.063-.49-.037-1.577.254-2.58-.519-3.563-1.669-2.425-2.839-4.95-5.594-7.475-8.347-.471-.513-.534-.965-.37-1.597.598-2.311 1.173-4.63 1.748-6.947v-.004l.405-1.63c.33-1.327.032-1.836-1.293-2.11-2.243-.462-4.487-.915-6.731-1.368h-.003l-.004-.001-.003-.001c-1.23-.248-2.459-.496-3.687-.746a7.993 7.993 0 0 1-.536-.136zm-24.817 31.443-.003-2.623.003-2.56a555.85 555.85 0 0 0-.017-6.942c-.009-.824.203-1.162 1.103-1.153 2.437.025 4.874.024 7.312.024 1.776 0 3.552-.001 5.329.009.428.002.894.113 1.279.303 1.95.966 3.899 1.939 5.846 2.912 2.515 1.257 5.03 2.513 7.553 3.753.71.35.804.764.695 1.488a731.04 731.04 0 0 0-.933 6.461v.001c-.317 2.241-.635 4.483-.973 6.72-.046.307-.074.565-.097.779-.05.458-.078.719-.223.848-.191.171-.587.113-1.505-.023l-.192-.028-1.234-.181c-3.745-.55-7.491-1.1-11.246-1.582-.89-.115-1.797-.097-2.703-.079-.353.007-.706.013-1.057.013l-1.767-.008c-2.01-.01-4.022-.02-6.032.026-.937.022-1.168-.316-1.157-1.189.029-2.323.024-4.646.02-6.969zM10.404 2.649c.063.003.137.006.227.006V16.154c0 31.477-.001 62.955.02 94.432 0 .944-.229 1.383-1.209 1.547-1.922.32-3.588 1.258-5.124 2.435-.333.255-.67.505-1.052.79l-.6.446a31.502 31.502 0 0 0-.024-.391c-.015-.218-.027-.396-.027-.575 0-8.512 0-17.025.002-25.537.002-25.703.004-51.406-.025-77.108-.005-3.844 2.17-8.08 7.56-9.534a.835.835 0 0 1 .252-.01zm69.613 120.02.002.002v.001c.094.116.2.249.327.403l-1.493-.069h-.005c-1.038-.047-1.994-.09-2.949-.151l-.645-.039c-1.066-.063-2.134-.126-3.186-.285a10.012 10.012 0 0 1-2.615-.751c-1.007-.455-1.993-.958-2.979-1.46v-.001c-.665-.338-1.329-.677-2-1.001-.5-.242-.69-.558-.681-1.112.013-.802.01-1.605.006-2.407a97.096 97.096 0 0 1 .019-2.971c.02-.781-.24-1.053-1.02-1.05l-.087.001c-1.496.006-1.5.006-1.502 1.577v4.311c-.26-.129-.503-.243-.733-.35-.462-.215-.87-.405-1.245-.644-2.867-1.826-5.953-2.497-9.363-2.258-1.963.137-3.937.107-5.912.077a131.393 131.393 0 0 0-3.139-.023c-.696.006-.955-.235-.95-.933.012-2.08.015-4.159.018-6.238v-.001c.004-2.731.007-5.462.033-8.192.057-6.05 4.551-12.329 11.736-13.758 3.838-.763 7.685-1.48 11.532-2.197 1.483-.276 2.966-.553 4.448-.832.107-.02.218-.016.373-.01h.002c.088.003.19.006.312.006a29.4 29.4 0 0 0-.13.383c-.08.241-.15.454-.236.661-1.21 2.928-2.421 5.855-3.633 8.781l-.002.005-2.696 6.517c-.663 1.603-.382 2.161 1.312 2.511 2.169.448 4.34.886 6.51 1.324l3.83.775c.188.039.374.091.591.153.113.032.234.066.368.102l-1.313 5.32c-.084.34-.163.682-.243 1.023-.183.793-.367 1.585-.61 2.359-.29.924-.024 1.584.6 2.263 1.791 1.95 3.56 3.919 5.327 5.889l1.582 1.761c.138.153.267.314.438.527v.001zm53.423-5.213-.407.18c0-.519-.003-1.021-.007-1.509-.008-1.13-.016-2.192.023-3.252.031-.825-.256-1.107-1.072-1.097l-.079.001c-1.463.017-1.473.017-1.474 1.52l-.005 1.315v.002c-.005 1.175-.011 2.351.016 3.525.014.63-.222.975-.781 1.244-.715.345-1.423.707-2.131 1.068-1.182.604-2.364 1.207-3.579 1.734-.728.315-1.584.379-2.407.439a31 31 0 0 1-.292.022c-1.596.125-3.195.214-4.793.303h-.001l-1.64.093c-.149.009-.298.007-.506.005h-.001c-.117-.001-.252-.003-.416-.003l.559-.633c.34-.385.645-.731.954-1.075.541-.602 1.081-1.206 1.621-1.81a357.446 357.446 0 0 1 4.568-5.044c.669-.72.829-1.418.58-2.355-.522-1.96-1.004-3.931-1.486-5.902-.154-.634-.309-1.267-.465-1.9a5.304 5.304 0 0 1-.096-.536c-.015-.102-.031-.211-.051-.33l1.614-.337c1.182-.246 2.343-.489 3.505-.725 1.176-.239 2.353-.474 3.53-.708l.006-.001.005-.002.006-.001c.952-.19 1.903-.379 2.855-.571 1.312-.265 1.683-.956 1.166-2.203-1.303-3.149-2.608-6.297-3.914-9.444l-.013-.032c-.851-2.053-1.703-4.105-2.553-6.159-.075-.179-.14-.361-.215-.569h-.001v-.002l-.045-.126-.077-.21c.095-.01.182-.024.261-.037.152-.026.279-.047.397-.024 1.583.3 3.167.593 4.752.886 3.983.738 7.967 1.475 11.927 2.324 5.841 1.252 10.338 6.417 10.978 12.394.149 1.397.156 2.813.164 4.223l.002.424c.01 1.552.008 3.104.006 4.656-.003 2.065-.005 4.13.019 6.194.011.846-.268 1.069-1.079 1.062a730.806 730.806 0 0 0-12.823.007c-.688.007-1.419.201-2.05.486-1.057.478-2.091 1.007-3.125 1.537l-.002.001c-.455.233-.91.466-1.367.695-.168.084-.341.16-.561.257zM94.864 42.597h-1.266L97.89 29.67l-2.347-.808-.172.417c-.114.272-.22.524-.306.783l-.535 1.6v.002c-1.12 3.343-2.238 6.685-3.33 10.036-.213.654-.56.877-1.23 1.056-1.193.318-2.372.789-3.464 1.37-2.519 1.338-5.49.768-7.114-1.502a4.716 4.716 0 0 1-.623-1.276c-.43-1.32-.851-2.644-1.273-3.968a573.29 573.29 0 0 0-1.49-4.636c-.189-.573-.095-1 .245-1.484 3.182-4.542 5.766-9.42 8.004-14.485.284-.642.632-.875 1.342-.872 7.651.026 15.303.026 22.954 0 .712-.002 1.054.224 1.317.888a61.568 61.568 0 0 0 8.091 14.408c.457.607.578 1.125.348 1.871-.618 2.012-1.193 4.038-1.769 6.063-.215.757-.43 1.515-.648 2.271-.932 3.244-4.268 4.707-7.306 3.202h-.001a4.159 4.159 0 0 1-.622-.354c-1.714-1.257-3.664-1.667-5.745-1.656-1.713.01-3.425.007-5.138.005l-2.214-.003zm-20.17.118v-.002c.012-.861.025-1.731.025-2.613l.692 1.081.002.004c.49.767.97 1.518 1.455 2.268 2.602 4.032 7.062 5.106 11.213 2.677 1.114-.652 2.28-.981 3.572-.974 3.675.02 7.35.017 11.026.002 1.326-.006 2.516.355 3.632 1.069 4.018 2.571 8.362 1.804 11.259-1.964l1.315-1.709.837-1.088c.025.092.048.167.068.232a.96.96 0 0 1 .061.272c.036 5.882-.672 11.654-2.425 17.291-.836 2.69-1.753 5.336-3.489 7.584-2.573 3.331-6.06 4.982-10.229 5.063-3.163.062-6.327.046-9.492.03-1.169-.005-2.337-.01-3.506-.012-5.425-.009-10.143-3.217-12.227-8.266-2.04-4.942-3.426-10.052-3.737-15.398-.107-1.83-.08-3.668-.052-5.546v-.001zm79.735 47.27-.297.192-.247-.338a12.917 12.917 0 0 0-.544-.715c-3.326-3.976-7.654-5.956-12.718-6.811-5.706-.963-11.392-2.041-17.079-3.118h-.002v-.001h-.002c-2.716-.515-5.432-1.03-8.151-1.532-.722-.134-1.058-.404-1.027-1.226.043-1.117.037-2.235.032-3.354-.004-.735-.007-1.47.002-2.204.005-.335.06-.774.272-.984 2.594-2.574 3.83-5.86 4.946-9.223 1.56-4.702 2.392-9.536 2.63-14.472.04-.835.284-1.085 1.099-1.048 4.405.2 7.735-2.608 8.984-5.751 2.317-5.833-1.437-11.982-7.744-12.663-.48-.052-.667-.23-.701-.716l-.003-.036c-.073-1.035-.11-1.556.134-1.82.247-.267.783-.267 1.864-.267h5.43l21.741.001c1.38 0 1.381.004 1.381 1.385V89.985zm0 41.766v7.888l.001 1.508v.978c.001 1.8.002 3.601-.002 5.402-.01 3.953-2.962 6.901-6.923 6.907-1.341.001-2.682.009-4.023.017-3.68.022-7.36.044-11.036-.06-1.626-.046-3.247-.334-4.865-.622h-.001l-.001-.001c-.617-.109-1.234-.219-1.851-.315-3.048-.476-6.095-.959-9.142-1.443-2.043-.325-4.086-.649-6.13-.971-2.096-.33-4.192-.657-6.289-.985l-.025-.004c-2.634-.411-5.268-.822-7.902-1.239-1.56-.247-3.118-.498-4.677-.748-2.736-.441-5.471-.881-8.21-1.299-.643-.098-.782-.377-.741-.945.104-1.443.202-2.887.3-4.331v-.005c.101-1.5.203-3.001.311-4.501.078-1.066.164-2.132.25-3.198v-.001c.15-1.846.3-3.693.402-5.543l.01-.176c.113-2.085.116-2.135 2.297-2.012 2.692.151 5.381.329 8.07.507 1.746.116 3.49.231 5.236.339 1.673.104 3.346.198 5.02.292h.007c1.72.097 3.44.193 5.159.3 2.456.153 4.912.315 7.367.477h.01l.011.001.011.001h.011l.012.001.011.001.011.001h.011l.011.001c1.797.118 3.595.237 5.393.352 1.232.078 2.465.15 3.698.222l.012.001h.003c1.055.062 2.111.123 3.166.189 1.92.12 3.84.243 5.76.365h.012l.002.001c2.541.161 5.081.323 7.622.48l.502.031h.002c3.197.197 6.395.394 9.594.554l.123.006c1.398.069 1.4.069 1.4 1.577zM38.471 93.554v.002l-.349.722c-2.455-2.704-5.327-4.095-8.863-3.65-2.107.266-3.913 1.217-5.407 2.753a9.217 9.217 0 0 0-1.14 11.393c1.58 2.457 3.862 3.862 6.756 4.225 2.89.364 5.36-.785 7.834-2.495v25.405c0 1.189-.003 1.193-1.181 1.193l-6.319.001c-5.875.002-11.75.004-17.626-.005-4.82-.007-8.447-2.981-9.422-7.685-1.014-4.897 2.46-9.959 7.444-10.836a17.42 17.42 0 0 1 1.597-.183c.922-.074 1.39-.55 1.424-1.494.008-.233.006-.466.005-.699l-.002-.288V25.198c0-1.354 0-1.356 1.394-1.356h5.17c16.362 0 32.724 0 49.086.013.473 0 1.315.11 1.354.3.15.726.08 1.504.013 2.258l-.003.036c-.01.113-.434.25-.676.273-4.602.432-8.115 4.154-8.275 9.05-.15 4.596 3.12 8.393 7.463 9.201.698.13 1.423.194 2.132.172.728-.022 1.062.153 1.135.96l.075.84c.19 2.155.382 4.315.754 6.44.837 4.779 2.133 9.43 4.55 13.69.38.67.848 1.32 1.396 1.856.807.787 1.141 1.644 1.076 2.782-.093 1.61-.054 3.228-.01 4.841.018.674-.234.965-.874 1.082-4.573.84-9.145 1.69-13.714 2.551-1.416.267-2.834.523-4.252.78h-.006c-3.538.64-7.076 1.28-10.577 2.083-5.263 1.207-9.02 4.467-11.388 9.317-.182.373-.362.746-.574 1.187zm74.941-91.3c.37-.154.752-.312 1.161-.452-.16-.088-.293-.165-.41-.233h-.001c-.215-.124-.376-.217-.546-.292a14.467 14.467 0 0 0-5.908-1.258l-1.601-.006c-3.203-.013-6.406-.026-9.608.012-4.282.05-8.187 1.334-11.544 4.001-1.075.854-2.096 1.214-3.463 1.206-5.302-.032-9.543 4.264-9.572 9.561-.006 1.18-.005 2.36-.004 3.54.001.583.002 1.167.001 1.75 0 1.265 0 1.266-1.286 1.266H14.496c-1.273 0-1.274-.001-1.274-1.277V14.47c0-4.23 0-8.461-.003-12.692 0-1.31-.507-1.857-1.79-1.733-1.09.107-2.2.282-3.237.622C3.16 2.321.003 6.865.002 12.381 0 42.83.002 73.278.003 103.726V123.3l-.001.2c-.002.232-.003.465.012.696.191 2.863 1.158 5.411 3.109 7.548 2.486 2.724 5.627 3.957 9.266 3.965 7.95.018 15.902.016 23.853-.008.81-.003 1.088.218 1.079 1.062-.041 3.796-.05 7.592-.005 11.388.055 4.549 4.038 8.645 8.58 8.73 3.96.074 7.922.075 11.884.077 1.388.001 2.776.001 4.165.005.445.001.9-.038 1.335-.132 3.62-.785 7.237-1.574 10.856-2.362l.008-.002c4.971-1.083 9.942-2.165 14.914-3.24.194-.042.39-.088.587-.135.828-.196 1.677-.397 2.472-.291 3.273.436 6.535.958 9.796 1.48h.004l.001.001h.004l.002.001c1.03.164 2.061.329 3.091.491 2.231.351 4.462.705 6.692 1.058 2.891.458 5.781.916 8.672 1.368 1.1.173 2.2.371 3.299.569 2.579.465 5.157.931 7.752 1.06 5.429.271 10.882.162 16.323.053l.436-.009c3.632-.073 6.225-1.985 7.874-5.196.861-1.679.935-3.498.936-5.326l.001-102.018V23.97l.001-.117c0-.205.001-.41-.005-.616-.041-1.537-.398-1.889-1.932-1.889h-31.385c-.073 0-.15.007-.227.014-.174.016-.349.032-.481-.035-.265-.134-.607-.362-.667-.61-.147-.608-.265-1.224-.383-1.839a37.753 37.753 0 0 0-.424-2.007c-.137-.544-.024-.869.332-1.272.271-.307.504-.785.495-1.18-.118-4.78-2.114-8.612-5.893-11.539-.585-.453-.95-.456-1.493.096a804.072 804.072 0 0 1-9.705 9.696c-.34.334-.914.594-1.385.604-2.272.044-4.545.036-6.817.029l-1.701-.005c-.14 0-.279-.024-.45-.052a10.211 10.211 0 0 0-.307-.046l1.51-1.884.002-.003c2.246-2.803 4.444-5.547 6.656-8.28.165-.203.498-.388.75-.384.572.008 1.147.006 1.722.003 1.642-.007 3.285-.015 4.885.244 1.269.206 2.244-.2 3.315-.645zM23.92 41.252c-.008-3.772 2.918-6.69 6.7-6.684 3.677.007 6.677 2.996 6.68 6.66.005 3.709-3 6.685-6.746 6.682-3.721-.004-6.626-2.92-6.634-6.658zm6.526 9.272c5.1.081 9.263-4 9.375-9.194.109-5.031-4.021-9.284-9.104-9.375-4.879-.087-9.253 3.994-9.374 8.746-.139 5.412 3.872 9.74 9.103 9.823zm20.6.59.187.796v.001l.001.001c.138.59.276 1.179.42 1.766.07.286.138.573.207.86.224.93.447 1.862.714 2.781.193.67.047.968-.655 1.134l-.428.103h-.004c-.667.163-.965.235-1.132.12-.135-.095-.184-.313-.272-.708-.04-.179-.088-.394-.156-.65-.59-2.22-1.126-4.452-1.663-6.685l-.206-.858c-.255-1.06.14-1.653 1.209-1.863 1.075-.21 2.15-.418 3.225-.626h.001c1.878-.363 3.756-.725 5.63-1.105.569-.115.806.036.947.59.445 1.754.437 1.786-1.347 2.125-1.151.219-2.302.444-3.566.799 8.338 5.301 10.772 12.943 9.283 22.18-.07.027-.12.05-.16.068-.061.028-.094.043-.125.04l-.009-.002c-2.074-.279-2.152-.29-1.963-2.343.292-3.17.036-6.252-1.09-9.242-1.15-3.057-3.111-5.485-5.772-7.354-.697-.49-1.408-.958-2.119-1.427-.324-.215-.648-.428-.971-.644l-.185.143zM28.86 70.618l-6.2 5.992 1.858 1.838 6.008-6.146 6.326 6.276c.126-.166.24-.327.346-.48.224-.318.423-.601.673-.829.524-.476.506-.801-.003-1.293a234.78 234.78 0 0 1-3.687-3.66v-.001l-1.074-1.08a9.42 9.42 0 0 1-.441-.488l-.002-.002-.231-.265 1.511-1.507a503.269 503.269 0 0 0 3.357-3.364c.181-.185.338-.337.471-.465v-.001c.367-.355.55-.532.552-.71.002-.178-.174-.357-.525-.714h-.001v-.001c-.142-.144-.311-.316-.508-.529-.483-.52-.785-.413-1.226.04-1.263 1.294-2.545 2.569-3.828 3.844l-.002.003c-.347.345-.695.69-1.042 1.037-.12.119-.248.229-.402.36l-.264.23-1.46-1.476-.005-.005a1426.79 1426.79 0 0 0-3.114-3.14c-1.572-1.58-1.575-1.578-3.022.129a.507.507 0 0 0-.076.167c-.016.045-.034.097-.059.16l6.07 6.08zM93.522 138.5l.052-.004.008-.001c.143-.011.258-.02.374-.022l.001-.001c.943-.022 1.41-.033 1.631.195.218.224.198.678.157 1.58l-.002.05c-.021.487-.184.712-.67.722l-.234.005c-.885.019-1.306.029-1.502-.177-.178-.187-.17-.551-.156-1.246l.008-.428c.002-.134.037-.268.077-.419v-.001c.02-.075.041-.154.06-.239l.109-.008.087-.006zm10.484.137c-.157.161-.157.475-.158 1.09 0 .661 0 .987.162 1.147.158.156.469.157 1.083.159 1.298.004 1.337-.032 1.341-1.247.004-1.307-.002-1.314-1.236-1.316-.69-.001-1.027-.001-1.192.167zm39.721-78.724c.02-3.748-2.865-6.684-6.583-6.701-3.769-.018-6.778 2.917-6.792 6.626-.015 3.667 2.98 6.703 6.628 6.718 3.792.015 6.727-2.873 6.747-6.643zm-15.909-.068c.036-5.15 4.197-9.278 9.321-9.248 5.128.03 9.21 4.25 9.174 9.484-.035 4.957-4.329 9.142-9.319 9.083-5.076-.06-9.211-4.259-9.176-9.32zM92.98 55.862h.328c3.364.033 6.649-.405 9.799-1.645l.017-.007c.713-.28 1.059-.417 1.14-.647.077-.216-.08-.516-.386-1.097l-.069-.132c-.411-.784-.813-.864-1.613-.533-2.444 1.015-5.019 1.458-7.665 1.475l-.406.002c-.939.007-1.877.014-2.815-.005-.518-.01-.73.153-.752.71l-.002.064c-.034.904-.05 1.358.168 1.586.22.229.678.23 1.598.23h.658zm-10.448-23.95c.003-1.384 1.268-2.627 2.656-2.607 1.367.02 2.562 1.213 2.584 2.584.021 1.388-1.212 2.646-2.606 2.656-1.38.01-2.636-1.245-2.633-2.633zm26.534 2.632c1.364.042 2.582-1.119 2.629-2.505.049-1.466-1.032-2.652-2.487-2.729-1.369-.071-2.612 1.07-2.669 2.451-.063 1.5 1.061 2.738 2.527 2.783z" fill="#FFB02C"/></svg>