<svg width="157" height="158" fill="none" xmlns="http://www.w3.org/2000/svg"><path fill-rule="evenodd" clip-rule="evenodd" d="m83.514 143.764 2.191-8.625 4.932 8.625h-7.123zm19.337-42.487-9.178-4.588 5.638-7.517 3.749 11.882-.209.223zm25.563-.094 3.778-12.009 2.212 2.948 3.432 4.574-9.226 4.615-.196-.128zm-8.206 26.446a4.531 4.531 0 0 0-.193.104l7.788-24.646c.109.088.203.16.287.224.155.119.274.21.379.314.571.567 1.14 1.135 1.709 1.703l.006.006c.689.689 1.378 1.377 2.071 2.062.321.317.563.589.248 1.081-2.751 4.298-5.495 8.6-8.24 12.902l-.008.013-.009.014-3.923 6.148c-.016.026-.047.041-.115.075zm-8.714.101-.147.108-1.063-1.668-2.816-4.418-2.068-3.251-.002-.004a1652.118 1652.118 0 0 0-6.205-9.708c-.41-.634-.374-1.016.176-1.53.831-.775 1.63-1.583 2.429-2.392.367-.371.735-.743 1.105-1.111.132-.131.271-.255.45-.415l.111-.098.227-.204 7.803 24.691zm29.511-83.848h.004l.002-1.608c.001-1.364.003-2.727-.006-4.09-.005-.648.201-.992.925-1.03 3.625-.191 6.624 2.26 7.163 5.895.492 3.325-1.853 6.623-5.256 7.388-2.535.57-2.832.34-2.832-2.214v-4.341zm-25.139 88.735-.217.012-6.582-20.853h13.372l-6.573 20.841zm12.596-98.128 1.971-.003 1.999.003c1.658.004 3.316.008 4.973-.015.784-.01 1.076.278 1.061 1.06-.018.969-.015 1.938-.012 2.907v.002c.003.932.005 1.864-.011 2.795-.039 2.286-1.743 4.002-4.028 4.03-2.686.035-5.373.035-8.059.001-2.224-.027-3.934-1.745-3.979-3.982-.021-1.036-.018-2.073-.015-3.11.003-.895.006-1.79-.007-2.684-.01-.734.27-1.025 1.014-1.017 1.698.02 3.396.016 5.093.013zM102.229 45.28l-1.189-.001c-.424 0-.847 0-1.27.002-.876.003-1.75.006-2.626-.007-2.314-.033-4.076-1.773-4.106-4.073a170.4 170.4 0 0 1-.006-2.713v-.002c.003-.997.006-1.994-.01-2.991-.012-.737.256-1.023 1.003-1.02 4.68.02 9.361.02 14.042 0 .763-.004 1.108.255 1.097 1.043-.012.778-.007 1.556-.003 2.334.005 1.094.011 2.189-.026 3.282-.088 2.564-1.736 4.12-4.29 4.143-.872.007-1.744.005-2.616.003zM94.624 154.47l-2.912.002-1.602.001h-.027c-3.047.002-6.094.003-9.142-.001-1.325-.001-1.395-.08-.852-1.229.882-1.867 1.157-3.775.643-5.802-.266-1.052-.176-1.113.95-1.113l5.64.001h.012c5.115.001 10.23.003 15.345-.017.86-.003 1.187.256 1.165 1.139a118.871 118.871 0 0 0-.001 5.881c.022.892-.349 1.155-1.18 1.15-2.677-.017-5.355-.014-8.033-.012h-.006zm23.815-138.664a.316.316 0 0 1 .096-.138c.636.89 1.255 1.79 1.872 2.69 1.404 2.045 2.802 4.082 4.393 5.954 1.576 1.855 3.347 3.546 5.134 5.252l.001.001c.789.753 1.581 1.51 2.362 2.285-.073.008-.152.02-.237.032a4.74 4.74 0 0 1-.66.063c-1.474.003-2.949.003-4.424.003h-.001c-1.665 0-3.329 0-4.993.006-1.827.006-2.168.36-2.179 2.175l-.002.299v.001c-.005.685-.009 1.37-.004 2.054.004.565-.254.821-.826.819-2.144-.01-4.287-.012-6.43.002-.628.004-.863-.286-.85-.885.007-.353.003-.707-.001-1.06-.005-.462-.01-.924.01-1.384.034-.802-.181-1.46-.757-2.049-.173-.177-.249-.712-.114-.891 3.465-4.616 5.897-9.741 7.61-15.23zm27.48 36.682.526-.11V62.64l-.001 21.697c-.001 1.33-.001 1.33-1.249 1.197l-.109-.011c-1.408-.149-2.824-.285-4.238-.3-4.017-.04-8.034-.03-12.051-.002-.86.006-1.164-.289-1.156-1.163.036-3.925.028-7.852.003-11.777-.004-.655.215-1.04.779-1.377 6.416-3.826 10.426-9.394 11.973-16.706.171-.807.521-1.053 1.331-1.089.83-.036 1.656-.176 2.481-.316.305-.052.609-.103.914-.15.249-.038.495-.09.797-.155zm-28.343 56.746c-.605.004-1.211.009-1.817.009l-1.789-.003c-1.578-.004-3.156-.008-4.733.014-.669.009-1.042-.184-1.254-.864a3387.345 3387.345 0 0 0-6.158-19.504c-.242-.756-.037-1.003.721-1.133 2.62-.448 3.762-1.768 3.803-4.454.032-2.09.028-4.179.023-6.268-.002-1.08-.004-2.162-.001-3.242.003-1.132.082-1.202 1.116-.835 5.468 1.946 10.941 1.88 16.426.08 1.241-.408 1.279-.373 1.28.92v3.932c0 1.829 0 3.658.002 5.487.004 2.485 1.151 3.882 3.57 4.365 1.187.237 1.191.238.827 1.391l-1.538 4.862c-1.48 4.678-2.96 9.356-4.409 14.044-.278.901-.663 1.265-1.636 1.23-1.476-.052-2.954-.042-4.432-.031h-.001zm20.351-62.325h.001c.121-.047.25-.095.388-.142.824 7.163-1.903 15.764-9.649 21.13-7.393 5.12-17.301 5.423-24.593.624-7.735-5.09-11.183-12.424-11.052-21.745.145.036.274.064.392.09.225.047.408.086.575.161 1.353.61 2.77.762 4.241.734 1.292-.025 2.585-.02 3.878-.016.972.004 1.944.008 2.916-.001 3.765-.035 6.561-2.803 6.665-6.569.038-1.41.038-1.411 1.406-1.412h5.255c1.392 0 1.392.002 1.46 1.37.166 3.325 2.114 5.768 5.198 6.468.522.119 1.076.138 1.616.141.524.003 1.048.008 1.572.014 1.862.018 3.725.037 5.584-.034.852-.033 1.699-.217 2.545-.4v-.001c.301-.065.601-.13.901-.189.23-.045.453-.13.701-.223zm8.461-11.876c-.014.088-.029.184-.044.294l-.34-.064c-.225-.043-.434-.083-.644-.117a93.74 93.74 0 0 1-.943-.16c-.814-.141-1.627-.282-2.447-.366-.612-.063-.922-.221-.979-.89-.124-1.472-.44-1.773-1.935-1.759-.976.01-1.799-.24-2.628-.766-6.829-4.329-12.024-10.116-15.637-17.338-.115-.228-.223-.461-.331-.694-.263-.565-.526-1.13-.875-1.634-.269-.389-.85-.816-1.257-.784-.405.031-.957.542-1.118.966-.455 1.203-.864 2.423-1.274 3.643-.301.898-.602 1.795-.922 2.685a41.557 41.557 0 0 1-7.771 13.294c-.313.362-.985.574-1.493.58-3.067.033-6.134.031-9.201.03-1.132-.002-2.263-.002-3.394-.001-.453 0-.908.004-1.358.05-.771.077-1.234.508-1.22 1.302.028 1.49.062 2.98.096 4.471.04 1.735.08 3.468.11 5.203.003.234-.047.468-.097.702-.044.206-.088.411-.096.617-.192 4.92.017 9.774 2.054 14.387 2.21 5.006 5.562 9.02 10.193 11.939.721.454 1.022.95 1.011 1.817a597.727 597.727 0 0 0-.006 11.597c.007.847-.257 1.188-1.138 1.184a1945.45 1945.45 0 0 0-16.492-.002c-.835.004-1.179-.246-1.177-1.141.008-5.532-.005-11.064-.018-16.596-.028-11.925-.057-23.85.127-35.771.134-8.75 3.995-16.093 10.653-21.81 6.507-5.586 14.151-7.944 22.67-7.267 13.157 1.045 24.26 10.777 27.219 23.699.625 2.726.815 5.485.753 8.27a3.082 3.082 0 0 1-.051.43zM27.712 103.728h17.047c6.71-.001 13.422-.001 20.132.001 3.098.001 4.82 1.391 5.436 4.455 2.694 13.395 5.383 26.792 8.05 40.193.693 3.482-1.459 6.073-5.068 6.085-6.339.021-12.678.018-19.017.015h-.012l-7.064-.002h-4.82c-8.209.001-16.417.002-24.626-.01-.808-.002-1.65-.021-2.418-.237-1.85-.521-2.938-1.836-3.353-3.688a10657.7 10657.7 0 0 1-4.69-21.019c-.812-3.647-1.62-7.295-2.429-10.943v-.003l-.001-.004c-.732-3.3-1.463-6.599-2.196-9.898-.684-3.078.798-4.943 3.951-4.944 7.026-.002 14.052-.002 21.078-.001zm106.961-15.43-.312-.445c.181-.016.331-.032.46-.046.23-.024.395-.042.561-.042.689 0 1.377-.005 2.065-.008 1.789-.01 3.579-.02 5.367.026 3.763.094 6.809 1.69 9.133 4.63 1.88 2.379 2.513 5.132 2.507 8.136-.025 13.64-.022 27.281-.018 40.922l.003 12.905-.001.292c-.001.507-.002 1.014.026 1.519.013.229.111.634.208.646.648.078 1.321.156 1.951.04.181-.033.348-.703.349-1.082l.011-10.016v-.176c.018-15.239.036-30.478-.024-45.717-.021-5.36-2.433-9.58-7.004-12.46-.752-.473-.97-1.004-.968-1.839.021-11.388.018-22.775.005-34.163-.001-.76.183-1.366.673-1.98a8.913 8.913 0 0 0 .009-11.15c-.488-.612-.692-1.217-.682-1.98.045-3.507-.075-7-.859-10.442-3.731-16.401-19.257-27.55-35.91-25.66-9.335 1.06-16.966 5.34-22.755 12.753-3.822 4.894-6.125 10.469-6.667 16.671-.224 2.573-.224 5.17-.223 7.76v1.017c-.02 15.405-.012 30.81-.002 46.215 0 .75-.085 1.281-.94 1.6-4.902 1.825-7.924 5.36-9.168 10.409-.297 1.204-.54 2.42-.782 3.637-.135.677-.27 1.355-.414 2.03-.226 1.059-.3 1.104-1.201.504-1.551-1.032-3.21-1.568-5.103-1.566-13.22.017-26.439.017-39.658.018-6.296 0-12.593 0-18.89.002-.57.001-1.154.017-1.71.13-2.974.608-5.436 3.72-4.514 7.75 1.824 7.971 3.59 15.955 5.356 23.939v.001c.984 4.447 1.967 8.895 2.961 13.34.304 1.36.66 2.708 1.015 4.057.19.72.38 1.44.561 2.162.053.208.112.416.17.624h.001c.16.566.322 1.133.351 1.706.086 1.668.377 2.031 2.03 2.031 30.573.001 61.146.001 91.719-.001 1.588 0 1.988-.379 1.998-1.977a749.42 749.42 0 0 0 0-9.243c-.01-1.585-.363-1.91-1.939-1.911-3.504-.003-7.008-.003-10.513 0h-.048c-.52.001-1.056.002-1.023-.738.042-.921-.41-1.59-.945-2.276-3.358-4.314-4.652-9.203-3.987-14.619.344-2.803 1.33-5.374 2.793-7.781.158-.259.29-.777.156-.928-.312-.353-.687-.649-1.138-1.006-.19-.15-.393-.31-.61-.49a53.804 53.804 0 0 1-.85 1.6c-.616 1.127-1.2 2.196-1.577 3.334-.46 1.386-.764 2.822-1.069 4.259-.17.805-.34 1.61-.539 2.406-.592 2.383-1.208 4.76-1.824 7.137l-.648 2.509c-.477 1.849-.956 3.697-1.457 5.632l-.008.031c-.222.859-.45 1.735-.682 2.637-.054-.186-.1-.335-.138-.463-.068-.222-.115-.376-.147-.533l-.757-3.774c-2.097-10.455-4.194-20.91-6.271-31.369-.173-.869-.346-1.809-.196-2.66.35-1.986.763-3.962 1.175-5.938.23-1.096.458-2.192.676-3.29 1.078-5.42 5.933-9.972 12.204-9.799 2.039.056 4.08.042 6.12.028.981-.007 1.962-.013 2.942-.012.208 0 .415.013.67.028.133.009.28.018.445.026-.106.15-.198.284-.283.406-.161.232-.293.421-.43.606l-2.28 3.036-.007.01c-.942 1.256-1.885 2.51-2.825 3.767-1.21 1.618-1.09 2.144.688 3.034 1.112.557 2.226 1.113 3.339 1.669 1.318.659 2.636 1.317 3.953 1.977.188.094.37.198.597.326.122.069.257.145.411.23-.377.373-.746.735-1.109 1.092l-.008.009c-.817.803-1.602 1.574-2.381 2.35-1.214 1.209-1.236 1.424-.32 2.865l3.48 5.468c4.53 7.122 9.059 14.244 13.615 21.35.631.984.927 1.948.917 3.121-.043 5.153-.027 10.307-.011 15.461l.004 1.212c.001.364.103 1.005.264 1.041.6.132 1.263.153 1.86.022.178-.039.307-.708.309-1.089.008-2.346.009-4.692.011-7.038.002-3.424.004-6.847.026-10.27a3.537 3.537 0 0 1 .511-1.763c2.188-3.494 4.404-6.97 6.62-10.447a5586.705 5586.705 0 0 0 3.21-5.041l.895-1.406.073-.113c2.281-3.584 4.562-7.168 6.838-10.755.709-1.116.657-1.505-.275-2.451-.414-.421-.833-.838-1.251-1.256l-.002-.001c-.33-.329-.66-.658-.987-.989-.296-.297-.587-.599-.906-.93l-.162-.167-.158-.163-.153-.159.195-.109.215-.122h.001c.227-.129.411-.233.599-.327.992-.496 1.986-.991 2.979-1.486l.012-.006c1.517-.755 3.033-1.51 4.547-2.271 1.355-.68 1.504-1.336.585-2.569a1439.68 1439.68 0 0 0-3.287-4.388l-.007-.01c-.659-.878-1.319-1.756-1.977-2.635-.137-.183-.268-.37-.435-.61zm3.777 59.324c.004.579.008 1.158.008 1.738h.006l-.003 1.628c-.004 1.66-.008 3.321.026 4.98.007.337.252.887.505.966 1.454.457 2.007.026 2.01-1.461.003-1.228.002-2.456.002-3.684-.002-2.635-.003-5.269.026-7.904.006-.563.156-1.23.482-1.67 3.415-4.605 4.974-9.727 4.455-15.454-.331-3.648-1.536-6.991-3.561-10.038-.109-.163-.392-.414-.435-.385l-.122.082c-.505.338-1.018.681-1.428 1.117-.131.139.014.664.171.931 4.462 7.565 3.927 15.718-1.457 22.749-.389.507-.622 1.252-.647 1.897-.058 1.501-.048 3.004-.038 4.508zM34.46 128.584c-.014 2.486 2.047 4.576 4.525 4.589 2.01.012 3.556-1.523 3.569-3.54.016-2.504-2.02-4.548-4.533-4.553-2.073-.005-3.55 1.448-3.561 3.504zm4.503 7.056c-3.905-.009-7.115-3.224-7.088-7.101.023-3.297 2.788-6.02 6.116-6.022 3.84-.003 7.121 3.265 7.134 7.103.01 3.36-2.72 6.027-6.162 6.02zm73.568-81.302c-.891-1.155-1.52-1.346-3.02-.887.378 2.925 3.62 5.239 6.854 4.952 2.823-.25 5.703-2.835 5.571-5.002-1.556-.38-2.033-.226-2.976.955-1.669 2.092-4.807 2.083-6.429-.018z" fill="#FFB02C"/></svg>