<svg width="156" height="156" fill="none" xmlns="http://www.w3.org/2000/svg"><path fill-rule="evenodd" clip-rule="evenodd" d="M133.046 146.182c.667 1.12 1.634 1.86 2.955 2.298-1.491 1.584-3.207 2.259-5.211 1.962-1.948-.29-3.348-1.406-4.24-3.245l1.332-.266c1.553-.311 3.064-.614 4.579-.901.185-.035.509.026.585.152zm-110.42-35.355h11.188l-.001 1.558c-.002 1.288-.003 2.546.004 3.804.004.572-.362.566-.72.561a2202.786 2202.786 0 0 1-6.408.002h-1.815c-2.248 0-2.248 0-2.248-2.217v-3.708zm57.482-1.64L73.9 97.81h12.406l-6.198 11.377zm70.094-10.862c.1.004.211.007.339.007 0 .273.004.54.007.804.009.71.018 1.39-.043 2.065-.02.212-.472.494-.765.557-2.159.457-4.323.886-6.488 1.315l-1.272.252-3.393.676c-3.879.773-7.758 1.546-11.642 2.291-.571.109-1.16.123-1.814.139a32.88 32.88 0 0 0-1.025.037c.101-.208.189-.4.271-.581.165-.36.309-.673.487-.964 1.253-2.038 3.167-2.994 5.468-3.369 4.075-.666 8.149-1.345 12.223-2.024 2.391-.399 4.781-.797 7.173-1.193.142-.023.289-.018.474-.012zm-36.553 3.387c2.582.442 4.671 2.266 5.365 4.635-1.67.257-3.239-.089-4.798-.432a50.24 50.24 0 0 0-1.14-.242 3263.97 3263.97 0 0 1-14.536-2.899l-4.822-.968c-.204-.041-.407-.09-.628-.143l-.344-.082v-3.33c.294.044.585.085.872.126.613.088 1.214.175 1.813.275l3.304.551c4.973.83 9.945 1.659 14.914 2.509zm34.322 31.558c.002 2.304.161 9.06.161 9.06s-7.453 1.334-10.308 1.813c-.204.035-.411.048-.64.063-.113.007-.23.015-.356.025a15.715 15.715 0 0 0-.02-.267 6.468 6.468 0 0 1-.029-.507c-.003-2.902-.004-5.803-.001-8.705.002-1.275.275-1.595 1.526-1.809l1.594-.273c2.043-.349 4.086-.698 6.13-1.039 1.458-.243 1.941.172 1.943 1.639zm-28.884-35.458c.185.484.375.98.583 1.488-.159-.03-.3-.046-.426-.06-.231-.027-.409-.048-.539-.137-2.024-1.39-4.351-1.764-6.682-2.139l-.665-.108c-4.185-.689-8.369-1.385-12.584-2.086l-5.218-.867c.033-.083.062-.162.089-.236.054-.148.102-.28.168-.403l.563-1.047a152.198 152.198 0 0 1 2.302-4.186c.17-.295.636-.594.966-.595.628-.003 1.256-.01 1.883-.015 2.445-.024 4.892-.047 7.326.115 5.033.335 8.682 2.944 10.998 7.378.476.91.846 1.878 1.236 2.898zm-.444 15.036v-2.032h5.895l.023.354c.016.236.032.459.032.682.003 9.902.002 19.804.002 29.705-.001 1.122-.004 1.123-1.121 1.125-.402.001-.803-.002-1.205-.006-.88-.007-1.759-.015-2.636.021-.769.032-1.011-.198-1.008-.997.022-7.618.02-15.236.019-22.854l-.001-5.998zm-96.178 8.383h11.351v.928l.002 6.239c.002 5.062.003 10.123-.006 15.184-.006 3.235-1.78 5.727-4.654 6.617-4.155 1.288-8.461-1.807-8.388-6.151.034-2.049.203-4.095.372-6.141.06-.732.121-1.463.175-2.194.205-2.766.424-5.53.643-8.294l.164-2.076c.073-.925.15-1.85.23-2.791l.111-1.321zm46.27-32.877-.754-1.381c1.989-.477 3.74-2.502 3.84-4.617.088-1.836.097-3.676.106-5.516.004-.835.008-1.67.02-2.505.003-.24.016-.479.031-.75l.023-.433c2.725.829 5.396 1.289 8.143 1.282 2.743-.006 5.414-.454 8.17-1.327v1.06c0 .691.006 1.383.01 2.074.01 1.558.022 3.116-.022 4.672-.077 2.754 1 4.783 3.493 6.021.063.032.12.075.193.131.039.03.083.064.135.1-.234.43-.468.857-.7 1.285-.845 1.55-1.686 3.091-2.55 4.62-.106.189-.447.346-.68.347-5.381.019-10.763.02-16.144-.002-.251-.001-.617-.181-.735-.388-.87-1.536-1.714-3.085-2.58-4.673zm-34.953 17.81a6.86 6.86 0 0 0-.027.2c-1.752 0-3.498.003-5.24.007-4.387.008-8.746.016-13.104-.029-2.228-.023-4.267-.877-6.217-1.927-.558-.301-1.128-.581-1.698-.862-.451-.222-.902-.444-1.348-.676-1.073-.559-1.666-1.436-1.667-2.67l-.004-1.729c-.004-1.786-.009-3.573.005-5.359.009-1.073.6-1.427 1.575-.931l.19.096c2.272 1.155 4.545 2.311 7.113 2.662 1.123.154 2.263.245 3.397.26 2.502.032 5.006.022 7.51.012l.946-.003c2.17-.008 3.137-1.565 2.185-3.52-.338-.694-.684-1.383-1.031-2.072a173.35 173.35 0 0 1-1.022-2.053c-.833-1.71-.303-3.425 1.252-4.119 1.568-.699 3.194.028 3.92 1.802a681.563 681.563 0 0 1 3.105 7.756c.112.284.184.604.185.908.011 3.704.008 7.407.006 11.11l-.001.846c0 .09-.013.18-.03.291zm116.704.039v22.243a49.487 49.487 0 0 1-.532-.294 18.98 18.98 0 0 0-1.028-.548c-1.433-.691-2.894-.436-4.353-.181-.138.024-.276.049-.415.072l-2.004.342c-1.571.27-3.143.54-4.719.785-3.068.476-5.016 2.702-5.023 5.81-.004 1.615-.003 3.229-.002 4.879l.001 2.225-3.37.677v-1.149l.001-6.084c.001-7.85.003-15.7-.019-23.549-.002-.803.206-1.114 1.03-1.274 4.669-.909 9.332-1.846 13.995-2.784 1.934-.389 3.869-.778 5.805-1.165.123-.025.253-.019.399-.012.074.003.151.007.234.007zm-57.758.114c.015-.053.034-.12.055-.209.514.1 1.023.197 1.528.294 1.103.212 2.188.42 3.272.638l4.725.951c3.714.75 7.427 1.499 11.146 2.224.656.128.82.395.819 1.012-.011 7.346-.011 14.691-.011 22.036l-.001 8.015c0 .166-.014.332-.029.521-.008.098-.017.202-.024.315-.099-.005-.193-.006-.283-.007-.18-.003-.344-.005-.503-.036l-7.077-1.42c-4.323-.868-8.646-1.737-12.97-2.596-.456-.091-.703-.202-.702-.734.01-7.481.013-14.962.015-22.443l.003-8.377a.72.72 0 0 1 .037-.184zM70.356 24.042l.024-.034c.9.597 1.787 1.2 2.669 1.8 1.924 1.31 3.826 2.604 5.795 3.785 6.672 4 13.884 6.626 21.53 8.041.691.128.946.358.932 1.089-.025 1.375-.017 2.753-.01 4.13.014 2.526.027 5.05-.16 7.56-.599 8.03-4.657 13.945-11.839 17.507-12.615 6.256-27.855-1.704-30.063-15.608-.208-1.313-.237-2.662-.25-3.996-.033-3.5-.024-7.002.01-10.503.003-.367.183-.869.456-1.074 4.512-3.387 8.095-7.563 10.787-12.512.04-.073.088-.14.12-.185zM54.151 83.037c-4.362.151-7.017 1.46-9.263 2.603-.1-1.048-.177-1.718-.243-2.282-.116-1.001-.194-1.67-.29-3.534-.309-5.954.953-11.63 3.27-17.103 2.823-6.673 3.44-13.653 2.95-20.821l-.027-.396c-.3-4.37-.6-8.747.244-13.127C53.014 16.839 62.56 7.313 74.12 5.001c15.79-3.158 31.04 6.583 34.935 21.852a29.824 29.824 0 0 1 .881 9.38 211.412 211.412 0 0 0-.417 10.915c-.07 5.5 1.056 10.794 3.19 15.853 2.36 5.596 3.498 11.393 3.129 17.464a80.282 80.282 0 0 1-.319 3.534c-.056.537-.112 1.073-.164 1.608-.459-.19-.906-.392-1.346-.592-.975-.441-1.92-.87-2.909-1.124-1.746-.449-3.565-.769-5.362-.828-2.598-.086-5.2-.07-7.8-.053-1.13.008-2.259.015-3.388.014-1.368-.002-1.865-.489-1.867-1.834-.002-1.05-.001-2.098 0-3.147 0-2.054.002-4.107-.014-6.16-.004-.547.154-.867.632-1.164 6.887-4.288 10.902-10.48 12.13-18.48.172-1.118.213-2.266.22-3.4.02-3.358.016-6.716.012-10.074l-.003-2.394c-.001-1.662-.69-2.45-2.33-2.697-11.767-1.781-22.17-6.565-31.272-14.21l-.177-.15c-.071-.061-.142-.122-.214-.181-1.824-1.521-3.175-1.269-4.193.857-2.026 4.229-4.626 8.036-8.158 11.153-1.107.977-2.29 1.873-3.487 2.74-.885.642-1.31 1.436-1.305 2.526.006 1.49-.003 2.98-.012 4.47-.016 2.666-.032 5.333.04 7.997.25 9.35 4.273 16.644 12.18 21.723.568.365.802.744.793 1.428-.027 2.118-.023 4.237-.02 6.356.002.87.004 1.74.003 2.61 0 1.617-.408 2.03-1.998 2.032l-3.57-.003a778.025 778.025 0 0 0-7.79.015zm-32.432 7.125c.11.227.231.477.367.762-.863-.032-1.706-.055-2.534-.078-1.855-.05-3.637-.1-5.41-.247-1.809-.15-3.399-.965-4.985-1.777-.446-.228-.891-.456-1.341-.67-3.703-1.754-7.673.664-7.77 4.752-.058 2.418-.065 4.84.003 7.259.08 2.858 1.347 5.077 3.873 6.493.555.311 1.126.591 1.698.871.502.246 1.003.492 1.493.758 3.192 1.737 6.576 2.674 10.23 2.474.69-.038.899.218.875.872a539.72 539.72 0 0 0-.144 4.66c-.084 2.995-.168 5.991-.348 8.981-.207 3.447-.48 6.889-.751 10.332a725.14 725.14 0 0 0-.594 7.875c-.212 3.114.87 5.818 3.033 8.058 2.53 2.621 5.699 3.486 9.253 3.3 3.216-.168 5.815-1.5 7.727-4.07.414-.557.724-1.19 1.035-1.823.142-.29.283-.579.435-.861l1.397-2.598c3.402-6.323 6.803-12.646 10.215-18.964.08-.149.229-.262.377-.375.069-.053.138-.106.2-.162.044.069.094.136.144.203.108.144.216.288.255.449.722 2.964 1.943 5.693 3.725 8.176.213.297.331.725.337 1.095.021 1.483.02 2.965.017 4.448-.001.652-.002 1.305-.001 1.957l.008 3.804c.006 2.603.013 5.207.01 7.811 0 .586.056.991.82.929.547-.044 1.1-.033 1.652-.023.246.005.492.009.738.009 1.17 0 1.181-.001 1.184-1.142.004-1.867.006-3.733.008-5.599.004-4.141.007-8.281.04-12.421.01-1.259-.32-2.288-1.09-3.3a17.866 17.866 0 0 1-.189-21.393c.545-.742 1.157-1.435 1.78-2.14.291-.33.585-.662.875-1.003l-2.693-3.234c-.1.081-.197.15-.286.215-.174.128-.324.237-.437.376-.357.441-.724.876-1.09 1.312-.953 1.132-1.906 2.264-2.7 3.499-.601.934-1.064 1.956-1.526 2.979a34.096 34.096 0 0 1-.98 2.047 5630.726 5630.726 0 0 1-9.298 17.295l-2.707 5.024a5.817 5.817 0 0 1-.254.413c-.052.079-.108.165-.169.262a8.551 8.551 0 0 0-.026-.176c-.01-.065-.015-.099-.015-.133-.002-10.732-.003-21.464.002-32.197 0-.25.025-.519.117-.748.393-.977.772-1.962 1.15-2.947.91-2.362 1.818-4.724 2.926-6.989 2.19-4.48 5.97-6.956 10.957-7.303 1.872-.13 3.754-.127 5.635-.124 1.11.002 2.22.004 3.328-.021.698-.016 1.06.23 1.387.835 2.89 5.326 5.79 10.645 8.69 15.964a15066.6 15066.6 0 0 1 5.43 9.965c.51.938 1.066 1.771 2.28 1.78 1.211.01 1.791-.796 2.301-1.742 1.444-2.676 2.902-5.344 4.36-8.013l1.068-1.954c.072-.132.154-.259.268-.435l.23-.359v9.777l.001 25.877c0 1.951.532 2.563 2.448 2.934 1.453.282 2.904.571 4.355.86 1.78.355 3.56.71 5.344 1.051.648.124.853.405.845 1.076-.027 2.281-.016 4.562-.006 6.843l.008 1.953c.001.22.015.441.031.679.007.115.015.235.021.361.37 0 .729-.004 1.082-.007.809-.008 1.581-.016 2.351.021.695.033.867-.231.861-.883-.018-2.057-.008-4.113.001-6.17l.008-1.772c.001-.199.012-.397.025-.628l.021-.384 1.139.227c.79.158 1.544.309 2.3.443.908.162 1.812.359 2.716.557 2.597.567 5.194 1.134 7.889.854 1.502-.157 2.16.451 2.763 1.768 1.774 3.878 4.907 5.943 9.178 5.939 4.279-.003 7.342-2.119 9.158-5.976.295-.625.67-.893 1.302-.989 1.881-.287 3.76-.592 5.637-.906 2.737-.457 3.972-1.697 4.548-4.448.049-.233.413-.491.682-.574 1.411-.437 1.95-1.102 1.97-2.596.011-.779.008-1.558.006-2.337l-.002-.993v-10.154c.001-9.853.001-19.706-.002-29.559-.001-2.25-1.029-3.085-3.24-2.713-2.325.392-4.651.774-6.977 1.156-1.57.258-3.141.516-4.71.777-1.005.167-2.01.33-3.016.491-2.753.444-5.507.888-8.241 1.432-1.049.209-2.059.61-3.085 1.017-.471.187-.945.375-1.428.546l-.03-.061c-.04-.083-.105-.218-.162-.355-.27-.652-.525-1.311-.781-1.97-.975-2.52-1.95-5.041-3.777-7.138-.122-.14-.134-.422-.114-.63l.041-.42c.181-1.84.362-3.68.577-5.516.814-6.923-.13-13.616-2.71-20.068-1.451-3.63-2.639-7.31-3.162-11.203-.483-3.595-.27-7.178-.057-10.76.06-1.015.121-2.03.165-3.045.148-3.367.17-6.713-.48-10.03C110.125 8.984 92.137-3.044 73.269.673c-15.98 3.148-27.7 17.64-27.44 33.976.043 2.73.16 5.463.376 8.184.533 6.701-.383 13.144-3.06 19.34-1.865 4.316-2.873 8.857-3.147 13.551-.218 3.735.131 7.443.625 11.142.025.187.061.382.098.58.117.632.239 1.288.01 1.761-.43.896-1.034 1.71-1.653 2.545-.259.35-.52.702-.774 1.066l-.124-.3a48.852 48.852 0 0 1-.195-.473c-.369-.916-.733-1.833-1.098-2.75a300.132 300.132 0 0 0-2.48-6.104c-1.61-3.804-5.866-5.48-9.594-3.845-3.698 1.622-5.314 5.922-3.632 9.676.16.355.33.706.538 1.139zm43.22-47.798a3.456 3.456 0 0 0 3.41 3.514c1.951.032 3.507-1.436 3.56-3.358a3.478 3.478 0 0 0-3.448-3.571c-1.917-.018-3.496 1.513-3.523 3.415zm14.87 16.484c4.118.073 7.7-3.148 7.559-6.92-.335 0-.666-.002-.993-.004h-.001c-.953-.005-1.881-.01-2.808.027-.22.009-.53.286-.623.511-.536 1.3-1.483 2.027-2.875 2.012-1.355-.014-2.281-.737-2.787-2.008-.081-.205-.296-.502-.457-.507a89.692 89.692 0 0 0-3.054-.026h-.003l-.914.002c-.244 3.43 3.256 6.847 6.956 6.913zm11.943-12.969c-1.944-.012-3.428-1.517-3.425-3.472.004-1.936 1.525-3.46 3.45-3.458 1.967.003 3.483 1.544 3.473 3.528-.01 1.924-1.543 3.414-3.498 3.402z" fill="#FFB02C"/><path d="m136.001 148.48.728.686 1.074-1.141-1.487-.494-.315.949zm-2.955-2.298-.859.513.859-.513zm-2.256 4.26-.147.989.147-.989zm-4.24-3.245-.195-.981-1.269.253.565 1.164.899-.436zm1.332-.266-.196-.981.196.981zm4.579-.901.186.983h.001l-.187-.983zm-98.647-35.203h1v-1h-1v1zm-11.189 0v-1h-1v1h1zm11.188 1.558-1-.001 1 .001zm.004 3.804 1-.005v-.001l-1 .006zm-.72.561.016-1-.015 1zm-.11-.002.002 1-.002-1zm-6.297.004v1-1zm-1.816 0v-1 1zM73.9 97.81v-1h-1.684l.806 1.48.878-.48zm6.208 11.377-.878.479.878 1.61.878-1.61-.878-.479zm6.198-11.377.879.479.805-1.479h-1.684v1zm64.235.522h1v-1h-1v1zm-.339-.007.035-1-.035 1zm.346.81-1 .014 1-.013zm-.043 2.066.996.091-.996-.091zm-.765.557.208.978-.208-.978zm-6.488 1.315-.195-.981.195.981zm-1.272.252-.195-.981.195.981zm-3.393.676-.196-.981.196.981zm-11.642 2.291-.188-.983.188.983zm-1.814.139-.025-.999.025.999zm-1.025.037-.9-.437-.743 1.531 1.699-.096-.056-.998zm.271-.581.91.416-.91-.416zm.487-.964.852.524v-.001l-.852-.523zm5.468-3.369-.162-.987.162.987zm12.223-2.024.164.986-.164-.986zm7.173-1.193.163.987-.163-.987zm-30.714 8.01.152.988 1.129-.174-.321-1.096-.96.282zm-5.365-4.635-.168.986.168-.986zm.567 4.203-.215.977.215-.977zm-1.14-.242-.192.981.192-.981zm-14.536-2.899-.197.98.197-.98zm-4.822-.968.197-.981-.197.981zm-.628-.143.235-.972v-.001l-.235.973zm-.344-.082h-1v.794l.773.18.227-.974zm0-3.33.146-.99-1.146-.17v1.16h1zm.872.126.142-.99-.142.99zm1.813.275-.165.986.164-.986zm3.304.551.165-.986-.165.986zm49.397 43.127.176.984.843-.151-.02-.857-.999.024zm-.161-9.06 1-.001-1 .001zm-10.147 10.873-.166-.986.166.986zm-.64.063-.064-.998.064.998zm-.356.025-.998.066.067 1.017 1.016-.086-.085-.997zm-.02-.267-.997.082.997-.082zm-.029-.507 1-.001-1 .001zm-.001-8.705-1-.001 1 .001zm1.526-1.809-.168-.986.168.986zm1.594-.273-.169-.985.169.985zm6.13-1.039-.164-.987.164.987zM119.67 99.3l-.188.982 1.811.346-.698-1.707-.925.379zm-.583-1.488-.934.357.934-.357zm.157 1.427.114-.993-.114.993zm-.539-.136-.567.824.567-.825zm-6.682-2.139.159-.987-.159.987zm-.665-.108.163-.986-.163.986zM98.774 94.77l.165-.986-.164.986zm-5.218-.867-.93-.37-.457 1.153 1.223.203.164-.986zm.089-.236-.94-.343.94.343zm.168-.403-.88-.474.88.474zm.563-1.047.881.472-.881-.472zm2.302-4.186-.866-.5.866.5zm.966-.595-.004-1 .004 1zm1.883-.015.01 1-.01-1zm7.326.115-.066.998.066-.998zm10.998 7.378.887-.463-.887.463zm.792 15.902v-1h-1v1h1zm5.895 0 .999-.055-.052-.945h-.947v1zm.023.354-.998.069.998-.069zm.032.682h-1 1zm.002 29.705h1-1zm-1.121 1.125.002 1-.002-1zm-1.205-.006.009-1-.009 1zm-2.636.021-.042-.999.042.999zm-1.008-.997 1 .003-1-.003zm.019-22.854h-1 1zm-84.828 2.385h1v-1h-1v1zm-11.351 0v-1h-.92l-.077.917.997.083zm11.351.928h1-1zm.002 6.239-1 .001 1-.001zm-.006 15.184 1 .002-1-.002zm-4.654 6.617-.296-.955.296.955zm-8.388-6.151 1 .017-1-.017zm.372-6.141.997.082-.997-.082zm.175-2.194.997.074-.997-.074zm.643-8.294-.997-.079.997.079zm.164-2.076-.997-.079.997.079zm.23-2.791.997.084-.997-.084zm45.627-35.579-.233-.972-1.272.304.627 1.148.878-.48zm.753 1.38-.878.48.878-.48zm3.088-5.997-1-.047 1 .047zm.105-5.516-1-.005 1 .005zm.02-2.505-1-.014 1 .014zm.031-.75-.998-.055.998.055zm.023-.433.29-.957-1.23-.374-.06 1.284 1 .047zm8.143 1.282-.002-1 .002 1zm8.17-1.327h1V71.74l-1.301.413.302.953zm.01 3.134 1-.006-1 .006zm-.022 4.672-1-.028 1 .028zm3.493 6.021-.445.896.445-.896zm.193.131-.608.794.608-.794zm.135.1.877.48.426-.778-.722-.515-.581.814zm-.7 1.285-.879-.479.878.479zm-2.55 4.62-.87-.491.87.492zm-.68.347.004 1-.004-1zm-16.144-.002-.004 1 .004-1zm-.735-.388.87-.493-.87.493zm-37.559 13.337v1h.887l.106-.881-.993-.119zm.027-.2-.989-.145.99.145zm-5.266.207.002 1-.002-1zm-13.105-.029.01-1-.01 1zm-6.217-1.927-.474.88.474-.88zm-1.698-.862-.441.898.441-.898zm-1.348-.676.462-.887-.462.887zm-1.667-2.67-1 .001v.001l1-.002zm-.004-1.729-1 .003 1-.003zm.005-5.359-1-.008 1 .008zm1.575-.931.454-.892-.454.891zm.19.096.453-.892-.454.892zm7.113 2.662.135-.99-.135.99zm3.397.26-.013 1 .013-1zm7.51.012-.005-1 .004 1zm.946-.003-.004-1 .004 1zm2.185-3.52-.9.437.9-.438zm-1.031-2.072-.894.45.894-.45zm-1.022-2.053.899-.438-.9.438zm1.252-4.119.408.913-.408-.913zm3.92 1.802-.925.38.926-.38zm3.105 7.756-.93.367.93-.367zm.185.908-1 .003 1-.003zm.006 11.11-1-.001 1 .001zm-.001.846 1 .001-1-.001zm116.674 22.573-.477.879 1.477.801v-1.68h-1zm0-22.243h1v-1h-1v1zm-.532 21.949-.487.873.487-.873zm-1.028-.548.434-.901-.434.901zm-4.353-.181.172.985-.172-.985zm-.415.072.167.986-.167-.986zm-2.004.342.17.986-.17-.986zm-4.719.785.153.988-.153-.988zm-5.023 5.81 1 .002-1-.002zm-.002 4.879 1-.001-1 .001zm.001 2.225.197.98.803-.161v-.819h-1zm-3.37.677h-1v1.221l1.197-.24-.197-.981zm.001-7.233h-1 1zm-.019-23.549 1-.003-1 .003zm1.03-1.274-.191-.982.191.982zm13.995-2.784-.197-.98.197.98zm5.805-1.165.196.98-.196-.98zm.399-.012-.046.999.046-.999zm-57.469-.088.19-.982-.94-.182-.222.931.972.233zm-.055.209.964.267-.964-.267zm1.583.085-.188.982.188-.982zm3.272.638.196-.981-.196.981zm4.725.951-.198.981.198-.981zm11.146 2.224.191-.981-.191.981zm.819 1.012 1 .002-1-.002zm-.011 22.036h1-1zm-.001 8.015h-1 1zm-.029.521.996.082-.996-.082zm-.024.315-.05.999.983.048.065-.982-.998-.065zm-.283-.007-.012 1 .012-1zm-.503-.036-.196.98h.001l.195-.98zm-7.077-1.42-.197.98.197-.98zm-12.97-2.596.195-.981-.195.981zm-.702-.734-1-.002 1 .002zm.015-22.443h1-1zm.003-8.377 1 .001v-.001h-1zM70.38 24.008l.553-.834-.836-.554-.552.837.835.55zm-.024.034.818.576-.818-.576zm2.693 1.766.562-.826-.562.826zm5.795 3.785-.514.858.514-.858zm21.53 8.041-.182.984.182-.984zm.932 1.089 1 .018-1-.018zm-.01 4.13 1-.005-1 .005zm-.16 7.56-.997-.074.997.075zM89.297 67.92l.444.896-.444-.896zM59.234 52.312l.988-.157-.988.157zm-.25-3.996-1 .01 1-.01zm.01-10.503-1-.01 1 .01zm.456-1.074-.6-.8.6.8zm10.787-12.512-.878-.479v.001l.878.478zM44.89 85.64l-.996.095.14 1.463 1.31-.667-.455-.891zm9.262-2.603-.009-1h-.026l.035 1zm-9.506.32.993-.114-.993.115zm-.29-3.533-1 .051 1-.051zm3.27-17.103-.922-.39.921.39zm2.95-20.821-.998.068.998-.068zm-.027-.396-.998.068.998-.068zm.244-13.127-.982-.19.982.19zM74.12 5.001l-.196-.98.196.98zm34.935 21.852.969-.247-.969.247zm.881 9.38-.997-.065.997.065zm-.417 10.915 1 .012-1-.012zM112.709 63l.921-.389-.921.389zm3.129 17.464-.998-.061.998.06zm-.319 3.534-.994-.104.994.105zm-.164 1.608-.382.924 1.249.517.129-1.346-.996-.095zm-1.346-.592-.413.911.413-.91zm-2.909-1.124.249-.968-.249.968zm-5.362-.828.033-1-.033 1zm-7.8-.053.005 1-.006-1zm-3.388.014.001-1v1zm-1.867-1.834 1-.002-1 .002zm0-3.147h1-1zm-.014-6.16 1-.009-1 .008zm.632-1.164-.529-.85.529.85zm12.13-18.48.989.153-.989-.152zm.22-3.4-1-.006 1 .006zm.012-10.074 1-.002-1 .002zm-.003-2.394-1 .001h1zm-2.33-2.697-.149.989.149-.99zm-31.272-14.21.643-.766-.643.766zm-.177-.15-.649.76.649-.76zm-.214-.181-.64.768.64-.768zm-4.193.857-.902-.432.902.432zm-8.158 11.153.662.75-.662-.75zm-3.487 2.74.587.81-.587-.81zm-1.305 2.526 1-.004-1 .004zm-.012 4.47-1-.006 1 .006zm.04 7.997-1 .027 1-.027zm12.18 21.723.54-.842-.54.842zm.793 1.428 1 .013-1-.013zm-.02 6.356 1-.002-1 .002zm.003 2.61h-1 1zm-1.998 2.032v1-1zm-3.57-.003v1-1zm-39.854 7.902-.037 1 1.651.062-.711-1.492-.903.43zm-.367-.762-.9.435.9-.435zm-2.167.684.028-1-.028 1zm-5.41-.247.083-.997-.083.997zm-4.985-1.777-.456.89.456-.89zm-1.341-.67-.428.905.428-.904zm-7.77 4.752-1-.024 1 .024zm.003 7.259 1-.028-1 .028zm3.873 6.493-.489.872.49-.872zm1.698.871-.44.898.44-.898zm1.493.758.478-.878-.478.878zm10.23 2.474-.056-.999.055.999zm.875.872 1 .037-1-.037zm-.144 4.66-1-.028 1 .028zm-.348 8.981-.998-.06.998.06zm-.751 10.332.996.079-.996-.079zm-.594 7.875-.997-.068.997.068zm3.033 8.058-.72.695.72-.695zm9.253 3.3-.052-.999.052.999zm7.727-4.07-.802-.597.802.597zm1.035-1.823-.898-.44.898.44zm.435-.861.88.474-.88-.474zm1.397-2.598.881.474-.88-.474zm10.215-18.964.88.475-.88-.475zm.377-.375-.607-.796.607.796zm.2-.162.846-.533-.635-1.008-.882.8.671.741zm.144.203.8-.6-.8.6zm.255.449.972-.237-.971.237zm3.725 8.176.812-.583-.812.583zm.337 1.095 1-.014v-.001l-1 .015zm.017 4.448 1 .002-1-.002zm-.001 1.957 1-.001-1 .001zm.008 3.804 1-.003-1 .003zm.01 7.811 1 .001-1-.001zm.82.929-.081-.997.08.997zm1.652-.023.02-1h-.001l-.019 1zm.738.009v-1 1zm1.184-1.142 1 .002-1-.002zm.008-5.599 1 .001-1-.001zm.04-12.421 1 .008-1-.008zm-1.09-3.3.796-.606-.796.606zm-.189-21.393.806.592-.806-.592zm1.78-2.14.75.662-.75-.662zm.875-1.003.761.648.546-.642-.539-.646-.768.64zm-2.693-3.234.768-.64-.629-.755-.766.616.627.779zm-.286.215-.588-.808.588.808zm-.437.376.777.629-.777-.629zm-1.09 1.312.765.644-.765-.644zm-2.7 3.499-.841-.541.84.541zm-1.526 2.979.91.412-.91-.412zm-.98 2.047-.883-.471.882.471zm-9.298 17.295-.88-.474.88.474zm-2.707 5.024.88.474-.88-.474zm-.254.413.837.546-.837-.546zm-.169.262-.99.135.372 2.721 1.464-2.323-.846-.533zm-.026-.176-.988.154.988-.154zm-.015-.133h1-1zm.002-32.197h-1 1zm.117-.748-.928-.373v.001l.928.372zm1.15-2.947-.933-.359.934.359zm2.926-6.989.898.44-.898-.44zm10.957-7.303.07.998-.07-.998zm5.635-.124.002-1-.002 1zm3.328-.021.023 1-.023-1zm1.387.835-.879.477.88-.477zm8.69 15.964.878-.479-.878.479zm5.43 9.965-.878.478.878-.478zm2.28 1.78.007-1-.008 1zm2.301-1.742.88.475-.88-.475zm4.36-8.013.877.48-.877-.48zm1.068-1.954-.878-.48.878.48zm.268-.435.839.544-.839-.544zm.23-.359h1V99.98L87.47 102.9l.846.534zm0 9.777h1-1zm.001 25.877h1-1zm2.448 2.934-.19.982.19-.982zm4.355.86.195-.98-.195.98zm5.344 1.051-.188.982.188-.982zm.845 1.076 1 .011-1-.011zm-.006 6.843 1-.004-1 .004zm.008 1.953 1-.003-1 .003zm.031.679-.998.064v.001l.998-.065zm.021.361-.998.052.05.948h.948v-1zm1.082-.007-.01-1 .01 1zm2.351.021.048-.999-.048.999zm.861-.883 1-.009-1 .009zm.001-6.17 1 .005-1-.005zm.008-1.772-1-.004 1 .004zm.025-.628-.998-.057.998.057zm.021-.384.192-.981-1.137-.222-.054 1.157.999.046zm1.139.227.196-.981-.196.981zm2.3.443.176-.984-.176.984zm2.716.557.213-.977-.213.977zm7.889.854-.104-.995.104.995zm2.763 1.768-.91.416h.001l.909-.416zm9.178 5.939-.001-1 .001 1zm9.158-5.976.905.426-.905-.426zm1.302-.989.151.988-.151-.988zm5.637-.906-.165-.986.165.986zm4.548-4.448-.979-.204.979.204zm.682-.574-.296-.955.296.955zm1.97-2.596-1-.013 1 .013zm.006-2.337 1-.003-1 .003zm-.002-11.147h1-1zm-.002-29.559h1-1zm-3.24-2.713-.166-.986.166.986zm-6.977 1.156.162.987-.162-.987zm-4.71.777-.164-.986.164.986zm-3.016.491.159.988-.159-.988zm-8.241 1.432-.195-.981.195.98zm-3.085 1.017.369.93-.369-.93zm-1.428.546-.907.421.383.827.859-.305-.335-.943zm-.03-.061.901-.435-.901.435zm-.162-.355.924-.383-.924.383zm-.781-1.97-.932.36.932-.36zm-3.777-7.138-.755.656h.001l.754-.656zm-.114-.63-.995-.097.995.098zm.041-.42.996.098-.996-.097zm.577-5.516-.993-.117.993.117zm-2.71-20.068.929-.371-.929.37zm-3.162-11.203-.991.133.991-.133zm-.057-10.76.998.06-.998-.06zm.165-3.045.999.043-.999-.043zm-.48-10.03-.981.192.981-.193zM73.269.673l.194.98-.194-.98zM45.83 34.65l1-.016-1 .016zm.376 8.184-.997.08.997-.08zm-3.06 19.34-.918-.396.918.396zm-3.147 13.551-.999-.058.999.058zm.625 11.142.991-.132-.99.132zm.098.58-.983.182.983-.182zm.01 1.761-.9-.433.9.433zm-1.653 2.545.803.596-.803-.596zm-.774 1.066-.924.382.699 1.695 1.046-1.506-.821-.57zm-.124-.3-.924.383.924-.383zm-.195-.473-.928.373.928-.373zm-1.098-2.75.93-.37-.93.37zm-2.48-6.104.922-.39-.921.39zm-9.594-3.845.402.916-.402-.916zm-3.632 9.676-.912.409.912-.41zM68.35 45.878l.016-1-.016 1zm-3.412-3.514 1 .014-1-.014zm6.97.156-.999-.027 1 .027zm-3.447-3.571.01-1-.01 1zm18.907 12.978.999-.037-.036-.963h-.963v1zm-7.56 6.92.018-.999-.017 1zm6.567-6.923.005-1h-.005v1zm-.001 0-.005 1h.005v-1zm-2.808.027-.04-1 .04 1zm-.623.511-.925-.38.925.38zm-2.875 2.012-.01 1 .01-1zm-2.787-2.008.93-.37-.93.37zm-.457-.507-.03 1 .03-1zm-3.054-.026v1h.004l-.004-1zm-.002 0v-1h-.004l.004 1zm-.915.002v-1h-.93l-.067.93.997.07zm15.474-9.528-1-.002 1 .002zm3.425 3.472.006-1-.006 1zm.026-6.93.001-1-.001 1zm3.472 3.528 1 .005-1-.005zm41.066 105.054c-1.118-.371-1.88-.969-2.412-1.861l-1.717 1.025c.803 1.346 1.974 2.228 3.499 2.734l.63-1.898zm-5.673 3.9c2.371.352 4.402-.476 6.086-2.265l-1.456-1.371c-1.299 1.379-2.699 1.901-4.336 1.658l-.294 1.978zm-4.992-3.798c1.019 2.102 2.681 3.455 4.992 3.798l.294-1.978c-1.585-.236-2.723-1.116-3.487-2.692l-1.799.872zm2.035-1.683-1.331.266.391 1.962 1.332-.267-.392-1.961zm4.589-.902c-1.521.288-3.038.592-4.589.902l.392 1.961c1.554-.311 3.061-.612 4.569-.898l-.372-1.965zm1.629.622a1.232 1.232 0 0 0-.492-.456 1.853 1.853 0 0 0-1.137-.166l.373 1.965a.383.383 0 0 1-.058.007h-.018l-.006-.001s-.031-.006-.081-.032a.82.82 0 0 1-.298-.292l1.717-1.025zm-100.09-35.843H22.625v2h11.189v-2zm.999 2.559v-1.559h-2v1.557l2 .002zm.004 3.797c-.007-1.254-.006-2.508-.004-3.797l-2-.002c-.002 1.287-.003 2.549.004 3.811l2-.012zm-1.735 1.566c.079.002.223.005.37-.008.147-.014.369-.049.596-.165.25-.127.466-.332.605-.615.13-.262.166-.536.164-.777l-2 .011c0 .044-.008-.016.043-.119a.64.64 0 0 1 .278-.281c.092-.047.155-.048.134-.046a2.066 2.066 0 0 1-.159.001l-.03 1.999zm-.093-.001.093.001.031-1.999a4.696 4.696 0 0 0-.129-.002l.005 2zm-6.3.004c2.1.001 4.2.001 6.3-.004l-.005-2c-2.097.005-4.195.005-6.294.004v2zm-1.815 0h1.816v-2h-1.816v2zm-3.248-3.217c0 .529-.002 1.013.04 1.394.043.375.147.872.538 1.258.389.383.886.484 1.261.525.384.042.87.04 1.409.04v-2c-.586 0-.942-.001-1.191-.028-.257-.029-.182-.067-.074.039.11.109.073.19.045-.058-.027-.243-.029-.591-.029-1.17h-2zm0-3.708v3.708h2v-3.708h-2zm51.396-12.538 6.208 11.377 1.755-.958-6.207-11.377-1.756.958zm13.284-1.479H73.9v2h12.406v-2zm-5.32 12.856 6.198-11.377-1.756-.957-6.198 11.377 1.756.957zm69.555-12.334c-.108 0-.203-.003-.304-.006l-.07 1.999c.1.003.227.007.374.007v-2zm1.007 1.79a51.994 51.994 0 0 1-.007-.79h-2c0 .28.004.555.007.817l2-.026zm-.047 2.17c.067-.736.056-1.47.047-2.17l-2 .027c.01.72.017 1.347-.039 1.961l1.992.182zm-1.553 1.444c.305-.065.612-.217.845-.377.121-.084.259-.195.381-.335.103-.12.294-.372.327-.732l-1.992-.183a.776.776 0 0 1 .084-.291.492.492 0 0 1 .07-.104c.022-.026.025-.023-.006-.002a.524.524 0 0 1-.094.053c-.036.017-.048.018-.03.014l.415 1.957zm-6.502 1.318c2.164-.429 4.335-.859 6.502-1.318l-.415-1.957c-2.151.456-4.31.884-6.476 1.313l.389 1.962zm-1.272.252 1.272-.252-.389-1.962-1.272.252.389 1.962zm-3.392.676 3.392-.676-.389-1.962-3.394.676.391 1.962zm-11.649 2.292c3.889-.745 7.771-1.519 11.649-2.292l-.391-1.962c-3.879.773-7.754 1.546-11.634 2.289l.376 1.965zm-1.978.157c.638-.016 1.312-.03 1.978-.157l-.376-1.965c-.475.092-.979.106-1.651.123l.049 1.999zm-.993.035c.343-.019.668-.027.993-.035l-.049-1.999c-.322.008-.677.016-1.057.037l.113 1.997zm-.694-1.995c-.083.181-.167.364-.262.56l1.799.874c.107-.219.199-.422.282-.602l-1.819-.832zm.544-1.072c-.216.353-.384.724-.544 1.072l1.819.832c.17-.371.288-.627.429-.856l-1.704-1.048zm6.158-3.832c-2.492.407-4.71 1.476-6.158 3.832l1.704 1.047c1.057-1.719 2.669-2.561 4.777-2.906l-.323-1.973zm12.22-2.024c-4.074.68-8.146 1.358-12.22 2.024l.323 1.973c4.077-.666 8.153-1.345 12.226-2.024l-.329-1.973zm7.174-1.192c-2.392.395-4.783.794-7.174 1.192l.329 1.973c2.391-.398 4.781-.797 7.172-1.192l-.327-1.973zm.673-.025c-.161-.006-.413-.018-.673.025l.327 1.973a1.75 1.75 0 0 1 .276 0l.07-1.998zm-30.263 8.739c-.808-2.755-3.219-4.836-6.156-5.338l-.337 1.971c2.226.381 3.993 1.948 4.574 3.93l1.919-.563zm-5.973.827c1.532.337 3.282.733 5.165.443l-.304-1.977c-1.457.225-2.846-.071-4.431-.419l-.43 1.953zm-1.117-.238c.367.072.735.154 1.117.238l.43-1.953c-.378-.084-.769-.17-1.162-.247l-.385 1.962zm-14.54-2.9c4.843.974 9.689 1.948 14.54 2.9l.385-1.962c-4.846-.952-9.687-1.925-14.532-2.898l-.394 1.96zm-4.822-.968 4.821.968.394-1.96-4.822-.969-.393 1.961zm-.666-.151c.217.052.44.106.666.151l.393-1.961c-.182-.036-.366-.08-.59-.134l-.47 1.944zm-.337-.08.337.08.469-1.945-.353-.083-.453 1.948zm-.773-4.304v3.33h2v-3.33h-2zm2.014-.863-.868-.126-.293 1.978.877.127.284-1.98zm1.835.277c-.611-.102-1.224-.19-1.835-.277l-.284 1.98c.615.088 1.205.172 1.79.27l.33-1.973zm3.305.552-3.305-.552-.33 1.973 3.306.551.329-1.972zm14.918 2.51c-4.971-.851-9.946-1.68-14.918-2.51l-.33 1.972c4.974.83 9.944 1.659 14.911 2.509l.337-1.971zm34.314 41.603.999-.024v-.019l-.001-.057-.005-.218a360.499 360.499 0 0 1-.154-8.743l-2 .002c.001 1.164.041 3.439.081 5.413a1197.529 1197.529 0 0 0 .073 3.374l.005.218.001.058.001.014v.005l1-.023zm-10.143 2.8c1.433-.241 4.015-.695 6.234-1.088a1862.463 1862.463 0 0 0 3.759-.67l.241-.043.063-.011a.116.116 0 0 0 .016-.003l.005-.001h.001l-.176-.984-.177-.985-.001.001h-.004a.933.933 0 0 1-.079.014l-.241.044-.883.157c-.743.133-1.763.315-2.873.511-2.221.394-4.793.846-6.216 1.085l.331 1.973zm-.74.074c.218-.015.477-.03.74-.075l-.331-1.972c-.145.024-.3.035-.538.051l.129 1.996zm-.336.024c.114-.01.222-.017.336-.024l-.129-1.996c-.112.007-.24.015-.376.027l.169 1.993zm-1.102-1.182c.007.087.014.167.019.251l1.996-.131-.022-.284-1.993.164zm-.032-.588a7.5 7.5 0 0 0 .032.588l1.993-.164a5.956 5.956 0 0 1-.025-.426l-2 .002zm-.001-8.707c-.003 2.903-.002 5.805.001 8.707l2-.002c-.003-2.901-.004-5.802-.001-8.703l-2-.002zm2.358-2.794c-.622.106-1.346.278-1.827.847-.481.569-.53 1.312-.531 1.947l2 .002c.001-.293.018-.471.042-.583.021-.1.038-.101.017-.075-.022.025-.024.008.07-.029a2.98 2.98 0 0 1 .566-.137l-.337-1.972zm1.593-.272-1.593.272.337 1.972 1.594-.273-.338-1.971zm6.135-1.041c-2.047.342-4.092.691-6.135 1.041l.338 1.971c2.043-.349 4.084-.698 6.126-1.039l-.329-1.973zm3.107 2.625c-.001-.755-.105-1.652-.779-2.223-.675-.571-1.578-.527-2.328-.402l.329 1.973c.32-.053.522-.058.644-.045.11.012.102.034.062 0-.04-.033-.02-.046.01.061.033.117.061.316.062.638l2-.002zm-28.376-34.348c-.203-.495-.388-.98-.574-1.466l-1.868.714c.185.483.378.99.591 1.51l1.851-.758zm-1.465 1.312c.127.014.235.027.352.049l.375-1.964c-.199-.038-.375-.058-.499-.072l-.228 1.987zm-.992-.306c.38.261.848.289.992.306l.228-1.987-.141-.017a1.017 1.017 0 0 1-.067-.011c-.021-.005.039.004.121.06l-1.133 1.649zm-6.273-1.976c2.366.38 4.464.733 6.273 1.976l1.133-1.649c-2.239-1.538-4.794-1.933-7.089-2.301l-.317 1.974zm-.669-.108.669.108.317-1.974-.661-.107-.325 1.973zM98.61 95.757c4.215.7 8.4 1.397 12.586 2.086l.325-1.973c-4.184-.69-8.368-1.385-12.582-2.086l-.329 1.973zm-5.218-.868 5.218.868.329-1.973-5.219-.868-.328 1.973zm-.686-1.565a7.502 7.502 0 0 1-.08.21l1.86.738a9.57 9.57 0 0 0 .098-.262l-1.878-.686zm.227-.534c-.107.197-.178.4-.227.534l1.878.686c.06-.163.084-.224.11-.272l-1.761-.948zm.562-1.046-.562 1.046 1.76.949c.19-.35.377-.7.564-1.05l-1.762-.945zm2.317-4.213c-.805 1.394-1.566 2.812-2.317 4.213l1.762.945c.754-1.405 1.5-2.795 2.287-4.158l-1.732-1zm1.828-1.095c-.424.002-.808.176-1.068.339a2.27 2.27 0 0 0-.76.756l1.732 1-.014.022a.549.549 0 0 1 .182-.122c.007-.003.006-.002-.002 0a.332.332 0 0 1-.06.005l-.01-2zm1.878-.015c-.628.006-1.254.012-1.878.015l.01 2c.63-.003 1.26-.01 1.887-.015l-.02-2zm7.402.117c-2.479-.165-4.964-.14-7.402-.117l.02 2c2.45-.024 4.859-.047 7.249.113l.133-1.996zm11.818 7.913c-2.463-4.715-6.407-7.552-11.818-7.913l-.133 1.996c4.654.31 8.008 2.69 10.178 6.843l1.773-.926zm1.283 3.004c-.386-1.01-.776-2.033-1.283-3.004l-1.773.926c.444.85.794 1.762 1.188 2.792l1.868-.714zm-2.378 13.361v2.032h2v-2.032h-2zm6.895-1h-5.895v2h5.895v-2zm1.021 1.285c-.008-.116-.016-.226-.022-.34l-1.997.109c.007.13.016.255.023.369l1.996-.138zm.034.751c0-.263-.018-.521-.034-.751l-1.996.138c.017.242.03.43.03.613h2zm.002 29.705c0-9.901.001-19.803-.002-29.705h-2c.003 9.902.002 19.804.002 29.705h2zm-2.119 2.125c.255 0 .531.001.758-.025.22-.025.611-.094.927-.411.316-.317.384-.708.409-.928.026-.227.025-.504.025-.761h-2c0 .143-.001.254-.003.349a2.263 2.263 0 0 1-.009.188c-.004.037-.006.018.011-.028a.665.665 0 0 1 .384-.385c.046-.016.065-.015.029-.011a2.12 2.12 0 0 1-.187.01c-.094.002-.205.002-.348.002l.004 2zm-1.216-.006c.401.004.808.007 1.216.006l-.004-2c-.395.001-.792-.002-1.194-.006l-.018 2zm-2.586.02a51.524 51.524 0 0 1 2.586-.02l.018-2c-.876-.007-1.78-.015-2.687.022l.083 1.998zm-2.049-1.999c-.001.426.043 1.064.514 1.526.478.47 1.119.491 1.535.473l-.083-1.998a1.734 1.734 0 0 1-.163 0l-.042-.004-.011-.001-.003-.001h-.001l.004.001.01.003a.331.331 0 0 1 .096.051.53.53 0 0 1 .11.108.32.32 0 0 1 .032.052c.016.029.02.046.019.041a.45.45 0 0 1-.011-.069 1.995 1.995 0 0 1-.006-.176l-2-.006zm.019-22.851c.001 7.618.003 15.235-.019 22.851l2 .006c.022-7.62.02-15.24.019-22.858l-2 .001zm-.001-5.998.001 5.998 2-.001-.001-5.997h-2zm-83.827 7.383H22.465v2h11.351v-2zm1 1.928v-.928h-2v.928h2zm.002 6.239-.002-6.239h-2l.002 6.24 2-.001zm-.006 15.186c.01-5.062.008-10.125.006-15.186l-2 .001c.002 5.061.003 10.121-.006 15.182l2 .003zm-5.358 7.571c3.326-1.031 5.351-3.935 5.358-7.571l-2-.003c-.005 2.832-1.527 4.912-3.95 5.663l.592 1.911zm-9.684-7.124c-.085 5.057 4.91 8.603 9.684 7.124l-.592-1.911c-3.535 1.096-7.153-1.547-7.092-5.179l-2-.034zm.375-6.207c-.168 2.041-.34 4.12-.375 6.207l2 .034c.033-2.01.2-4.024.369-6.076l-1.994-.165zm.175-2.185c-.054.726-.114 1.453-.175 2.185l1.994.165c.06-.731.12-1.466.175-2.202l-1.994-.148zm.643-8.299c-.219 2.764-.438 5.53-.643 8.299l1.994.148c.205-2.763.424-5.525.643-8.289l-1.994-.158zm.164-2.076-.164 2.076 1.994.158.164-2.076-1.994-.158zm.23-2.796c-.079.94-.157 1.868-.23 2.796l1.994.158c.073-.923.15-1.845.23-2.786l-1.993-.168zm.111-1.32-.11 1.32 1.993.168.11-1.322-1.993-.166zm45.635-33.695c.254.463.504.922.753 1.38l1.756-.958-.754-1.382-1.755.96zm3.72-5.144c-.079 1.657-1.505 3.315-3.075 3.692l.466 1.944c2.408-.577 4.484-2.968 4.606-5.541l-1.997-.095zm.104-5.474c-.01 1.844-.018 3.662-.104 5.474l1.998.095c.088-1.861.097-3.722.106-5.559l-2-.01zm.02-2.514c-.012.84-.016 1.68-.02 2.514l2 .01c.004-.836.008-1.667.02-2.496l-2-.028zm.032-.79c-.014.266-.029.526-.032.79l2 .028c.002-.216.014-.434.03-.71l-1.998-.109zm.023-.426-.022.425 1.996.11c.008-.135.016-.282.023-.441l-1.997-.094zm9.14.33c-2.63.006-5.202-.434-7.85-1.24l-.582 1.914c2.802.852 5.573 1.332 8.437 1.325l-.005-2zm7.87-1.281c-2.67.845-5.239 1.274-7.87 1.28l.005 2c2.855-.006 5.626-.473 8.47-1.374l-.604-1.906zm1.303 2.013v-1.06h-2v1.06h2zm.01 2.068c-.006-.693-.01-1.38-.01-2.068h-2c0 .695.005 1.39.01 2.081l2-.013zm-.023 4.706c.044-1.576.033-3.152.022-4.706l-2 .013c.01 1.561.021 3.101-.022 4.637l2 .056zm2.938 5.098c-1.097-.545-1.828-1.234-2.285-2.04-.462-.813-.688-1.818-.653-3.058l-2-.056c-.042 1.514.232 2.9.913 4.1.684 1.207 1.739 2.152 3.135 2.845l.89-1.791zm.355.232c-.053-.041-.19-.15-.356-.233l-.888 1.792c-.027-.013-.041-.023-.035-.02a.807.807 0 0 1 .064.05l1.215-1.59zm.109.08a3.979 3.979 0 0 1-.109-.08l-1.215 1.588c.039.03.095.073.162.12l1.162-1.627zM92.3 88.93l.7-1.284-1.755-.959-.7 1.285 1.755.957zm-2.556 4.634a348.226 348.226 0 0 0 2.556-4.635l-1.756-.957a346.406 346.406 0 0 1-2.542 4.608l1.742.984zm-1.547.854c.307-.002.602-.096.825-.206.205-.1.525-.3.722-.649l-1.742-.983a.523.523 0 0 1 .121-.15c.018-.014.024-.016.016-.012a.115.115 0 0 1-.015.006l.003-.001.01-.002a.362.362 0 0 1 .052-.003l.008 2zm-16.152-.002c5.384.022 10.768.02 16.152.002l-.008-2c-5.378.019-10.757.02-16.136-.002l-.008 2zm-1.601-.896c.195.345.51.555.729.668.231.12.543.227.872.228l.008-2c.05 0 .071.008.064.006a.168.168 0 0 1-.027-.012c-.013-.006-.014-.008-.003 0a.55.55 0 0 1 .098.125l-1.741.985zm-2.588-4.687a322.516 322.516 0 0 0 2.588 4.688l1.74-.986a320.315 320.315 0 0 1-2.572-4.659l-1.756.957zm-33.108 17.651c.007-.06.015-.114.024-.174l-1.979-.29c-.009.059-.02.136-.03.226l1.985.238zm-6.23.888c1.741-.004 3.486-.007 5.237-.007v-2c-1.753 0-3.5.003-5.241.007l.003 2zm-13.117-.029c4.365.045 8.73.037 13.116.029l-.003-2c-4.389.008-8.741.016-13.092-.029l-.021 2zm-6.681-2.047c1.991 1.073 4.206 2.021 6.68 2.047l.022-2c-1.981-.02-3.846-.78-5.754-1.808l-.948 1.761zm-1.665-.844a48.73 48.73 0 0 1 1.665.844l.948-1.761c-.577-.311-1.163-.599-1.73-.878l-.883 1.795zm-1.37-.687c.458.238.92.465 1.37.687l.883-1.795c-.453-.223-.894-.44-1.328-.666l-.924 1.774zm-2.204-3.555c0 .783.192 1.501.588 2.123.394.619.956 1.088 1.617 1.432l.924-1.774c-.412-.215-.683-.464-.854-.732-.169-.265-.275-.602-.275-1.052l-2 .003zm-.004-1.728.004 1.727 2-.002-.004-1.73-2 .005zm.005-5.37c-.014 1.793-.01 3.584-.005 5.37l2-.005c-.004-1.787-.009-3.569.005-5.35l-2-.015zm3.028-1.815c-.588-.299-1.393-.518-2.113-.091-.728.432-.91 1.25-.915 1.906l2 .016c0-.09.008-.158.016-.21a.446.446 0 0 1 .023-.089c.004-.01 0 .002-.017.023a.328.328 0 0 1-.188.113c-.024.005-.032.002-.017.004a.511.511 0 0 1 .101.024c.053.017.121.045.204.087l.906-1.783zm.19.096-.19-.096-.906 1.783.189.096.906-1.783zm6.795 2.563c-2.373-.324-4.498-1.394-6.795-2.563l-.907 1.783c2.247 1.143 4.669 2.384 7.431 2.762l.271-1.982zm3.275.25a26.757 26.757 0 0 1-3.275-.25l-.271 1.982c1.16.159 2.341.253 3.52.269l.026-2zm7.492.013c-2.504.01-5 .02-7.492-.012l-.026 2c2.512.032 5.024.022 7.526.012l-.008-2zm.947-.003c-.316 0-.631.002-.947.003l.008 2c.316 0 .63-.002.946-.003l-.007-2zm1.29-2.083c.377.776.285 1.271.128 1.526-.158.253-.558.554-1.418.557l.007 2c1.311-.005 2.48-.487 3.11-1.503.63-1.015.545-2.276-.029-3.455l-1.798.875zm-1.026-2.06c.348.69.692 1.373 1.026 2.06l1.798-.875c-.34-.7-.69-1.396-1.037-2.084l-1.787.9zm-1.027-2.064c.338.694.684 1.383 1.027 2.064l1.787-.899c-.344-.684-.685-1.36-1.016-2.04l-1.798.875zm1.744-5.47c-1.033.46-1.76 1.284-2.071 2.299-.307 1.005-.184 2.123.327 3.171l1.798-.876c-.323-.662-.35-1.258-.212-1.71.135-.444.45-.825.973-1.058l-.815-1.826zm5.253 2.336c-.444-1.084-1.196-1.922-2.155-2.36-.968-.44-2.066-.436-3.098.024l.815 1.826c.536-.239 1.035-.22 1.453-.03.427.195.852.609 1.134 1.298l1.851-.758zm3.11 7.767a682.49 682.49 0 0 0-3.11-7.767l-1.85.758a679.519 679.519 0 0 1 3.1 7.744l1.86-.735zm.254 1.273a3.55 3.55 0 0 0-.255-1.273l-1.86.736c.075.189.115.386.115.543l2-.006zm.006 11.114a3027.5 3027.5 0 0 0-.006-11.114l-2 .006c.011 3.701.008 7.403.006 11.106l2 .002zm-.001.846v-.846l-2-.002v.846l2 .002zm-.04.435c.014-.094.04-.259.04-.435l-2-.002-.002.027-.017.12 1.979.29zm116.714 22.137v-22.243h-2v22.243h2zm-2.019.579c.169.094.35.195.542.3l.954-1.758a45.47 45.47 0 0 1-.522-.289l-.974 1.747zm-.975-.52c.309.149.613.318.975.52l.974-1.747c-.351-.196-.708-.396-1.081-.575l-.868 1.802zm-3.747-.097c1.51-.263 2.647-.433 3.747.097l.868-1.802c-1.766-.851-3.55-.511-4.959-.265l.344 1.97zm-.42.073.42-.073-.344-1.97-.409.071.333 1.972zm-2.001.342c.668-.115 1.334-.23 2.001-.342l-.333-1.972c-.67.113-1.339.228-2.007.343l.339 1.971zm-4.736.787c1.585-.246 3.165-.517 4.736-.787l-.339-1.971c-1.573.27-3.137.539-4.704.782l.307 1.976zm-4.176 4.824c.003-1.34.421-2.434 1.119-3.239.699-.805 1.729-1.379 3.057-1.585l-.307-1.976c-1.739.27-3.217 1.047-4.261 2.251s-1.604 2.777-1.608 4.545l2 .004zm-.002 4.876c-.001-1.65-.002-3.263.002-4.876l-2-.004c-.004 1.616-.003 3.232-.002 4.881l2-.001zm.001 2.226-.001-2.226-2 .001.001 2.225h2zm-4.173 1.658 3.37-.678-.394-1.961-3.37.678.394 1.961zm-1.197-2.13v1.149h2v-1.149h-2zm.001-6.084-.001 6.084h2l.001-6.084h-2zm-.019-23.547c.022 7.848.02 15.697.019 23.547h2c.001-7.849.003-15.701-.019-23.552l-2 .005zm1.839-2.258c-.478.093-1.038.271-1.421.762-.374.479-.419 1.054-.418 1.496l2-.005c0-.165.011-.253.021-.296.007-.035.007-.008-.027.036-.036.046-.066.057-.044.046.032-.015.11-.044.271-.076l-.382-1.963zm13.989-2.782c-4.664.937-9.324 1.874-13.989 2.782l.382 1.963c4.673-.909 9.338-1.847 14.001-2.785l-.394-1.96zm5.805-1.166c-1.935.387-3.871.777-5.805 1.166l.394 1.96c1.935-.389 3.869-.778 5.804-1.165l-.393-1.961zm.643-.03c-.118-.005-.376-.023-.643.03l.393 1.961c-.019.004-.022.002.006.002.032 0 .071.001.151.005l.093-1.998zm.187.006c-.056 0-.111-.002-.187-.006l-.093 1.998c.071.003.171.008.28.008v-2zm-58.675.672a4.322 4.322 0 0 1-.046.174l1.927.535c.015-.055.038-.136.063-.243l-1.944-.466zm2.689-.455c-.506-.097-1.014-.194-1.527-.294l-.38 1.964 1.53.294.377-1.964zm3.28.639c-1.089-.218-2.179-.427-3.28-.639l-.377 1.964c1.103.212 2.184.42 3.263.636l.393-1.961zm4.726.952c-1.575-.318-3.15-.636-4.727-.952l-.393 1.961c1.575.316 3.149.634 4.724.952l.396-1.961zm11.139 2.223a1754.18 1754.18 0 0 1-11.139-2.223l-.396 1.961c3.714.749 7.43 1.499 11.152 2.225l.383-1.963zm1.628 1.995c0-.356-.036-.865-.37-1.301-.346-.45-.847-.614-1.258-.694l-.383 1.963a1.096 1.096 0 0 1 .158.042c-.002-.001-.016-.008-.036-.024a.407.407 0 0 1-.034-.029.673.673 0 0 1-.061-.08.362.362 0 0 1-.017-.035c-.009-.019-.011-.03-.01-.026a1.372 1.372 0 0 1 .011.181l2 .003zm-.011 22.034c0-7.345 0-14.69.011-22.034l-2-.003c-.011 7.346-.011 14.692-.011 22.037h2zm-.001 8.016.001-8.016h-2l-.001 8.015 2 .001zm-.033.602c.015-.182.033-.389.033-.603h-2c0 .118-.01.242-.026.44l1.993.163zm-.022.298c.006-.104.014-.2.022-.298l-1.993-.163c-.008.097-.017.208-.025.331l1.996.13zm-1.293.928c.092.001.168.002.245.006l.099-1.998c-.12-.006-.232-.007-.319-.008l-.025 2zm-.686-.056c.265.053.525.054.686.056l.025-2a2.024 2.024 0 0 1-.32-.017l-.391 1.961zm-7.079-1.42c2.359.474 4.718.948 7.078 1.42l.393-1.961c-2.359-.472-4.718-.946-7.077-1.42l-.394 1.961zm-12.968-2.595c4.323.859 8.645 1.727 12.968 2.595l.394-1.961c-4.323-.868-8.647-1.736-12.972-2.596l-.39 1.962zm-1.507-1.717c0 .414.097.909.514 1.281.346.308.78.393.993.436l.39-1.962a1.17 1.17 0 0 1-.158-.038c-.011-.004.04.012.106.071a.56.56 0 0 1 .144.212c.018.052.01.064.01.003l-2-.003zm.015-22.442c-.002 7.481-.005 14.962-.015 22.442l2 .003c.01-7.482.013-14.963.015-22.444l-2-.001zm.003-8.376-.003 8.376 2 .001.003-8.376-2-.001zm.074-.452c-.01.039-.074.236-.074.452h2c0 .071-.01.122-.013.135l.001-.005.013-.047-1.927-.535zm-22.22-82.592.004-.006-.004.006-.007.01 1.636 1.15.041-.059-1.67-1.1zm4.066 1.525c-.88-.6-1.772-1.207-2.678-1.808l-1.106 1.667c.895.593 1.776 1.194 2.66 1.794l1.124-1.653zm5.748 3.753c-1.941-1.163-3.82-2.441-5.748-3.753l-1.125 1.653c1.92 1.307 3.846 2.617 5.844 3.816l1.029-1.716zm21.197 7.916c-7.537-1.395-14.635-3.982-21.197-7.916l-1.029 1.716c6.781 4.065 14.107 6.73 21.862 8.167l.364-1.967zm1.75 2.09c.008-.452-.055-1.009-.458-1.458-.384-.425-.909-.561-1.292-.632l-.364 1.967c.067.012.118.023.158.034.04.011.063.02.074.025.021.009-.016-.004-.063-.056a.37.37 0 0 1-.065-.107c0 .002.004.017.007.05.003.032.005.078.004.14l1.999.037zm-.01 4.107c-.007-1.38-.015-2.745.01-4.107l-1.999-.037c-.026 1.39-.018 2.78-.011 4.155l2-.01zm-.163 7.64c.191-2.557.177-5.121.163-7.64l-2 .01c.014 2.533.027 5.018-.157 7.481l1.994.149zM89.741 68.816c7.494-3.717 11.767-9.941 12.392-18.328l-1.994-.149c-.572 7.67-4.415 13.277-11.286 16.685l.888 1.792zM58.247 52.469C60.559 67.03 76.516 75.375 89.74 68.816l-.888-1.792c-12.004 5.953-26.528-1.624-28.631-14.87l-1.975.315zm-.263-4.143c.013 1.332.041 2.749.263 4.143l1.975-.314c-.196-1.231-.225-2.514-.238-3.848l-2 .019zm.01-10.523a550.829 550.829 0 0 0-.01 10.523l2-.02a547.7 547.7 0 0 1 .01-10.483l-2-.02zm.855-1.864c-.341.257-.542.621-.656.903a2.71 2.71 0 0 0-.2.961l2 .02a.842.842 0 0 1 .054-.234.488.488 0 0 1 .045-.087c.011-.016.001.004-.041.036l-1.202-1.599zm10.51-12.19c-2.625 4.825-6.114 8.89-10.51 12.19l1.201 1.6c4.629-3.474 8.306-7.761 11.066-12.834l-1.757-.956zm.18-.282c-.03.04-.109.152-.18.282l1.756.957a1.967 1.967 0 0 1 .059-.088l-1.636-1.151zM45.341 86.53c2.206-1.123 4.703-2.351 8.843-2.495l-.069-1.998c-4.582.159-7.395 1.547-9.681 2.71l.907 1.783zm-1.69-3.058c.065.562.142 1.224.241 2.262l1.99-.19c-.1-1.058-.179-1.736-.245-2.302l-1.986.23zm-.296-3.598c.098 1.89.178 2.581.296 3.598l1.986-.23c-.114-.986-.19-1.633-.285-3.471l-1.997.103zm3.347-17.544c-2.362 5.584-3.665 11.41-3.347 17.544l1.997-.103c-.299-5.774.923-11.298 3.192-16.662l-1.842-.78zm2.874-20.363c.483 7.068-.13 13.879-2.874 20.363l1.842.78c2.904-6.863 3.524-14.012 3.028-21.28l-1.996.137zm-.027-.396.027.396 1.996-.136-.028-.397-1.995.137zm.26-13.384c-.872 4.528-.558 9.036-.26 13.384l1.995-.137c-.3-4.39-.586-8.638.229-12.869l-1.964-.378zM73.924 4.02C61.97 6.411 52.11 16.245 49.81 28.188l1.964.378c2.144-11.134 11.375-20.35 22.543-22.585l-.393-1.96zm36.1 22.586C105.997 10.822 90.235.758 73.924 4.02l.392 1.961c15.268-3.053 30.006 6.366 33.77 21.12l1.938-.495zm.91 9.691c.214-3.295-.1-6.517-.91-9.69l-1.938.493a28.876 28.876 0 0 1 .853 9.068l1.995.13zm-.415 10.864c.045-3.624.182-7.25.415-10.864l-1.995-.129a210.14 210.14 0 0 0-.42 10.967l2 .026zm3.111 15.451c-2.084-4.942-3.179-10.1-3.111-15.452l-2-.025c-.071 5.65 1.086 11.08 3.268 16.254l1.843-.777zm3.206 17.913c.38-6.24-.793-12.19-3.206-17.913l-1.843.777c2.307 5.47 3.412 11.115 3.053 17.015l1.996.121zm-.322 3.579c.123-1.172.249-2.372.322-3.579l-1.996-.121c-.07 1.156-.192 2.312-.315 3.491l1.989.209zm-.163 1.599c.051-.53.106-1.062.163-1.6l-1.989-.208a160.63 160.63 0 0 0-.165 1.617l1.991.19zm-2.755.223c.438.198.9.408 1.377.605l.765-1.848c-.442-.183-.874-.378-1.317-.579l-.825 1.822zm-2.745-1.066c.89.229 1.755.618 2.745 1.066l.825-1.822c-.96-.434-1.984-.901-3.072-1.181l-.498 1.937zm-5.147-.798c1.705.057 3.45.36 5.147.798l.498-1.937c-1.794-.462-3.688-.797-5.578-.86l-.067 2zm-7.76-.052c2.604-.016 5.186-.033 7.76.052l.067-1.999c-2.621-.086-5.242-.07-7.84-.053l.013 2zm-3.395.014c1.133 0 2.266-.006 3.394-.014l-.012-2c-1.13.008-2.255.015-3.38.014l-.002 2zm-2.866-2.833c0 .752.132 1.555.72 2.133.585.574 1.39.7 2.146.7l.002-2c-.612 0-.74-.12-.746-.127-.003-.002-.122-.115-.122-.709l-2 .003zm0-3.149c-.001 1.049-.002 2.099 0 3.15l2-.004c-.002-1.047-.001-2.095 0-3.144l-2-.002zm-.014-6.152c.016 2.049.015 4.098.014 6.152l2 .002c0-2.053.002-4.111-.014-6.17l-2 .016zm1.103-2.02c-.333.207-.643.477-.85.867-.206.386-.256.786-.253 1.153l2-.016c-.001-.18.026-.212.018-.197-.01.018-.003-.02.142-.11l-1.057-1.697zm11.671-17.782c-1.185 7.716-5.035 13.651-11.67 17.782l1.056 1.697c7.14-4.444 11.319-10.894 12.591-19.175l-1.977-.304zm.208-3.255c-.007 1.12-.047 2.209-.208 3.255l1.977.304c.183-1.192.224-2.398.231-3.547l-2-.012zm.012-10.067c.004 3.358.008 6.713-.012 10.067l2 .012c.02-3.362.016-6.724.012-10.081l-2 .002zm-.003-2.394.003 2.394 2-.002-.003-2.393-2 .001zm-1.479-1.71c.701.107 1.014.302 1.173.485.157.182.306.517.306 1.225l2-.001c0-.955-.197-1.844-.794-2.534-.597-.688-1.448-1.01-2.386-1.152l-.299 1.977zM71.415 20.23c9.24 7.76 19.812 12.624 31.766 14.434l.299-1.978c-11.581-1.753-21.814-6.458-30.78-13.987l-1.285 1.531zm-.183-.154.183.155 1.286-1.532a33.986 33.986 0 0 1-.171-.146l-1.298 1.523zm-.205-.174c.067.055.133.112.205.174l1.298-1.523-.223-.188-1.28 1.537zm-2.651.52c.464-.967.864-1.201 1.089-1.247.238-.047.72.025 1.561.727l1.281-1.537c-.982-.819-2.087-1.38-3.235-1.15-1.161.232-1.946 1.187-2.5 2.344l1.804.864zm-8.398 11.471c3.655-3.225 6.328-7.151 8.398-11.47l-1.804-.864c-1.983 4.139-4.51 7.827-7.917 10.835l1.323 1.5zm-3.562 2.8c1.206-.873 2.42-1.791 3.562-2.8l-1.323-1.5c-1.072.946-2.225 1.82-3.413 2.682l1.174 1.619zm-.892 1.713c-.002-.41.076-.716.206-.965.13-.251.343-.498.686-.747l-1.173-1.62c-.542.393-.985.864-1.287 1.443-.303.58-.435 1.217-.432 1.898l2-.009zm-.012 4.48c.01-1.49.018-2.984.012-4.48l-2 .008a433.72 433.72 0 0 1-.012 4.46l2 .012zm.039 7.964c-.07-2.645-.055-5.295-.039-7.964l-2-.012c-.016 2.663-.032 5.346.04 8.03l1.999-.054zm11.72 20.908c-7.622-4.896-11.478-11.882-11.72-20.908l-2 .054c.26 9.675 4.45 17.277 12.64 22.537l1.08-1.683zm1.254 2.282c.006-.46-.07-.915-.311-1.34-.238-.418-.583-.71-.942-.942L66.19 71.44c.209.134.265.214.284.248.016.026.053.102.05.326l2 .025zm-.02 6.342c-.003-2.12-.007-4.232.02-6.341l-2-.026c-.027 2.127-.023 4.253-.02 6.37l2-.003zm.003 2.612c0-.871 0-1.742-.002-2.612l-2 .003c.001.87.003 1.74.002 2.608l2 .001zm-2.997 3.032c.794 0 1.69-.082 2.307-.709.611-.621.69-1.518.69-2.323h-2c0 .373-.025.613-.062.769-.034.145-.067.165-.054.152.014-.015 0 .016-.137.049-.149.036-.38.062-.746.062l.002 2zm-3.572-.003c1.19.002 2.38.004 3.572.003l-.002-2-3.567-.003-.003 2zm-7.78.015c2.591-.022 5.183-.019 7.78-.015l.003-2a780.416 780.416 0 0 0-7.8.015l.017 2zm-31.17 6.457-.37-.768-1.8.87c.11.228.23.476.364.759l1.806-.861zm-3.464 1.352c.829.022 1.666.045 2.524.078l.075-1.999c-.87-.033-1.717-.056-2.544-.078l-.055 1.999zm-5.466-.25c1.806.15 3.616.2 5.466.25l.055-2c-1.86-.05-3.614-.099-5.355-.244l-.166 1.993zM8.7 89.711c1.557.797 3.32 1.714 5.358 1.883l.166-1.993c-1.58-.131-2.995-.842-4.613-1.67l-.911 1.78zm-1.313-.655c.434.205.865.426 1.313.655l.911-1.78c-.443-.227-.902-.462-1.368-.683l-.856 1.808zm-6.343 3.87c.08-3.353 3.285-5.32 6.343-3.87l.856-1.808c-4.348-2.06-9.083.81-9.198 5.631l2 .048zm.003 7.208c-.067-2.398-.06-4.803-.003-7.207l-2-.048a140.96 140.96 0 0 0 .004 7.311l2-.056zm3.363 5.649c-2.205-1.236-3.292-3.126-3.363-5.649l-1.999.056c.09 3.192 1.537 5.741 4.384 7.337l.978-1.744zm1.65.845a33.505 33.505 0 0 1-1.65-.845l-.978 1.744c.583.327 1.18.619 1.747.897l.88-1.796zm1.53.778a39.221 39.221 0 0 0-1.53-.778l-.88 1.796c.504.247.986.484 1.454.739l.956-1.757zm9.696 2.353c-3.436.189-6.636-.689-9.696-2.353l-.956 1.757c3.325 1.809 6.892 2.805 10.762 2.593l-.11-1.997zm1.93 1.908c.014-.374-.012-.972-.449-1.426-.451-.469-1.064-.504-1.48-.482l.109 1.997c.117-.006.15.004.135.001a.464.464 0 0 1-.205-.129.44.44 0 0 1-.113-.187c0-.004.009.036.005.153l1.998.073zm-.144 4.651c.044-1.555.087-3.104.144-4.651l-1.998-.074a541.22 541.22 0 0 0-.145 4.669l2 .056zm-.349 9.013c.181-3.008.265-6.02.35-9.013l-2-.056c-.084 2.998-.168 5.978-.346 8.949l1.996.12zm-.753 10.351c.272-3.441.545-6.893.753-10.351l-1.996-.12c-.207 3.436-.478 6.869-.75 10.313l1.993.158zm-.592 7.864c.178-2.62.385-5.239.592-7.864l-1.993-.158c-.207 2.624-.415 5.253-.594 7.886l1.995.136zm2.754 7.296c-1.981-2.053-2.945-4.486-2.754-7.297l-1.995-.135c-.233 3.418.968 6.393 3.31 8.821l1.44-1.389zm8.482 2.995c-3.346.176-6.203-.634-8.482-2.995l-1.439 1.389c2.78 2.881 6.262 3.801 10.026 3.604l-.105-1.998zm6.977-3.668c-1.727 2.32-4.044 3.515-6.977 3.668l.105 1.998c3.499-.184 6.378-1.651 8.476-4.472l-1.604-1.194zm.939-1.666c-.318.648-.59 1.196-.94 1.666l1.605 1.194c.479-.643.828-1.362 1.13-1.98l-1.795-.88zm.453-.895c-.163.302-.313.608-.453.895l1.796.88c.143-.292.277-.565.418-.827l-1.761-.948zm1.397-2.597-1.398 2.597 1.762.948 1.397-2.598-1.761-.947zm10.215-18.966c-3.412 6.318-6.814 12.642-10.215 18.966l1.761.947c3.401-6.323 6.802-12.646 10.214-18.963l-1.76-.95zm.65-.696c-.104.08-.448.321-.65.696l1.76.95c-.03.055-.056.075-.036.056a2.238 2.238 0 0 1 .14-.111l-1.214-1.591zm.136-.107c-.026.023-.06.05-.136.107l1.213 1.591c.063-.048.166-.126.265-.216l-1.342-1.482zm1.615.344a2.354 2.354 0 0 1-.098-.136l-1.692 1.066c.069.109.145.209.19.27l1.6-1.2zm.427.812c-.097-.398-.35-.709-.427-.812l-1.6 1.2c.028.038.049.064.067.09l.034.05c.014.024-.003.001-.017-.054l1.943-.474zm3.565 7.83c-1.703-2.374-2.872-4.984-3.565-7.83l-1.943.473c.75 3.082 2.023 5.93 3.883 8.523l1.625-1.166zm.525 1.663c-.008-.533-.171-1.17-.525-1.663l-1.625 1.166c.072.1.147.32.15.527l2-.03zm.017 4.465c.002-1.482.005-2.973-.017-4.464l-2 .029c.021 1.473.02 2.947.017 4.432l2 .003zm-.001 1.954v-1.954l-2-.003v1.96l2-.003zm.008 3.802-.008-3.802-2 .003.008 3.804 2-.005zm.01 7.815c.003-2.606-.004-5.211-.01-7.815l-2 .005c.006 2.604.013 5.206.01 7.808l2 .002zm-.261-.069c-.114.01-.11-.008-.047.014a.547.547 0 0 1 .267.213c.057.087.057.144.051.1a1.973 1.973 0 0 1-.01-.258l-2-.002c0 .153.002.349.03.544.028.195.09.459.257.713.405.618 1.081.713 1.613.67l-.161-1.994zm1.752-.026c-.544-.01-1.146-.022-1.752.026l.16 1.994c.49-.04.993-.031 1.554-.02l.038-2zm.718.009c-.234 0-.47-.004-.718-.009l-.038 2c.245.004.5.009.758.009l-.002-2zm.185-.145c0 .145 0 .258-.003.353a2.128 2.128 0 0 1-.011.188c-.005.035-.005.015.013-.033a.638.638 0 0 1 .156-.229.614.614 0 0 1 .22-.139c.04-.014.053-.012.011-.007-.04.004-.103.008-.204.01-.1.002-.218.002-.367.002l.002 2c.269 0 .553.001.785-.024.223-.024.613-.089.934-.396.33-.315.406-.709.435-.94.029-.234.028-.517.029-.78l-2-.005zm.008-5.597c-.002 1.866-.004 3.732-.008 5.597l2 .005c.004-1.867.006-3.734.008-5.6l-2-.002zm.04-12.428c-.033 4.144-.036 8.288-.04 12.428l2 .002c.004-4.141.007-8.278.04-12.414l-2-.016zm-.885-2.686c.632.83.893 1.642.885 2.686l2 .016c.012-1.474-.386-2.72-1.294-3.914l-1.591 1.212zm-.2-22.592c-4.944 6.728-4.87 15.933.2 22.592l1.59-1.212a16.866 16.866 0 0 1-.178-20.195l-1.612-1.185zm1.837-2.209c-.618.699-1.26 1.425-1.837 2.209l1.612 1.185c.514-.7 1.095-1.359 1.724-2.07l-1.5-1.324zm.862-.989c-.283.333-.57.658-.862.989l1.499 1.324c.29-.329.59-.668.886-1.017l-1.523-1.296zm-2.7-1.946 2.693 3.234 1.537-1.28-2.693-3.234-1.537 1.28zm1.072.384c.087-.064.202-.147.323-.245l-1.253-1.558c-.08.063-.157.12-.247.186l1.177 1.617zm-.249.196c.015-.018.049-.051.249-.196l-1.178-1.617c-.149.109-.414.294-.625.555l1.554 1.258zm-1.102 1.327c.365-.434.738-.877 1.102-1.327l-1.554-1.258c-.35.432-.71.86-1.078 1.297l1.53 1.288zM54 110.553c.753-1.172 1.664-2.256 2.624-3.396l-1.53-1.288c-.946 1.123-1.942 2.304-2.776 3.602L54 110.553zm-1.456 2.85c.468-1.035.901-1.988 1.456-2.85l-1.682-1.082c-.648 1.007-1.14 2.097-1.597 3.108l1.823.824zm-1.01 2.106c.374-.699.7-1.42 1.01-2.106l-1.823-.824a33.533 33.533 0 0 1-.95 1.988l1.763.942zm-9.298 17.299a5660.476 5660.476 0 0 0 9.298-17.299l-1.763-.942c-3.085 5.77-6.19 11.53-9.296 17.292l1.76.949zm-2.707 5.023 2.707-5.023-1.76-.949-2.708 5.024 1.76.948zm-.298.485c.095-.144.202-.308.298-.485l-1.761-.948a4.955 4.955 0 0 1-.212.34l1.675 1.093zm-.16.249c.056-.089.108-.169.16-.249l-1.675-1.093-.177.275 1.692 1.067zm-1.86-.555.023.157 1.982-.271-.029-.195-1.976.309zm-.027-.287c0 .129.021.251.027.287l1.976-.309-.003-.021-.003-.016v-.009a.363.363 0 0 1 .003.068h-2zm.002-32.197c-.005 10.732-.004 21.465-.002 32.198l2-.001c-.002-10.732-.003-21.464.002-32.196l-2-.001zm.189-1.12c-.163.405-.189.825-.189 1.12l2 .001c0-.207.024-.324.044-.376l-1.855-.745zm1.145-2.934c-.38.986-.755 1.964-1.145 2.933l1.855.747c.397-.986.778-1.978 1.157-2.961l-1.867-.719zm2.96-7.07c-1.13 2.312-2.054 4.715-2.96 7.07l1.867.719c.911-2.37 1.805-4.69 2.89-6.91l-1.797-.878zm11.787-7.86c-5.333.37-9.434 3.05-11.787 7.86l1.797.88c2.03-4.151 5.487-6.422 10.129-6.745l-.14-1.995zm5.706-.127c-1.876-.003-3.792-.007-5.706.127l.139 1.995c1.83-.128 3.676-.125 5.564-.122l.003-2zm3.303-.02c-1.094.024-2.191.023-3.303.02l-.003 2c1.107.002 2.229.004 3.352-.021l-.046-2zm2.29 1.357c-.206-.379-.482-.76-.909-1.024-.435-.27-.91-.345-1.381-.334l.046 2c.227-.006.282.034.283.035.011.007.08.052.202.277l1.758-.954zm8.688 15.962c-2.9-5.32-5.8-10.638-8.689-15.962l-1.758.954c2.89 5.326 5.79 10.647 8.691 15.966l1.756-.958zm5.43 9.966c-1.808-3.323-3.619-6.645-5.43-9.966l-1.756.958c1.811 3.321 3.622 6.642 5.43 9.964l1.757-.956zm1.409 1.258c-.343-.002-.55-.108-.733-.277-.222-.204-.422-.515-.675-.981l-1.757.956c.257.473.59 1.047 1.076 1.496a2.99 2.99 0 0 0 2.073.806l.016-2zm1.414-1.217c-.246.457-.45.761-.67.955-.183.162-.395.265-.744.262l-.016 2c.863.007 1.547-.288 2.085-.764.5-.442.842-1.015 1.105-1.503l-1.76-.95zm4.362-8.017a1761.914 1761.914 0 0 0-4.362 8.017l1.76.95c1.443-2.673 2.9-5.339 4.357-8.008l-1.755-.959zm1.068-1.955-1.068 1.955 1.755.959 1.068-1.955-1.755-.959zm.308-.5c-.11.168-.214.328-.308.5l1.755.959c.05-.092.11-.185.23-.37l-1.677-1.089zm.223-.348c-.086.137-.159.248-.223.348l1.677 1.089c.065-.1.144-.221.237-.369l-1.69-1.068zm1.846 1.685v-1.151h-2v1.151h2zm0 8.626v-8.626h-2v8.626h2zm0 25.877v-25.877h-2v25.877h2zm1.638 1.953c-.924-.18-1.231-.375-1.367-.537-.131-.156-.27-.483-.27-1.416h-2c0 1.018.126 1.973.739 2.703.609.725 1.526 1.021 2.517 1.213l.381-1.963zm4.36.861c-1.45-.289-2.904-.579-4.36-.861l-.38 1.963c1.45.282 2.898.57 4.35.859l.39-1.961zm5.337 1.049c-1.779-.341-3.556-.695-5.337-1.049l-.39 1.961c1.78.355 3.564.71 5.351 1.052l.376-1.964zm1.657 2.069c.005-.405-.044-.925-.386-1.366-.351-.454-.854-.623-1.271-.703l-.376 1.964c.052.01.089.02.116.028l.028.01.009.003s-.012-.006-.03-.019a.36.36 0 0 1-.095-.121c-.007-.016-.008-.023-.007-.016a1.29 1.29 0 0 1 .012.197l2 .023zm-.006 6.828c-.01-2.283-.021-4.556.006-6.828l-2-.023c-.027 2.29-.016 4.58-.006 6.86l2-.009zm.008 1.954-.008-1.954-2 .009.008 1.951 2-.006zm.028.617c-.015-.244-.027-.433-.028-.617l-2 .006c.001.257.018.508.033.74l1.995-.129zm.023.373a22.077 22.077 0 0 0-.023-.373l-1.995.13c.007.116.015.23.021.348l1.997-.105zm.073-.954c-.353.003-.708.007-1.072.007v2c.376 0 .74-.004 1.092-.007l-.02-2zm2.409.022c-.804-.038-1.605-.03-2.409-.022l.02 2a40.155 40.155 0 0 1 2.294.02l.095-1.998zm-.187.125c.001.06-.001.105-.003.139a.29.29 0 0 1-.007.05c0 .002.017-.077.099-.169a.56.56 0 0 1 .13-.105.39.39 0 0 1 .092-.04c.014-.004.013-.002-.009 0a.84.84 0 0 1-.115 0l-.096 1.998c.421.02 1.041-.021 1.484-.514.407-.451.428-1.036.425-1.377l-2 .018zm.001-6.184c-.009 2.056-.019 4.119-.001 6.184l2-.018c-.018-2.048-.008-4.099.001-6.156l-2-.01zm.008-1.771-.008 1.771 2 .01.008-1.774-2-.007zm.027-.681c-.013.226-.026.451-.027.681l2 .008c.001-.167.01-.339.024-.575l-1.997-.114zm.02-.373-.02.373 1.997.114.021-.394-1.998-.093zm2.334-.708-1.143-.227-.384 1.963 1.135.225.392-1.961zm2.28.44c-.745-.133-1.488-.281-2.28-.44l-.392 1.961c.788.158 1.552.311 2.321.448l.351-1.969zm2.753.564c-.9-.197-1.823-.399-2.753-.564l-.351 1.969c.886.157 1.77.35 2.678.549l.426-1.954zm7.572.836c-2.509.261-4.949-.264-7.572-.836l-.426 1.954c2.57.561 5.325 1.171 8.205.871l-.207-1.989zm3.776 2.347c-.323-.706-.73-1.389-1.383-1.842-.686-.477-1.491-.599-2.393-.505l.207 1.989c.601-.062.876.041 1.045.159.203.141.426.421.705 1.031l1.819-.832zm8.268 5.355c-1.969.002-3.625-.472-4.979-1.352-1.356-.882-2.468-2.208-3.289-4.003l-1.818.832c.953 2.083 2.294 3.728 4.016 4.848 1.724 1.12 3.77 1.677 6.072 1.675l-.002-2zm8.254-5.402c-.845 1.795-1.955 3.133-3.303 4.026-1.344.89-2.982 1.375-4.951 1.376l.002 2c2.31-.001 4.343-.576 6.054-1.709 1.707-1.13 3.037-2.779 4.008-4.841l-1.81-.852zm2.057-1.552c-.425.065-.848.201-1.228.485-.378.284-.635.657-.829 1.067l1.81.852c.101-.214.178-.288.219-.319.04-.029.121-.076.329-.108l-.301-1.977zm5.622-.903c-1.874.314-3.747.618-5.623.903l.302 1.977a393.22 393.22 0 0 0 5.651-.907l-.33-1.973zm3.734-3.666c-.267 1.273-.658 2.056-1.186 2.575-.524.516-1.295.882-2.548 1.091l.33 1.973c1.484-.248 2.699-.731 3.621-1.638.918-.903 1.432-2.115 1.74-3.592l-1.957-.409zm1.365-1.325a2.354 2.354 0 0 0-.75.403c-.177.141-.516.45-.615.922l1.957.409a.612.612 0 0 1-.056.163c-.018.035-.035.058-.043.069-.015.019-.018.018.002.002a.459.459 0 0 1 .065-.042c.026-.014.038-.018.031-.016l-.591-1.91zm1.266-1.654c-.008.641-.128.932-.256 1.098-.131.171-.39.364-1.01.556l.591 1.91c.792-.245 1.509-.602 2.004-1.246.5-.65.66-1.438.671-2.291l-2-.027zm.006-2.321c.002.78.005 1.551-.006 2.321l2 .027c.011-.789.008-1.576.006-2.354l-2 .006zm-.002-.996.002.996 2-.006-.002-.99h-2zm0-10.154v10.154h2v-10.154h-2zm-.002-29.559c.003 9.853.003 19.706.002 29.559h2c.001-9.853.001-19.706-.002-29.56l-2 .001zm-2.074-1.727c1.004-.169 1.447-.007 1.644.156.192.16.43.556.43 1.571h2c0-1.235-.277-2.381-1.152-3.109-.87-.723-2.047-.793-3.254-.59l.332 1.972zm-6.981 1.157c2.326-.382 4.654-.765 6.981-1.157l-.332-1.972c-2.322.391-4.646.773-6.973 1.155l.324 1.974zm-4.709.777c1.569-.261 3.139-.519 4.709-.777l-.324-1.974c-1.57.258-3.141.517-4.712.778l.327 1.973zm-3.02.492c1.005-.162 2.013-.325 3.02-.492l-.327-1.973c-1.002.166-2.005.328-3.011.49l.318 1.975zm-8.205 1.425c2.713-.54 5.449-.981 8.205-1.425l-.318-1.975c-2.75.443-5.522.89-8.277 1.438l.39 1.962zm-2.911.965c1.041-.413 1.967-.778 2.911-.965l-.39-1.962c-1.153.23-2.249.667-3.259 1.068l.738 1.86zm-1.462.56c.502-.179.994-.374 1.462-.56l-.738-1.859c-.474.188-.931.37-1.394.534l.67 1.885zm-1.265-.569.023.047 1.814-.841a5.506 5.506 0 0 0-.036-.076l-1.801.87zm-.186-.407c.07.167.147.326.186.407l1.801-.87a6.237 6.237 0 0 1-.139-.303l-1.848.765zm-.789-1.993c.254.658.514 1.328.79 1.993l1.847-.767a87.876 87.876 0 0 1-.772-1.948l-1.865.722zm-3.599-6.841c1.693 1.943 2.614 4.295 3.599 6.841l1.865-.722c-.965-2.494-1.995-5.182-3.956-7.433l-1.508 1.314zm-.355-1.384c-.016.16-.021.363.008.575.026.185.097.521.346.808l1.509-1.312a.608.608 0 0 1 .114.186c.012.033.013.05.012.043 0-.004-.002-.018-.002-.04 0-.021.001-.044.003-.064l-1.99-.196zm.041-.42-.041.42 1.99.196.042-.42-1.991-.196zm.579-5.536c-.217 1.847-.398 3.697-.579 5.536l1.991.195c.18-1.842.36-3.672.575-5.498l-1.987-.233zm-2.646-19.58c2.52 6.303 3.44 12.828 2.646 19.58l1.987.233c.833-7.094-.136-13.953-2.775-20.555l-1.858.742zm-3.224-11.44c.538 4.007 1.758 7.772 3.224 11.44l1.858-.742c-1.436-3.592-2.592-7.186-3.1-10.965l-1.982.266zm-.064-10.953c-.213 3.566-.434 7.246.064 10.952l1.982-.266c-.468-3.483-.264-6.97-.05-10.567l-1.996-.119zm.164-3.03c-.044 1.006-.104 2.014-.164 3.03l1.996.12c.06-1.015.121-2.038.166-3.063l-1.998-.087zm-.462-9.794c.626 3.196.609 6.443.462 9.794l1.998.087c.148-3.382.176-6.826-.498-10.266l-1.962.385zM73.463 1.655c18.33-3.611 35.788 8.068 39.363 26.326l1.962-.385C111 8.246 92.483-4.13 73.076-.307l.387 1.962zM46.829 34.634c-.252-15.854 11.13-29.925 26.634-32.98l-.387-1.961C56.621 2.934 44.562 17.847 44.829 34.666l2-.032zm.373 8.121c-.214-2.697-.33-5.409-.373-8.121l-2 .032c.043 2.747.161 5.502.38 8.248l1.993-.159zm-3.14 19.816c2.749-6.36 3.684-12.968 3.14-19.816l-1.994.159c.521 6.553-.374 12.83-2.981 18.864l1.836.793zm-3.066 13.212c.268-4.587 1.252-9.013 3.067-13.212l-1.836-.793c-1.915 4.431-2.947 9.089-3.228 13.889l1.997.116zm.618 10.952c-.491-3.679-.83-7.312-.618-10.952l-1.997-.116c-.223 3.831.136 7.614.633 11.333l1.982-.265zm.09.53a10.985 10.985 0 0 1-.09-.53L39.632 87c.029.216.07.437.106.63l1.966-.365zm-.071 2.377c.22-.456.242-.933.221-1.31-.02-.377-.094-.765-.15-1.067l-1.966.364c.06.33.107.587.12.813.012.229-.019.315-.027.333l1.802.867zm-1.752 2.707c.609-.82 1.273-1.71 1.752-2.707l-1.802-.867c-.383.795-.926 1.532-1.556 2.382l1.606 1.192zm-.756 1.041c.243-.35.496-.69.756-1.041l-1.606-1.192c-.258.347-.529.713-.792 1.092l1.642 1.141zm-1.869-.488.124.299 1.848-.763-.125-.303-1.847.767zm-.199-.482.199.482 1.847-.767c-.071-.172-.132-.318-.19-.463l-1.855.748zm-1.1-2.754c.365.917.73 1.836 1.1 2.753l1.855-.747c-.367-.913-.731-1.828-1.096-2.745l-1.858.739zm-2.47-6.084c.85 2.01 1.658 4.041 2.47 6.084l1.86-.74c-.812-2.038-1.627-4.09-2.488-6.124l-1.842.78zm-8.272-3.32c3.215-1.41 6.878.028 8.272 3.32l1.842-.78c-1.827-4.316-6.678-6.23-10.917-4.371l.803 1.831zm-3.121 8.352c-1.462-3.262-.053-6.96 3.121-8.352l-.803-1.831c-4.222 1.852-6.046 6.756-4.143 11l1.825-.817zm.525 1.112c-.21-.435-.373-.773-.525-1.112l-1.825.818c.166.37.342.735.55 1.165l1.8-.87zM68.367 44.88a2.456 2.456 0 0 1-2.428-2.5l-2-.029a4.456 4.456 0 0 0 4.396 4.528l.032-2zm2.543-2.386c-.038 1.36-1.127 2.408-2.543 2.386l-.032 2c2.484.04 4.506-1.849 4.574-4.331l-1.999-.055zm-2.457-2.544a2.478 2.478 0 0 1 2.457 2.544l2 .055a4.478 4.478 0 0 0-4.439-4.6l-.018 2zm-2.514 2.43c.019-1.346 1.14-2.443 2.514-2.43l.018-2c-2.46-.023-4.497 1.941-4.532 4.401l2 .028zm20.43 9.585c.116 3.093-2.885 5.949-6.542 5.884l-.035 2c4.579.08 8.742-3.505 8.576-7.958l-1.999.074zm.002.96c.327.002.66.003.998.003v-2c-.332 0-.66-.002-.988-.003l-.01 2zm.004 0v-2 2zm0 0v-2 2zm-2.768.026c.9-.035 1.806-.031 2.763-.026l.01-2c-.95-.005-1.9-.01-2.852.028l.079 1.998zm.261-.106c-.02.05-.038.07-.033.064a.14.14 0 0 1 .018-.019c.01-.008.007-.003-.016.008a.65.65 0 0 1-.23.053l-.08-1.998c-.445.017-.791.264-.964.41a1.954 1.954 0 0 0-.544.72l1.85.762zm-3.81 2.63c.882.01 1.681-.219 2.352-.7.664-.476 1.137-1.151 1.458-1.93l-1.849-.763c-.214.52-.482.858-.774 1.067-.284.204-.655.332-1.165.326l-.022 2zm-3.705-2.638c.306.769.765 1.435 1.412 1.91.652.48 1.432.719 2.293.728l.022-2c-.494-.005-.854-.135-1.13-.338-.282-.208-.539-.538-.738-1.04l-1.859.74zm.441.122a.827.827 0 0 1-.294-.063.672.672 0 0 1-.132-.073c-.045-.032-.06-.054-.052-.044.005.007.015.02.026.038l.011.02 1.858-.74a2.3 2.3 0 0 0-.36-.6 1.74 1.74 0 0 0-.313-.296 1.235 1.235 0 0 0-.682-.24l-.062 1.998zm-3.02-.024a88.763 88.763 0 0 1 3.02.024l.062-1.999c-1.039-.032-2.076-.029-3.088-.026l.007 2zm-.004 0h.001v-2h-.001v2zm-.002 0h.002v-2h-.002v2zm-.914.001c.306 0 .613 0 .918-.002l-.007-2-.91.002v2zm6.973 4.913c-1.554-.027-3.118-.767-4.271-1.906-1.157-1.143-1.8-2.584-1.704-3.935l-1.995-.143c-.148 2.079.836 4.061 2.293 5.5 1.461 1.444 3.497 2.446 5.642 2.484l.035-2zm7.501-15.443c-.004 2.5 1.92 4.459 4.419 4.474l.012-2c-1.387-.009-2.433-1.06-2.43-2.47l-2-.004zm4.452-4.456c-2.483-.003-4.447 1.973-4.452 4.456l2 .003c.003-1.388 1.08-2.46 2.45-2.46l.002-2zm4.47 4.533c.014-2.53-1.941-4.53-4.47-4.533l-.003 2c1.404.002 2.481 1.083 2.474 2.522l2 .011zm-4.503 4.397c2.493.016 4.49-1.905 4.504-4.397l-2-.01c-.008 1.356-1.074 2.416-2.492 2.407l-.012 2z" fill="#fff"/></svg>