<svg>
	<symbol xmlns="http://www.w3.org/2000/svg" viewBox="0 0 8 15" id="arrow-nav">
		<path opacity=".497" d="m.5 2.5 5 5-5 5v2l7-7-7-7v2z">
		</path>
	</symbol>
	<symbol xmlns="http://www.w3.org/2000/svg" viewBox="0 0 24 15" id="arrow-slide">
		<path d="M.914 6.796h19.611L14.216.5h2.1l6.998 6.995-6.997 7.005h-2.101l6.31-6.3H.913V6.796z" fill-opacity=".552">
		</path>
	</symbol>
	<symbol xmlns="http://www.w3.org/2000/svg" viewBox="0 0 50 51" id="nav-icon1">
		<path opacity=".78" d="m27.259 5 .032.002c-.01.147-.013.295-.018.443-.01.325-.019.649-.08.963-.247 1.286-1.501 2.231-2.74 2.112-1.466-.14-2.532-1.215-2.547-2.603L21.9 5.56c-.01-.648-.022-1.3.07-1.935.203-1.388 1.441-2.258 2.922-2.151 1.265.09 2.326 1.233 2.366 2.554.006.222.004.444.003.666L27.259 5zm1.13 2.433c.333-.785.331-1.607.33-2.433l-.001-.157v-.462c.009-1.11-.273-2.122-1.038-2.956C26.526.17 25.1-.289 23.46.18c-1.623.465-2.638 1.584-2.917 3.253-.103.612-.092 1.246-.082 1.876.003.188.006.376.007.563 0 1.968 1.41 3.643 3.363 4.023 1.877.366 3.806-.683 4.559-2.462zM7.4 4.963h.032l-.002.317c-.003.228-.006.457.004.685.063 1.423 1.159 2.493 2.617 2.563 1.286.062 2.517-.93 2.682-2.255.094-.756.083-1.531.046-2.294-.064-1.33-1.13-2.418-2.386-2.506-1.453-.103-2.628.732-2.904 2.111-.061.307-.068.625-.075.943-.003.146-.006.29-.014.435zm6.855.034-.002.101c-.009.754-.018 1.5-.3 2.222-.685 1.75-2.451 2.796-4.221 2.628-2.085-.199-3.619-1.89-3.715-3.723-.051-.976-.077-1.975.074-2.934.302-1.91 2.153-3.342 4.076-3.288 2.019.056 3.728 1.538 4.002 3.496.047.338.057.682.068 1.025.005.158.01.315.018.473zm22.256-.413-.09.013c-.183-1.228.644-2.503 1.702-2.946 1.084-.454 2.441-.061 3.027.87-.24.128-.48.26-.72.392-.556.305-1.113.61-1.688.877-.469.217-.96.384-1.453.55-.197.067-.393.134-.588.204-.06.022-.125.03-.19.04zm5.252.576.046.006c-.017.143-.03.286-.043.43-.028.316-.055.632-.135.935-.309 1.18-1.493 2.052-2.645 2a2.679 2.679 0 0 1-2.54-2.155c-.042-.2 0-.278.2-.326a14.76 14.76 0 0 0 4.473-1.914c.385-.244.638-.089.643.376.002.149.002.297.001.446a45 45 0 0 0 0 .202zm1.051-2.738a3.335 3.335 0 0 0-.023-.078 3.077 3.077 0 0 1 1.462.463c1.134.696 1.73 1.721 1.754 3.047.018.938.014 1.875.01 2.813-.002.388-.004.776-.004 1.164 0 .057-.004.113-.009.183l-.008.123a5.92 5.92 0 0 0-.113-.023c-.072-.014-.139-.027-.204-.047A3.535 3.535 0 0 1 43.2 6.76c-.01-.785-.01-1.571 0-2.357.007-.646-.092-1.27-.348-1.866-.014-.034-.025-.07-.038-.114zm-2.542 7.35c.708-.232 1.301-.635 1.83-1.215l.047.083c.025.043.044.075.06.108.86 1.749 2.267 2.71 4.201 2.91.681.072 1.04-.247 1.04-.938 0-.484.003-.968.005-1.453.007-1.157.013-2.313-.013-3.47-.041-1.785-.839-3.182-2.339-4.159-.91-.592-1.924-.82-3.003-.768a1.477 1.477 0 0 1-.913-.235 3.833 3.833 0 0 0-2.411-.596c-1.863.147-3.42 1.428-3.718 3.262-.16.985-.146 2.02-.065 3.02.205 2.526 2.87 4.237 5.28 3.45zM1.975 32.373h-.53v-1.018c.001-.235.002-.47-.001-.705-.003-.164.042-.256.231-.255.787.007 1.573.005 2.36.002.162-.001.231.066.23.227v.513c0 .34.001.68-.009 1.02-.002.074-.108.206-.168.207-.695.01-1.39.01-2.113.01zm30.158 0-.331.002-.328-.001a21.88 21.88 0 0 0-.79.005c-.194.005-.286-.045-.28-.26.012-.49.01-.981 0-1.471-.003-.196.08-.254.264-.253.765.007 1.53.009 2.294 0 .212-.003.27.084.267.28-.008.47-.013.94.002 1.41.008.241-.09.303-.312.294-.262-.01-.524-.008-.786-.006zm-13.38-.397v.4h-1.296l-.38-.001a47.466 47.466 0 0 0-.917.002c-.165.003-.226-.06-.224-.224a65.78 65.78 0 0 0 0-1.532c-.002-.166.063-.226.226-.225.309.002.618.002.927.002.487 0 .973 0 1.46.007.069.001.193.093.195.145.01.469.01.938.009 1.426zm26.75.399h-.349l.21-.689.45-1.475.405-1.312.001-.006.002-.005c.333-1.078.665-2.156.99-3.236.076-.257.184-.36.467-.355h.038c.843.016.843.016.843.876v1.471c-.002 1.455-.003 2.91.007 4.364.002.303-.088.38-.382.374a77.502 77.502 0 0 0-1.929-.009l-.753.002zM17.67 48.991l-.324.487-.315-.473c-.363-.545-.709-1.065-1.05-1.588-.04-.064-.04-.161-.04-.245v-.01c-.002-.52-.001-1.04-.001-1.559 0-.994 0-1.987-.006-2.98-.002-.234.074-.306.303-.302.747.01 1.494.01 2.24 0 .22-.003.285.074.283.29a538.53 538.53 0 0 0-.005 2.815l-.001 1.724c0 .095-.005.208-.053.283-.334.513-.673 1.022-1.03 1.558zM42.095 25.3c.096.002.196.005.298.005l-.03.124c-.016.072-.03.133-.048.193l-.555 1.807-.001.004-.001.003c-.475 1.545-.95 3.09-1.42 4.636-.066.22-.157.32-.406.31a28.724 28.724 0 0 0-1.556-.004h-.066c-.18.003-.239-.062-.239-.24.004-2.487.004-4.974 0-7.461 0-.176.057-.247.238-.243.155.004.31.003.466.002.218-.002.437-.004.654.008.121.007.28.073.349.166.44.588 1.017.787 1.73.7.19-.022.383-.016.587-.01zM15.344 49.056c.075.116.152.237.237.363H12.409a86.332 86.332 0 0 0-1.337.003c-.187.003-.26-.055-.26-.252.005-2.192.005-4.385 0-6.577-.001-.214.088-.27.281-.27 1.042.004 2.085.007 3.127-.002.245-.002.288.11.287.324-.002.57-.001 1.14 0 1.711 0 .924.002 1.849-.011 2.772-.007.465.085.863.372 1.233.167.215.315.445.476.695zm3.91.355a12.682 12.682 0 0 0-.137-.009c.09-.136.18-.266.268-.392.203-.293.393-.568.556-.859.132-.237.235-.525.239-.792.017-1.154.014-2.307.012-3.461l-.001-1.17v-.375l.112-.012c.071-.008.134-.015.198-.015h.988c.683 0 1.367.002 2.05-.006.253-.003.341.067.34.332a796.63 796.63 0 0 0 0 6.43c0 .248-.057.346-.328.343-.985-.009-1.971-.008-2.957-.007h-1.172c-.05 0-.1-.003-.168-.007zm-5.283-15.6h3.362l1.446.001h.002c1.582 0 3.163.002 4.745-.006.262 0 .38.06.352.341-.01.111-.005.232.001.352.012.224.023.445-.078.591-.106.153-.35.215-.59.275-.09.022-.179.045-.26.072a903.305 903.305 0 0 1-5.762 1.912.82.82 0 0 1-.5-.006c-1.09-.401-2.178-.808-3.266-1.214h-.001c-.78-.292-1.56-.583-2.34-.872-.193-.072-.288-.164-.272-.383a5.426 5.426 0 0 0 0-.766c-.015-.232.066-.304.3-.301.696.008 1.391.007 2.087.006l.774-.001zm30.933-19.95v-.392c.853.286 1.434.792 1.75 1.572.112.276.185.588.188.885.016 1.832.013 3.665.01 5.497v.373c0 .135-.036.273-.076.403l-.944 3.074v.002c-.693 2.252-1.384 4.503-2.07 6.756-.084.28-.215.364-.494.351-.342-.015-.685-.012-1.042-.009-.153.002-.308.003-.466.003l.034-.14c.021-.084.039-.157.061-.23l.741-2.407v-.001c.725-2.351 1.45-4.702 2.167-7.055.087-.286.134-.596.135-.895.008-2.003.007-4.006.006-6.009v-1.778zM23.712 36.705l.14-.04.01.112c.006.067.011.123.011.178v1.09c-.001.836-.002 1.672.006 2.508.003.256-.071.337-.333.337-4.138-.008-8.276-.007-12.415-.001-.239 0-.324-.065-.321-.315.008-.842.007-1.685.006-2.527v-1.07c0-.05.004-.1.01-.162l.008-.11.113.037c.073.024.138.044.202.069l1.31.49.002.001c1.383.52 2.767 1.038 4.154 1.547.175.064.41.068.587.01a795.534 795.534 0 0 0 4.78-1.585l1.484-.495a6.07 6.07 0 0 1 .246-.074zm16.078-2.772.002-.036.005-.085h1.997c.805 0 .805 0 .805.792v2.32c-.001 3.178-.002 6.355.008 9.534.001.272.08.563.194.814.194.427.408.845.622 1.263.091.176.182.353.27.53.032.062.06.124.098.205l.03.066.04.083c-.126 0-.247-.004-.364-.008-.248-.008-.478-.016-.704.016-.597.084-.974-.14-1.302-.644a21.674 21.674 0 0 0-.977-1.341c-.195-.255-.391-.51-.58-.77a.779.779 0 0 1-.147-.426c-.007-3.717-.006-7.435-.006-11.153v-.996c0-.05.004-.1.009-.164zm-1.802-.12h.357V36.467c0 3.224 0 6.447.004 9.67a.95.95 0 0 1-.201.622c-.623.81-1.234 1.63-1.842 2.452-.11.15-.227.216-.416.212-.368-.01-.737-.008-1.125-.006l-.484.001.056-.13c.033-.076.059-.139.09-.199.09-.184.184-.366.278-.55.211-.411.422-.823.612-1.244.117-.26.202-.559.202-.84.01-3.264.01-6.528.01-9.792v-2.45c0-.401 0-.402.394-.402h2.065zm-17.399-1.436h-.396v-.412c-.001-.483-.002-.942.007-1.402 0-.055.092-.126.157-.157.04-.018.09-.014.141-.01l.063.003H28.585c.384 0 .384 0 .384.389v2.92c.001 4.503.002 9.007-.005 13.51 0 .393.089.727.32 1.044.179.242.342.495.52.769.08.125.163.254.252.388H25.75c-.437 0-.437 0-.437-.426V32.77c-.002-.391-.002-.392-.387-.392h-4.337zm16.049-5.609v1.171l-.001 1.025c-.002 1.025-.003 2.05.007 3.074.002.272-.08.356-.35.344-.45-.02-.903-.013-1.355-.003-.195.004-.258-.072-.258-.26.002-.533-.001-1.068-.004-1.602a91.867 91.867 0 0 1 .029-3.645c.015-.437.149-.87.282-1.302a13.1 13.1 0 0 0 .154-.525c.385-1.462.772-2.924 1.17-4.383.096-.354.043-.647-.205-.925-.854-.96-.98-2.036-.479-3.203l.14-.326c.361-.839.722-1.678 1.073-2.52.09-.218.2-.315.453-.314 1.936.012 3.873.012 5.81.001.28-.001.369.076.368.364-.006 1.606-.007 3.212-.007 4.818 0 1.028 0 2.056-.003 3.084 0 .164-.028.333-.074.49-.058.203-.121.404-.185.604-.087.277-.175.554-.249.835-.063.238-.18.324-.415.298a1.8 1.8 0 0 0-.412 0c-.68.083-1.27-.028-1.708-.634-.1-.138-.36-.217-.55-.222a60.68 60.68 0 0 0-2.447-.008c-.498.005-.781.312-.783.836-.003.976-.002 1.952-.001 2.928zm-12.764-8.032V21.718c.002 1.636.003 3.272-.006 4.908-.002.293.073.414.378.387a6.22 6.22 0 0 1 .743-.005l.053.002c.205.006.286-.084.271-.283-.005-.067-.003-.134-.002-.2l.002-.095V13.807c0-.426 0-.427.413-.427.322 0 .644.002.966.004.681.004 1.362.008 2.043-.008 2.257-.051 4.15 1.609 4.446 3.757.036.261.044.529.044.793.003 3.324.002 6.648.002 9.971v.678c0 .385-.002.386-.392.386h-2.036c-.39 0-.392 0-.392-.382v-9.911l-.001-.166c-.002-.122-.004-.243.003-.364.01-.176-.06-.253-.238-.25-.319.005-.638.003-.957.002h-.016c-.158-.001-.238.066-.228.23.004.066.002.131.001.197l-.001.099v10.147c0 .398-.001.399-.406.399H20.57c-.378 0-.38-.002-.38-.391V18.276c0-.386 0-.387-.389-.388h-.286c-.17.002-.34.004-.51-.001-.192-.006-.26.075-.252.264.007.22.006.44.004.66l-.002.284v9.469c0 .397 0 .398-.402.398-.206 0-.411 0-.617-.002a72.035 72.035 0 0 0-1.477.006c-.235.004-.327-.054-.327-.309.004-1.482.003-2.964.003-4.447-.001-2.195-.002-4.39.01-6.585.011-2.253 1.914-4.172 4.171-4.231.674-.018 1.347-.016 2.021-.015.477.001.954.002 1.43-.004.256-.003.311.1.31.331-.004 1.677-.004 3.353-.003 5.03zM5.02 49.419h-.393c.088-.132.169-.258.246-.378.164-.256.312-.486.478-.702.285-.37.376-.771.375-1.235-.009-4.395-.008-8.79-.007-13.184V30.79c0-.391.002-.392.384-.392h2.714l.905-.001c.83-.002 1.659-.003 2.488.005.246.003.332-.076.314-.32-.012-.167-.009-.335-.006-.504l.002-.233c0-.383 0-.384-.392-.384H6.141c-.42 0-.42 0-.42-.417V18.457l-.002-.11a2.908 2.908 0 0 1 .001-.215c.01-.179-.077-.246-.248-.244-.164.003-.327.002-.491.001h-.305c-.408 0-.41.001-.41.405V26.543c0 .701-.001 1.403.001 2.104.001.188-.016.322-.263.318a99.15 99.15 0 0 0-2.301 0c-.194.001-.259-.076-.257-.262.006-1.002.008-2.005.008-3.007 0-.562 0-1.124-.002-1.687-.002-.813-.003-1.627-.001-2.44l-.003-1.113a61.544 61.544 0 0 1 .036-3.014c.099-2.198 1.958-3.99 4.158-4.049.78-.02 1.562-.018 2.343-.015.33.002.66.003.99.002.403 0 .404.001.404.405V26.469c0 .032 0 .065.002.098a2.28 2.28 0 0 1-.002.197c-.012.18.078.246.247.243.159-.002.317-.001.476 0h.291c.42 0 .421 0 .421-.417v-2.239c.001-3.54.002-7.081-.005-10.622 0-.267.071-.359.346-.354.52.008 1.04.007 1.559.006.404 0 .81-.002 1.214.002.225.002.322-.067.306-.304-.012-.175-.01-.35-.007-.524l.003-.243c-.001-.385-.001-.387-.393-.387h-1.08c-2.256 0-4.511-.001-6.767.002-.294 0-.59.016-.882.056-2.925.404-5.08 2.811-5.094 5.773-.019 3.77-.015 7.54-.01 11.31l.004 3.881c0 .591.282.862.874.864l.627.001c.804.003 1.608.006 2.411-.007.276-.004.351.085.35.351l-.004 5.977c0 2.324-.002 4.649-.006 6.973 0 .164-.062.35-.151.49-.43.67-.874 1.33-1.322 1.99-.19.278-.292.563-.12.88.172.315.467.388.803.388H7.15c3.198 0 6.396 0 9.594-.013h1.208c3.185.013 6.37.013 9.555.013h3.72c.337 0 .63-.079.8-.394.172-.32.058-.602-.13-.879a96.801 96.801 0 0 1-1.34-2.014.906.906 0 0 1-.144-.46c-.005-2.343-.006-4.685-.007-7.027 0-1.984-.001-3.968-.004-5.953 0-.238.06-.324.312-.32.704.008 1.408.007 2.112.006h.956c.063 0 .126.005.197.011l.059.005.054.005v2.322c0 3.362 0 6.725-.005 10.087 0 .188-.049.392-.13.56-.293.6-.593 1.198-.893 1.794v.001c-.182.36-.363.72-.542 1.081-.326.656-.011 1.168.722 1.171.509.003 1.017.002 1.526.002.534 0 1.067-.001 1.601.002.344.002.6-.13.802-.408.197-.273.4-.542.603-.81.129-.17.258-.342.385-.513.03-.04.05-.086.07-.132l.011-.026a20042611442.372 20042611442.372 0 0 0 .017-.038l.087.071.001.45c.002.37.003.741-.005 1.112-.004.213.06.307.284.295.173-.01.345-.007.518-.005l.25.002c.383-.001.384-.002.385-.39v-1.485c.431.47.807.947 1.158 1.442.22.312.5.44.876.437.653-.007 1.306-.006 1.958-.005.35 0 .7.002 1.051 0 .817 0 1.125-.493.763-1.222-.174-.35-.35-.698-.525-1.047-.3-.6-.602-1.2-.897-1.802a1.195 1.195 0 0 1-.122-.504c-.003-1.89-.004-3.78-.005-5.669 0-2.151-.001-4.303-.006-6.455 0-.273.078-.348.349-.346 1.417.01 2.835.008 4.253.006h.555c.518-.002.807-.266.808-.765.005-2.812.005-5.624 0-8.436 0-.464-.27-.729-.735-.742-.226-.007-.452-.006-.677-.006a31.1 31.1 0 0 1-.474 0c-.066-.001-.133-.011-.208-.022l-.05-.007a3.797 3.797 0 0 0-.068-.01c.028-.092.056-.18.084-.264.057-.178.11-.343.152-.51.03-.113.064-.227.098-.341.088-.295.176-.59.181-.886.03-1.897.027-3.796.008-5.693-.013-1.439-.597-2.606-1.777-3.451-.781-.56-1.67-.757-2.618-.756l-3.544.001h-.003c-1.443 0-2.886 0-4.33.002-.304 0-.61.01-.911.049-.485.063-.955.187-1.398.469l.163.285h.001c.155.271.303.53.463.78.038.06.18.09.262.074.172-.033.342-.081.538-.137l.265-.074-1.056 2.464-.08-.18-.113-.252a5.817 5.817 0 0 0-1.494-2.025c-1.168-1.014-2.538-1.457-4.07-1.455h-3.918c-1.28 0-2.56 0-3.84.002-.315 0-.63.013-.943.035a5.811 5.811 0 0 0-5.399 5.774c-.003 2.833-.002 5.666-.002 8.5v3.653l-.001.614a46.21 46.21 0 0 0 .008 1.54c.008.28-.088.342-.35.34-.96-.009-1.922-.008-2.882-.006h-1.012c-.058 0-.116.002-.174.004a3.05 3.05 0 0 1-.386-.007c-.267-.027-.36.084-.329.337.008.06.006.12.004.182l-.002.084v16.047c0 .396 0 .396-.405.396H5.021z">
		</path>
	</symbol>
	<symbol xmlns="http://www.w3.org/2000/svg" viewBox="0 0 39 51" id="nav-icon2">
		<path opacity=".779" d="M32.581 50.167v-3.65h3.06v-3.652h3.238V0H7.176v3.652H3.938v3.65H.878v42.865h31.703zm-1.216-1.217H2.095V8.518h1.844v37.999h27.426v2.433zM5.155 45.3h29.27v-2.435H7.176V4.87H5.155V45.3zm32.508-3.651H8.393V1.216h29.27V41.65zm-7.744-29.137-6.892-3.448-6.892 3.448v8.611l6.892 3.448 6.892-3.448v-8.61zm-12.57.752 5.678-2.84 5.677 2.84v7.107l-5.677 2.84-5.677-2.84v-7.107zm5.678-1.056 2.18 1.09v2.324l-2.18 1.09-.272-.137-1.907-.953v-2.323l2.18-1.09zm-.963 1.843.963-.483.963.483v.82l-.963.481-.963-.482v-.82zm4.714 2.767v2.734l-3.75 1.876-3.752-1.876v-2.734h1.217V18.8l2.534 1.268 2.535-1.268v-1.982h1.216zm-9.383 12.481h11.263v-1.214H17.395v1.214zm11.263 4.751H17.395v-1.215h11.263v1.215z">
		</path>
	</symbol>
	<symbol xmlns="http://www.w3.org/2000/svg" viewBox="0 0 52 55" id="nav-icon3">
		<path d="M34.638 24.671a.914.914 0 0 1 .914.914v2.741h11.879a.914.914 0 0 1 .914.914v5.482a.914.914 0 0 1-.914.914 7.316 7.316 0 0 0-7.31 7.31v6.396h1.827a.914.914 0 0 1 .914.914v3.655a.914.914 0 0 1-.914.914H10.881a.914.914 0 0 1-.914-.914v-3.655c0-.504.41-.914.914-.914h1.302l2.91-4.986a2.758 2.758 0 0 0-2.385-4.151H9.967a.914.914 0 0 1-.914-.914v-.914A8.234 8.234 0 0 1 .83 30.154c0-.505.409-.914.913-.914h7.31c0-.505.41-.914.914-.914h3.655v-2.741c0-.505.41-.914.914-.914zm6.397 26.499h-29.24v1.827h29.24V51.17zm5.482-21.016H10.881v8.223h9.137v1.828h-3.646c.114.152.219.31.314.475a4.544 4.544 0 0 1-.016 4.596L14.3 49.342h23.994v-6.396a9.128 9.128 0 0 1 3.664-7.31H37.38V33.81h9.137v-3.655zm-37.464.913h-6.33a6.407 6.407 0 0 0 6.33 5.483v-5.483zM33.725 26.5H15.45v1.827h18.275V26.5zm-21.93-1.828V26.5H.83V24.67h10.965zm36.55 0V26.5H37.38V24.67h10.965zM28.242 6.397c.202 0 .397.067.556.188l.09.08.914.913a.914.914 0 0 1 .26.526l.008.12v3.616l18.24-.76a3.507 3.507 0 0 1 2.6.984 3.545 3.545 0 0 1 .072 5.042 3.544 3.544 0 0 1-2.52 1.058l-.077-.001-.076-.003-18.24-.76v3.617a.914.914 0 0 1-.188.555l-.079.09-.914.915a.914.914 0 0 1-.526.26l-.12.007h-7.31a.914.914 0 0 1-.555-.188l-.09-.08-.915-.913a.914.914 0 0 1-.26-.526l-.007-.12v-3.655h-.914a2.742 2.742 0 0 1-.195-5.476l.195-.007h.914V8.224c0-.202.067-.397.188-.555l.08-.091.913-.914a.914.914 0 0 1 .526-.26l.12-.007h7.31zM44.65 19.263l.474 1.766-5.68 1.521-.474-1.765 5.68-1.522zm-38.803.355 4.116 1.102-.473 1.765-4.116-1.102.473-1.765zM4.47 12.915l13.264 7.658-.913 1.583-13.265-7.658.914-1.583zm29.156 6.396.913 1.583-2.186 1.262-.913-1.583 2.186-1.262zM27.864 8.224H21.31l-.379.379v12.035l.379.379h6.552l.379-.379V8.603l-.378-.379zm20.676 4.683h-.155l-18.315.762v1.902l18.315.763a1.717 1.717 0 0 0 .308-3.413l-.153-.014zm-29.435.8h-.914a.914.914 0 0 0-.107 1.821l.107.006h.914v-1.827zm-6.325-10.4 4.158 7.201-1.583.914-4.158-7.202 1.583-.914zm22.894 1.247 1.583.914-2.91 5.04-1.583-.913 2.91-5.04zM19.47 2.961l.56 2.087-1.765.473-.56-2.087 1.765-.473zM25.501 0v4.569h-1.828V0h1.828z" fill-rule="evenodd" opacity=".777">
		</path>
	</symbol>
	<symbol xmlns="http://www.w3.org/2000/svg" viewBox="0 0 45 45" id="nav-icon4">
		<path opacity=".779" fill-rule="evenodd" clip-rule="evenodd" d="M38.268 44.585H5.526a4.8 4.8 0 0 1-4.793-4.793V2.745A2.746 2.746 0 0 1 3.477 0h26.897a2.787 2.787 0 0 1 2.745 2.745v10.972h8.068a3.63 3.63 0 0 1 3.615 3.645v20.681a6.54 6.54 0 0 1-6.508 6.541h-.014l-.012.001zm5.141-27.241v20.7a5.148 5.148 0 0 1-5.13 5.148H38.224a5.145 5.145 0 0 1-5.11-5.149v-1.431a.704.704 0 0 0 .006-.094V15.11h5.226a3.65 3.65 0 0 0-.78 2.23v20.32a.696.696 0 1 0 1.393 0V17.34a2.25 2.25 0 0 1 2.204-2.23h.025a2.231 2.231 0 0 1 2.222 2.23v.004zm-11.69-2.93c0-.032.003-.064.007-.094V2.745a1.351 1.351 0 0 0-1.352-1.352H3.477a1.351 1.351 0 0 0-1.351 1.352v37.047a3.408 3.408 0 0 0 3.4 3.4h28.708a6.555 6.555 0 0 1-2.515-5.148v-23.63zm-3.002-4.39h-5.44a.697.697 0 0 1 0-1.392h5.44a.697.697 0 1 1 0 1.393zm-5.44 4.32h5.44a.697.697 0 1 0 0-1.393h-5.44a.696.696 0 1 0 0 1.393zm5.44 4.326H5.122a.697.697 0 0 1 0-1.393h23.595a.697.697 0 1 1 0 1.393zM5.122 22.99h23.595a.697.697 0 1 0 0-1.393H5.122a.697.697 0 0 0 0 1.393zm23.595 4.326H5.122a.697.697 0 0 1 0-1.393h23.595a.697.697 0 1 1 0 1.393zM5.122 31.634h23.595a.697.697 0 1 0 0-1.393H5.122a.697.697 0 0 0 0 1.393zm23.595 4.32H5.122a.696.696 0 1 1 0-1.394h23.595a.697.697 0 1 1 0 1.393zM5.122 40.271h23.595a.697.697 0 1 0 0-1.393H5.122a.697.697 0 0 0 0 1.393zM28.717 5.705h-5.44a.697.697 0 0 1 0-1.393h5.44a.697.697 0 1 1 0 1.393zm-9.05 8.64H5.073a.696.696 0 0 1-.697-.697V5.037c0-.385.312-.697.697-.697h14.63a.698.698 0 0 1 .696.697v8.61a.696.696 0 0 1-.732.697zM5.734 12.95h13.237V5.734H5.77l-.036 7.217z">
		</path>
	</symbol>
	<symbol xmlns="http://www.w3.org/2000/svg" viewBox="0 0 48 48" id="nav-icon5">
		<path opacity=".78" d="M28.784 46.634c0-.033.001-.063.003-.093.002-.06.004-.114-.005-.166l-.37-2.209c-.31-1.84-.62-3.68-.92-5.52-.04-.255-.134-.305-.366-.304-2.084.008-4.17.01-6.254-.003-.277-.002-.35.092-.39.347-.257 1.575-.52 3.148-.785 4.721l-.29 1.733c-.057.337-.112.675-.167 1.017v.001l-.077.476h9.621zM1.347 31.9v.356c0 .29.004.579.007.868.007.658.013 1.315-.015 1.971-.045 1.025.706 1.912 1.91 1.91C13.598 37 23.945 37 34.293 37H44.74c1.173 0 1.886-.713 1.891-1.889.004-.716.003-1.433.002-2.15v-.69c-.001-.37-.002-.37-.38-.37H1.349zm0-1.36.12.006c.07.005.13.008.19.008h6.831c12.604 0 25.208 0 37.812.006.27 0 .339-.08.338-.342-.004-5.877-.005-11.753-.006-17.63v-.02c0-3.115 0-6.23-.002-9.344 0-.192-.009-.39-.055-.574-.201-.805-.89-1.302-1.787-1.302H8.253l-5.104-.001c-.398 0-.764.098-1.085.335-.513.379-.72.895-.72 1.528.004 7.303.004 14.605.004 21.908v5.421zm27.463 7.806 1.387 8.305h.543c.426-.001.845-.002 1.263 0 .336.003.586.183.67.47.12.407-.14.805-.574.865-.077.011-.156.01-.235.01l-.067-.001H16.14a1.57 1.57 0 0 1-.306-.02.666.666 0 0 1-.551-.715.652.652 0 0 1 .663-.607 51.983 51.983 0 0 1 1.6.001c.179.003.25-.046.282-.237.307-1.866.62-3.73.933-5.594l.002-.008.366-2.185c.009-.053.01-.106.012-.17 0-.035.002-.072.004-.114h-4.647L3.17 38.345C1.672 38.344.457 37.426.1 36.02a3.46 3.46 0 0 1-.096-.844C0 24.507-.002 13.837.002 3.167.002 1.317 1.34.001 3.196.001h41.58c1.873 0 3.22 1.332 3.22 3.209.005 10.642.005 21.284 0 31.926 0 1.874-1.352 3.21-3.225 3.21H28.81zM9.413 9.215v15.341l8.288-9.672-8.288-5.67zm20.867 5.669 8.298 9.683V9.207l-8.298 5.677zm-19.256-6.21c.058.042.104.077.152.11l2.55 1.75c3.338 2.293 6.676 4.586 10.012 6.883.184.127.307.139.502.005 3.24-2.233 6.483-4.46 9.726-6.686l2.313-1.588.512-.355.002-.001.279-.194h-26.15l.102.075zM37.72 25.651a.867.867 0 0 0-.072-.104l-2.048-2.39-.002-.002a6295.81 6295.81 0 0 1-6.252-7.301c-.146-.172-.244-.177-.425-.052-1.211.838-2.428 1.67-3.644 2.501l-.718.491c-.495.338-.648.336-1.14 0l-1.085-.743c-1.094-.749-2.188-1.497-3.277-2.252-.184-.127-.28-.112-.425.057a6388.74 6388.74 0 0 1-6.346 7.412l-1.901 2.219c-.038.044-.072.09-.113.145l-.07.092h27.565a3.397 3.397 0 0 1-.047-.073zM27.657 7.23h.01c3.743-.001 7.487-.002 11.231.003 1.006 0 1.061.207 1.06 1.034-.007 4.462-.006 8.924-.006 13.385V26.105c0 .753-.233.986-.986.986h-1.724c-9.398 0-18.795 0-28.192-.003-.171 0-.353-.014-.512-.072-.365-.135-.427-.25-.427-.64V7.959c0-.586.144-.729.733-.729h18.813zM4.1 3.288c-.08.08-.08.24-.08.564 0 .356 0 .533.088.62.088.088.263.088.61.088h.028c.311 0 .467 0 .545-.078.078-.078.078-.234.078-.547 0-.365 0-.546-.09-.637-.09-.09-.27-.09-.628-.09-.314 0-.472 0-.551.08zm3.13.565c0-.32 0-.482.08-.563.081-.081.245-.082.573-.082.348 0 .522 0 .608.087.086.086.086.257.086.598 0 .331 0 .498-.083.582-.085.085-.254.085-.596.085-.333 0-.5 0-.584-.084-.084-.084-.084-.254-.084-.595v-.028zm3.295.62c.087.087.259.087.602.087.332 0 .497 0 .58-.083.083-.083.083-.248.083-.58 0-.343 0-.515-.086-.601-.087-.088-.261-.088-.612-.088-.327 0-.49 0-.572.082-.082.082-.082.245-.082.572 0 .35 0 .525.087.612z">
		</path>
	</symbol>
	<symbol xmlns="http://www.w3.org/2000/svg" viewBox="0 0 27 26" id="search">
		<path fill-rule="evenodd" clip-rule="evenodd" d="M18.197 19.319A10.957 10.957 0 0 1 11 22C4.925 22 0 17.075 0 11S4.925 0 11 0s11 4.925 11 11c0 2.24-.67 4.322-1.819 6.06l6.269 6.268-2.122 2.122-6.13-6.131zM19 11a8 8 0 1 1-16 0 8 8 0 0 1 16 0z">
		</path>
	</symbol>
	<symbol xmlns="http://www.w3.org/2000/svg" viewBox="0 0 40 28" id="switch-version">
		<path fill-rule="evenodd" clip-rule="evenodd" d="M35.545 3.198A4.39 4.39 0 0 0 32.516.169c-1.472-.42-3.028-.042-4.206.968l-1.514 1.346c-.589.547-.63 1.514-.084 2.103.547.63 1.514.673 2.103.084l1.514-1.346c.524-.484 1.087-.388 1.355-.342l.033.005c.252.085.8.337 1.01 1.01l2.141 7.143a8.572 8.572 0 0 0-3.743-.84c-3.239 0-6.057 1.766-7.571 4.373-2.187-.757-5.047-.757-7.234 0-1.515-2.607-4.333-4.374-7.571-4.374a8.575 8.575 0 0 0-3.744.841l2.158-7.143c.21-.673.757-.925 1.01-1.01l.032-.005c.268-.046.83-.142 1.355.342l1.514 1.346c.59.547 1.556.505 2.103-.084.547-.59.505-1.556-.084-2.103L11.58 1.137A4.476 4.476 0 0 0 7.373.169C5.859.59 4.765 1.725 4.345 3.198c0 0-3.756 12.611-3.924 13.2C.295 16.903 0 18.206 0 19.132c0 4.879 3.954 8.832 8.79 8.832a8.832 8.832 0 0 0 8.833-8.832c0-.588-.083-1.133-.167-1.678v-.005c1.513-.504 3.575-.504 5.089 0-.085.547-.168 1.094-.168 1.683a8.832 8.832 0 0 0 8.832 8.832c4.837 0 8.791-3.953 8.791-8.832-.127-.925-.421-2.23-.547-2.734-.168-.547-3.908-13.2-3.908-13.2zM8.707 24.978a5.834 5.834 0 0 1-5.847-5.846 5.834 5.834 0 0 1 5.847-5.847 5.834 5.834 0 0 1 5.846 5.847 5.834 5.834 0 0 1-5.846 5.846zm22.376-11.693a5.834 5.834 0 0 0-5.847 5.847 5.834 5.834 0 0 0 5.847 5.846 5.834 5.834 0 0 0 5.846-5.846 5.834 5.834 0 0 0-5.846-5.847z">
		</path>
	</symbol>
	<symbol xmlns="http://www.w3.org/2000/svg" viewBox="0 0 30 30" id="icon-cabinet">
		<path fill-rule="evenodd" clip-rule="evenodd" d="M30 26.3705C30 23.9591 28.3587 21.8574 26.0198 21.2731L20.2726 19.8369L20.2803 19.1041C20.287 18.4461 20.5604 17.7906 21.0585 17.2447C22.6989 15.4468 23.4989 13.7139 23.7586 11.6989C23.8563 10.9413 23.8746 10.366 23.8746 9.06556C23.8746 4.09305 19.9616 0.0906212 15.0295 0C10.0386 0.090617 6.12541 4.09282 6.12541 9.06434C6.12541 10.3648 6.14374 10.9401 6.24139 11.6976C6.50114 13.7127 7.3011 15.4456 8.94141 17.2434C9.43964 17.7894 9.71305 18.4449 9.71964 19.1021L9.72736 19.8356L3.98008 21.2719C1.64076 21.858 0 23.9596 0 26.3705V28.3928C0 29.2805 0.719542 30 1.60714 30H28.3929C29.2805 30 30 29.2805 30 28.3928V26.3705ZM25.3369 24.4799C26.2533 24.7089 26.8966 25.5325 26.8966 26.4775V26.8966H3.10345V26.4775C3.10345 25.5324 3.74691 24.7083 4.66404 24.4785L10.7662 22.9536C12.0461 22.6343 12.9397 21.4769 12.9254 20.1578L12.9143 19.1075C12.8994 17.6223 12.307 16.202 11.2812 15.0779C10.0758 13.7567 9.5541 12.6267 9.37691 11.2521C9.30204 10.6713 9.28646 10.1826 9.28646 9.00892C9.28646 5.75643 11.8229 3.16237 15.0298 3.10345C18.1773 3.16237 20.7135 5.75658 20.7135 9.01015C20.7135 10.1838 20.698 10.6725 20.6231 11.2534C20.4459 12.628 19.9242 13.758 18.7188 15.0792C17.693 16.2032 17.1006 17.6235 17.0857 19.1095L17.0746 20.1595C17.0604 21.4792 17.9537 22.6355 19.2345 22.955L25.3369 24.4799Z">
		</path>
	</symbol>
	<symbol xmlns="http://www.w3.org/2000/svg" viewBox="0 0 24 14" id="vk">
		<path d="M23.058.615h-3.894a.876.876 0 0 0-.775.477s-1.553 2.94-2.052 3.931c-1.342 2.665-2.212 1.828-2.212.591V1.35c0-.742-.585-1.343-1.307-1.343H9.89a2.321 2.321 0 0 0-2.072.988S9.305.748 9.305 2.808c0 .51.025 1.98.049 3.212a.888.888 0 0 1-.546.848.847.847 0 0 1-.961-.234A26.44 26.44 0 0 1 4.89 1.105a.82.82 0 0 0-.746-.49H.605A.596.596 0 0 0 .11.88a.633.633 0 0 0-.071.57C1.112 4.478 5.74 14 11.023 14h2.224a.891.891 0 0 0 .878-.903v-1.38c0-.354.205-.674.52-.815a.845.845 0 0 1 .934.168l2.662 2.57c.239.231.555.36.883.36h3.495c1.685 0 1.685-1.203.766-2.133-.647-.655-2.98-3.184-2.98-3.184a1.266 1.266 0 0 1-.093-1.61c.754-1.02 1.988-2.692 2.511-3.407.715-.979 2.01-3.05.235-3.05z">
		</path>
	</symbol>
	<symbol xmlns="http://www.w3.org/2000/svg" viewBox="0 0 19 19" id="link-home">
		<path fill-rule="evenodd" clip-rule="evenodd" d="M4.62.258a55.95 55.95 0 0 1 10.735 0c1.642.173 3.203 1.734 3.375 3.376a55.87 55.87 0 0 1 0 10.735c-.172 1.642-1.733 3.204-3.375 3.376a55.946 55.946 0 0 1-10.735 0c-1.642-.172-3.204-1.734-3.377-3.376a56.15 56.15 0 0 1-.241-4.004h8.394L5.56 14.184h3.82l5.085-5.1L9.38 4.001H5.561l3.835 3.81H.998c.03-1.393.112-2.786.245-4.178C1.416 1.992 2.978.43 4.62.258z">
		</path>
	</symbol>
	<symbol xmlns="http://www.w3.org/2000/svg" viewBox="0 0 157 157" id="training-mentors">
		<path fill-rule="evenodd" clip-rule="evenodd" d="M103.833 106.72V91.152l.959.62c1.024.66 1.996 1.287 2.949 1.942.151.104.23.497.166.7-1.311 4.113-2.647 8.218-4.074 12.306zM89.598 91.872h.001c.362-.237.733-.48 1.12-.727v15.947c-.22-.677-.436-1.334-.647-1.978-.456-1.387-.89-2.713-1.32-4.039-.228-.706-.453-1.414-.678-2.12-.443-1.396-.886-2.79-1.36-4.175-.218-.639-.173-1.018.454-1.382.81-.468 1.593-.98 2.43-1.526zm19.093-78.571 7.362-7.353v1.588c1.647-.258 2.12.86 2.572 1.932l.097.228c.252.584.439 1.194.627 1.805.11.357.22.714.342 1.066.177.506.037.736-.504.735-2.668-.002-5.335-.002-7.941-.002h-2.555zm11.112 16.413c-2.899-4.485-5.574-8.82-7.518-13.789.487 0 .964-.001 1.435-.003h.001c1.503-.004 2.931-.008 4.357.034.235.007.595.403.663.677.091.367.189.734.287 1.102.325 1.22.652 2.446.729 3.685.116 1.865.092 3.74.067 5.699-.01.847-.021 1.71-.021 2.596zM94.496 84.297l-8.688 6.934-1.64-6.285-1.17-4.478 11.498 3.83zm10.438-1.722 6.335-2.112-2.812 10.771-8.689-6.937 5.166-1.722zm17.474-45.25V35.86c0-.516.001-1.032.003-1.547v-.01c.004-1.392.009-2.783-.012-4.175-.01-.682.208-.937.925-.945 3.593-.037 6.594 2.37 7.059 5.719.483 3.482-1.637 6.633-5.055 7.511-2.534.65-2.921.364-2.92-2.165v-2.926zm-50.488-2.82-.002 1.43-.002 1.582c-.003 1.413-.005 2.826.009 4.239.005.55-.167.803-.755.846-4.119.297-7.533-2.866-7.346-6.963.183-3.994 3.533-6.745 7.532-6.401.208.018.53.51.537.788.035 1.492.031 2.985.027 4.479zM98.342 2.637c.448.005.913.01 1.403.01l-.871 1.09a3403.719 3403.719 0 0 0-2.778 3.475l-.002.001-.001.002-.003.004c-1.45 1.819-2.9 3.638-4.381 5.43-.276.334-.817.604-1.249.626-.914.046-1.83.04-2.747.034-.578-.003-1.156-.007-1.734.002-.603.01-.867-.19-.856-.825.013-.698.011-1.396.01-2.094-.003-.886-.005-1.772.022-2.657.01-.338.203-.767.457-.988 2.89-2.51 6.248-3.917 10.085-4.09.856-.04 1.714-.03 2.645-.02zM81.697 7.643c.271-.025.554-.051.85-.088-.085 1-.062 1.99-.04 2.97.05 2.21.098 4.365-1.09 6.437-1.6 2.794-3.113 5.637-4.626 8.48v.001l-.001.001v.001h-.001c-.674 1.267-1.349 2.534-2.03 3.796-.04.074-.094.14-.173.24-.047.059-.102.128-.17.217-.007-.13-.014-.238-.021-.333a5.93 5.93 0 0 1-.02-.426l.006-2.75c.008-3.353.015-6.705.034-10.057.01-1.899.231-3.729 1.353-5.38 1.075-1.582 2.589-2.421 4.356-2.88.494-.13 1.01-.177 1.573-.229zM30.555 106.54c-3.707-.022-6.685-3.078-6.64-6.813-.031-3.398 2.614-6.586 6.699-6.644 3.684-.053 6.721 3.126 6.686 6.792-.035 3.621-3.137 6.686-6.745 6.665zm51.084 20.213-.206.142-.238 3.074V129.977c-.203 2.598-.405 5.197-.6 7.797-.052.704-.092 1.41-.131 2.116v.002c-.04.694-.078 1.387-.13 2.08-.085 1.16-.173 1.22-1.286.978-1-.218-1.998-.439-2.997-.659l-.011-.003h-.002v-.001h-.001a479.87 479.87 0 0 0-5.809-1.259c-.66-.138-.86-.316-.747-1.058.715-4.68 1.37-9.37 2.01-14.061.078-.571.276-.795.838-.758l2.324.147h.008c2.082.129 4.162.258 6.238.441.187.017.35.319.511.621.076.14.15.28.229.392zm.82-53.07c-.003-.422-.006-.85-.006-1.286.463.167.906.337 1.338.502.957.367 1.856.712 2.783.952 1.199.31 2.459.511 3.695.53 2.42.035 4.84.033 7.26.03 2-.002 4-.004 6 .016 2.472.024 4.779-.57 7.008-1.573.214-.096.431-.185.679-.287.126-.051.26-.106.405-.167.022.099.047.188.07.272.046.165.085.307.087.45.006.524.004 1.048.003 1.572-.002.73-.004 1.46.013 2.19.013.548-.232.802-.72.964-1.548.514-3.095 1.03-4.642 1.546l-.008.003c-2.914.972-5.829 1.945-8.75 2.9-.36.118-.833.066-1.205-.056-2.053-.673-4.103-1.356-6.152-2.039h-.002c-2.336-.778-4.671-1.556-7.011-2.32-.657-.215-.886-.542-.864-1.219.031-.982.025-1.966.018-2.977v-.002zm42.57 52.188-.002-.001-2.323-.131.201-.105.234-.122c.206-.107.35-.182.494-.254l3.214-1.611c4.101-2.056 8.202-4.112 12.313-6.146a4.029 4.029 0 0 1 1.699-.408c2.178-.018 4.356-.018 6.535-.018 2.002 0 4.005 0 6.008-.014.757-.005 1.056.187 1.044 1.001a289.35 289.35 0 0 0 0 8.69c.013.84-.313 1.004-1.063.951-2.273-.159-4.547-.301-6.821-.444h-.008l-.002-.001H146.539c-1.408-.089-2.816-.177-4.224-.269-1.979-.13-3.959-.264-5.938-.397-2.244-.152-4.489-.303-6.735-.449a501.917 501.917 0 0 0-4.611-.272h-.002zm-23.865-24.89-.001 3.213c0 1.319.009 2.638.017 3.957.021 3.284.043 6.569-.067 9.85-.045 1.341-.382 2.674-.718 4.005h-.001v.002c-.126.497-.251.993-.361 1.49-.041.184-.374.426-.577.431a74.753 74.753 0 0 1-4.64-.005c-.236-.008-.59-.392-.667-.665-.686-2.441-1.17-4.885-1.14-7.473.083-7.277.06-14.554.035-21.832-.004-1.42-.01-2.84-.013-4.26-.002-.706.209-1.166.772-1.578.94-.686 1.85-1.418 2.73-2.181.46-.4.82-.4 1.218.024.026.028.057.05.087.074l.052.04c.326.274.689.53 1.052.787.83.587 1.659 1.173 2.048 1.974.386.792.309 1.812.233 2.828-.032.418-.063.834-.062 1.234.005 2.695.004 5.39.003 8.085zm-19.823 49.063.15.224-3.508.764-8.225 1.791c-2.328.506-4.657 1.01-6.988 1.508-.26.056-.529.1-.793.1l-3.175.005h-.008c-4.106.006-8.213.012-12.32-.007-3.11-.015-5.837-2.281-6.475-5.317a4.094 4.094 0 0 1-.079-.8c-.007-.833-.012-1.667-.017-2.5a487.223 487.223 0 0 0-.033-3.861c-.009-.636.231-.929.89-.922 1.25.012 2.5.004 3.75-.004 2.665-.017 5.33-.033 7.982.143 2.235.149 4.456.498 6.678.848 1.225.193 2.45.386 3.678.545 5.5.714 10.934 1.77 16.332 3.027.478.112.953.252.795.836-.381 1.414.32 2.405 1.18 3.361.062.069.113.148.186.259zm32.641-69.727.034-.102.074-.228c.608.115 1.214.23 1.816.342 2.2.414 4.36.82 6.513 1.256.25.05.53.37.639.63 1.168 2.79 2.327 5.585 3.487 8.379l.001.002.001.002.001.004.002.004.001.004.002.003.003.007c1.034 2.491 2.067 4.982 3.107 7.47.275.658.016.822-.576.939-3.51.69-7.017 1.402-10.521 2.121-1.264.26-1.579.777-1.269 2.037l.16.651.197.8a457.45 457.45 0 0 0 1.838 7.317c.159.608.029 1.005-.367 1.442-1.084 1.195-2.163 2.394-3.243 3.593v.001h-.001v.001h-.001v.001h-.001a866.056 866.056 0 0 1-5.235 5.781c-.29.316-.8.558-1.23.597-1.248.112-2.5.185-3.752.259h-.004v.001h-.001c-.713.042-1.426.084-2.139.133-.749.051-.831-.233-.654-.907 1.899-7.243 3.784-14.49 5.668-21.736l.004-.014 1.976-7.594c1.073-4.124 2.152-8.246 3.231-12.368l.093-.355c.038-.147.086-.292.146-.473zM64.691 98.89c-.108-.03-.226-.062-.36-.097l.463-1.12 2.02-4.882 1.067-2.572c1.074-2.589 2.148-5.178 3.204-7.774.223-.548.494-.859 1.118-.967 2.377-.41 4.746-.875 7.113-1.343.682-.135.98.052 1.166.77 2.71 10.473 5.436 20.94 8.162 31.408l.008.031 2.745 10.542c.043.164.065.333.09.539.014.108.03.226.05.358l-1.163-.065-.037-.002a885.35 885.35 0 0 1-3.334-.189 2.565 2.565 0 0 1-.31-.044c-.166-.032-.332-.063-.49-.037-1.577.254-2.58-.519-3.563-1.669-2.425-2.839-4.95-5.594-7.475-8.347-.471-.513-.534-.965-.37-1.597a697.728 697.728 0 0 0 1.749-6.951l.404-1.63c.33-1.327.032-1.836-1.293-2.11-2.243-.462-4.487-.915-6.731-1.368h-.003l-.004-.001-.003-.001c-1.23-.248-2.459-.496-3.687-.746a7.993 7.993 0 0 1-.536-.136zm-24.817 31.443-.003-2.623.003-2.56a555.85 555.85 0 0 0-.017-6.942c-.009-.824.203-1.162 1.103-1.153 2.437.025 4.874.024 7.312.024 1.776 0 3.552-.001 5.329.009.428.002.894.113 1.279.303 1.95.965 3.895 1.937 5.841 2.91l.005.002a1259.26 1259.26 0 0 0 7.553 3.753c.71.35.804.764.695 1.488a731.04 731.04 0 0 0-.933 6.461v.001c-.317 2.241-.635 4.483-.973 6.72-.046.307-.074.565-.097.779-.05.458-.078.719-.223.848-.191.171-.587.113-1.505-.023l-.192-.028-1.234-.181c-3.745-.55-7.491-1.1-11.246-1.582-.89-.115-1.797-.097-2.703-.079-.353.007-.706.013-1.057.013l-1.767-.008c-2.01-.01-4.022-.02-6.032.026-.937.022-1.168-.316-1.157-1.189.029-2.323.024-4.646.02-6.969zM10.404 2.649c.063.003.137.006.227.006V16.154c0 31.477-.001 62.955.02 94.432 0 .944-.229 1.383-1.209 1.547-1.922.32-3.588 1.258-5.124 2.435-.333.255-.67.505-1.052.79l-.003.002-.002.001-.595.443a31.502 31.502 0 0 0-.024-.391c-.015-.218-.027-.396-.027-.575 0-8.512 0-17.025.002-25.537.002-25.703.004-51.406-.025-77.108-.005-3.844 2.17-8.08 7.56-9.534a.835.835 0 0 1 .252-.01zm69.612 120.019c.095.117.202.251.33.407l-1.493-.069h-.002c-1.039-.047-1.996-.09-2.952-.151l-.645-.039c-1.066-.063-2.134-.126-3.186-.285a10.01 10.01 0 0 1-2.615-.751 69.907 69.907 0 0 1-2.978-1.46h-.001v-.001c-.665-.338-1.329-.677-2-1.001-.5-.242-.69-.558-.681-1.112.013-.802.01-1.604.006-2.407a97.096 97.096 0 0 1 .019-2.971c.02-.781-.24-1.053-1.02-1.05l-.087.001c-1.496.006-1.5.006-1.502 1.577v4.311c-.26-.129-.503-.243-.733-.35-.462-.215-.87-.405-1.245-.644-2.867-1.826-5.953-2.497-9.363-2.258-1.963.137-3.937.107-5.912.077a131.393 131.393 0 0 0-3.139-.023c-.696.006-.955-.235-.95-.933.012-2.08.015-4.159.018-6.238v-.001c.004-2.731.007-5.462.033-8.192.057-6.05 4.551-12.329 11.736-13.758 3.838-.763 7.685-1.48 11.532-2.197 1.483-.276 2.966-.553 4.448-.832.107-.02.218-.016.373-.01.089.003.191.006.314.006l-.13.384c-.08.24-.15.453-.236.66-1.21 2.928-2.421 5.855-3.633 8.781l-.002.005-2.696 6.517c-.663 1.603-.382 2.161 1.312 2.511 2.168.448 4.338.886 6.508 1.324h.002l3.83.775c.188.039.374.091.591.153h.001c.112.032.233.066.367.102l-1.313 5.32c-.084.34-.163.682-.243 1.023v.001c-.183.792-.367 1.584-.61 2.358-.29.924-.024 1.584.6 2.263 1.791 1.95 3.56 3.919 5.327 5.889l1.582 1.761c.138.153.267.314.438.526v.001zm53.424-5.212-.407.18c0-.519-.003-1.021-.007-1.509-.008-1.13-.016-2.192.023-3.252.031-.825-.256-1.107-1.072-1.097l-.079.001c-1.463.017-1.473.017-1.474 1.52l-.005 1.315v.002c-.005 1.175-.011 2.351.016 3.525.014.63-.222.975-.781 1.244-.713.344-1.419.705-2.125 1.065l-.001.001h-.001l-.001.001h-.001l-.001.001h-.001c-1.182.604-2.364 1.207-3.579 1.734-.728.315-1.584.379-2.407.439a31 31 0 0 1-.292.022c-1.596.125-3.195.214-4.793.303h-.001l-1.64.093c-.149.009-.298.007-.506.005h-.001c-.117-.001-.252-.003-.416-.003l.559-.633c.34-.385.645-.731.954-1.075.541-.602 1.081-1.206 1.621-1.81a357.446 357.446 0 0 1 4.568-5.044c.669-.72.829-1.418.58-2.355-.522-1.96-1.004-3.931-1.486-5.902-.154-.634-.309-1.267-.465-1.9a5.304 5.304 0 0 1-.096-.536c-.015-.102-.031-.211-.051-.33l1.614-.337c1.182-.246 2.343-.489 3.505-.725 1.176-.239 2.352-.473 3.529-.708l.006-.001.005-.001.006-.001c.952-.19 1.904-.38 2.856-.572 1.312-.265 1.683-.956 1.166-2.203-1.303-3.149-2.608-6.297-3.914-9.444l-.013-.032c-.851-2.053-1.703-4.105-2.553-6.159-.075-.179-.14-.361-.215-.569h-.001v-.002l-.045-.126-.077-.21c.095-.01.182-.024.261-.037.152-.026.279-.047.397-.024 1.583.3 3.167.593 4.752.886 3.983.738 7.967 1.475 11.927 2.324 5.841 1.252 10.338 6.417 10.978 12.394.149 1.397.156 2.813.164 4.223l.002.424c.01 1.552.008 3.104.006 4.656-.003 2.065-.005 4.13.019 6.194.011.846-.268 1.069-1.079 1.062a730.806 730.806 0 0 0-12.823.007c-.688.007-1.419.201-2.05.486-1.057.478-2.09 1.007-3.124 1.536l-.001.001c-.455.233-.911.467-1.369.696-.168.084-.341.16-.561.257zM94.864 42.597h-1.266L97.89 29.67l-2.347-.808-.172.417c-.114.272-.22.524-.306.783l-.535 1.6v.002c-1.12 3.343-2.238 6.685-3.33 10.036-.213.654-.56.877-1.23 1.056-1.193.318-2.372.789-3.464 1.37-2.519 1.338-5.49.768-7.114-1.502a4.716 4.716 0 0 1-.623-1.276c-.43-1.32-.851-2.644-1.273-3.968a573.29 573.29 0 0 0-1.49-4.636c-.189-.573-.095-1 .245-1.484 3.182-4.542 5.766-9.42 8.004-14.485.284-.642.632-.875 1.342-.872 7.651.026 15.303.026 22.954 0 .712-.002 1.054.224 1.317.888a61.568 61.568 0 0 0 8.091 14.408c.457.607.578 1.125.348 1.871-.618 2.012-1.193 4.038-1.769 6.063-.215.757-.43 1.515-.648 2.271-.932 3.244-4.268 4.707-7.306 3.202h-.001a4.159 4.159 0 0 1-.622-.354c-1.714-1.257-3.664-1.667-5.745-1.656-1.713.01-3.425.007-5.138.005l-2.214-.003zm-20.17.118v-.002c.012-.861.025-1.731.025-2.613l.692 1.081.002.004c.49.767.97 1.518 1.455 2.268 2.602 4.032 7.062 5.106 11.213 2.677 1.114-.652 2.28-.981 3.572-.974 3.675.02 7.35.017 11.026.002 1.326-.006 2.516.355 3.632 1.069 4.018 2.571 8.362 1.804 11.259-1.964l1.318-1.713.834-1.084c.025.092.048.167.068.232.036.113.06.193.061.272.036 5.882-.672 11.654-2.425 17.291-.836 2.69-1.753 5.336-3.489 7.584-2.573 3.331-6.06 4.982-10.229 5.063-3.163.062-6.327.046-9.492.03-1.169-.005-2.337-.01-3.506-.012-5.425-.009-10.143-3.217-12.227-8.266-2.04-4.942-3.426-10.052-3.737-15.398-.107-1.83-.08-3.668-.052-5.546v-.001zm79.735 47.27-.297.192-.247-.338a12.917 12.917 0 0 0-.544-.715c-3.326-3.976-7.654-5.956-12.718-6.811-5.706-.963-11.392-2.041-17.079-3.119h-.004c-2.716-.515-5.432-1.03-8.151-1.532-.722-.134-1.058-.404-1.027-1.226.043-1.117.037-2.235.032-3.354-.004-.735-.007-1.47.002-2.204.005-.335.06-.774.272-.984 2.594-2.574 3.83-5.86 4.946-9.223 1.56-4.702 2.392-9.536 2.63-14.472.04-.835.284-1.085 1.099-1.048 4.405.2 7.735-2.608 8.984-5.751 2.317-5.833-1.437-11.982-7.744-12.663-.48-.052-.667-.23-.701-.716l-.003-.036c-.073-1.035-.11-1.556.134-1.82.247-.267.783-.267 1.864-.267h5.43l21.741.001c1.38 0 1.381.004 1.381 1.385v64.701zm0 41.766v7.888l.001 2.423v.067c.001 1.8.002 3.599-.002 5.398-.01 3.953-2.962 6.901-6.923 6.907-1.341.001-2.682.009-4.023.017-3.68.022-7.36.044-11.036-.06-1.626-.046-3.247-.334-4.865-.622h-.001l-.001-.001c-.617-.109-1.234-.219-1.851-.315-3.037-.474-6.074-.956-9.11-1.438l-.004-.001h-.004l-.004-.001-.004-.001h-.003l-.004-.001h-.004l-.005-.001c-2.043-.325-4.086-.649-6.13-.971-2.096-.33-4.192-.657-6.289-.985l-.025-.004c-2.634-.411-5.268-.822-7.902-1.239-1.56-.247-3.118-.498-4.677-.748-2.736-.441-5.471-.881-8.21-1.299-.643-.098-.782-.377-.741-.945.104-1.443.202-2.887.3-4.331v-.005c.101-1.5.203-3.001.311-4.501.078-1.066.164-2.132.25-3.198v-.001c.15-1.846.3-3.693.402-5.543l.01-.176c.113-2.085.116-2.135 2.297-2.012 2.692.151 5.381.329 8.07.507 1.746.116 3.49.231 5.236.339 1.673.104 3.346.198 5.02.292h.006c1.721.097 3.441.193 5.16.3 2.459.153 4.918.315 7.376.477 1.828.121 3.655.241 5.483.358 1.232.078 2.465.15 3.698.222l.012.001h.002c1.056.062 2.112.123 3.167.189 1.92.12 3.84.243 5.76.365h.012l.002.001c2.541.161 5.081.323 7.622.48l.502.031h.002c3.197.197 6.395.394 9.594.554l.123.006c1.398.069 1.4.069 1.4 1.577zM38.471 93.553l-.349.725c-2.455-2.704-5.327-4.095-8.863-3.65-2.107.266-3.913 1.217-5.407 2.753a9.217 9.217 0 0 0-1.14 11.393c1.58 2.457 3.862 3.862 6.756 4.225 2.89.364 5.36-.785 7.834-2.495v25.405c0 1.189-.003 1.193-1.181 1.193l-6.319.001c-5.875.002-11.75.004-17.626-.005-4.82-.007-8.447-2.981-9.422-7.685-1.014-4.897 2.46-9.959 7.444-10.836a17.42 17.42 0 0 1 1.597-.183c.922-.074 1.39-.55 1.424-1.494.008-.233.006-.466.005-.699l-.002-.288V25.198c0-1.354 0-1.356 1.394-1.356h5.17c16.362 0 32.724 0 49.086.013.473 0 1.315.11 1.354.3.15.726.08 1.504.013 2.258l-.003.036c-.01.113-.434.25-.676.273-4.602.432-8.115 4.154-8.275 9.05-.15 4.596 3.12 8.393 7.463 9.201.698.13 1.423.194 2.132.172.728-.022 1.062.153 1.135.96l.074.84v.001c.191 2.154.383 4.314.755 6.44.837 4.778 2.133 9.429 4.55 13.689.38.67.848 1.32 1.396 1.856.807.787 1.141 1.644 1.076 2.782-.093 1.61-.054 3.228-.01 4.841.018.674-.234.965-.874 1.082-4.573.84-9.145 1.69-13.714 2.551-1.416.267-2.834.523-4.252.78h-.006c-3.538.64-7.076 1.28-10.577 2.083-5.263 1.207-9.02 4.467-11.388 9.317-.182.373-.361.746-.574 1.186zm74.941-91.299c.37-.154.752-.312 1.161-.452-.16-.088-.293-.165-.41-.233h-.001c-.215-.124-.376-.217-.546-.292a14.467 14.467 0 0 0-5.908-1.258l-1.601-.006c-3.203-.013-6.406-.026-9.608.012-4.282.05-8.187 1.334-11.544 4.001-1.075.854-2.096 1.214-3.463 1.206-5.302-.032-9.543 4.264-9.572 9.561-.006 1.18-.005 2.36-.004 3.54.001.583.002 1.167.001 1.75 0 1.265 0 1.266-1.286 1.266H14.496c-1.273 0-1.274-.001-1.274-1.277V14.47c0-4.23 0-8.461-.003-12.692 0-1.31-.507-1.857-1.79-1.733-1.09.107-2.2.282-3.237.622C3.16 2.321.003 6.865.002 12.381 0 42.83.002 73.278.003 103.726V123.3l-.001.2c-.002.232-.003.465.012.696.191 2.863 1.158 5.411 3.109 7.548 2.486 2.724 5.627 3.957 9.266 3.965 7.95.018 15.902.016 23.853-.008.81-.003 1.088.218 1.079 1.062-.041 3.796-.05 7.592-.005 11.388.055 4.549 4.038 8.645 8.58 8.73 3.96.074 7.922.075 11.884.077 1.388.001 2.776.001 4.165.005.445.001.9-.038 1.335-.132 3.62-.785 7.237-1.574 10.856-2.362l.008-.002c4.971-1.083 9.942-2.165 14.914-3.24.194-.042.39-.088.587-.135.828-.196 1.677-.397 2.472-.291 3.273.436 6.535.958 9.796 1.48h.004l.001.001h.004l.002.001c1.03.164 2.061.329 3.091.491 2.231.351 4.462.705 6.692 1.058 2.891.458 5.781.916 8.672 1.368 1.1.173 2.2.371 3.299.569 2.579.465 5.157.931 7.752 1.06 5.429.271 10.882.162 16.323.053l.436-.009c3.632-.073 6.225-1.985 7.874-5.196.861-1.679.935-3.498.936-5.326l.001-102.018V23.97l.001-.117c0-.205.001-.41-.005-.616-.041-1.537-.398-1.889-1.932-1.889h-31.385c-.073 0-.15.007-.227.014-.174.016-.349.032-.481-.035-.265-.134-.607-.362-.667-.61-.147-.608-.265-1.224-.383-1.839a37.753 37.753 0 0 0-.424-2.007c-.137-.544-.024-.869.332-1.272.271-.307.504-.785.495-1.18-.118-4.78-2.114-8.612-5.893-11.539-.585-.453-.95-.456-1.493.096a804.072 804.072 0 0 1-9.705 9.696c-.34.334-.914.594-1.385.604-2.272.044-4.545.036-6.817.029l-1.701-.005c-.14 0-.279-.024-.45-.052a10.211 10.211 0 0 0-.307-.046l1.51-1.884.002-.003c2.246-2.803 4.444-5.547 6.656-8.28.165-.203.498-.388.75-.384.572.008 1.147.006 1.722.003 1.642-.007 3.285-.015 4.885.244 1.269.206 2.244-.2 3.315-.645zM23.92 41.252c-.008-3.772 2.918-6.69 6.7-6.684 3.677.007 6.677 2.996 6.68 6.66.005 3.709-3 6.685-6.746 6.682-3.721-.004-6.626-2.92-6.634-6.658zm6.526 9.272c5.1.081 9.263-4 9.375-9.194.109-5.031-4.021-9.284-9.104-9.375-4.879-.087-9.253 3.994-9.374 8.746-.139 5.412 3.872 9.74 9.103 9.823zm20.6.59.187.796v.001l.001.001c.138.59.276 1.179.42 1.766.07.286.138.573.207.86.224.93.447 1.862.714 2.781.193.67.047.968-.655 1.134l-.428.103h-.004c-.667.163-.965.235-1.132.12-.135-.095-.184-.313-.272-.708-.04-.179-.088-.394-.156-.65-.59-2.22-1.126-4.452-1.663-6.685l-.206-.858c-.255-1.06.14-1.653 1.209-1.863 1.075-.21 2.15-.418 3.225-.626h.001c1.878-.363 3.756-.725 5.63-1.105.569-.115.806.036.947.59.445 1.754.437 1.786-1.347 2.125-1.151.219-2.302.444-3.566.799 8.338 5.301 10.772 12.943 9.283 22.18-.07.027-.12.05-.16.068-.061.028-.094.043-.125.04l-.009-.002c-2.074-.279-2.152-.29-1.963-2.343.292-3.17.036-6.252-1.09-9.242-1.15-3.057-3.111-5.485-5.772-7.354-.697-.49-1.408-.958-2.119-1.427-.324-.215-.648-.428-.971-.644l-.185.143zM28.86 70.618l-6.2 5.992 1.858 1.838 6.008-6.146 6.326 6.276c.126-.166.24-.327.346-.48.224-.318.423-.601.673-.829.524-.476.506-.801-.003-1.293a234.78 234.78 0 0 1-3.687-3.66v-.001l-1.074-1.08a9.42 9.42 0 0 1-.441-.488l-.002-.002-.231-.265 1.511-1.507a503.269 503.269 0 0 0 3.357-3.364c.181-.185.338-.337.471-.465v-.001c.367-.355.55-.532.552-.71.002-.178-.174-.357-.525-.714h-.001v-.001c-.142-.144-.311-.316-.508-.529-.483-.52-.785-.413-1.226.04-1.263 1.294-2.545 2.569-3.828 3.844l-.002.003c-.347.345-.695.69-1.042 1.037-.12.119-.248.229-.402.36l-.264.23-1.46-1.476-.005-.005a1426.79 1426.79 0 0 0-3.114-3.14c-1.572-1.58-1.575-1.578-3.022.129a.507.507 0 0 0-.076.167c-.016.045-.034.097-.059.16l6.07 6.08zM93.522 138.5l.052-.004.008-.001c.143-.011.258-.02.374-.022l.001-.001c.943-.022 1.41-.033 1.631.195.218.224.198.678.157 1.58l-.002.05c-.021.487-.184.712-.67.722l-.234.005c-.885.019-1.306.029-1.502-.177-.178-.187-.17-.551-.156-1.246l.008-.428c.002-.134.037-.268.077-.419v-.001c.02-.075.041-.154.06-.239l.109-.008.087-.006zm10.484.137c-.157.161-.157.475-.158 1.09 0 .661 0 .987.162 1.147.158.156.469.157 1.083.159 1.298.004 1.337-.032 1.341-1.247.004-1.307-.002-1.314-1.236-1.316-.69-.001-1.027-.001-1.192.167zm39.721-78.724c.02-3.748-2.865-6.684-6.583-6.701-3.769-.018-6.778 2.917-6.792 6.626-.015 3.667 2.98 6.703 6.628 6.718 3.792.015 6.727-2.873 6.747-6.643zm-15.909-.068c.036-5.15 4.197-9.278 9.321-9.248 5.128.03 9.21 4.25 9.174 9.484-.035 4.957-4.329 9.142-9.319 9.083-5.076-.06-9.211-4.259-9.176-9.32zM92.98 55.862h.328c3.364.033 6.649-.405 9.799-1.645l.017-.007c.713-.28 1.059-.417 1.14-.647.077-.216-.08-.516-.386-1.097l-.069-.132c-.411-.784-.813-.864-1.613-.533-2.444 1.015-5.019 1.458-7.665 1.475l-.406.002c-.939.007-1.877.014-2.815-.005-.518-.01-.73.153-.752.71l-.002.064c-.034.904-.05 1.358.168 1.586.22.229.678.23 1.598.23h.658zm-10.448-23.95c.003-1.384 1.268-2.627 2.656-2.607 1.367.02 2.562 1.213 2.584 2.584.021 1.388-1.212 2.646-2.606 2.656-1.38.01-2.636-1.245-2.633-2.633zm26.534 2.632c1.364.042 2.582-1.119 2.629-2.505.049-1.466-1.032-2.652-2.487-2.729-1.369-.071-2.612 1.07-2.669 2.451-.063 1.5 1.061 2.738 2.527 2.783z">
		</path>
	</symbol>
	<symbol xmlns="http://www.w3.org/2000/svg" viewBox="0 0 157 158" id="training-curators">
		<path fill-rule="evenodd" clip-rule="evenodd" d="m83.514 143.764 2.191-8.625 4.932 8.625h-7.123zm19.337-42.487-9.178-4.588 5.638-7.517 3.749 11.882-.209.223zm25.563-.094 3.778-12.009 2.189 2.918 3.455 4.604-9.226 4.615-.196-.128zm-8.206 26.446a4.531 4.531 0 0 0-.193.104l7.788-24.646.174.137.113.087c.155.119.274.21.38.314.572.568 1.143 1.139 1.714 1.709.689.688 1.378 1.377 2.071 2.062.321.317.563.589.248 1.081-2.75 4.297-5.494 8.598-8.238 12.899l-.008.013-.009.013-3.925 6.152c-.016.026-.047.041-.115.075zm-8.714.101-.147.108-1.067-1.673-2.812-4.413-2.06-3.237-.008-.014-.001-.001c-2.061-3.242-4.122-6.484-6.206-9.711-.41-.634-.374-1.016.176-1.53.831-.775 1.63-1.583 2.429-2.392.367-.371.735-.743 1.105-1.111.132-.131.271-.255.45-.415l.111-.098.227-.204 7.803 24.691zm29.511-83.848h.004l.002-1.608c.001-1.364.003-2.727-.006-4.09-.005-.648.201-.992.925-1.03 3.625-.191 6.624 2.26 7.163 5.895.492 3.325-1.853 6.623-5.256 7.388-2.535.57-2.832.34-2.832-2.214v-4.341zm-25.139 88.735-.217.012-6.582-20.853h13.372l-6.573 20.841zm12.596-98.128 1.971-.003 1.999.003c1.658.004 3.316.008 4.973-.015.784-.01 1.076.278 1.061 1.06-.018.969-.015 1.938-.012 2.907v.002c.003.932.005 1.864-.011 2.795-.039 2.286-1.743 4.002-4.028 4.03-2.686.035-5.373.035-8.059.001-2.224-.027-3.934-1.745-3.979-3.982-.021-1.036-.018-2.073-.015-3.11.003-.895.006-1.79-.007-2.684-.01-.734.27-1.025 1.014-1.017 1.698.02 3.396.016 5.093.013zM102.229 45.28l-1.189-.001c-.424 0-.847 0-1.27.002-.876.003-1.75.006-2.626-.007-2.314-.033-4.076-1.773-4.106-4.073a170.4 170.4 0 0 1-.006-2.713v-.002c.003-.997.006-1.994-.01-2.991-.012-.737.256-1.023 1.003-1.02 4.68.02 9.361.02 14.042 0 .763-.004 1.108.255 1.097 1.043-.012.778-.007 1.556-.003 2.334.005 1.094.011 2.189-.026 3.282-.088 2.564-1.736 4.12-4.29 4.143-.872.007-1.744.005-2.616.003zM94.624 154.47l-2.912.002-1.602.001h-.027c-3.047.002-6.094.003-9.142-.001-1.325-.001-1.395-.08-.852-1.229.882-1.867 1.157-3.775.643-5.802-.266-1.052-.176-1.113.95-1.113l5.64.001h.012c5.115.001 10.23.003 15.345-.017.86-.003 1.187.256 1.165 1.139a118.871 118.871 0 0 0-.001 5.881c.022.892-.349 1.155-1.18 1.15-2.677-.017-5.355-.014-8.033-.012h-.006zm23.815-138.664a.316.316 0 0 1 .096-.138c.636.89 1.255 1.79 1.872 2.69 1.404 2.045 2.802 4.082 4.393 5.954 1.576 1.855 3.347 3.546 5.134 5.252.79.754 1.582 1.51 2.363 2.286-.073.008-.152.02-.237.032a4.74 4.74 0 0 1-.66.063c-1.474.003-2.949.003-4.424.003h-.001c-1.665 0-3.329 0-4.993.006-1.827.006-2.168.36-2.179 2.175l-.002.298v.002c-.005.685-.009 1.37-.004 2.054.004.565-.254.821-.826.819-2.144-.01-4.287-.012-6.43.002-.628.004-.863-.286-.85-.885.007-.353.003-.707-.001-1.06-.005-.462-.01-.924.01-1.384.034-.802-.181-1.46-.757-2.049-.173-.177-.249-.712-.114-.891 3.465-4.616 5.897-9.741 7.61-15.23zm27.48 36.682.526-.11V62.64l-.001 21.697c-.001 1.33-.001 1.33-1.249 1.197l-.109-.011c-1.408-.149-2.824-.285-4.238-.3-4.017-.04-8.034-.03-12.051-.002-.86.006-1.164-.289-1.156-1.163.036-3.925.028-7.852.003-11.777-.004-.655.215-1.04.779-1.377 6.416-3.826 10.426-9.394 11.973-16.706.171-.807.521-1.053 1.331-1.089.83-.036 1.656-.176 2.481-.316.305-.052.609-.103.914-.15.249-.038.495-.09.797-.155zm-28.343 56.746c-.605.004-1.211.009-1.817.009l-1.789-.003c-1.578-.004-3.156-.008-4.733.014-.669.009-1.042-.184-1.254-.864a3387.345 3387.345 0 0 0-6.158-19.504c-.242-.756-.037-1.003.721-1.133 2.62-.448 3.762-1.768 3.803-4.454.032-2.09.028-4.179.023-6.268-.002-1.08-.004-2.162-.001-3.242.003-1.132.082-1.202 1.116-.835 5.468 1.946 10.941 1.88 16.426.08 1.241-.408 1.279-.373 1.28.92v3.932c0 1.829 0 3.658.002 5.487.004 2.485 1.151 3.882 3.57 4.365 1.187.237 1.191.238.827 1.391l-1.538 4.862c-1.48 4.678-2.96 9.356-4.409 14.044-.278.901-.663 1.265-1.636 1.23-1.476-.052-2.954-.042-4.432-.031h-.001zm20.351-62.325c.122-.047.25-.095.389-.142.824 7.163-1.903 15.764-9.649 21.13-7.393 5.12-17.301 5.423-24.593.624-7.735-5.09-11.183-12.424-11.052-21.745.145.036.274.064.392.09.225.047.408.086.575.161 1.353.61 2.77.762 4.241.734 1.292-.025 2.585-.02 3.878-.016.972.004 1.944.008 2.916-.001 3.765-.035 6.561-2.803 6.665-6.569.038-1.41.038-1.411 1.406-1.412h5.255c1.392 0 1.392.002 1.46 1.37.166 3.325 2.114 5.768 5.198 6.468.522.119 1.076.138 1.616.141.524.003 1.048.008 1.572.014 1.862.018 3.725.037 5.584-.034.852-.033 1.699-.217 2.545-.4.3-.066.601-.132.901-.19.23-.045.453-.13.701-.223zm8.461-11.876c-.014.088-.029.184-.044.294l-.34-.064c-.225-.043-.434-.083-.644-.117a93.74 93.74 0 0 1-.943-.16c-.814-.141-1.627-.282-2.447-.366-.612-.063-.922-.221-.979-.89-.124-1.472-.44-1.773-1.935-1.759-.976.01-1.799-.24-2.628-.766-6.829-4.329-12.024-10.116-15.637-17.338-.115-.228-.223-.461-.331-.694-.263-.565-.526-1.13-.875-1.634-.269-.389-.85-.816-1.257-.784-.405.031-.957.542-1.118.966-.455 1.203-.864 2.423-1.274 3.644-.301.897-.602 1.794-.922 2.684a41.557 41.557 0 0 1-7.771 13.294c-.313.362-.985.574-1.493.58-3.067.033-6.134.031-9.201.03-1.132-.002-2.263-.002-3.394-.001-.453 0-.908.004-1.358.05-.771.077-1.234.508-1.22 1.302.028 1.49.062 2.98.096 4.471.04 1.735.08 3.468.11 5.203.003.234-.047.468-.097.702-.044.206-.088.411-.096.617-.192 4.92.017 9.774 2.054 14.387 2.21 5.006 5.562 9.02 10.193 11.939.721.454 1.022.95 1.011 1.817a597.727 597.727 0 0 0-.006 11.597c.007.847-.257 1.188-1.138 1.184a1945.45 1945.45 0 0 0-16.492-.002c-.835.004-1.179-.246-1.177-1.141.008-5.532-.005-11.064-.018-16.596-.028-11.925-.057-23.85.127-35.771.134-8.75 3.995-16.093 10.653-21.81 6.507-5.586 14.151-7.944 22.67-7.267 13.157 1.045 24.26 10.777 27.219 23.699.625 2.726.815 5.485.753 8.27a3.082 3.082 0 0 1-.051.43zM27.712 103.728h17.047c6.71-.001 13.422-.001 20.132.001 3.098.001 4.82 1.391 5.436 4.455 2.694 13.395 5.383 26.792 8.05 40.193.693 3.482-1.459 6.073-5.068 6.085-6.339.021-12.678.018-19.017.015h-.012l-7.064-.002h-4.82c-8.209.001-16.417.002-24.626-.01-.808-.002-1.65-.021-2.418-.237-1.85-.521-2.938-1.836-3.353-3.688a10657.7 10657.7 0 0 1-4.69-21.019c-.812-3.647-1.62-7.295-2.429-10.943v-.003l-.001-.004c-.732-3.3-1.463-6.599-2.196-9.898-.684-3.078.798-4.943 3.951-4.944 7.026-.002 14.052-.002 21.078-.001zm106.961-15.43-.312-.445c.181-.016.331-.032.46-.046.23-.024.395-.042.561-.042.689 0 1.377-.005 2.065-.008 1.789-.01 3.579-.02 5.367.026 3.763.094 6.809 1.69 9.133 4.63 1.88 2.379 2.513 5.132 2.507 8.136-.025 13.64-.022 27.281-.018 40.922l.003 12.905-.001.292c-.001.507-.002 1.014.026 1.519.013.229.111.634.208.646.648.078 1.321.156 1.951.04.181-.033.348-.703.349-1.082l.011-10.016v-.176c.018-15.239.036-30.478-.024-45.717-.021-5.36-2.433-9.58-7.004-12.46-.752-.473-.97-1.004-.968-1.839.021-11.388.018-22.775.005-34.163-.001-.76.183-1.366.673-1.98a8.913 8.913 0 0 0 .009-11.15c-.488-.612-.692-1.217-.682-1.98.045-3.507-.075-7-.859-10.442-3.731-16.401-19.257-27.55-35.91-25.66-9.335 1.06-16.966 5.34-22.755 12.753-3.822 4.894-6.125 10.469-6.667 16.671-.224 2.573-.224 5.17-.223 7.76v1.017c-.02 15.405-.012 30.81-.002 46.215 0 .75-.085 1.281-.94 1.6-4.902 1.825-7.924 5.36-9.168 10.409-.297 1.204-.54 2.42-.782 3.637-.135.677-.27 1.355-.414 2.03-.226 1.059-.3 1.104-1.201.504-1.551-1.032-3.21-1.568-5.103-1.566-13.22.017-26.439.017-39.658.018-6.296 0-12.593 0-18.89.002-.57.001-1.154.017-1.71.13-2.974.608-5.436 3.72-4.514 7.75 1.824 7.971 3.59 15.955 5.356 23.939v.001c.984 4.447 1.967 8.895 2.961 13.34.304 1.36.66 2.708 1.015 4.057.19.72.38 1.44.561 2.162.053.208.112.416.17.624h.001c.16.566.322 1.133.351 1.706.086 1.668.377 2.031 2.03 2.031 30.573.001 61.146.001 91.719-.001 1.588 0 1.988-.379 1.998-1.977a749.42 749.42 0 0 0 0-9.243c-.01-1.585-.363-1.91-1.939-1.911-3.504-.003-7.008-.003-10.513 0h-.048c-.52.001-1.056.002-1.023-.738.042-.921-.41-1.59-.945-2.276-3.358-4.314-4.652-9.203-3.987-14.619.344-2.803 1.33-5.374 2.793-7.781.158-.259.29-.777.156-.928-.312-.353-.687-.649-1.138-1.006-.19-.15-.393-.31-.61-.49a53.804 53.804 0 0 1-.85 1.6c-.616 1.127-1.2 2.196-1.577 3.334-.46 1.386-.764 2.822-1.069 4.259-.17.805-.34 1.61-.539 2.406-.592 2.383-1.208 4.76-1.824 7.137l-.648 2.509c-.477 1.849-.956 3.697-1.457 5.632l-.008.031c-.222.859-.45 1.735-.682 2.637-.054-.186-.1-.335-.138-.463-.068-.222-.115-.376-.147-.533l-.757-3.774c-2.097-10.455-4.194-20.91-6.271-31.369-.173-.869-.346-1.809-.196-2.66.35-1.986.763-3.962 1.175-5.938.23-1.096.458-2.192.676-3.29 1.078-5.42 5.933-9.972 12.204-9.799 2.039.056 4.08.042 6.12.028.981-.007 1.962-.013 2.942-.012.208 0 .415.013.67.028.133.009.28.018.445.026-.106.15-.198.284-.283.406-.161.232-.293.421-.43.606l-2.28 3.036-.007.01c-.942 1.256-1.885 2.51-2.825 3.767-1.21 1.618-1.09 2.144.688 3.034 1.112.557 2.226 1.113 3.339 1.669 1.318.659 2.636 1.317 3.953 1.977.188.094.37.198.597.326.122.069.257.145.411.23-.377.373-.746.735-1.109 1.092l-.008.009c-.817.803-1.602 1.574-2.381 2.35-1.214 1.209-1.236 1.424-.32 2.865l3.48 5.468c4.53 7.122 9.059 14.244 13.615 21.35.631.984.927 1.948.917 3.121-.043 5.153-.027 10.307-.011 15.461l.004 1.212c.001.364.103 1.005.264 1.041.6.132 1.263.153 1.86.022.178-.039.307-.708.309-1.089.008-2.346.009-4.692.011-7.038.002-3.424.004-6.847.026-10.27a3.537 3.537 0 0 1 .511-1.763c2.188-3.494 4.404-6.97 6.62-10.447a5586.705 5586.705 0 0 0 3.21-5.041l.895-1.406.073-.113c2.281-3.584 4.562-7.168 6.838-10.755.709-1.116.657-1.505-.275-2.451-.414-.421-.833-.838-1.251-1.256l-.002-.001c-.33-.329-.66-.658-.987-.989-.296-.297-.587-.599-.906-.93l-.162-.167-.158-.163-.153-.159.195-.109.215-.122h.001c.227-.129.411-.233.599-.327.992-.496 1.986-.991 2.979-1.486l.012-.006c1.517-.755 3.033-1.51 4.547-2.271 1.355-.68 1.504-1.336.585-2.569a1439.68 1439.68 0 0 0-3.287-4.388l-.007-.01c-.659-.878-1.319-1.756-1.977-2.635-.137-.183-.268-.37-.435-.61zm3.777 59.324c.004.579.008 1.158.008 1.738h.006l-.003 1.628c-.004 1.66-.008 3.321.026 4.98.007.337.252.887.505.966 1.454.457 2.007.026 2.01-1.461.003-1.228.002-2.456.002-3.684-.002-2.635-.003-5.269.026-7.904.006-.563.156-1.23.482-1.67 3.415-4.605 4.974-9.727 4.455-15.454-.331-3.648-1.536-6.991-3.561-10.038-.109-.163-.392-.414-.435-.385l-.122.082c-.505.338-1.018.681-1.428 1.117-.131.139.014.664.171.931 4.462 7.565 3.927 15.718-1.457 22.749-.389.507-.622 1.252-.647 1.897-.058 1.501-.048 3.004-.038 4.508zM34.46 128.584c-.014 2.486 2.047 4.576 4.525 4.589 2.01.012 3.556-1.523 3.569-3.54.016-2.504-2.02-4.548-4.533-4.553-2.073-.005-3.55 1.448-3.561 3.504zm4.503 7.056c-3.905-.009-7.115-3.224-7.088-7.101.023-3.297 2.788-6.02 6.116-6.022 3.84-.003 7.121 3.265 7.134 7.103.01 3.36-2.72 6.027-6.162 6.02zm73.568-81.302c-.891-1.155-1.52-1.346-3.02-.887.378 2.925 3.62 5.239 6.854 4.952 2.823-.25 5.703-2.835 5.571-5.002-1.556-.38-2.033-.226-2.976.955-1.669 2.092-4.807 2.083-6.429-.018z">
		</path>
	</symbol>
	<symbol xmlns="http://www.w3.org/2000/svg" viewBox="0 0 20 16" id="mail">
		<path fill-rule="evenodd" clip-rule="evenodd" d="m20 2-2-2-2 2-2-2-2 2-2-2-2 2-2-2-2 2-2-2-2 2 2 2-2 2 2 2-2 2 2 2-2 2 2 2 2-2 2 2 2-2 2 2 2-2 2 2 2-2 2 2 2-2-2-2 2-2-2-2 2-2-2-2 2-2zm-10 9L4 6V4l6 4 6-4v2l-6 5z">
		</path>
	</symbol>
	<symbol xmlns="http://www.w3.org/2000/svg" viewBox="0 0 14 20" id="address">
		<path fill-rule="evenodd" clip-rule="evenodd" d="M0 7c0 5.2 7 13 7 13s7-7.8 7-13c0-3.9-3.1-7-7-7S0 3.1 0 7zm4.5 0c0-1.4 1.1-2.5 2.5-2.5S9.5 5.6 9.5 7 8.4 9.5 7 9.5 4.5 8.4 4.5 7z">
		</path>
	</symbol>
	<symbol xmlns="http://www.w3.org/2000/svg" viewBox="0 0 20 35" id="dropdown-close">
		<path d="M.95 17.426 17.494.883l2.121 2.121L5.121 17.5l14.495 14.495-2.12 2.122L.948 17.426z">
		</path>
	</symbol>
	<symbol viewBox="0 0 13 20" xmlns="http://www.w3.org/2000/svg" id="phone-contact">
		<path fill-rule="evenodd" clip-rule="evenodd" d="M0 2C0 0.895431 0.895431 0 2 0H11C12.1046 0 13 0.895431 13 2V18C13 19.1046 12.1046 20 11 20H2C0.89543 20 0 19.1046 0 18V2ZM3 17C3 16.4477 3.44772 16 4 16H9C9.55228 16 10 16.4477 10 17C10 17.5523 9.55228 18 9 18H4C3.44772 18 3 17.5523 3 17ZM6.5 2C5.67157 2 5 2.67157 5 3.5C5 4.32843 5.67157 5 6.5 5C7.32843 5 8 4.32843 8 3.5C8 2.67157 7.32843 2 6.5 2Z" />
	</symbol>
	<symbol viewBox="0 0 17 17" xmlns="http://www.w3.org/2000/svg" id="time">
		<path fill-rule="evenodd" clip-rule="evenodd" d="M0 8.5C0 3.80558 3.80558 0 8.5 0C13.1944 0 17 3.80558 17 8.5C17 13.1944 13.1944 17 8.5 17C3.80558 17 0 13.1944 0 8.5ZM11.8239 13.0015L12.9871 11.4607L9.27794 8.66052V3.30648H7.34747V9.62194L11.8239 13.0015Z" />
	</symbol>
	<symbol viewBox="0 0 16 16" xmlns="http://www.w3.org/2000/svg" id="clear">
		<path fill-rule="evenodd" clip-rule="evenodd" d="M8 0C3.6 0 0 3.6 0 8C0 12.4 3.6 16 8 16C12.4 16 16 12.4 16 8C16 3.6 12.4 0 8 0ZM12 11.0494L10.88 12.2353L8 9.18588L5.12 12.2353L4 11.0494L6.88 8L4 4.95059L5.12 3.76471L8 6.81412L10.88 3.76471L12 4.95059L9.12 8L12 11.0494Z" />
	</symbol>
	<symbol viewBox="0 0 13 9" xmlns="http://www.w3.org/2000/svg" id="check">
		<path opacity="0.307831" d="M4.83496 6.42657L11.1393 0L12.417 1.2381L4.80276 9L0.416992 4.30082L1.7253 3.09469L4.83496 6.42657Z" fill="black" />
	</symbol>
	<symbol viewBox="0 0 20 50" xmlns="http://www.w3.org/2000/svg" id="arrow-slider-about">
		<path xmlns="http://www.w3.org/2000/svg" fill-rule="evenodd" clip-rule="evenodd" d="M2.17972 0L0 1.58366L16.91 24.8582L0 48.1328L2.17972 49.7165L20 25.189L19.5448 24.8582L20 24.5275L2.17972 0Z" />
	</symbol>
	<symbol viewBox="0 0 33 25" xmlns="http://www.w3.org/2000/svg" id="form-chek">
		<path fill-rule="evenodd" clip-rule="evenodd" d="M0.739258 13.9248L11.8133 25L32.261 4.58293L27.6991 0L11.8133 15.8688L5.30167 9.36415L0.739258 13.9248Z" fill="#49B173" />
	</symbol>
	<symbol viewBox="0 0 27 27" id="icon-close" xmlns="http://www.w3.org/2000/svg">
		<path fill-rule="evenodd" clip-rule="evenodd" d="M15.9099 13.0815L26.163 23.3345L23.3345 26.163L13.0815 15.9099L2.82843 26.163L0 23.3345L10.253 13.0815L0 2.82843L2.82843 0L13.0815 10.253L23.3345 0L26.163 2.82843L15.9099 13.0815Z" />
	</symbol>
</svg>
