<svg width="73" height="83" viewBox="0 0 73 83" fill="none" xmlns="http://www.w3.org/2000/svg">
<path fill-rule="evenodd" clip-rule="evenodd" d="M72.2672 0.978516C72.1377 1.06095 71.9913 1.13387 71.8448 1.20679L71.8448 1.2068C71.5266 1.36523 71.2083 1.52374 71.0633 1.78013C69.9364 3.77354 68.8539 5.79608 67.8453 7.85321C65.9666 11.6871 63.1309 14.4427 59.3189 16.4331C56.3551 17.9799 53.4934 19.8367 50.8877 21.9315C45.4615 26.2933 43.1616 32.4162 41.8132 39.0402C41.1633 42.2358 40.23 45.3803 39.2676 48.4994C39.1147 48.9939 38.6596 49.395 38.2047 49.796C37.9953 49.9806 37.786 50.1651 37.6061 50.3587C37.4785 50.1134 37.324 49.871 37.1695 49.6286C36.8339 49.1022 36.4983 48.5757 36.438 48.0194C35.9726 43.7061 37.2633 39.6992 38.8853 35.7834C39.0006 35.5049 39.3671 35.247 39.6718 35.1469C40.8472 34.7609 41.4613 33.5285 40.9965 32.08C40.5987 32.335 40.2179 32.5787 39.8429 32.8188L39.2974 33.168C39.653 32.0885 40.2561 31.194 40.8976 30.3275C41.1563 29.9777 41.4297 29.6372 41.7028 29.2969L41.7029 29.2968C42.2163 28.6572 42.7291 28.0184 43.1434 27.3201C43.3309 27.0047 43.3052 26.5623 43.2794 26.12V26.12V26.1199C43.2677 25.9197 43.256 25.7195 43.2642 25.5312C43.0937 25.602 42.9107 25.6602 42.7277 25.7184C42.3212 25.8477 41.9146 25.977 41.6452 26.2448C40.9916 26.8941 40.4594 27.6921 39.9849 28.4918C36.1643 34.9327 34.6722 42.0301 34.3166 49.3993C34.2492 50.798 34.6473 52.2908 35.1358 53.6283C35.9204 55.7752 37.696 56.1678 39.2834 54.5118C40.2604 53.4929 41.2076 52.2216 41.5869 50.8969C42.5609 47.4963 43.4644 44.0356 43.928 40.5367C44.5773 35.6341 46.4233 31.4489 50.4847 28.6211C52.7674 27.0312 55.199 25.6555 57.6952 24.2434C58.8221 23.6058 59.9622 22.9608 61.1078 22.2853C61.1652 22.7362 61.18 23.1729 61.1938 23.578C61.2211 24.3803 61.2442 25.0588 61.5853 25.479C62.9646 27.1787 62.9137 29.0113 62.6594 30.9313C62.3876 32.9793 62.1776 34.9557 63.0441 36.9825C63.6558 38.4134 63.5909 40.0148 62.7632 41.7096C62.2243 39.7484 61.7449 39.3528 60.9069 40.1076C60.8229 40.1833 60.7376 40.2595 60.6517 40.3363C59.7223 41.1669 58.7126 42.0692 58.2988 43.149C57.0075 46.5199 54.6154 48.7197 51.5801 50.3769C50.8441 50.7788 50.0939 51.1547 49.3438 51.5305L49.3437 51.5305C48.505 51.9507 47.6665 52.3708 46.8481 52.8272C45.4178 53.624 45.4275 54.8789 46.8377 55.7291C47.0972 55.8852 47.3974 55.9729 47.6978 56.0608C47.8493 56.105 48.0008 56.1493 48.1473 56.2024C52.2815 57.7061 55.3988 60.4332 57.3873 64.3174C57.7982 65.1203 57.7417 66.5651 57.269 67.3169C56.6628 68.2824 56.695 68.837 57.3163 69.6295C57.7757 70.2163 58.2144 70.8444 58.5239 71.5174C59.1433 72.8643 59.725 74.2281 60.3068 75.5919L60.3068 75.5921C60.5344 76.1257 60.762 76.6592 60.9919 77.1918L60.5768 77.4739C57.8467 76.7269 55.1415 75.8998 52.9727 73.924C52.73 73.7029 52.5742 73.3911 52.417 73.0766C52.2998 72.8422 52.1819 72.6062 52.0267 72.4052C51.9912 72.3592 51.9553 72.3117 51.9187 72.2635C51.6089 71.855 51.2567 71.3906 50.8355 71.268C48.5884 70.6144 46.6527 69.4141 45.3826 67.5263C44.2567 65.8531 43.306 64.0616 42.3555 62.2706L42.3554 62.2704C41.995 61.5912 41.6346 60.9121 41.2647 60.2396C41.1225 59.9806 41.0231 59.6981 40.9099 59.3763L40.9098 59.3762L40.9098 59.376C40.8524 59.213 40.7915 59.04 40.7197 58.8548C40.6024 58.9521 40.4971 59.0326 40.4026 59.1046C40.2274 59.2383 40.09 59.3433 39.9843 59.4738C39.1414 60.5114 38.1565 60.512 37.1274 59.8391C36.6898 59.5529 36.2776 59.2288 35.8651 58.9045L35.865 58.9044C35.6162 58.7088 35.3673 58.5131 35.1127 58.3257C34.8464 58.1292 34.5696 57.9467 34.293 57.7643L34.2925 57.7639C34.1685 57.6821 34.0445 57.6004 33.9215 57.5174C33.8472 57.572 33.773 57.6268 33.6988 57.6815C33.6246 57.7363 33.5504 57.7911 33.4761 57.8457C33.6121 58.1012 33.7336 58.37 33.8551 58.6388L33.8552 58.6389C34.1192 59.223 34.3831 59.807 34.7953 60.2541C35.4519 60.966 36.1044 61.6829 36.7571 62.4001L36.7575 62.4005C39.1866 65.0697 41.6187 67.742 44.2751 70.166C48.3293 73.8652 52.8137 77.1523 58.2411 78.4977L58.2851 78.5085C61.2283 79.2379 63.9447 79.9111 65.5376 82.7582C65.5594 82.7976 65.6001 82.8534 65.6347 82.8552C66.0254 82.8781 66.4166 82.8963 66.8078 82.9144L67.0995 82.9281C67.0954 82.7608 67.1114 82.5771 67.1273 82.3934C67.1629 81.9844 67.1985 81.5755 67.0122 81.3485C66.641 80.8966 66.0821 80.5875 65.5366 80.2858C65.4176 80.22 65.2994 80.1546 65.1838 80.0881C63.6085 79.1828 62.5987 77.9272 62.1011 76.1201C61.7531 74.8558 61.2833 73.6256 60.8132 72.3947C60.5488 71.7026 60.2844 71.0103 60.0416 70.3116C59.8972 69.8965 59.7612 69.3844 59.8753 68.9906C60.3238 67.4474 60.149 65.9413 59.3237 64.6603C58.2703 63.0249 57.0839 61.435 55.7325 60.0405C54.825 59.1037 53.8209 58.2614 52.8159 57.4185L52.8159 57.4185C52.0986 56.8168 51.3809 56.2149 50.6977 55.578C49.0569 54.0482 49.2037 53.4486 51.2396 52.4996C54.6967 50.8884 58.1125 49.2458 59.777 45.4277C59.9569 45.0144 60.4751 44.725 60.9523 44.4584C61.0546 44.4013 61.155 44.3453 61.2498 44.2893C61.4841 44.1512 61.7479 44.0518 62.0101 43.953C62.3875 43.8109 62.7613 43.6701 63.0381 43.4172C64.9047 41.7133 65.3027 39.4092 64.972 37.0929C64.5697 34.2724 65.4666 31.8907 66.5971 29.4239C67.1262 28.2685 67.1457 26.8225 67.1578 25.5057C67.1626 24.9949 67.0087 24.486 66.8538 23.9742L66.8538 23.9741C66.7337 23.5769 66.613 23.178 66.5655 22.775C66.4795 22.0416 66.3722 21.3056 66.2648 20.569C65.9694 18.5429 65.6732 16.5118 65.8161 14.5149C66.0789 10.8412 68.0116 7.71789 70.4182 4.93682L70.4667 4.88081C71.1223 4.12279 71.7886 3.35248 72.2867 2.49375C72.4359 2.23608 72.3801 1.85923 72.3242 1.4823C72.2988 1.31064 72.2733 1.13896 72.2672 0.978516ZM39.905 22.3939L39.9049 22.394C38.4949 22.6208 37.271 22.8177 36.0705 23.1102C35.4291 23.2667 34.6638 23.7467 34.3568 24.302C33.1681 26.4523 32.0709 28.6538 30.9739 30.8549L30.9738 30.8549L30.9738 30.855C30.7576 31.2888 30.5414 31.7227 30.3245 32.1561C30.1252 32.5546 29.9625 32.9712 29.7682 33.4686L29.7682 33.4687C29.6672 33.7273 29.5576 34.0077 29.43 34.3188C29.3458 34.1256 29.2759 33.9789 29.2192 33.8601C29.1264 33.6654 29.0693 33.5457 29.0441 33.4195C28.9256 32.8238 28.8047 32.2285 28.6837 31.6332L28.6836 31.6326L28.6836 31.6325C28.3023 29.7554 27.921 27.8781 27.6156 25.9889C27.4536 24.9883 27.138 24.5696 26.087 24.7984C24.9007 25.0557 23.698 25.2504 22.4934 25.4094C21.4642 25.5454 21.1323 26.0126 21.4345 27.029C22.0526 29.1119 22.6416 31.2036 23.2305 33.295L23.2305 33.295L23.2309 33.2964C23.364 33.7691 23.4972 34.2418 23.6306 34.7144C23.6866 34.9117 23.7222 35.1148 23.7724 35.4013C23.8011 35.5652 23.8346 35.7564 23.8794 35.9894C21.7088 33.7205 19.3841 32.8315 16.6455 33.3849C13.8686 33.9462 12.1028 35.7655 10.9541 38.3402C10.8273 37.2673 10.8145 36.2527 10.8297 35.2381C10.836 34.8141 10.8328 34.4554 10.83 34.1507C10.8225 33.3115 10.8187 32.8816 11.0276 32.6249C11.247 32.3553 11.7013 32.2767 12.6326 32.1157C12.9069 32.0682 13.2226 32.0136 13.5859 31.9449L13.6593 31.931C15.1975 31.6405 15.972 31.4942 16.3742 31.0272C16.7821 30.5536 16.807 29.7501 16.8571 28.1316L16.8597 28.0485C16.8955 26.904 16.5502 26.5624 15.4009 26.7705C13.5348 27.1085 11.664 27.4205 9.79323 27.7325L9.79296 27.7326C7.60598 28.0974 5.41897 28.4621 3.23955 28.8683C2.65954 28.9765 2.18307 29.0464 1.79179 29.1037C0.958657 29.2259 0.511757 29.2915 0.27399 29.5496C-0.00112619 29.8483 0.00375354 30.4049 0.0142796 31.6055C0.0171769 31.936 0.020502 32.3153 0.0185334 32.7514C0.0152354 33.4819 0.0505865 34.2127 0.0884363 34.9951C0.106301 35.3644 0.124721 35.7452 0.139898 36.1429L2.16294 35.3676L5.51574 34.0827V57.9921C5.99826 57.5773 6.45183 57.1814 6.88742 56.8011L6.8876 56.801C7.86912 55.9441 8.75938 55.1669 9.684 54.4331C10.5372 53.7565 10.84 52.9646 10.8218 51.8918C10.7844 49.6832 10.7913 47.474 10.7982 45.2646V45.2646C10.8009 44.3932 10.8036 43.5218 10.8036 42.6505L11.0839 42.5904C11.1365 42.7095 11.1877 42.8293 11.239 42.949C11.3498 43.208 11.4605 43.4668 11.5846 43.7191C13.9409 48.5221 20.6578 49.212 23.8448 44.9576C24.1051 44.6093 24.3108 43.7385 24.1931 43.6645C23.2519 43.0704 22.2592 42.5079 21.207 42.168C20.9587 42.0878 20.5779 42.3824 20.2179 42.6609C20.0931 42.7574 19.9708 42.852 19.8574 42.9284C18.6213 43.7634 16.8761 43.5765 15.8894 42.4848C14.9233 41.4156 14.8826 39.7341 15.7965 38.6121C16.7116 37.4876 18.5849 36.9651 19.5467 37.9876C20.8552 39.3792 21.998 38.9037 23.256 38.3803L23.2566 38.3801C23.3512 38.3407 23.4465 38.3011 23.5426 38.2619C23.7745 38.1674 24.0198 38.1063 24.2569 38.0473C24.3623 38.021 24.4661 37.9952 24.5663 37.967C26.3783 40.8634 27.0191 43.6184 26.7776 46.7538C26.7164 47.5507 26.7141 48.3524 26.7118 49.1541V49.1541C26.7093 50.038 26.7067 50.9217 26.6253 51.7983C26.388 54.3555 27.2558 56.1881 29.5932 57.3823C30.3639 57.7756 31.0681 58.2993 31.7722 58.8229L31.7723 58.8229C32.0905 59.0596 32.4086 59.2962 32.7329 59.5207C32.8573 59.454 32.9817 59.3866 33.1061 59.3193C30.745 45.8229 34.4053 33.6974 41.8177 22.0786C41.1381 22.1956 40.5047 22.2975 39.905 22.3939ZM59.8043 28.8927C58.794 31.229 57.6185 33.4293 55.3284 34.8262C51.7445 37.012 49.4556 40.1165 48.833 44.3394C48.779 44.7077 48.7693 45.0852 48.7717 45.4577C48.7725 45.5808 48.81 45.7035 48.8467 45.8237C48.8632 45.8779 48.8796 45.9315 48.8924 45.9845C50.8579 45.8771 54.2337 43.13 54.5322 41.2968C54.5901 40.9397 54.4629 40.5526 54.3124 40.0946C54.2357 39.8614 54.153 39.6097 54.0856 39.3343C53.8722 39.4989 53.6945 39.6359 53.5406 39.7546C53.2053 40.0131 52.9827 40.1848 52.7482 40.3653C52.1996 38.5873 54.2404 35.7923 55.9504 36.0016C56.4304 36.0605 57.1155 36.7122 57.2041 37.1855C57.3503 37.9708 57.235 38.881 56.9759 39.6535C55.6336 43.6452 53.3174 46.7424 49.1516 48.2297C48.3141 48.5288 47.5599 49.0639 46.8068 49.5982C46.4843 49.827 46.162 50.0557 45.8334 50.2656C45.5277 50.461 45.2324 50.6723 44.9372 50.8835C44.8006 50.9813 44.664 51.0791 44.5263 51.1752C44.4171 51.1085 44.3079 51.0411 44.1987 50.9738C44.2302 50.8322 44.2591 50.6897 44.288 50.5472C44.3508 50.2373 44.4137 49.9272 44.5039 49.6254C44.6479 49.1437 44.8125 48.666 44.9771 48.1884C45.3001 47.251 45.6229 46.3144 45.7885 45.3503C46.6666 40.2494 48.9932 36.197 53.7634 33.8365C55.985 32.7375 57.6744 31.1556 58.7321 28.897C58.8311 28.6852 59.0049 28.5082 59.2415 28.2674C59.3729 28.1335 59.5238 27.9798 59.6921 27.7895C59.7186 28.0197 59.7529 28.2042 59.781 28.3555C59.8282 28.609 59.8579 28.7688 59.8043 28.8927Z" fill="#027F0D"/>
</svg>
