<svg width="84" height="96" fill="none" xmlns="http://www.w3.org/2000/svg"><path fill-rule="evenodd" clip-rule="evenodd" d="M83.653.979c-.15.095-.319.18-.489.264-.368.183-.736.367-.904.663a135.695 135.695 0 0 0-3.725 7.03c-2.174 4.437-5.457 7.627-9.869 9.93a59.866 59.866 0 0 0-9.759 6.365c-6.28 5.048-8.942 12.136-10.503 19.803-.752 3.698-1.833 7.338-2.947 10.948-.176.573-.703 1.037-1.23 1.501a9.681 9.681 0 0 0-.693.651c-.147-.284-.326-.564-.505-.845-.389-.61-.777-1.218-.847-1.862-.538-4.993.956-9.63 2.833-14.163.133-.322.558-.621.91-.737 1.36-.447 2.072-1.873 1.534-3.55-.46.296-.902.578-1.336.856l-.631.404c.412-1.25 1.11-2.285 1.852-3.288.3-.405.616-.8.932-1.193.594-.74 1.188-1.48 1.667-2.288.218-.365.188-.877.158-1.39-.014-.231-.027-.463-.018-.68-.197.081-.409.149-.62.216-.471.15-.942.3-1.254.61-.756.75-1.372 1.674-1.921 2.6-4.422 7.455-6.15 15.67-6.561 24.2-.078 1.619.383 3.347.948 4.895.908 2.485 2.963 2.94 4.8 1.022 1.132-1.179 2.228-2.65 2.667-4.184 1.127-3.936 2.173-7.941 2.71-11.991.751-5.675 2.888-10.52 7.589-13.792 2.642-1.84 5.456-3.433 8.346-5.067a252.056 252.056 0 0 0 3.95-2.267c.066.522.083 1.028.1 1.497.03.928.058 1.714.452 2.2 1.597 1.967 1.538 4.088 1.244 6.31-.315 2.371-.558 4.659.445 7.005.708 1.656.633 3.51-.325 5.471-.624-2.27-1.179-2.728-2.149-1.854l-.295.265c-1.076.961-2.245 2.005-2.724 3.255-1.494 3.902-4.263 6.448-7.776 8.366-.852.466-1.72.9-2.589 1.335-.97.487-1.941.973-2.889 1.502-1.655.922-1.644 2.374-.011 3.358.3.181.647.283.995.384.175.052.35.103.52.164 4.786 1.74 8.394 4.897 10.695 9.393.476.93.41 2.602-.137 3.472-.701 1.117-.664 1.76.055 2.677.532.679 1.04 1.406 1.398 2.185a185.02 185.02 0 0 1 2.064 4.716c.263.618.526 1.235.793 1.852l-.48.326c-3.16-.864-6.292-1.822-8.802-4.109-.281-.256-.462-.617-.644-.98-.135-.272-.272-.545-.451-.778l-.07-.09-.055-.074c-.359-.472-.767-1.01-1.254-1.152-2.601-.756-4.842-2.146-6.312-4.33-1.303-1.937-2.403-4.011-3.503-6.084-.418-.786-.835-1.572-1.263-2.35-.165-.3-.28-.628-.41-1a20.044 20.044 0 0 0-.22-.604 10.96 10.96 0 0 1-.368.29c-.203.154-.362.276-.484.427-.976 1.2-2.116 1.201-3.307.422a20.88 20.88 0 0 1-1.46-1.081h-.001c-.288-.227-.576-.453-.87-.67a21.919 21.919 0 0 0-.949-.65c-.144-.095-.288-.19-.43-.286l-.259.19-.002.002-.255.188c.157.296.298.607.439.918.305.676.61 1.352 1.088 1.87.76.824 1.516 1.654 2.271 2.484 2.812 3.09 5.627 6.183 8.702 8.989 4.692 4.281 9.883 8.086 16.165 9.643l.05.013c3.407.844 6.551 1.623 8.395 4.918.025.046.072.11.112.113.452.026.905.047 1.357.068l.339.016a5.747 5.747 0 0 1 .032-.619c.041-.473.082-.946-.133-1.21-.43-.522-1.077-.88-1.708-1.23-.138-.075-.275-.151-.409-.228-1.823-1.048-2.992-2.501-3.568-4.593-.402-1.463-.946-2.887-1.49-4.312-.306-.801-.612-1.602-.893-2.41-.168-.481-.325-1.074-.193-1.53.52-1.786.317-3.53-.638-5.012-1.22-1.893-2.593-3.733-4.157-5.347-1.05-1.085-2.213-2.06-3.376-3.035-.83-.697-1.66-1.393-2.452-2.13-1.899-1.771-1.729-2.465.628-3.564 4.001-1.864 7.955-3.766 9.881-8.185.209-.479.808-.813 1.36-1.122.12-.066.235-.131.345-.196.271-.16.577-.275.88-.389.437-.165.87-.328 1.19-.62 2.16-1.973 2.621-4.64 2.238-7.32-.465-3.265.573-6.022 1.881-8.877.613-1.337.635-3.011.65-4.535.005-.591-.173-1.18-.352-1.773-.14-.46-.28-.921-.334-1.388-.1-.849-.224-1.7-.348-2.553-.342-2.345-.685-4.696-.52-7.008.304-4.252 2.542-7.867 5.327-11.086l.056-.065c.76-.877 1.53-1.769 2.107-2.763.173-.298.108-.734.043-1.17a5.52 5.52 0 0 1-.066-.583zM48.41 25.4c-.786.136-1.52.253-2.214.365-1.632.263-3.048.49-4.438.83-.742.18-1.628.736-1.984 1.379-1.376 2.488-2.646 5.037-3.915 7.584l-.002.003-.75 1.503c-.23.462-.419.944-.644 1.52-.117.299-.244.624-.391.984-.098-.224-.179-.394-.244-.531-.108-.226-.174-.364-.203-.51a521.82 521.82 0 0 0-.417-2.068c-.441-2.173-.883-4.346-1.236-6.533-.188-1.158-.553-1.643-1.77-1.378a51.304 51.304 0 0 1-4.16.707c-1.19.158-1.575.699-1.225 1.875.716 2.411 1.398 4.832 2.08 7.253v.002l.462 1.64c.065.229.106.464.164.796.034.19.072.41.124.68-2.512-2.626-5.203-3.655-8.373-3.014-3.214.65-5.258 2.755-6.587 5.735-.147-1.242-.162-2.416-.144-3.59.007-.491.003-.906 0-1.259-.009-.971-.013-1.469.229-1.766.254-.312.78-.403 1.857-.59.318-.054.683-.117 1.104-.197l.085-.016c1.78-.336 2.677-.506 3.142-1.046.472-.548.501-1.478.56-3.352l.002-.096c.041-1.325-.358-1.72-1.688-1.48-2.16.392-4.326.753-6.491 1.114a404.86 404.86 0 0 0-7.586 1.315c-.671.125-1.223.206-1.675.273-.965.14-1.482.217-1.757.515-.319.346-.313.99-.3 2.38.002.383.006.822.004 1.327A49.2 49.2 0 0 0 .11 40.35c.02.428.042.869.06 1.329l2.326-.891.074-.03 3.822-1.464V66.97c.558-.48 1.083-.939 1.588-1.379 1.136-.992 2.166-1.891 3.237-2.74.987-.784 1.338-1.7 1.316-2.942-.043-2.557-.035-5.114-.027-7.671.003-1.008.006-2.017.006-3.026l.325-.07.18.415c.127.3.256.6.4.892 2.727 5.56 10.501 6.358 14.19 1.434.301-.403.54-1.411.403-1.497-1.09-.688-2.238-1.339-3.456-1.732-.288-.093-.728.248-1.145.57-.144.112-.286.222-.417.31-1.43.967-3.451.75-4.593-.514-1.118-1.237-1.165-3.183-.107-4.482 1.059-1.301 3.227-1.906 4.34-.723 1.515 1.61 2.837 1.06 4.294.455l.331-.137c.269-.11.553-.18.827-.249.122-.03.242-.06.358-.093 2.098 3.353 2.84 6.542 2.56 10.17-.071.923-.074 1.851-.076 2.779-.003 1.023-.006 2.046-.1 3.06-.275 2.96.73 5.082 3.435 6.464.892.455 1.707 1.061 2.522 1.667.368.274.736.548 1.112.808l.427-.23.005-.003C35.593 52.884 39.83 38.849 48.409 25.4zm20.819 7.887c-1.17 2.704-2.53 5.251-5.18 6.868-4.149 2.53-6.798 6.123-7.519 11.011a8.57 8.57 0 0 0-.07 1.295c0 .142.043.284.086.423.019.063.038.125.053.186 2.275-.124 6.182-3.304 6.528-5.426.067-.413-.08-.86-.255-1.391-.089-.27-.184-.561-.262-.88l-.63.486-.918.707c-.635-2.058 1.727-5.293 3.706-5.05.556.068 1.349.822 1.451 1.37.17.909.036 1.962-.264 2.856-1.553 4.62-4.234 8.206-9.056 9.927-.97.346-1.843.966-2.714 1.584-.373.265-.746.53-1.127.773-.354.226-.696.47-1.037.715-.158.113-.316.226-.476.337l-.379-.233c.037-.164.07-.329.103-.493.073-.36.146-.718.25-1.068.167-.557.358-1.11.548-1.663.374-1.085.747-2.169.94-3.285 1.016-5.904 3.708-10.594 9.23-13.327 2.571-1.272 4.527-3.103 5.75-5.717.115-.245.317-.45.59-.729.153-.155.327-.332.522-.553.03.267.07.48.103.655.055.294.089.479.027.622z" fill="#fff"/></svg>